<svg width="139" height="36" viewBox="0 0 139 36" fill="none" xmlns="http://www.w3.org/2000/svg">
<g clip-path="url(#clip0_146_1198)">
<path d="M78.5594 0H1.71605C0.768301 0 0 0.767511 0 1.71429V34.2857C0 35.2325 0.768299 36 1.71605 36H78.5594C79.2981 36 79.9538 35.5279 80.1874 34.8278L85.6216 18.5421C85.739 18.1903 85.739 17.8097 85.6216 17.4579L80.1874 1.17218C79.9538 0.472166 79.2981 0 78.5594 0Z" fill="#0F5672"/>
<path d="M84.7515 36H137.284C138.232 36 139 35.2325 139 34.2857V1.7143C139 0.767515 138.232 4.90414e-06 137.284 4.81723e-06L84.7515 0C83.5803 -1.074e-07 82.7532 1.14633 83.1235 2.25639L88.196 17.4579C88.3134 17.8097 88.3134 18.1903 88.196 18.5421L83.1235 33.7437C82.7532 34.8537 83.5803 36 84.7515 36Z" fill="#28B0D5"/>
<path d="M117.549 6.85718H95.2408C94.767 6.85718 94.3828 7.24093 94.3828 7.71432C94.3828 8.18771 94.767 8.57146 95.2408 8.57146H117.549C118.023 8.57146 118.408 8.18771 118.408 7.71432C118.408 7.24093 118.023 6.85718 117.549 6.85718Z" fill="white"/>
<path d="M131.278 13.7144H95.2408C94.767 13.7144 94.3828 14.0981 94.3828 14.5715C94.3828 15.0449 94.767 15.4286 95.2408 15.4286H131.278C131.752 15.4286 132.136 15.0449 132.136 14.5715C132.136 14.0981 131.752 13.7144 131.278 13.7144Z" fill="white"/>
<path d="M124.414 20.5715H95.2408C94.767 20.5715 94.3828 20.9553 94.3828 21.4287C94.3828 21.9021 94.767 22.2858 95.2408 22.2858H124.414C124.888 22.2858 125.272 21.9021 125.272 21.4287C125.272 20.9553 124.888 20.5715 124.414 20.5715Z" fill="white"/>
<path d="M112.401 27.4285H95.2408C94.767 27.4285 94.3828 27.8122 94.3828 28.2856C94.3828 28.759 94.767 29.1428 95.2408 29.1428H112.401C112.875 29.1428 113.259 28.759 113.259 28.2856C113.259 27.8122 112.875 27.4285 112.401 27.4285Z" fill="white"/>
<path d="M16.0951 26.4294V24.3085L21.7277 18.7924C22.2664 18.249 22.7153 17.7662 23.0744 17.3442C23.4336 16.9221 23.703 16.5132 23.8825 16.1175C24.062 15.7218 24.1519 15.2997 24.1519 14.8513C24.1519 14.3395 24.0356 13.9016 23.8032 13.5375C23.5709 13.1682 23.2513 12.8833 22.8447 12.6828C22.438 12.4824 21.9759 12.3821 21.4583 12.3821C20.9249 12.3821 20.4575 12.4929 20.0561 12.7145C19.6547 12.9308 19.3431 13.2395 19.1213 13.6404C18.9048 14.0414 18.7965 14.5189 18.7965 15.0729H16C16 14.044 16.235 13.1498 16.7051 12.39C17.1751 11.6303 17.8221 11.042 18.646 10.6252C19.4752 10.2084 20.4258 10 21.4979 10C22.5859 10 23.5419 10.2031 24.3657 10.6094C25.1896 11.0156 25.8287 11.5722 26.2829 12.2792C26.7423 12.9862 26.9721 13.7934 26.9721 14.7009C26.9721 15.3076 26.8559 15.9038 26.6235 16.4894C26.3912 17.0751 25.9819 17.724 25.3955 18.4364C24.8147 19.1485 23.9987 20.0111 22.9477 21.0241L20.1512 23.8653V23.9761H27.2176V26.4294H16.0951ZM29.3963 12.6828V10.2216H42.341V12.6828H37.3264V26.4294H34.411V12.6828H29.3963ZM47.2923 10.2216L50.8651 16.1571H50.992L54.5806 10.2216H57.9317L52.9328 18.3254L58.0109 26.4294H54.6044L50.992 20.5334H50.8651L47.2527 26.4294H43.8621L48.9876 18.3254L43.9254 10.2216H47.2923ZM59.526 12.6828V10.2216H72.4707V12.6828H67.4561V26.4294H64.5407V12.6828H59.526Z" fill="#ECFBFF"/>
</g>
<defs>
<clipPath id="clip0_146_1198">
<rect width="139" height="36" fill="white"/>
</clipPath>
</defs>
</svg>
