<svg xmlns="http://www.w3.org/2000/svg" xmlns:xlink="http://www.w3.org/1999/xlink" viewBox="0 0 410.85 75.47"><defs><style>.cls-1{fill:#414042;}.cls-2{fill:url(#linear-gradient);}</style><linearGradient id="linear-gradient" x1="30.65" y1="0.34" x2="30.65" y2="74.41" gradientUnits="userSpaceOnUse"><stop offset="0" stop-color="#78c000"/><stop offset="1" stop-color="#005732"/></linearGradient></defs><g id="Layer_2" data-name="Layer 2"><path class="cls-1" d="M137.57,63.67V12.11h18.3q8.35,0,13.91,3.45a22,22,0,0,1,8.39,9.3,29.26,29.26,0,0,1,2.83,13,28.64,28.64,0,0,1-3.09,13.65,21.83,21.83,0,0,1-8.75,9,26.57,26.57,0,0,1-13.29,3.19Zm35.15-25.85a21.86,21.86,0,0,0-2-9.59A15.7,15.7,0,0,0,165,21.7a16.55,16.55,0,0,0-9.12-2.4H145.78V56.48h10.09A16.27,16.27,0,0,0,165.06,54a15.82,15.82,0,0,0,5.7-6.68A22.21,22.21,0,0,0,172.72,37.82Z"/><path class="cls-1" d="M273.67,64a23.41,23.41,0,0,1-10.43-2.11,18,18,0,0,1-6.82-5.74,24.87,24.87,0,0,1-3.78-8.28,38.37,38.37,0,0,1-1.2-9.65V12.11h8.21V38.26a33.46,33.46,0,0,0,.69,6.86A18.49,18.49,0,0,0,262.63,51a11.72,11.72,0,0,0,4.28,4.14,13.44,13.44,0,0,0,6.68,1.52,13.78,13.78,0,0,0,6.83-1.52A11.81,11.81,0,0,0,284.74,51a18.79,18.79,0,0,0,2.32-6,32.61,32.61,0,0,0,.69-6.75V12.11H296V38.26a37.85,37.85,0,0,1-1.27,10,24.46,24.46,0,0,1-3.92,8.24,17.93,17.93,0,0,1-6.9,5.56A23.85,23.85,0,0,1,273.67,64Z"/><path class="cls-1" d="M306.78,63.67V12.11h22.44a14.21,14.21,0,0,1,6.39,1.45,16.74,16.74,0,0,1,5.05,3.85A18.07,18.07,0,0,1,344,22.82a16.29,16.29,0,0,1,1.2,6.07A17.41,17.41,0,0,1,344,35.46a15.3,15.3,0,0,1-3.52,5.34,13.51,13.51,0,0,1-5.34,3.26l12.13,19.61h-9.15L326.9,45.73H315V63.67ZM315,38.55h14.16a6.33,6.33,0,0,0,4-1.35,9.35,9.35,0,0,0,2.76-3.52,11.15,11.15,0,0,0,1-4.79,9.93,9.93,0,0,0-1.2-4.87,10.06,10.06,0,0,0-3-3.45,6.89,6.89,0,0,0-4-1.27H315Z"/><path class="cls-1" d="M354.78,63.67V12.11H363V63.67Z"/><path class="cls-1" d="M405,24.24A9.27,9.27,0,0,0,403,22.53a21.66,21.66,0,0,0-3.27-1.67,28.19,28.19,0,0,0-4.07-1.3,18.62,18.62,0,0,0-4.54-.55c-3.39,0-5.9.63-7.55,1.88a6.16,6.16,0,0,0-2.47,5.2A5.44,5.44,0,0,0,382.45,30a9.93,9.93,0,0,0,4.25,2.34q2.87.91,7.08,1.92a49.25,49.25,0,0,1,9.11,3,14.59,14.59,0,0,1,5.89,4.56,12.38,12.38,0,0,1,2.07,7.51,14.06,14.06,0,0,1-1.49,6.65,12.53,12.53,0,0,1-4.11,4.59,19,19,0,0,1-6,2.64,29.66,29.66,0,0,1-7.34.87,35.45,35.45,0,0,1-7.66-.84A36.15,36.15,0,0,1,377,60.8,33.73,33.73,0,0,1,370.54,57l3.78-7A13,13,0,0,0,377,52.09a33.11,33.11,0,0,0,9.34,3.85,23.65,23.65,0,0,0,5.7.69q4.86,0,7.44-1.69A5.53,5.53,0,0,0,402.06,50a5.27,5.27,0,0,0-1.71-4.09,13.81,13.81,0,0,0-4.86-2.64c-2.11-.72-4.64-1.45-7.59-2.17a46.18,46.18,0,0,1-8.5-3,12.32,12.32,0,0,1-5.08-4.2,11.7,11.7,0,0,1-1.67-6.58,14.69,14.69,0,0,1,2.43-8.57,14.81,14.81,0,0,1,6.72-5.28,24.64,24.64,0,0,1,9.51-1.77,28.24,28.24,0,0,1,6.65.76,30,30,0,0,1,5.88,2.07,25.45,25.45,0,0,1,4.83,3Z"/><polygon class="cls-1" points="111.14 12.11 103.44 12.11 83.33 63.67 91.9 63.67 96.96 49.66 96.96 49.66 99.14 43.63 99.13 43.63 107.29 21.04 115.41 43.63 102.08 43.63 99.91 49.66 117.58 49.66 122.61 63.67 131.18 63.67 111.14 12.11"/><polygon class="cls-1" points="227.86 12.11 220.16 12.11 200.04 63.67 208.61 63.67 213.68 49.66 213.68 49.66 215.85 43.63 215.85 43.63 224.01 21.04 232.13 43.63 218.8 43.63 216.63 49.66 234.29 49.66 239.33 63.67 247.9 63.67 227.86 12.11"/><path class="cls-2" d="M13.38,0h7.78V37.74H13.38ZM0,37.74H7.78V12.42H0Zm47.92,0H40.15V63.05h7.77Zm-13.38-18H26.76V75.47h7.78V19.79Zm19,18V55.69H61.3V37.74ZM44.08,67.56a4,4,0,0,0-4.1,4,4.06,4.06,0,0,0,8.11,0A4,4,0,0,0,44.08,67.56Z"/></g></svg>