<?xml version="1.0" encoding="utf-8"?>
<!-- Generator: Adobe Illustrator 23.0.3, SVG Export Plug-In . SVG Version: 6.00 Build 0)  -->
<svg version="1.1" id="Ebene_1" xmlns="http://www.w3.org/2000/svg" xmlns:xlink="http://www.w3.org/1999/xlink" x="0px" y="0px"
	 viewBox="0 0 13.6 23.4" style="enable-background:new 0 0 13.6 23.4;" xml:space="preserve">
<style type="text/css">
	.st0{fill:#E80088;}
</style>
<path class="st0" d="M10.3,0c2.2,3.1,3.3,7.7,3.3,11.4s-0.9,8.8-3.3,11.9L7.8,22c1.8-2.8,2.6-7,2.6-10.3c0.1-3.6-0.8-7.2-2.6-10.3
	C7.8,1.4,10.3,0,10.3,0z M5.3,8.1c0,1.5-1.2,2.7-2.7,2.7S0,9.5,0,8.1c0,0,0,0,0,0c0-1.5,1.2-2.7,2.7-2.7C4.1,5.4,5.3,6.6,5.3,8.1z
	 M5.3,15.7c0,1.5-1.2,2.7-2.7,2.7c-1.5,0-2.7-1.2-2.7-2.7c0,0,0,0,0,0c0-1.5,1.2-2.7,2.7-2.7C4.1,13.1,5.3,14.3,5.3,15.7z"/>
</svg>
