<?xml version="1.0" encoding="utf-8"?>
<!-- Generator: Adobe Illustrator 23.0.3, SVG Export Plug-In . SVG Version: 6.00 Build 0)  -->
<svg version="1.1" id="Ebene_1" xmlns="http://www.w3.org/2000/svg" xmlns:xlink="http://www.w3.org/1999/xlink" x="0px" y="0px"
	 viewBox="0 0 206.6 174.1" style="enable-background:new 0 0 206.6 174.1;" xml:space="preserve">
<style type="text/css">
	.st0{fill:#221F1F;}
</style>
<path class="st0" d="M159.6,7.9c-41.1-17.8-89.9-4-123.3,24.6C-5,68-18.2,136.2,35.1,162.4c51.1,25.3,113.6,7.5,150.5-34.1
	C221.5,87.8,210.4,29.7,159.6,7.9L159.6,7.9z M135.2,125.9c-9.3,1.8-18.1-0.8-25.3-6.1c-17.5,10.4-39.2,7.2-50-7.8
	c-11.4-16.1-6.1-39.4,11.8-52.3c9.8-7,21.3-9.4,31.6-7.6c9.3,1.6,14.4,11.7,10,20.1l-3.5,6.9c-4-4.8-10.7-7.6-18.1-7
	c-11.2,1-19.5,9.5-18.7,19s10.6,16.5,21.7,15.5c8-0.7,14.7-5.3,17.4-11.4l0.1,0.1l9.7-19.5c4.1,3.8,9.4,6.3,15.1,7l-4.3,8.1
	l-1.1,2.1C123,110.3,135.2,125.9,135.2,125.9z M141.2,74.8c-8.3-1.5-14.3-5.3-18.1-14.9c-3.9-13.5-10.5-15.2-20-15.4
	c8.7-5.9,20.5-6.1,29.5,0.5C142.2,51.9,145.5,64.3,141.2,74.8z"/>
</svg>
