<?xml version="1.0" encoding="utf-8"?>
<!-- Generator: Adobe Illustrator 27.4.1, SVG Export Plug-In . SVG Version: 6.00 Build 0)  -->
<svg version="1.1" id="Layer_1" xmlns="http://www.w3.org/2000/svg" xmlns:xlink="http://www.w3.org/1999/xlink" x="0px" y="0px"
	 viewBox="0 0 500 86.72" enable-background="new 0 0 500 86.72" xml:space="preserve">
<g>
	<g>
		<path fill="#676767" d="M0,40.56c0.34-1.76,0.4-3.55,0.76-5.31C3.53,21.83,10.94,11.78,22.91,5.16
			c7.44-4.11,15.51-5.78,23.94-4.96c15.44,1.49,27.03,9.13,34.63,22.65c3.82,6.8,5.56,14.22,5.14,22
			c-0.9,16.44-8.64,28.75-23.02,36.77c-7.4,4.12-15.46,5.72-23.85,4.89c-15.51-1.53-27.1-9.26-34.68-22.87
			C2.15,58.41,0.6,52.75,0.15,46.79c-0.02-0.22-0.1-0.43-0.15-0.64C0,44.29,0,42.42,0,40.56z"/>
		<path d="M2.5,43.43C2.48,21.15,20.22,2.66,43.11,2.54C66.4,2.41,84.23,21.25,84.17,43.48c-0.06,21.99-17.64,40.58-40.62,40.7
			C20.37,84.29,2.53,65.62,2.5,43.43z"/>
		<path fill="#666666" d="M72.41,43.66c0-0.64,0.01-1.28,0-1.93c-0.02-2.43-1.84-4.27-4.24-4.3c-2.42-0.02-4.3,1.75-4.38,4.17
			c-0.04,1.15,0,2.31-0.01,3.47c-0.04,2.86-2.32,5.12-5.16,5.13c-2.95,0.01-5.21-2.15-5.31-5.07c-0.04-1.31,0.05-2.63-0.1-3.94
			c-0.26-2.28-2.15-3.86-4.55-3.75c-2.21,0.11-3.93,1.91-3.99,4.15c-0.04,1.47,0.17,2.95-0.15,4.41c-0.59,2.73-2.92,4.42-5.72,4.18
			c-2.55-0.22-4.62-2.46-4.7-5.13c-0.03-1.12,0-2.25-0.01-3.37c-0.02-2.33-1.74-4.15-3.98-4.24c-2.46-0.11-4.29,1.45-4.55,3.84
			c-0.13,1.22-0.06,2.44-0.09,3.65c-0.07,3.08-2.28,5.27-5.31,5.26c-2.92-0.01-5.13-2.3-5.17-5.32c-0.01-0.76,0.1-1.54-0.14-2.29
			c-0.26-0.78-0.73-1.27-1.58-1.3c-1.02-0.04-2.05-0.06-3.08-0.09c-0.31-0.01-0.71,0.06-0.74-0.4c-0.03-0.54,0.42-0.47,0.76-0.47
			c0.9-0.01,1.8-0.01,2.7,0c1.86,0.02,2.97,1.09,3.05,2.96c0.03,0.64,0,1.28,0.02,1.92c0.08,2.22,1.88,3.98,4.1,4.03
			c2.34,0.05,4.17-1.55,4.42-3.8c0.14-1.28,0.08-2.56,0.1-3.84c0.05-2.97,2.27-5.14,5.23-5.12c2.94,0.02,5.2,2.24,5.23,5.15
			c0.01,1.12-0.02,2.25,0.01,3.37c0.05,2.41,1.94,4.25,4.32,4.25c2.37,0,4.23-1.85,4.33-4.25c0.06-1.53-0.21-3.08,0.17-4.6
			c0.67-2.67,3.08-4.23,5.93-3.87c2.41,0.3,4.32,2.54,4.36,5.09c0.02,1.25,0.04,2.5,0.11,3.75c0.13,2.27,2.04,3.93,4.42,3.88
			c2.2-0.04,4.03-1.84,4.09-4.04c0.03-1.15,0-2.31,0.01-3.47c0.05-3.02,2.35-5.28,5.35-5.25c2.95,0.02,5.19,2.3,5.21,5.28
			c0.01,1.28-0.01,2.57,0.01,3.85c0.02,1.22,0.48,1.66,1.71,1.67c0.99,0.01,1.99,0,2.99,0c0.34,0,0.69,0.04,0.69,0.48
			c-0.01,0.43-0.35,0.48-0.69,0.48c-1.16,0-2.31,0.04-3.47-0.01c-1.25-0.06-2.11-0.97-2.18-2.26c-0.04-0.77-0.01-1.54-0.01-2.31
			C72.41,43.66,72.41,43.66,72.41,43.66z"/>
		<path fill="#D2323C" d="M23.48,41.6c0,0.99,0.01,1.98,0,2.98c-0.03,1.82-1.38,3.21-3.12,3.23c-1.63,0.03-3.05-1.26-3.12-3.02
			c-0.08-2.11-0.09-4.23,0-6.34c0.08-1.9,1.49-3.15,3.24-3.09c1.74,0.07,2.98,1.44,2.99,3.35C23.48,39.68,23.47,40.64,23.48,41.6
			C23.47,41.6,23.48,41.6,23.48,41.6z"/>
		<path fill="#F77124" d="M32.77,45.18c0,1.06,0.02,2.12,0,3.17c-0.05,1.67-1.36,2.95-3.02,2.99c-1.64,0.03-3.09-1.24-3.14-2.88
			c-0.06-2.21-0.07-4.43,0-6.64c0.05-1.71,1.5-2.93,3.22-2.88c1.66,0.05,2.91,1.34,2.94,3.06C32.79,43.07,32.77,44.13,32.77,45.18z"
			/>
		<path fill="#914DB6" d="M65.13,45.57c-0.01-1.19-0.05-2.37-0.02-3.56c0.04-1.79,1.4-3.09,3.15-3.06c1.76,0.02,3.02,1.32,3.03,3.16
			c0.01,1.15-0.02,2.31-0.03,3.46c-0.88,0.61-1.89,0.47-2.86,0.47c-0.76,0-1.52-0.14-2.29-0.03C65.72,46.06,65.32,46,65.13,45.57z"
			/>
		<path fill="#FED456" d="M36.43,42.1c-0.01-1.24-0.06-2.49-0.02-3.73c0.05-1.7,1.42-3,3.1-3c1.68-0.01,3.04,1.3,3.07,3.01
			c0.02,1.24-0.02,2.49-0.03,3.73c-0.09,0.09-0.2,0.19-0.32,0.2c-1.83,0.18-3.66,0.18-5.49,0C36.62,42.29,36.52,42.19,36.43,42.1z"
			/>
		<path fill="#8DCE51" d="M51.99,44.61c0.01,1.24,0.05,2.49,0.03,3.73c-0.03,1.71-1.37,3-3.07,3.01c-1.63,0.01-3.03-1.27-3.09-2.91
			c-0.05-1.27,0.01-2.55,0.02-3.83c0.12-0.11,0.25-0.22,0.41-0.22c1.76-0.01,3.52-0.19,5.27,0.03
			C51.72,44.44,51.86,44.51,51.99,44.61z"/>
		<path fill="#FEAE52" d="M36.43,42.1c2.04,0,4.08,0,6.12,0c0.01,0.9,0.06,1.79,0.04,2.69c-0.04,1.66-1.36,2.95-3.03,2.99
			c-1.61,0.04-3.05-1.25-3.14-2.9C36.36,43.96,36.42,43.03,36.43,42.1z"/>
		<path fill="#6BB83C" d="M51.99,44.61c-2.04,0-4.08,0-6.12,0c-0.01-0.9-0.06-1.79-0.02-2.68c0.07-1.72,1.43-2.97,3.14-2.96
			c1.72,0.01,2.99,1.28,3.03,3.05C52.05,42.88,52,43.75,51.99,44.61z"/>
		<path fill="#7449AB" d="M65.13,45.57c1.69,0.15,3.39,0.29,5.08,0.11c0.34-0.04,0.69-0.1,1.04-0.11c0.01,0.93,0.06,1.86,0.03,2.79
			c-0.04,1.66-1.37,2.95-3.03,2.99c-1.62,0.03-3.06-1.25-3.14-2.89C65.06,47.5,65.12,46.53,65.13,45.57z"/>
		<path fill="#1DC3ED" d="M55.5,40.37c-0.01-0.64-0.04-1.28-0.03-1.91c0.04-1.76,1.38-3.08,3.1-3.09c1.71-0.01,3.05,1.33,3.08,3.1
			c0.01,0.64-0.02,1.27-0.03,1.91c-0.09,0.09-0.2,0.19-0.32,0.2c-1.83,0.18-3.66,0.18-5.49,0C55.69,40.56,55.59,40.46,55.5,40.37z"
			/>
		<path fill="#56A8CC" d="M55.5,40.37c2.04,0,4.08,0,6.12,0.01c0,1.35,0,2.7,0,4.04c-0.09,0.09-0.2,0.19-0.32,0.2
			c-1.83,0.18-3.66,0.18-5.49,0c-0.12-0.01-0.22-0.11-0.31-0.2C55.5,43.06,55.5,41.71,55.5,40.37z"/>
		<path fill="#7E95B5" d="M55.5,44.41c2.04,0,4.08,0,6.12,0c0.1,1.93-1.14,3.31-3,3.34C56.78,47.79,55.44,46.36,55.5,44.41z"/>
	</g>
	<g>
		<path d="M112.74,17.87v19.61c2.08-3.66,7.9-5.67,11.64-5.67c10.34,0,18.03,6.32,18.03,18.53c0,11.64-7.83,18.53-18.24,18.53
			c-4.31,0-8.69-1.44-11.42-5.67l-0.57,4.88h-8.19v-50.2H112.74z M113.31,50.33c0,6.39,4.74,10.41,10.27,10.41
			c5.6,0,10.06-4.24,10.06-10.41c0-6.39-4.45-10.34-10.06-10.34C118.05,39.99,113.31,44.16,113.31,50.33z"/>
		<path d="M156.33,53.49c0.57,4.38,4.38,7.54,10.56,7.54c3.23,0,7.47-1.22,9.48-3.3l5.6,5.53c-3.73,3.88-9.84,5.75-15.23,5.75
			c-12.21,0-19.46-7.54-19.46-18.89c0-10.77,7.33-18.53,18.82-18.53c11.85,0,19.25,7.33,17.88,21.91H156.33z M175.58,46.24
			c-0.57-4.6-4.17-6.89-9.19-6.89c-4.74,0-8.62,2.3-9.91,6.89H175.58z"/>
		<path d="M218.82,32.66h8.4v35.41h-8.26l-0.43-5.17c-2.01,4.17-7.54,6.18-11.49,6.25c-10.49,0.07-18.24-6.39-18.24-18.82
			c0-12.21,8.12-18.6,18.46-18.53c4.74,0,9.27,2.23,11.28,5.75L218.82,32.66z M197.56,50.33c0,6.75,4.67,10.77,10.49,10.77
			c13.79,0,13.79-21.48,0-21.48C202.23,39.63,197.56,43.58,197.56,50.33z"/>
		<path d="M245.47,22.68v10.06h9.77v7.54h-9.84v15.3c0,3.38,1.87,5.03,4.6,5.03c1.36,0,2.94-0.43,4.24-1.08l2.44,7.47
			c-2.51,1.01-4.6,1.44-7.25,1.51c-7.69,0.29-12.71-4.09-12.71-12.93v-15.3h-6.61v-7.54h6.61v-9.12L245.47,22.68z"/>
		<path d="M296.96,50.41c0,10.2-6.97,18.46-18.46,18.46s-18.39-8.26-18.39-18.46c0-10.13,7.04-18.46,18.32-18.46
			C289.71,31.95,296.96,40.28,296.96,50.41z M268.88,50.41c0,5.39,3.23,10.41,9.62,10.41s9.62-5.03,9.62-10.41
			c0-5.31-3.73-10.49-9.62-10.49C272.18,39.92,268.88,45.09,268.88,50.41z"/>
		<path d="M338.98,32.59l-15.08,35.62h-9.48l-15.15-35.62h9.55l4.88,11.71l5.46,14.94l5.39-14.8l4.88-11.85H338.98z"/>
		<path d="M350.68,53.49c0.57,4.38,4.38,7.54,10.56,7.54c3.23,0,7.47-1.22,9.48-3.3l5.6,5.53c-3.73,3.88-9.84,5.75-15.23,5.75
			c-12.21,0-19.46-7.54-19.46-18.89c0-10.77,7.33-18.53,18.82-18.53c11.85,0,19.25,7.33,17.88,21.91H350.68z M369.93,46.24
			c-0.57-4.6-4.17-6.89-9.19-6.89c-4.74,0-8.62,2.3-9.91,6.89H369.93z"/>
		<path d="M411.16,68.07V49.54c0-5.39-2.94-9.48-8.55-9.48c-5.39,0-9.05,4.52-9.05,9.91v18.1h-8.69V32.59h7.83l0.57,4.81
			c3.59-3.52,7.18-5.32,11.64-5.32c8.33,0,15.01,6.25,15.01,17.38v18.6H411.16z"/>
		<path d="M437.59,63.55c0,6.82-10.34,6.82-10.34,0S437.59,56.73,437.59,63.55z"/>
		<path d="M474.65,32.66h8.4v35.41h-8.26l-0.43-5.17c-2.01,4.17-7.54,6.18-11.49,6.25c-10.49,0.07-18.24-6.39-18.24-18.82
			c0-12.21,8.12-18.6,18.46-18.53c4.74,0,9.27,2.23,11.28,5.75L474.65,32.66z M453.39,50.33c0,6.75,4.67,10.77,10.49,10.77
			c13.79,0,13.79-21.48,0-21.48C458.06,39.63,453.39,43.58,453.39,50.33z"/>
		<path d="M500,22.68c0,6.82-10.34,6.82-10.34,0S500,15.86,500,22.68z M490.45,32.52v35.55h8.76V32.52H490.45z"/>
	</g>
</g>
</svg>
