<svg xmlns="http://www.w3.org/2000/svg" width="189.333" height="28.309" viewBox="0 0 189.333 28.309">
  <g id="Group_1" data-name="Group 1" transform="translate(-679.595 -195.746)">
    <path id="Path_1" data-name="Path 1" d="M691.2,224.054a6.42,6.42,0,0,1-6.036-3.242l-.332-.585v3.266h-5.233V195.746h5.433v11.927l.328-.53A6.085,6.085,0,0,1,687.7,205a7.3,7.3,0,0,1,3.494-.822,7.57,7.57,0,0,1,5.936,2.709,12.222,12.222,0,0,1,0,14.46A7.568,7.568,0,0,1,691.2,224.054Zm-1.1-15.705a4.348,4.348,0,0,0-3.115,1.333c-1.978,1.939-2,6.919,0,8.851a4.067,4.067,0,0,0,6.209-.32,7.771,7.771,0,0,0,0-8.21A3.63,3.63,0,0,0,690.095,208.349Z"/>
    <path id="Path_2" data-name="Path 2" d="M734.766,233.289a9.584,9.584,0,0,1-7.089-2.68,9.965,9.965,0,0,1-2.663-7.312,9.854,9.854,0,0,1,2.663-7.231,9.322,9.322,0,0,1,6.888-2.681,8.565,8.565,0,0,1,6.919,2.831,10.859,10.859,0,0,1,2.39,7.2v1.23H730.522l.008.185a5.717,5.717,0,0,0,1.039,3.233,3.64,3.64,0,0,0,3.117,1.318,3.96,3.96,0,0,0,3.742-2.243l4.648,1.874C741.466,231.851,738.671,233.289,734.766,233.289Zm-.2-16.158a3.665,3.665,0,0,0-2.844,1.143,4.871,4.871,0,0,0-1.151,3.042l-.012.189h7.886l0-.181a4.392,4.392,0,0,0-1.115-3.094A3.717,3.717,0,0,0,734.565,217.131Z" transform="translate(-23.685 -9.235)"/>
    <path id="Path_3" data-name="Path 3" d="M775.093,233.289a7.113,7.113,0,0,1-4.729-1.444,4.9,4.9,0,0,1-1.686-3.925,5.109,5.109,0,0,1,.951-3.09,6.248,6.248,0,0,1,2.64-2.032,16.247,16.247,0,0,1,3.757-1.074,28.371,28.371,0,0,1,4.573-.339h.178v-1.423a2.591,2.591,0,0,0-.757-1.936,2.978,2.978,0,0,0-2.153-.734,3.408,3.408,0,0,0-2.307.727,2.308,2.308,0,0,0-.836,1.576l-5.143-.788a5.331,5.331,0,0,1,2.592-3.921,10.78,10.78,0,0,1,5.855-1.5,9.226,9.226,0,0,1,5.879,1.75,6.4,6.4,0,0,1,2.184,5.308v9.767a8.011,8.011,0,0,0,.368,2.516h-5.237a5.41,5.41,0,0,1-.284-2.235v-.62l-.328.526A6.068,6.068,0,0,1,775.093,233.289Zm5.506-8.762a14.138,14.138,0,0,0-4.887.655c-1.207.471-2.248,1.845-1.593,3.177,1.016,2.068,4.673,1.16,5.872-.187.874-.982.787-2.422.787-3.646Z" transform="translate(-46.514 -9.235)"/>
    <path id="Path_4" data-name="Path 4" d="M865.212,224.457a10.534,10.534,0,0,1-4.127.765c-4.314,0-6.412-1.977-6.412-6.045v-9.41H851.5V205.9h3.175v-4.015l5.434-3.905V205.9h4.14v3.861h-4.14v8.646a2.944,2.944,0,0,0,.465,1.924,1.712,1.712,0,0,0,1.36.544,4.964,4.964,0,0,0,1.984-.61Z" transform="translate(-89.755 -1.167)"/>
    <path id="Path_5" data-name="Path 5" d="M884.944,224.054V205.3h5.433v18.754Zm2.717-21.919a3.238,3.238,0,0,1-2.386-.891,3.391,3.391,0,0,1,.019-4.607,3.59,3.59,0,0,1,4.737,0,3.392,3.392,0,0,1,.018,4.606A3.24,3.24,0,0,1,887.66,202.136Z" transform="translate(-106.919)"/>
    <path id="Path_6" data-name="Path 6" d="M905.487,224.054V209.16h-3.176V205.3h3.176v-1.582c0-2.771.723-4.813,2.151-6.07a7.56,7.56,0,0,1,5.149-1.9,8.56,8.56,0,0,1,5.4,1.512l-2.109,3.843a3.8,3.8,0,0,0-2.609-1.093c-1.692,0-2.549,1.154-2.549,3.43V205.3h4.18v3.86h-4.18v14.894Z" transform="translate(-116.288)"/>
    <path id="Path_7" data-name="Path 7" d="M984.663,196.978V224.7H979.23v-23.81Z" transform="translate(-156.438 -0.643)"/>
    <path id="Path_8" data-name="Path 8" d="M1001.34,246.293a3.865,3.865,0,0,1-2.872-1.133,4.21,4.21,0,0,1,0-5.706,4.209,4.209,0,0,1,5.743,0,4.212,4.212,0,0,1,0,5.706A3.867,3.867,0,0,1,1001.34,246.293Z" transform="translate(-165.943 -22.238)" fill="#168ef9"/>
    <path id="Path_9" data-name="Path 9" d="M1026.681,233.289a7.108,7.108,0,0,1-4.728-1.444,4.9,4.9,0,0,1-1.686-3.925,5.109,5.109,0,0,1,.95-3.09,6.245,6.245,0,0,1,2.64-2.032,16.238,16.238,0,0,1,3.757-1.074,28.373,28.373,0,0,1,4.573-.339h.178v-1.423a2.592,2.592,0,0,0-.757-1.936,2.978,2.978,0,0,0-2.153-.734,3.408,3.408,0,0,0-2.307.727,2.307,2.307,0,0,0-.837,1.576l-5.143-.788a5.331,5.331,0,0,1,2.593-3.921,10.778,10.778,0,0,1,5.854-1.5,9.227,9.227,0,0,1,5.879,1.751,6.393,6.393,0,0,1,2.183,5.308v9.767a8,8,0,0,0,.369,2.516h-5.236a5.405,5.405,0,0,1-.285-2.235v-.621l-.328.527A6.068,6.068,0,0,1,1026.681,233.289Zm5.507-8.762a14.124,14.124,0,0,0-4.887.656,2.455,2.455,0,0,0-1.762,2.415,1.6,1.6,0,0,0,.787,1.437,3.49,3.49,0,0,0,1.882.469,4.8,4.8,0,0,0,2.9-.9,2.9,2.9,0,0,0,1.259-2.454v-1.623Z" transform="translate(-177.892 -9.235)"/>
    <path id="Path_10" data-name="Path 10" d="M1062.611,224.054V205.3h5.434v18.754Zm2.718-21.919a3.239,3.239,0,0,1-2.387-.891,3.39,3.39,0,0,1,.019-4.607,3.589,3.589,0,0,1,4.736,0,3.393,3.393,0,0,1,.019,4.606A3.24,3.24,0,0,1,1065.328,202.136Z" transform="translate(-199.679)"/>
    <path id="Path_11" data-name="Path 11" d="M822.756,214.4v9.671c0,.1,0,.2,0,.3a7.917,7.917,0,0,1-.1,1.112c-.3,1.836-1.324,3.6-3.419,3.6a3.323,3.323,0,0,1-3.348-3.405V214.4h-5.433v12.922c0,.084,0,.164,0,.244a6.67,6.67,0,0,0,.275,1.639,6.5,6.5,0,0,0,4.38,4.348s.013,0,.018,0a6.565,6.565,0,0,0,1.833.261,6.442,6.442,0,0,0,2.564-.527l.031-.013a11.142,11.142,0,0,0,3.4-2.737v2.639h5.234V214.4Z" transform="translate(-68.327 -9.764)"/>
    <path id="Path_12" data-name="Path 12" d="M947.014,214.4v9.671c0,.1,0,.2,0,.3a7.889,7.889,0,0,1-.1,1.112c-.3,1.836-1.324,3.6-3.419,3.6a3.323,3.323,0,0,1-3.348-3.405V214.4h-5.433v12.922c0,.084,0,.164,0,.244a6.67,6.67,0,0,0,.275,1.639,6.5,6.5,0,0,0,4.38,4.348s.013,0,.018,0a6.565,6.565,0,0,0,1.833.261,6.442,6.442,0,0,0,2.564-.527l.031-.013a11.142,11.142,0,0,0,3.4-2.737v2.639h5.234V214.4Z" transform="translate(-133.207 -9.764)"/>
  </g>
</svg>
