<?xml version="1.0" encoding="utf-8"?>
<!-- Generator: Adobe Illustrator 23.0.3, SVG Export Plug-In . SVG Version: 6.00 Build 0)  -->
<svg version="1.1" id="Layer_1" xmlns="http://www.w3.org/2000/svg" xmlns:xlink="http://www.w3.org/1999/xlink" x="0px" y="0px"
	 viewBox="0 0 42.5 39.6" style="enable-background:new 0 0 42.5 39.6;" xml:space="preserve">
<style type="text/css">
	.st0{fill:#1AAAE2;}
</style>
<g>
	<g>
		<g>
			<path class="st0" d="M35.1,14.4"/>
			<path class="st0" d="M7.5,33.2"/>
		</g>
		<path class="st0" d="M14.4,0v9.1L28.9,19c0.6,0.4,0.6,1.2,0,1.6l-14.5,9.9v9.1L42,20.8c0.7-0.5,0.7-1.5,0-2L14.4,0z"/>
		<path class="st0" d="M6.3,6.6v7l7.9,5.4c0.6,0.4,0.6,1.2,0,1.6L6.3,26v7l17.9-12.2c0.7-0.5,0.7-1.5,0-2L6.3,6.6z"/>
		<path class="st0" d="M0,12.4v4.4L3.2,19c0.6,0.4,0.6,1.2,0,1.6L0,22.8v4.4l9.4-6.4c0.7-0.5,0.7-1.5,0-2L0,12.4z"/>
	</g>
</g>
</svg>
