<svg width="151" height="35" viewBox="0 0 151 35" fill="none" xmlns="http://www.w3.org/2000/svg">
<rect width="151" height="35" fill="white"/>
<g clip-path="url(#clip0_1_2)">
<path d="M61.2433 20.2002C62.2686 21.5 62.782 22.989 62.782 24.6671C62.782 26.183 62.4108 27.5174 61.6684 28.6671C60.926 29.8183 59.8527 30.7174 58.4487 31.3673C57.0447 32.0172 55.3847 32.3414 53.4672 32.3414H41.2769V3.99741H52.9403C54.8578 3.99741 56.5103 4.3096 57.9008 4.931C59.2914 5.5539 60.3437 6.41995 61.0592 7.53065C61.7747 8.64136 62.1324 9.89916 62.1324 11.3071C62.1324 12.9581 61.6938 14.339 60.8167 15.4497C59.9395 16.5604 58.772 17.3454 57.3141 17.8047C58.9067 18.1034 60.2165 18.9004 61.2418 20.2002H61.2433ZM46.947 15.6928H52.1305C53.4807 15.6928 54.5195 15.3882 55.2484 14.7788C55.9774 14.1694 56.3426 13.2958 56.3426 12.1596C56.3426 11.0234 55.9774 10.1438 55.2484 9.51942C54.5195 8.89652 53.4792 8.58583 52.1305 8.58583H46.947V15.6928V15.6928ZM55.8771 26.7384C56.6465 26.0885 57.0312 25.1684 57.0312 23.9766C57.0312 22.7849 56.6255 21.8032 55.8157 21.1143C55.006 20.4239 53.9118 20.0786 52.5362 20.0786H46.947V27.7125H52.6574C54.0345 27.7125 55.1077 27.3883 55.8771 26.7384V26.7384Z" fill="black"/>
<path d="M72.1762 2.29233V32.343H66.5062V2.29233H72.1762Z" fill="black"/>
<path d="M97.6494 22.7999H81.2486C81.3833 24.4239 81.9506 25.6967 82.949 26.6168C83.9474 27.5369 85.1763 27.9977 86.6342 27.9977C88.7402 27.9977 90.2386 27.0911 91.1292 25.2765H97.2438C96.5956 27.4423 95.3533 29.2225 93.5181 30.6169C91.6815 32.0112 89.4273 32.7077 86.7554 32.7077C84.5955 32.7077 82.6586 32.2274 80.9447 31.2668C79.2293 30.3062 77.8926 28.9463 76.9347 27.1857C75.9767 25.4266 75.4977 23.3958 75.4977 21.0948C75.4977 18.7938 75.9692 16.7225 76.9152 14.9634C77.8597 13.2043 79.1829 11.8504 80.8848 10.9018C82.5852 9.95471 84.5431 9.48041 86.7569 9.48041C88.9707 9.48041 90.7999 9.9412 92.4868 10.8613C94.1738 11.7814 95.4835 13.0887 96.4145 14.7803C97.3456 16.4719 97.8111 18.4141 97.8111 20.607C97.8111 21.419 97.7572 22.15 97.6494 22.7999V22.7999ZM91.939 18.983C91.912 17.521 91.3851 16.3503 90.3598 15.4707C89.333 14.5912 88.0771 14.1514 86.5938 14.1514C85.1897 14.1514 84.0087 14.5777 83.0507 15.4302C82.0928 16.2827 81.5045 17.467 81.289 18.983H91.9405H91.939Z" fill="black"/>
<path d="M120.045 12.0575C121.692 13.7491 122.515 16.1116 122.515 19.1435V32.3414H116.845V19.9165C116.845 18.1304 116.399 16.7555 115.508 15.7949C114.618 14.8343 113.402 14.354 111.863 14.354C110.325 14.354 109.063 14.8343 108.157 15.7949C107.252 16.7555 106.801 18.1304 106.801 19.9165V32.343H101.131V9.84513H106.801V12.6474C107.557 11.6733 108.522 10.9078 109.696 10.3525C110.871 9.7971 112.16 9.51942 113.564 9.51942C116.237 9.51942 118.397 10.366 120.044 12.0575H120.045Z" fill="black"/>
<path d="M126.99 14.9619C127.895 13.2028 129.129 11.8489 130.697 10.9003C132.262 9.9532 134.003 9.4789 135.921 9.4789C137.379 9.4789 138.769 9.7971 140.092 10.4335C141.416 11.0699 142.468 11.9165 143.251 12.9716V2.29233H149.001V32.343H143.251V29.0123C142.549 30.123 141.564 31.0161 140.294 31.693C139.025 32.37 137.554 32.7077 135.88 32.7077C133.99 32.7077 132.262 32.2199 130.697 31.2458C129.131 30.2716 127.895 28.8968 126.99 27.1241C126.086 25.3515 125.634 23.3132 125.634 21.0122C125.634 18.7113 126.086 16.721 126.99 14.9619V14.9619ZM142.481 17.5405C141.941 16.5529 141.212 15.7949 140.294 15.2666C139.377 14.7382 138.39 14.4741 137.338 14.4741C136.286 14.4741 135.313 14.7322 134.422 15.2456C133.532 15.7604 132.809 16.5109 132.255 17.5C131.701 18.4891 131.424 19.6599 131.424 21.0122C131.424 22.3646 131.701 23.5504 132.255 24.565C132.809 25.5796 133.536 26.3586 134.442 26.9005C135.346 27.4423 136.311 27.7125 137.337 27.7125C138.362 27.7125 139.375 27.4483 140.293 26.92C141.21 26.3917 141.939 25.6352 142.48 24.6461C143.02 23.6584 143.29 22.4727 143.29 21.0933C143.29 19.7139 143.019 18.5282 142.48 17.5405H142.481Z" fill="black"/>
<path d="M32.5908 7.39857H28.3757V3.25744L26.0765 1H18.0909V17.494L35.1728 17.4985V9.93369L32.5908 7.39857Z" fill="url(#paint0_linear_1_2)"/>
<path d="M1 25.0663L3.58205 27.6014H7.79715V31.7426L10.0963 34H18.0819V17.506L1 17.5015V25.0663Z" fill="url(#paint1_linear_1_2)"/>
</g>
<defs>
<linearGradient id="paint0_linear_1_2" x1="31.0341" y1="5.00005" x2="1.41894" y2="33.4309" gradientUnits="userSpaceOnUse">
<stop offset="0.34" stop-color="#9A00FF"/>
<stop offset="0.99" stop-color="#0000FF"/>
</linearGradient>
<linearGradient id="paint1_linear_1_2" x1="31.0356" y1="5.00004" x2="1.42043" y2="33.4324" gradientUnits="userSpaceOnUse">
<stop offset="0.34" stop-color="#9A00FF"/>
<stop offset="0.99" stop-color="#0000FF"/>
</linearGradient>
<clipPath id="clip0_1_2">
<rect width="148" height="33" fill="white" transform="translate(1 1)"/>
</clipPath>
</defs>
</svg>
