<?xml version="1.0" encoding="UTF-8"?>
<svg xmlns="http://www.w3.org/2000/svg" xmlns:xlink="http://www.w3.org/1999/xlink" width="194.195" height="40" viewBox="0 0 194.195 40">
  <defs>
    <clipPath id="a">
      <rect width="194.195" height="40" fill="none"></rect>
    </clipPath>
  </defs>
  <g transform="translate(0 0)">
    <g transform="translate(0 0)" clip-path="url(#a)">
      <path d="M13.957,0H0V13.957A13.912,13.912,0,0,0,1.373,20,13.917,13.917,0,0,0,0,26.043V40H13.957A13.963,13.963,0,0,0,26.541,20,13.963,13.963,0,0,0,13.957,0m6.774,32.818a9.553,9.553,0,0,1-6.774,2.811H4.372V26.043a9.635,9.635,0,0,1,.173-1.783,13.952,13.952,0,0,0,18.825,0,9.521,9.521,0,0,1-2.639,8.557M6.526,20a9.567,9.567,0,0,1,14.2-.731,9.745,9.745,0,0,1,.657.731,9.745,9.745,0,0,1-.657.731A9.561,9.561,0,0,1,6.526,20M23.37,15.739a13.954,13.954,0,0,0-18.825,0,9.627,9.627,0,0,1-.173-1.782V4.372h9.585A9.561,9.561,0,0,1,23.37,15.739" transform="translate(0 0)" fill="#231f20"></path>
      <path d="M68.711,20.459a8.074,8.074,0,0,0,2.13-1.993,6.865,6.865,0,0,0,1.3-4.144,7.567,7.567,0,0,0-.983-3.761A7.457,7.457,0,0,0,68.17,7.7a10.324,10.324,0,0,0-5.043-1.111H51.76V36.5H63.512a11.374,11.374,0,0,0,5.407-1.175,8.285,8.285,0,0,0,3.333-3.1A8.2,8.2,0,0,0,73.384,28,7.924,7.924,0,0,0,71.8,23.083a9.618,9.618,0,0,0-3.092-2.624M63,10.86a4.586,4.586,0,0,1,3.076.981,3.606,3.606,0,0,1,1.154,2.907,3.6,3.6,0,0,1-1.154,2.907A4.578,4.578,0,0,1,63,18.638H56.674V10.86Zm4.23,19.957a4.419,4.419,0,0,1-3.5,1.411H56.674V22.911h7.052a4.9,4.9,0,0,1,2.564.641,4.26,4.26,0,0,1,1.624,1.71,4.924,4.924,0,0,1,.556,2.307,4.773,4.773,0,0,1-1.239,3.248" transform="translate(-12.139 -1.545)" fill="#231f20"></path>
      <path d="M111.9,10.495A15.449,15.449,0,0,0,95.124,7.2a14.864,14.864,0,0,0-4.83,3.292,15.634,15.634,0,0,0-3.248,4.893,15.2,15.2,0,0,0-1.174,5.984A15.346,15.346,0,0,0,95.188,35.6a14.961,14.961,0,0,0,5.983,1.2,14.714,14.714,0,0,0,5.919-1.2,15.322,15.322,0,0,0,9.252-14.187,15.362,15.362,0,0,0-4.444-10.92M110,26.947a9.668,9.668,0,0,1-3.589,3.783,10.158,10.158,0,0,1-5.321,1.368,10.47,10.47,0,0,1-4.1-.791,9.482,9.482,0,0,1-3.226-2.2,9.88,9.88,0,0,1-2.094-3.4,12.2,12.2,0,0,1-.747-4.336,11.43,11.43,0,0,1,1.3-5.557,9.532,9.532,0,0,1,3.589-3.739,10.2,10.2,0,0,1,5.278-1.346,10.693,10.693,0,0,1,4.124.769,9.374,9.374,0,0,1,3.226,2.2,10.087,10.087,0,0,1,2.116,3.376,11.916,11.916,0,0,1,.748,4.3,11.545,11.545,0,0,1-1.3,5.576" transform="translate(-20.139 -1.414)" fill="#231f20"></path>
      <path d="M128.134,11.074h9.744V36.5h4.914V11.074h9.744V6.587h-24.4Z" transform="translate(-30.05 -1.545)" fill="#231f20"></path>
      <rect width="4.914" height="29.915" transform="translate(127.827 5.041)" fill="#231f20"></rect>
      <path d="M207.353,6.586h-6.282L188.207,20.18V6.586h-4.914V36.5h4.914V21.674L201.37,36.5h6.411L193.67,20.818Z" transform="translate(-42.986 -1.545)" fill="#231f20"></path>
      <path d="M239.83,36.5h5.3L232.907,6.586h-3.419L217.18,36.5h5.214l2.3-5.77h12.858ZM226.4,26.459l4.754-11.927,4.712,11.927Z" transform="translate(-50.934 -1.545)" fill="#231f20"></path>
    </g>
  </g>
</svg>
