<?xml version="1.0" encoding="UTF-8"?>
<svg xmlns="http://www.w3.org/2000/svg" width="142" height="45" viewBox="0 0 142 45" fill="none">
  <path d="M22.4141 0.972168C18.0629 0.972168 13.8094 2.26244 10.1915 4.67983C6.57363 7.09722 3.75387 10.5332 2.08874 14.5531C0.423611 18.5731 -0.012084 22.9966 0.83679 27.2642C1.68566 31.5317 3.78098 35.4518 6.85773 38.5285C9.93448 41.6053 13.8545 43.7006 18.1221 44.5494C22.3897 45.3983 26.8131 44.9626 30.8331 43.2975C34.8531 41.6324 38.289 38.8126 40.7064 35.1947C43.1238 31.5768 44.4141 27.3234 44.4141 22.9722C44.4141 17.1374 42.0962 11.5416 37.9704 7.41581C33.8446 3.29001 28.2488 0.972168 22.4141 0.972168ZM10.52 25.7882C10.52 26.2416 10.3398 26.6765 10.0192 26.9972C9.69852 27.3179 9.26363 27.498 8.81015 27.498C8.35667 27.498 7.92177 27.3179 7.60112 26.9972C7.28046 26.6765 7.10032 26.2416 7.10032 25.7882V20.1562C7.10032 19.7027 7.28046 19.2678 7.60112 18.9471C7.92177 18.6265 8.35667 18.4463 8.81015 18.4463C9.26363 18.4463 9.69852 18.6265 10.0192 18.9471C10.3398 19.2678 10.52 19.7027 10.52 20.1562V25.7882ZM16.0851 31.5469C16.0851 32.0006 15.9049 32.4357 15.5841 32.7565C15.2632 33.0774 14.8281 33.2576 14.3744 33.2576C13.9207 33.2576 13.4856 33.0774 13.1647 32.7565C12.8439 32.4357 12.6637 32.0006 12.6637 31.5469V14.3992C12.6637 13.9455 12.8439 13.5104 13.1647 13.1895C13.4856 12.8687 13.9207 12.6885 14.3744 12.6885C14.8281 12.6885 15.2632 12.8687 15.5841 13.1895C15.9049 13.5104 16.0851 13.9455 16.0851 14.3992V31.5469ZM21.6485 36.5594C21.6485 37.0128 21.4683 37.4477 21.1477 37.7684C20.827 38.0891 20.3921 38.2692 19.9386 38.2692C19.4851 38.2692 19.0502 38.0891 18.7296 37.7684C18.4089 37.4477 18.2288 37.0128 18.2288 36.5594V9.38672C18.2288 8.93325 18.4089 8.49835 18.7296 8.17769C19.0502 7.85703 19.4851 7.67689 19.9386 7.67689C20.3921 7.67689 20.827 7.85703 21.1477 8.17769C21.4683 8.49835 21.6485 8.93325 21.6485 9.38672V36.5594ZM27.2136 31.341C27.2136 31.7944 27.0334 32.2293 26.7128 32.55C26.3921 32.8707 25.9572 33.0508 25.5037 33.0508C25.0503 33.0508 24.6154 32.8707 24.2947 32.55C23.9741 32.2293 23.7939 31.7944 23.7939 31.341V14.6051C23.7939 14.1516 23.9741 13.7167 24.2947 13.3961C24.6154 13.0754 25.0503 12.8953 25.5037 12.8953C25.9572 12.8953 26.3921 13.0754 26.7128 13.3961C27.0334 13.7167 27.2136 14.1516 27.2136 14.6051V31.341ZM32.7787 33.9387C32.7787 34.1634 32.7344 34.3858 32.6485 34.5934C32.5625 34.8009 32.4365 34.9895 32.2777 35.1484C32.1188 35.3072 31.9302 35.4332 31.7226 35.5192C31.5151 35.6052 31.2926 35.6494 31.068 35.6494C30.8433 35.6494 30.6209 35.6052 30.4133 35.5192C30.2058 35.4332 30.0172 35.3072 29.8583 35.1484C29.6995 34.9895 29.5735 34.8009 29.4875 34.5934C29.4015 34.3858 29.3573 34.1634 29.3573 33.9387V12.0074C29.3573 11.7827 29.4015 11.5603 29.4875 11.3527C29.5735 11.1451 29.6995 10.9566 29.8583 10.7977C30.0172 10.6388 30.2058 10.5128 30.4133 10.4269C30.6209 10.3409 30.8433 10.2966 31.068 10.2966C31.2926 10.2966 31.5151 10.3409 31.7226 10.4269C31.9302 10.5128 32.1188 10.6388 32.2777 10.7977C32.4365 10.9566 32.5625 11.1451 32.6485 11.3527C32.7344 11.5603 32.7787 11.7827 32.7787 12.0074V33.9387ZM38.342 25.5594C38.342 26.0128 38.1619 26.4477 37.8412 26.7684C37.5206 27.0891 37.0857 27.2692 36.6322 27.2692C36.1787 27.2692 35.7438 27.0891 35.4232 26.7684C35.1025 26.4477 34.9224 26.0128 34.9224 25.5594V20.3867C34.9224 19.9332 35.1025 19.4983 35.4232 19.1777C35.7438 18.857 36.1787 18.6769 36.6322 18.6769C37.0857 18.6769 37.5206 18.857 37.8412 19.1777C38.1619 19.4983 38.342 19.9332 38.342 20.3867V25.5594Z" fill="url(#paint0_linear_2_23557)"></path>
  <path d="M66.7939 40.8176V39.4513L71.6816 34.6898H68.2535V35.6257H66.873V33.3858H73.5209V34.7521L68.6736 39.4863H72.2203V38.5342H73.6008V40.8176H66.7939ZM77.8848 40.9687C77.3852 40.9708 76.8905 40.8671 76.431 40.6639C75.5342 40.2752 74.8212 39.5358 74.4467 38.6059C74.2537 38.1287 74.1544 37.6165 74.1544 37.0991C74.1544 36.5817 74.2537 36.0695 74.4467 35.5924C74.8216 34.6629 75.5344 33.9238 76.431 33.5352C76.8914 33.3351 77.3856 33.2321 77.8848 33.2321C78.384 33.2321 78.8782 33.3351 79.3386 33.5352C80.2351 33.9238 80.948 34.6629 81.3228 35.5924C81.5152 36.0697 81.6143 36.5818 81.6143 37.0991C81.6143 37.6164 81.5152 38.1286 81.3228 38.6059C80.9483 39.5358 80.2354 40.2752 79.3386 40.6639C78.879 40.867 78.3843 40.9708 77.8848 40.9687ZM77.8848 39.5375C78.1865 39.539 78.4853 39.4763 78.7627 39.3532C79.0402 39.2301 79.2902 39.0493 79.4975 38.8219C79.6997 38.5973 79.8615 38.3371 79.9753 38.0534C80.2147 37.4447 80.2147 36.763 79.9753 36.1543C79.8606 35.8695 79.6964 35.609 79.4909 35.3857C79.2853 35.162 79.0393 34.9824 78.7669 34.8571C78.4877 34.7299 78.1861 34.6641 77.8811 34.6641C77.5761 34.6641 77.2744 34.7299 76.9952 34.8571C76.4494 35.1101 76.0207 35.5744 75.8009 36.1508C75.5702 36.7613 75.5702 37.4395 75.8009 38.05C76.0214 38.6259 76.4499 39.09 76.9952 39.3437C77.2749 39.4736 77.5783 39.5397 77.8848 39.5375ZM85.9288 40.9687C85.4292 40.9708 84.9345 40.8671 84.475 40.6639C83.5782 40.2752 82.8653 39.5358 82.4908 38.6059C82.2978 38.1287 82.1984 37.6165 82.1984 37.0991C82.1984 36.5817 82.2978 36.0695 82.4908 35.5924C82.8656 34.6629 83.5785 33.9238 84.475 33.5352C84.9354 33.3351 85.4296 33.2321 85.9288 33.2321C86.428 33.2321 86.9222 33.3351 87.3826 33.5352C88.2791 33.9238 88.992 34.6629 89.3668 35.5924C89.5593 36.0697 89.6584 36.5818 89.6584 37.0991C89.6584 37.6164 89.5593 38.1286 89.3668 38.6059C88.9923 39.5358 88.2794 40.2752 87.3826 40.6639C86.9231 40.867 86.4284 40.9708 85.9288 40.9687ZM85.9288 39.5375C86.2306 39.5393 86.5295 39.4766 86.8069 39.3535C87.0844 39.2304 87.3344 39.0495 87.5416 38.8219C87.7437 38.5973 87.9055 38.3371 88.0193 38.0534C88.2587 37.4447 88.2587 36.763 88.0193 36.1543C87.9047 35.8695 87.7405 35.609 87.535 35.3857C87.3294 35.162 87.0834 34.9824 86.811 34.8571C86.5314 34.7295 86.2293 34.6636 85.9239 34.6636C85.6184 34.6636 85.3163 34.7295 85.0368 34.8571C84.491 35.1101 84.0623 35.5744 83.8424 36.1508C83.6118 36.7613 83.6118 37.4395 83.8424 38.05C84.0626 38.6266 84.4911 39.0913 85.0368 39.3454C85.3174 39.475 85.6216 39.5406 85.9288 39.5375ZM90.5084 33.3892H91.9285V34.2432C92.1472 33.9328 92.4337 33.6805 92.7645 33.5071C93.1361 33.3184 93.546 33.2249 93.9597 33.2347C94.5346 33.2347 95.0101 33.3485 95.3863 33.5762C95.7583 33.8013 96.0567 34.1368 96.2429 34.5395C96.4733 34.1445 96.7978 33.8175 97.1852 33.5899C97.611 33.3452 98.0921 33.2226 98.5788 33.2347C99.0131 33.2253 99.4452 33.3 99.8531 33.455C100.199 33.5885 100.51 33.8054 100.759 34.0877C101.004 34.374 101.185 34.7124 101.29 35.0792C101.41 35.4991 101.468 35.9351 101.463 36.3729V40.8176H99.9857V36.4548C99.9857 35.877 99.8575 35.4136 99.601 35.0646C99.3446 34.7157 98.9327 34.5415 98.3655 34.542C97.8521 34.542 97.4427 34.7128 97.1374 35.0544C96.8321 35.396 96.6794 35.9083 96.6794 36.5915V40.8176H95.2339V36.3583C95.2339 35.7891 95.1079 35.3442 94.8558 35.0236C94.6038 34.7031 94.2032 34.5426 93.6541 34.542C93.1225 34.542 92.7044 34.7188 92.3996 35.0723C92.0949 35.4258 91.9422 35.9556 91.9416 36.6615V40.8176H90.5084V33.3892ZM102.346 31.1605C102.342 31.0208 102.366 30.8818 102.415 30.7517C102.464 30.6216 102.537 30.503 102.631 30.403C102.725 30.3035 102.838 30.2252 102.962 30.1732C103.087 30.1211 103.22 30.0965 103.355 30.1007C103.492 30.095 103.628 30.119 103.756 30.171C103.883 30.2231 103.999 30.3021 104.096 30.403C104.19 30.503 104.264 30.6216 104.313 30.7517C104.362 30.8818 104.385 31.0208 104.381 31.1605C104.385 31.3 104.362 31.4388 104.313 31.5688C104.264 31.6988 104.19 31.8173 104.096 31.917C103.999 32.0181 103.884 32.0973 103.756 32.1495C103.628 32.2017 103.492 32.2258 103.355 32.2202C103.219 32.2258 103.084 32.2017 102.958 32.1494C102.833 32.0972 102.719 32.018 102.625 31.917C102.532 31.8159 102.46 31.6966 102.412 31.5661C102.364 31.4356 102.342 31.2965 102.346 31.157V31.1605ZM102.638 33.3892H104.085V40.8184H102.638V33.3892ZM105.331 33.3892H106.738V34.4182C106.996 34.0422 107.339 33.7376 107.737 33.5313C108.136 33.3249 108.576 33.2231 109.021 33.2347C109.441 33.2288 109.858 33.3059 110.25 33.4618C110.602 33.603 110.919 33.8238 111.179 34.1082C111.441 34.4063 111.64 34.758 111.763 35.1406C111.904 35.581 111.973 36.0428 111.968 36.5069V40.8176H110.521V36.6205C110.521 35.9869 110.366 35.4822 110.057 35.1065C109.747 34.7307 109.291 34.5426 108.689 34.542C108.428 34.5395 108.168 34.5909 107.926 34.6932C107.695 34.7919 107.488 34.9397 107.316 35.127C107.137 35.3253 106.999 35.5595 106.911 35.8152C106.81 36.1039 106.761 36.4091 106.765 36.7161V40.815H105.331V33.3892ZM112.155 33.3892H113.403V32.9623C113.393 32.4788 113.439 31.996 113.542 31.5242C113.615 31.1814 113.775 30.8652 114.006 30.6088C114.249 30.3641 114.552 30.194 114.882 30.1178C115.337 30.0118 115.803 29.9633 116.27 29.9735H116.615V31.3492H116.375C116.098 31.3444 115.82 31.363 115.546 31.4047C115.368 31.426 115.202 31.5084 115.075 31.6387C114.959 31.779 114.885 31.951 114.862 32.1339C114.822 32.4118 114.805 32.6925 114.809 32.9734V33.3858H116.494V34.7214H114.809V40.8176H113.403V34.7214H112.155V33.3892ZM120.062 40.9721C119.561 40.9742 119.065 40.8693 118.604 40.6639C117.714 40.2724 117.005 39.5375 116.627 38.6144C116.434 38.1361 116.335 37.6228 116.335 37.1043C116.335 36.5858 116.434 36.0724 116.627 35.5941C117.002 34.6671 117.711 33.9288 118.604 33.537C119.066 33.3368 119.561 33.2338 120.061 33.2338C120.561 33.2338 121.057 33.3368 121.518 33.537C122.415 33.9258 123.128 34.6651 123.503 35.5949C123.695 36.0733 123.794 36.5864 123.794 37.1047C123.794 37.6229 123.695 38.1361 123.503 38.6144C123.125 39.54 122.412 40.2756 121.518 40.6639C121.059 40.867 120.564 40.9708 120.064 40.9687L120.062 40.9721ZM120.062 39.5819C120.374 39.5849 120.682 39.5194 120.968 39.3898C121.243 39.2647 121.491 39.0844 121.698 38.8595C121.908 38.6325 122.076 38.3666 122.192 38.0756C122.371 37.6201 122.419 37.121 122.331 36.6378C122.244 36.1547 122.024 35.7078 121.698 35.3507C121.489 35.1252 121.238 34.9452 120.961 34.8213C120.675 34.6939 120.367 34.6283 120.055 34.6283C119.744 34.6283 119.436 34.6939 119.149 34.8213C118.875 34.9462 118.627 35.1261 118.42 35.3507C118.212 35.5781 118.049 35.8456 117.94 36.138C117.711 36.7605 117.711 37.4489 117.94 38.0713C118.051 38.3628 118.216 38.629 118.425 38.8552C118.632 39.0804 118.88 39.2606 119.155 39.3855C119.442 39.5161 119.752 39.5819 120.064 39.5785L120.062 39.5819Z" fill="#000514"></path>
  <path d="M55.3441 41.0823C54.9707 41.0823 54.6174 41.0056 54.2841 40.8523C53.9507 40.6923 53.6807 40.4723 53.4741 40.1923V40.9723H52.4141V33.0723H53.4841V36.3523C53.6907 36.0723 53.9574 35.8556 54.2841 35.7023C54.6174 35.5423 54.9674 35.4623 55.3341 35.4623C55.6941 35.4623 56.0341 35.5289 56.3541 35.6623C56.6807 35.7956 56.9674 35.9856 57.2141 36.2323C57.4674 36.4789 57.6674 36.7756 57.8141 37.1223C57.9607 37.4623 58.0341 37.8456 58.0341 38.2723C58.0341 38.6923 57.9574 39.0756 57.8041 39.4223C57.6574 39.7689 57.4607 40.0656 57.2141 40.3123C56.9674 40.5589 56.6807 40.7489 56.3541 40.8823C56.0274 41.0156 55.6907 41.0823 55.3441 41.0823ZM55.1941 40.0923C55.4407 40.0923 55.6707 40.0456 55.8841 39.9523C56.0974 39.8589 56.2841 39.7289 56.4441 39.5623C56.6041 39.3956 56.7274 39.2023 56.8141 38.9823C56.9074 38.7556 56.9541 38.5156 56.9541 38.2623C56.9541 38.0089 56.9074 37.7723 56.8141 37.5523C56.7274 37.3256 56.6041 37.1323 56.4441 36.9723C56.2841 36.8056 56.0974 36.6756 55.8841 36.5823C55.6707 36.4889 55.4407 36.4423 55.1941 36.4423C54.9407 36.4423 54.7041 36.4923 54.4841 36.5923C54.2707 36.6856 54.0841 36.8156 53.9241 36.9823C53.7641 37.1423 53.6374 37.3356 53.5441 37.5623C53.4574 37.7823 53.4141 38.0156 53.4141 38.2623C53.4141 38.5156 53.4574 38.7556 53.5441 38.9823C53.6374 39.2023 53.7641 39.3956 53.9241 39.5623C54.0841 39.7223 54.2707 39.8523 54.4841 39.9523C54.7041 40.0456 54.9407 40.0923 55.1941 40.0923Z" fill="#000514"></path>
  <path d="M59.2324 42.9723C58.9791 42.9723 58.7291 42.9323 58.4824 42.8523C58.2424 42.7789 58.0358 42.6756 57.8624 42.5423L58.5024 41.6323C58.5958 41.7256 58.6991 41.7989 58.8124 41.8523C58.9324 41.9123 59.0691 41.9423 59.2224 41.9423C59.3624 41.9423 59.4858 41.9256 59.5924 41.8923C59.7058 41.8589 59.8091 41.8023 59.9024 41.7223C59.9958 41.6489 60.0824 41.5489 60.1624 41.4223C60.2491 41.2956 60.3358 41.1356 60.4224 40.9423L60.5224 40.7123L58.3024 35.5723H59.4624L61.0824 39.4423L62.6324 35.5723H63.7824L61.3724 41.2423C61.2391 41.5623 61.0991 41.8323 60.9524 42.0523C60.8124 42.2723 60.6558 42.4489 60.4824 42.5823C60.3158 42.7223 60.1291 42.8223 59.9224 42.8823C59.7224 42.9423 59.4924 42.9723 59.2324 42.9723Z" fill="#000514"></path>
  <path d="M61.7641 23.9222C60.3641 23.9222 59.0891 23.6805 57.9391 23.1972C56.7891 22.6972 55.8057 22.0305 54.9891 21.1972C54.1724 20.3472 53.5391 19.3555 53.0891 18.2222C52.6391 17.0722 52.4141 15.8472 52.4141 14.5472C52.4141 13.2138 52.6474 11.9805 53.1141 10.8472C53.5807 9.69717 54.2307 8.7055 55.0641 7.87217C55.8974 7.02217 56.8807 6.36384 58.0141 5.89717C59.1641 5.41384 60.4141 5.17217 61.7641 5.17217C62.6474 5.17217 63.4891 5.2805 64.2891 5.49717C65.0891 5.71383 65.8391 6.02217 66.5391 6.42217C67.2391 6.8055 67.8724 7.2805 68.4391 7.84717C69.0057 8.39717 69.4891 9.0055 69.8891 9.67217L66.0641 12.0972C65.6474 11.2805 65.0807 10.6388 64.3641 10.1722C63.6474 9.68884 62.7891 9.44717 61.7891 9.44717C61.0557 9.44717 60.3891 9.5805 59.7891 9.84717C59.1891 10.1138 58.6724 10.4805 58.2391 10.9472C57.8057 11.3972 57.4641 11.9388 57.2141 12.5722C56.9807 13.1888 56.8641 13.8472 56.8641 14.5472C56.8641 15.2472 56.9807 15.9055 57.2141 16.5222C57.4474 17.1222 57.7807 17.6555 58.2141 18.1222C58.6474 18.5722 59.1557 18.9305 59.7391 19.1972C60.3391 19.4638 61.0057 19.5972 61.7391 19.5972C62.8391 19.5972 63.7557 19.3222 64.4891 18.7722C65.2224 18.2055 65.7807 17.4888 66.1641 16.6222L70.1891 18.7722C69.8057 19.5222 69.3307 20.2138 68.7641 20.8472C68.1974 21.4805 67.5557 22.0305 66.8391 22.4972C66.1391 22.9472 65.3557 23.2972 64.4891 23.5472C63.6391 23.7972 62.7307 23.9222 61.7641 23.9222Z" fill="#000514"></path>
  <path d="M71.9012 3.97217H76.0512V11.6972C76.4845 11.1305 77.0012 10.6888 77.6012 10.3722C78.2178 10.0555 78.9012 9.89717 79.6512 9.89717C80.4012 9.89717 81.0762 10.0222 81.6762 10.2722C82.2762 10.5055 82.7928 10.8472 83.2262 11.2972C83.6595 11.7472 83.9928 12.3055 84.2262 12.9722C84.4595 13.6222 84.5762 14.3638 84.5762 15.1972V23.6722H80.2262V16.0472C80.2262 15.2638 80.0595 14.6638 79.7262 14.2472C79.3928 13.8138 78.8762 13.5972 78.1762 13.5972C77.5595 13.5972 77.0512 13.8138 76.6512 14.2472C76.2512 14.6805 76.0512 15.3472 76.0512 16.2472V23.6722H71.9012V3.97217Z" fill="#000514"></path>
  <path d="M93.6932 23.9222C92.6432 23.9222 91.6682 23.7388 90.7682 23.3722C89.8848 23.0055 89.1265 22.5055 88.4932 21.8722C87.8598 21.2388 87.3598 20.4972 86.9932 19.6472C86.6432 18.7972 86.4682 17.8888 86.4682 16.9222C86.4682 15.9555 86.6432 15.0472 86.9932 14.1972C87.3598 13.3472 87.8598 12.6055 88.4932 11.9722C89.1265 11.3222 89.8848 10.8138 90.7682 10.4472C91.6682 10.0805 92.6432 9.89717 93.6932 9.89717C94.7265 9.89717 95.6848 10.0805 96.5682 10.4472C97.4515 10.8138 98.2182 11.3222 98.8682 11.9722C99.5182 12.6055 100.026 13.3472 100.393 14.1972C100.76 15.0472 100.943 15.9555 100.943 16.9222C100.943 17.8888 100.76 18.7972 100.393 19.6472C100.043 20.4972 99.5432 21.2388 98.8932 21.8722C98.2598 22.5055 97.5015 23.0055 96.6182 23.3722C95.7348 23.7388 94.7598 23.9222 93.6932 23.9222ZM93.7182 19.9472C94.1348 19.9472 94.5265 19.8722 94.8932 19.7222C95.2765 19.5555 95.6015 19.3388 95.8682 19.0722C96.1515 18.7888 96.3682 18.4638 96.5182 18.0972C96.6848 17.7305 96.7682 17.3305 96.7682 16.8972C96.7682 16.4805 96.6848 16.0888 96.5182 15.7222C96.3682 15.3388 96.1515 15.0138 95.8682 14.7472C95.6015 14.4638 95.2765 14.2472 94.8932 14.0972C94.5265 13.9305 94.1348 13.8472 93.7182 13.8472C93.3015 13.8472 92.9015 13.9305 92.5182 14.0972C92.1515 14.2472 91.8265 14.4638 91.5432 14.7472C91.2765 15.0138 91.0598 15.3388 90.8932 15.7222C90.7432 16.0888 90.6682 16.4805 90.6682 16.8972C90.6682 17.3305 90.7432 17.7305 90.8932 18.0972C91.0598 18.4638 91.2765 18.7888 91.5432 19.0722C91.8265 19.3388 92.1515 19.5555 92.5182 19.7222C92.9015 19.8722 93.3015 19.9472 93.7182 19.9472Z" fill="#000514"></path>
  <path d="M102.883 10.1722H107.033V12.0722C107.383 11.2888 107.883 10.7305 108.533 10.3972C109.183 10.0638 109.949 9.89717 110.833 9.89717C111.266 9.89717 111.674 9.94717 112.058 10.0472C112.441 10.1472 112.791 10.2722 113.108 10.4222L111.658 14.6222C111.458 14.4722 111.183 14.3472 110.833 14.2472C110.499 14.1305 110.141 14.0722 109.758 14.0722C108.924 14.0722 108.266 14.2972 107.783 14.7472C107.299 15.1972 107.058 15.9638 107.058 17.0472V23.6722H102.883V10.1722Z" fill="#000514"></path>
  <path d="M119.403 23.9472C117.87 23.9472 116.661 23.4805 115.778 22.5472C114.911 21.6138 114.478 20.2972 114.478 18.5972V10.1722H118.803V17.7972C118.803 18.5805 118.97 19.1805 119.303 19.5972C119.636 20.0138 120.153 20.2222 120.853 20.2222C121.47 20.2222 121.97 20.0138 122.353 19.5972C122.753 19.1638 122.953 18.4972 122.953 17.5972V10.1722L127.228 10.1472V23.6472L123.003 23.6722V22.1222C122.57 22.7055 122.045 23.1555 121.428 23.4722C120.828 23.7888 120.153 23.9472 119.403 23.9472Z" fill="#000514"></path>
  <path d="M135.393 23.9472C133.61 23.9472 132.177 23.6305 131.093 22.9972C130.01 22.3472 129.218 21.4222 128.718 20.2222L132.943 19.0222C133.127 19.5722 133.452 19.9805 133.918 20.2472C134.385 20.5138 134.91 20.6472 135.493 20.6472C136.027 20.6472 136.427 20.5472 136.693 20.3472C136.977 20.1305 137.118 19.8805 137.118 19.5972C137.118 19.4138 137.043 19.2638 136.893 19.1472C136.743 19.0138 136.535 18.9055 136.268 18.8222C136.018 18.7222 135.718 18.6388 135.368 18.5722C135.018 18.4888 134.635 18.4055 134.218 18.3222C133.635 18.2055 133.052 18.0722 132.468 17.9222C131.902 17.7555 131.377 17.5222 130.893 17.2222C130.427 16.9222 130.043 16.5388 129.743 16.0722C129.46 15.5888 129.318 14.9805 129.318 14.2472C129.318 13.6472 129.46 13.0805 129.743 12.5472C130.027 11.9972 130.427 11.5222 130.943 11.1222C131.46 10.7222 132.077 10.4138 132.793 10.1972C133.51 9.96384 134.302 9.84717 135.168 9.84717C135.952 9.84717 136.652 9.92217 137.268 10.0722C137.885 10.2222 138.435 10.4388 138.918 10.7222C139.418 10.9888 139.86 11.3222 140.243 11.7222C140.643 12.1222 141.01 12.5722 141.343 13.0722L137.343 14.2972C136.927 13.4472 136.193 13.0222 135.143 13.0222C134.627 13.0222 134.243 13.1055 133.993 13.2722C133.743 13.4222 133.618 13.6388 133.618 13.9222C133.618 14.2388 133.852 14.4722 134.318 14.6222C134.802 14.7722 135.518 14.9388 136.468 15.1222C137.035 15.2388 137.61 15.3805 138.193 15.5472C138.793 15.7138 139.335 15.9555 139.818 16.2722C140.318 16.5722 140.718 16.9722 141.018 17.4722C141.335 17.9555 141.493 18.5722 141.493 19.3222C141.493 19.8888 141.368 20.4472 141.118 20.9972C140.868 21.5472 140.493 22.0472 139.993 22.4972C139.493 22.9305 138.86 23.2805 138.093 23.5472C137.327 23.8138 136.427 23.9472 135.393 23.9472Z" fill="#000514"></path>
  <defs>
    <linearGradient id="paint0_linear_2_23557" x1="31.4141" y1="44.9722" x2="5.91406" y2="3.47217" gradientUnits="userSpaceOnUse">
      <stop stop-color="#5C9AFF"></stop>
      <stop offset="1" stop-color="#0061FF"></stop>
    </linearGradient>
  </defs>
</svg>
