<?xml version="1.0" encoding="utf-8"?>
<!-- Generator: Adobe Illustrator 23.0.3, SVG Export Plug-In . SVG Version: 6.00 Build 0)  -->
<svg version="1.1" id="Layer_1" xmlns="http://www.w3.org/2000/svg" xmlns:xlink="http://www.w3.org/1999/xlink" x="0px" y="0px"
	 viewBox="0 0 36 37" style="enable-background:new 0 0 36 37;" xml:space="preserve">
<g>
	<g>
		<path d="M0,0v37h36V0H0z M34,35H2V2h32V35z"/>
	</g>
	<g>
		<path d="M13.7,32.4h-2v-1.3l0,0c-0.3,0.6-0.7,1-1.3,1.2s-1.1,0.4-1.8,0.4c-0.8,0-1.4-0.1-2-0.4s-1-0.7-1.4-1.1
			c-0.4-0.5-0.7-1-0.9-1.7c-0.2-0.6-0.3-1.3-0.3-2c0-0.9,0.1-1.6,0.4-2.3c0.2-0.6,0.6-1.2,1-1.6s0.9-0.7,1.4-0.9
			c0.5-0.2,1-0.3,1.6-0.3c0.3,0,0.6,0,0.9,0.1c0.3,0.1,0.6,0.1,0.9,0.3c0.3,0.1,0.6,0.3,0.8,0.5s0.5,0.4,0.6,0.7l0,0v-5h2.2v13.4
			H13.7z M6.2,27.6c0,0.4,0.1,0.8,0.2,1.2c0.1,0.4,0.3,0.8,0.5,1.1c0.2,0.3,0.5,0.6,0.8,0.8S8.4,31,8.9,31s0.9-0.1,1.2-0.3
			c0.3-0.2,0.6-0.5,0.9-0.8c0.2-0.3,0.4-0.7,0.5-1.1s0.2-0.8,0.2-1.3c0-1.1-0.2-1.9-0.7-2.5s-1.1-0.9-2-0.9c-0.5,0-0.9,0.1-1.3,0.3
			c-0.3,0.2-0.6,0.5-0.9,0.8c-0.2,0.3-0.4,0.7-0.5,1.1C6.2,26.8,6.2,27.2,6.2,27.6z"/>
		<path d="M15.4,18.9H22c1.2,0,2.2,0.3,2.9,0.8c0.7,0.6,1.1,1.4,1.1,2.5c0,0.7-0.2,1.3-0.5,1.8s-0.8,0.9-1.4,1.1l0,0
			c0.8,0.2,1.5,0.6,1.9,1.2s0.6,1.4,0.6,2.3c0,0.5-0.1,1-0.3,1.5c-0.2,0.5-0.5,0.9-0.9,1.2c-0.4,0.3-0.9,0.6-1.6,0.8
			c-0.6,0.2-1.4,0.3-2.3,0.3h-6.2L15.4,18.9L15.4,18.9z M17.8,24.6h3.9c0.6,0,1-0.2,1.4-0.5s0.6-0.8,0.6-1.4c0-0.7-0.2-1.2-0.5-1.4
			c-0.3-0.3-0.8-0.4-1.5-0.4h-3.9V24.6z M17.8,30.5H22c0.7,0,1.3-0.2,1.7-0.6c0.4-0.4,0.6-0.9,0.6-1.6s-0.2-1.2-0.6-1.5
			c-0.4-0.4-1-0.5-1.7-0.5h-4.2V30.5z"/>
	</g>
</g>
</svg>
