<svg width="112" height="21" viewBox="0 0 112 21" fill="none" xmlns="http://www.w3.org/2000/svg">
<path d="M6.31656 1.45961C6.43052 1.1633 6.71521 0.967773 7.03269 0.967773H12.9027C13.2109 0.967773 13.4892 1.15222 13.6093 1.43608L15.6253 6.20114C15.8719 6.784 15.3466 7.39796 14.7326 7.24446L10.8927 6.2845C10.3633 6.15214 9.80939 6.15214 9.27994 6.2845L5.3803 7.25941C4.77761 7.41008 4.25507 6.81944 4.47808 6.23961L6.31656 1.45961Z" fill="black"/>
<path d="M6.31656 1.45961C6.43052 1.1633 6.71521 0.967773 7.03269 0.967773H12.9027C13.2109 0.967773 13.4892 1.15222 13.6093 1.43608L15.6253 6.20114C15.8719 6.784 15.3466 7.39796 14.7326 7.24446L10.8927 6.2845C10.3633 6.15214 9.80939 6.15214 9.27994 6.2845L5.3803 7.25941C4.77761 7.41008 4.25507 6.81944 4.47808 6.23961L6.31656 1.45961Z" fill="black"/>
<path d="M0.106398 11.0635C-0.151431 10.6252 0.0806979 10.0618 0.572472 9.93243L8.34902 7.88599C8.83553 7.75796 9.31156 8.12491 9.31156 8.62799V19.356C9.31156 19.8797 8.79848 20.2495 8.30165 20.0839L4.98078 18.9769C4.80484 18.9183 4.6561 18.7979 4.56207 18.6381L0.106398 11.0635Z" fill="black"/>
<path d="M0.106398 11.0635C-0.151431 10.6252 0.0806979 10.0618 0.572472 9.93243L8.34902 7.88599C8.83553 7.75796 9.31156 8.12491 9.31156 8.62799V19.356C9.31156 19.8797 8.79848 20.2495 8.30165 20.0839L4.98078 18.9769C4.80484 18.9183 4.6561 18.7979 4.56207 18.6381L0.106398 11.0635Z" fill="black"/>
<path d="M19.6004 9.93243C20.0922 10.0618 20.3243 10.6252 20.0665 11.0635L15.6108 18.6381C15.5168 18.7979 15.368 18.9183 15.1921 18.9769L11.8712 20.0839C11.3744 20.2495 10.8613 19.8797 10.8613 19.356V8.62799C10.8613 8.12491 11.3373 7.75796 11.8239 7.88599L19.6004 9.93243Z" fill="black"/>
<path d="M19.6004 9.93243C20.0922 10.0618 20.3243 10.6252 20.0665 11.0635L15.6108 18.6381C15.5168 18.7979 15.368 18.9183 15.1921 18.9769L11.8712 20.0839C11.3744 20.2495 10.8613 19.8797 10.8613 19.356V8.62799C10.8613 8.12491 11.3373 7.75796 11.8239 7.88599L19.6004 9.93243Z" fill="black"/>
<mask id="mask0_904_30137" style="mask-type:alpha" maskUnits="userSpaceOnUse" x="0" y="0" width="21" height="21">
<path d="M6.31656 1.45961C6.43052 1.1633 6.71521 0.967773 7.03269 0.967773H12.9027C13.2109 0.967773 13.4892 1.15222 13.6093 1.43608L15.6253 6.20114C15.8719 6.784 15.3466 7.39796 14.7326 7.24446L10.8927 6.2845C10.3633 6.15214 9.80939 6.15214 9.27994 6.2845L5.3803 7.25941C4.77761 7.41008 4.25507 6.81944 4.47808 6.23961L6.31656 1.45961Z" fill="url(#paint0_linear_904_30137)"/>
<path d="M0.106398 11.0635C-0.151431 10.6252 0.0806979 10.0618 0.572472 9.93243L8.34902 7.88599C8.83553 7.75796 9.31156 8.12491 9.31156 8.62799V19.356C9.31156 19.8797 8.79848 20.2495 8.30165 20.0839L4.98078 18.9769C4.80484 18.9183 4.6561 18.7979 4.56207 18.6381L0.106398 11.0635Z" fill="url(#paint1_linear_904_30137)"/>
<path d="M19.6004 9.93243C20.0922 10.0618 20.3243 10.6252 20.0665 11.0635L15.6108 18.6381C15.5168 18.7979 15.368 18.9183 15.1921 18.9769L11.8712 20.0839C11.3744 20.2495 10.8613 19.8797 10.8613 19.356V8.62799C10.8613 8.12491 11.3373 7.75796 11.8239 7.88599L19.6004 9.93243Z" fill="url(#paint2_linear_904_30137)"/>
</mask>
<g mask="url(#mask0_904_30137)">
<g filter="url(#filter0_f_904_30137)">
<ellipse cx="0.632393" cy="7.11092" rx="6.0113" ry="6.01131" fill="black"/>
</g>
<g filter="url(#filter1_f_904_30137)">
<ellipse cx="19.6158" cy="7.11092" rx="6.0113" ry="6.01131" fill="black"/>
</g>
</g>
<path d="M51.1181 18.2559C50.9789 18.2559 50.866 18.1431 50.866 18.0039V4.79313C50.866 4.7059 50.9111 4.62488 50.9853 4.57892L53.6839 2.90563C53.8518 2.80152 54.0688 2.92228 54.0688 3.11984V8.26078C54.0688 8.34445 54.1654 8.39235 54.2339 8.34439C54.989 7.81625 55.8697 7.55218 56.8762 7.55218C57.6933 7.55218 58.4116 7.73091 59.0311 8.08836C59.6638 8.44581 60.158 8.94227 60.5139 9.57775C60.8697 10.2132 61.0477 10.948 61.0477 11.782V18.0039C61.0477 18.1431 60.9348 18.2559 60.7956 18.2559H58.0969C57.9577 18.2559 57.8449 18.1431 57.8449 18.0039V12.2189C57.8449 11.6364 57.6736 11.173 57.3309 10.8288C56.9882 10.4846 56.5269 10.3125 55.947 10.3125C55.5384 10.3125 55.1759 10.3853 54.8596 10.531C54.5565 10.6766 54.2929 10.8818 54.0688 11.1466V18.0039C54.0688 18.1431 53.956 18.2559 53.8167 18.2559H51.1181Z" fill="black"/>
<path d="M28.7798 17.9183C29.6892 18.2758 30.6712 18.4545 31.7256 18.4545C32.4637 18.4545 33.1952 18.3486 33.9201 18.1368C34.645 17.9117 35.3172 17.6006 35.9366 17.2034C36.4889 16.8375 36.9627 16.4189 37.3578 15.9478C37.4399 15.8499 37.43 15.706 37.3391 15.6163L35.4623 13.7645C35.3563 13.6599 35.1836 13.67 35.0844 13.7811C34.6689 14.2464 34.2083 14.6061 33.7026 14.8601C33.1358 15.1514 32.5164 15.297 31.8442 15.297C31.2643 15.297 30.7239 15.1977 30.223 14.9991C29.7354 14.8005 29.307 14.5225 28.938 14.1651C28.5821 13.7944 28.2987 13.3707 28.0879 12.8941C27.8902 12.4043 27.7913 11.8747 27.7913 11.3054C27.7913 10.7229 27.8902 10.1867 28.0879 9.6969C28.2856 9.20705 28.5623 8.78341 28.9182 8.42595C29.2741 8.0685 29.6892 7.79048 30.1637 7.5919C30.6514 7.38007 31.172 7.27416 31.7256 7.27416C32.4241 7.27416 33.0699 7.42641 33.6631 7.73091C34.1961 7.99863 34.6833 8.38917 35.1247 8.90252C35.2229 9.0167 35.3979 9.02825 35.5051 8.92246L37.4399 7.01256C37.5299 6.92364 37.5406 6.78129 37.4601 6.68358C37.063 6.20129 36.5815 5.78254 36.0157 5.42732C35.3962 5.01691 34.7175 4.69918 33.9794 4.47411C33.2413 4.24905 32.49 4.13652 31.7256 4.13652C30.6843 4.13652 29.709 4.32187 28.7996 4.69256C27.9033 5.05001 27.1125 5.55309 26.4272 6.2018C25.755 6.85051 25.2278 7.61176 24.8456 8.48553C24.4765 9.34606 24.292 10.286 24.292 11.3054C24.292 12.3116 24.4765 13.2516 24.8456 14.1253C25.2278 14.9859 25.755 15.7405 26.4272 16.3892C27.0994 17.0379 27.8836 17.5476 28.7798 17.9183Z" fill="black"/>
<path fill-rule="evenodd" clip-rule="evenodd" d="M40.8035 17.7396C41.6602 18.2162 42.6223 18.4545 43.6899 18.4545C44.7575 18.4545 45.7197 18.2162 46.5764 17.7396C47.4331 17.2497 48.1119 16.5944 48.6127 15.7736C49.1135 14.9528 49.364 14.0327 49.364 13.0133C49.364 11.9939 49.1135 11.0738 48.6127 10.2529C48.1119 9.41888 47.4331 8.76355 46.5764 8.28694C45.7197 7.7971 44.7575 7.55218 43.6899 7.55218C42.6223 7.55218 41.6602 7.7971 40.8035 8.28694C39.9468 8.76355 39.268 9.41888 38.7672 10.2529C38.2663 11.0738 38.0159 11.9939 38.0159 13.0133C38.0159 14.0327 38.2663 14.9528 38.7672 15.7736C39.268 16.5944 39.9468 17.2497 40.8035 17.7396ZM44.9948 15.3169C44.6125 15.5552 44.1776 15.6743 43.6899 15.6743C43.2154 15.6743 42.7805 15.5552 42.3851 15.3169C42.0029 15.0785 41.6997 14.7608 41.4757 14.3636C41.2516 13.9532 41.1396 13.5031 41.1396 13.0133C41.1396 12.5102 41.2516 12.0601 41.4757 11.6629C41.6997 11.2525 42.0029 10.9281 42.3851 10.6898C42.7805 10.4515 43.2154 10.3324 43.6899 10.3324C44.1644 10.3324 44.5928 10.4515 44.975 10.6898C45.3704 10.9281 45.6801 11.2525 45.9042 11.6629C46.1282 12.0601 46.2403 12.5102 46.2403 13.0133C46.2403 13.5031 46.1282 13.9532 45.9042 14.3636C45.6801 14.7608 45.377 15.0785 44.9948 15.3169Z" fill="black"/>
<path fill-rule="evenodd" clip-rule="evenodd" d="M65.2652 17.7396C66.1351 18.2162 67.1038 18.4545 68.1714 18.4545C69.0413 18.4545 69.8189 18.3287 70.5043 18.0772C71.1235 17.8542 71.7272 17.5116 72.3153 17.0494C72.4359 16.9546 72.4382 16.7745 72.3238 16.6724L70.6033 15.138C70.5034 15.049 70.3521 15.0546 70.2492 15.1402C70.0365 15.317 69.792 15.462 69.5158 15.575C69.1599 15.7074 68.7645 15.7736 68.3296 15.7736C67.9342 15.7736 67.5651 15.7074 67.2225 15.575C66.8798 15.4294 66.5832 15.2308 66.3328 14.9793C66.1295 14.7637 65.9601 14.5191 65.8246 14.2453C65.7923 14.1801 65.841 14.1055 65.9137 14.1055H73.2128V13.3111C73.2128 12.1991 72.9822 11.2128 72.5209 10.3522C72.0727 9.49169 71.4533 8.8165 70.6625 8.32666C69.8717 7.82358 68.9622 7.57204 67.9342 7.57204C66.9193 7.57204 65.9967 7.81696 65.1663 8.3068C64.336 8.78341 63.677 9.43212 63.1893 10.2529C62.7148 11.0738 62.4776 11.9939 62.4776 13.0133C62.4776 14.0327 62.728 14.9528 63.2289 15.7736C63.7297 16.5944 64.4085 17.2497 65.2652 17.7396ZM70.0261 11.7322C70.0493 11.7959 70.0008 11.8615 69.933 11.8615H65.835C65.7677 11.8615 65.7192 11.7967 65.7409 11.7329C65.8434 11.432 65.9814 11.177 66.1549 10.9678C66.3657 10.7163 66.6162 10.5243 66.9061 10.3919C67.1961 10.2596 67.519 10.1934 67.8749 10.1934C68.2175 10.1934 68.5339 10.2662 68.8238 10.4118C69.1138 10.5442 69.3642 10.7362 69.5751 10.9877C69.7706 11.1956 69.9209 11.4437 70.0261 11.7322Z" fill="black"/>
<path d="M78.9384 18.4545C77.9499 18.4545 77.0339 18.342 76.1904 18.1169C75.4376 17.9042 74.774 17.6072 74.1997 17.2258C74.085 17.1497 74.0595 16.9939 74.1387 16.8812L75.3831 15.1118C75.4592 15.0036 75.606 14.9729 75.7204 15.0393C76.3004 15.3759 76.8327 15.6272 77.3173 15.7935C77.8577 15.9656 78.3915 16.0516 78.9187 16.0516C79.4459 16.0516 79.861 15.9788 80.1642 15.8332C80.4805 15.6743 80.6387 15.4691 80.6387 15.2176C80.6387 15.019 80.553 14.8601 80.3817 14.741C80.2103 14.6086 79.9401 14.5159 79.5711 14.4629L77.4952 14.1452C76.454 13.9863 75.6566 13.6421 75.103 13.1126C74.5626 12.5698 74.2924 11.8681 74.2924 11.0076C74.2924 10.2927 74.4704 9.68366 74.8262 9.18058C75.1953 8.66426 75.7159 8.27371 76.3881 8.00893C77.0603 7.73091 77.8643 7.5919 78.8 7.5919C79.5645 7.5919 80.3223 7.69781 81.0736 7.90963C81.7384 8.09708 82.3619 8.36745 82.9441 8.72076C83.0678 8.79578 83.0971 8.96072 83.0113 9.07713L81.7813 10.7458C81.7049 10.8495 81.5627 10.8785 81.45 10.8162C80.9547 10.5429 80.4799 10.3419 80.0258 10.2132C79.5118 10.0543 78.9977 9.97492 78.4837 9.97492C78.0751 9.97492 77.7456 10.0477 77.4952 10.1934C77.2448 10.3257 77.1196 10.5045 77.1196 10.7295C77.1196 10.9414 77.2118 11.1135 77.3964 11.2459C77.5809 11.365 77.8972 11.4577 78.3453 11.5239L80.4212 11.8416C81.4492 11.9872 82.2401 12.3315 82.7936 12.8743C83.3604 13.4038 83.6437 14.079 83.6437 14.8998C83.6437 15.5882 83.4394 16.1972 83.0309 16.7268C82.6223 17.2564 82.0621 17.68 81.3504 17.9977C80.6519 18.3022 79.8479 18.4545 78.9384 18.4545Z" fill="black"/>
<path d="M85.2251 7.97384C85.0681 7.87652 84.8653 7.98941 84.8653 8.17409V18.0039C84.8653 18.1431 84.9782 18.2559 85.1174 18.2559H87.816C87.9552 18.2559 88.0681 18.1431 88.0681 18.0039V8.17409C88.0681 7.9894 87.8653 7.87652 87.7083 7.97384V7.97384C86.9477 8.44542 85.9857 8.44543 85.2251 7.97384V7.97384Z" fill="black"/>
<path d="M85.2212 6.92333C85.5639 7.26754 85.979 7.43965 86.4667 7.43965C86.9544 7.43965 87.3695 7.26754 87.7122 6.92333C88.0549 6.57911 88.2262 6.16209 88.2262 5.67224C88.2262 5.1824 88.0549 4.76537 87.7122 4.42116C87.3695 4.07694 86.9544 3.90484 86.4667 3.90484C85.979 3.90484 85.5639 4.07694 85.2212 4.42116C84.8785 4.76537 84.7072 5.1824 84.7072 5.67224C84.7072 6.16209 84.8785 6.57911 85.2212 6.92333Z" fill="black"/>
<path d="M93.9758 18.2559C93.8747 18.2559 93.7834 18.1955 93.7438 18.1025L89.4902 8.10146C89.4195 7.93522 89.5415 7.75077 89.7221 7.75077H92.6503C92.7532 7.75077 92.8457 7.81327 92.8841 7.9087L95.3169 13.9526C95.3508 14.0368 95.4701 14.0368 95.504 13.9526L97.9368 7.9087C97.9752 7.81327 98.0677 7.75077 98.1706 7.75077H101.02C101.2 7.75077 101.322 7.93522 101.252 8.10146L96.998 18.1025C96.9584 18.1955 96.8671 18.2559 96.766 18.2559H93.9758Z" fill="black"/>
<path fill-rule="evenodd" clip-rule="evenodd" d="M104.053 17.7396C104.922 18.2162 105.891 18.4545 106.959 18.4545C107.829 18.4545 108.606 18.3287 109.292 18.0772C109.911 17.8542 110.515 17.5116 111.103 17.0494C111.223 16.9546 111.226 16.7745 111.111 16.6724L109.391 15.138C109.291 15.049 109.139 15.0546 109.037 15.1402C108.824 15.317 108.579 15.462 108.303 15.575C107.947 15.7074 107.552 15.7736 107.117 15.7736C106.722 15.7736 106.353 15.7074 106.01 15.575C105.667 15.4294 105.371 15.2308 105.12 14.9793C104.917 14.7637 104.748 14.5191 104.612 14.2453C104.58 14.1801 104.628 14.1055 104.701 14.1055H111.748C111.887 14.1055 112 13.9926 112 13.8534V13.3111C112 12.1991 111.77 11.2128 111.308 10.3522C110.86 9.49169 110.241 8.8165 109.45 8.32666C108.659 7.82358 107.75 7.57204 106.722 7.57204C105.707 7.57204 104.784 7.81696 103.954 8.3068C103.123 8.78341 102.464 9.43212 101.977 10.2529C101.502 11.0738 101.265 11.9939 101.265 13.0133C101.265 14.0327 101.515 14.9528 102.016 15.7736C102.517 16.5944 103.196 17.2497 104.053 17.7396ZM108.813 11.7322C108.837 11.7959 108.788 11.8615 108.72 11.8615H104.622C104.555 11.8615 104.507 11.7967 104.528 11.7329C104.631 11.432 104.769 11.177 104.942 10.9678C105.153 10.7163 105.404 10.5243 105.694 10.3919C105.983 10.2596 106.306 10.1934 106.662 10.1934C107.005 10.1934 107.321 10.2662 107.611 10.4118C107.901 10.5442 108.152 10.7362 108.362 10.9877C108.558 11.1956 108.708 11.4437 108.813 11.7322Z" fill="black"/>
<defs>
<filter id="filter0_f_904_30137" x="-13.9213" y="-7.44277" width="29.1072" height="29.1072" filterUnits="userSpaceOnUse" color-interpolation-filters="sRGB">
<feFlood flood-opacity="0" result="BackgroundImageFix"/>
<feBlend mode="normal" in="SourceGraphic" in2="BackgroundImageFix" result="shape"/>
<feGaussianBlur stdDeviation="4.27119" result="effect1_foregroundBlur_904_30137"/>
</filter>
<filter id="filter1_f_904_30137" x="5.06211" y="-7.44277" width="29.1072" height="29.1072" filterUnits="userSpaceOnUse" color-interpolation-filters="sRGB">
<feFlood flood-opacity="0" result="BackgroundImageFix"/>
<feBlend mode="normal" in="SourceGraphic" in2="BackgroundImageFix" result="shape"/>
<feGaussianBlur stdDeviation="4.27119" result="effect1_foregroundBlur_904_30137"/>
</filter>
<linearGradient id="paint0_linear_904_30137" x1="10.0864" y1="0.967773" x2="10.0864" y2="20.1238" gradientUnits="userSpaceOnUse">
<stop stop-color="#6900C2"/>
<stop offset="0.407103" stop-color="#D031EA"/>
<stop offset="0.716613" stop-color="#FD86FF"/>
<stop offset="1" stop-color="#FF9EF8"/>
</linearGradient>
<linearGradient id="paint1_linear_904_30137" x1="10.0864" y1="0.967773" x2="10.0864" y2="20.1238" gradientUnits="userSpaceOnUse">
<stop stop-color="#6900C2"/>
<stop offset="0.407103" stop-color="#D031EA"/>
<stop offset="0.716613" stop-color="#FD86FF"/>
<stop offset="1" stop-color="#FF9EF8"/>
</linearGradient>
<linearGradient id="paint2_linear_904_30137" x1="10.0864" y1="0.967773" x2="10.0864" y2="20.1238" gradientUnits="userSpaceOnUse">
<stop stop-color="#6900C2"/>
<stop offset="0.407103" stop-color="#D031EA"/>
<stop offset="0.716613" stop-color="#FD86FF"/>
<stop offset="1" stop-color="#FF9EF8"/>
</linearGradient>
</defs>
</svg>
