<?xml version="1.0" encoding="UTF-8"?>
<!-- Generator: Adobe Illustrator 26.0.1, SVG Export Plug-In . SVG Version: 6.00 Build 0)  -->
<svg xmlns="http://www.w3.org/2000/svg" xmlns:xlink="http://www.w3.org/1999/xlink" version="1.1" id="Livello_1" x="0px" y="0px" viewBox="0 0 377.01 56.69" style="enable-background:new 0 0 377.01 56.69;" xml:space="preserve">
<style type="text/css">
	.st0{fill:#104583;}
</style>
<g>
	<path class="st0" d="M95.59,28.14H83.93c-0.54-4.69-2.88-6.43-5.9-6.43c-4.02,0-6.23,3.42-6.23,10.32c0,7.64,2.28,10.99,6.37,10.99   c2.75,0,5.02-2.01,5.69-5.9h11.86c-1.34,9.25-8.51,14.07-18.22,14.07c-10.25,0-18.02-6.63-18.02-18.43   c0-12.33,8.31-19.23,18.83-19.23S95.25,20.1,95.59,28.14z"></path>
	<path class="st0" d="M133.24,32.36c0,11.46-7.5,18.83-19.23,18.83c-11.73,0-19.23-7.37-19.23-18.83c0-11.52,7.5-18.83,19.23-18.83   C125.74,13.53,133.24,20.84,133.24,32.36z M120.91,32.36c0-7.17-2.61-10.65-6.9-10.65s-6.9,3.48-6.9,10.65   c0,7.1,2.61,10.65,6.9,10.65S120.91,39.46,120.91,32.36z"></path>
	<path class="st0" d="M188.05,35.44c0,1.21,0,2.55,0.07,3.48c0.27,3.62,1.41,4.42,7.1,4.15v7.5c-2.35,0.4-4.56,0.6-7.1,0.6   c-8.91,0-11.59-2.75-11.99-8.24c-0.13-2.08-0.13-3.75-0.13-5.76V22.24h-5.7v-7.5h5.7V5.49h12.06v9.25h7.91v7.5h-7.91V35.44z"></path>
	<path class="st0" d="M230.79,35.37h-24.92c0.6,5.96,3.22,7.64,6.63,7.64s5.49-1.74,5.96-4.49h11.86   c-2.08,8.11-8.78,12.66-17.96,12.66c-10.25,0-18.42-6.1-18.42-18.69c0-10.45,7.17-18.96,19.09-18.96   c11.93,0,17.96,9.11,17.96,18.36C230.99,32.96,230.93,34.17,230.79,35.37z M206.27,28h12.13c-0.67-4.22-2.75-6.3-5.96-6.3   C209.28,21.71,207.07,23.58,206.27,28z"></path>
	<path class="st0" d="M285.8,35.44c0,1.21,0,2.55,0.07,3.48c0.27,3.62,1.41,4.42,7.1,4.15v7.5c-2.35,0.4-4.56,0.6-7.1,0.6   c-8.91,0-11.59-2.75-11.99-8.24c-0.13-2.08-0.13-3.75-0.13-5.76V22.24h-5.7v-7.5h5.7V5.49h12.06v9.25h7.91v7.5h-7.91V35.44z"></path>
	<path class="st0" d="M323.85,24.92H312c-0.54-2.48-1.74-3.89-3.89-3.89c-1.67,0-2.88,1.07-2.88,2.61c0,2.01,1.61,3.35,8.44,5.03   c6.5,1.61,11.12,4.42,11.12,11.32c0,7.64-7.17,11.19-15.81,11.19c-9.71,0-16.35-4.02-17.29-12.06h11.86   c0.67,2.75,2.81,4.56,5.36,4.56c2.14,0,3.82-0.87,3.82-2.75c0-2.28-2.28-3.55-8.64-5.03c-6.83-1.61-10.92-4.76-10.92-10.85   c0-7.1,6.16-11.52,15.68-11.52C317.76,13.53,322.92,18.42,323.85,24.92z"></path>
	<g>
		<g>
			<g>
				<path class="st0" d="M329.52,49.34c0,1.08-0.75,1.85-1.85,1.85c-1.08,0-1.83-0.77-1.83-1.85s0.75-1.85,1.83-1.85      C328.78,47.49,329.52,48.26,329.52,49.34z"></path>
				<path class="st0" d="M341.3,43.4h-2.99c-0.29-1.69-1.17-2.4-2.42-2.4c-1.54,0-2.64,1.25-2.64,3.92c0,2.9,1.1,4.14,2.62,4.14      c1.19,0,2.07-0.75,2.38-2.22h3.04c-0.51,2.88-2.66,4.36-5.59,4.36c-3.19,0-5.59-2.02-5.59-6.07c0-4,2.64-6.25,5.85-6.25      C339.12,38.87,341.08,40.8,341.3,43.4z"></path>
				<path class="st0" d="M353.7,45.03c0,3.54-2.18,6.16-6.07,6.16s-6.07-2.62-6.07-6.16c0-3.56,2.18-6.16,6.07-6.16      S353.7,41.46,353.7,45.03z M350.56,45.03c0-2.53-1.1-4.03-2.93-4.03s-2.93,1.5-2.93,4.03c0,2.51,1.1,4.03,2.93,4.03      S350.56,47.53,350.56,45.03z"></path>
				<path class="st0" d="M372.29,43.9v6.97h-3.04v-6.09c0-0.68-0.02-1.32-0.09-1.91c-0.15-1.21-0.81-1.87-1.98-1.87      c-1.36,0-2.13,1.17-2.13,3.87v6.01h-3.01v-6.09c0-0.68-0.02-1.32-0.09-1.91c-0.15-1.21-0.84-1.87-2-1.87      c-1.36,0-2.11,1.17-2.11,3.87v6.01h-3.04V39.17h3.04v1.78l0.86-1.41c0.66-0.46,1.43-0.68,2.49-0.68c1.91,0,3.12,0.95,3.59,2.22      l1.14-1.54c0.66-0.46,1.45-0.68,2.51-0.68c2.22,0,3.5,1.3,3.76,2.9C372.27,42.36,372.29,42.96,372.29,43.9z"></path>
			</g>
		</g>
	</g>
	<path class="st0" d="M170.43,23.25c-0.94-6.23-5.29-9.72-12.66-9.72c-3.28,0-5.83,0.74-8.04,2.08c-1.95,1.24-2.83,2.74-3.22,3.73   v-4.87h-12.06v35.78h12.06V33.36c0-8.11,2.61-11.66,6.3-11.66c3.62,0,5.49,2.01,5.76,5.43c0.13,1.81,0.13,3.75,0.13,4.89v18.22   h12.06V30.01C170.76,27.13,170.69,25.06,170.43,23.25z"></path>
	<path class="st0" d="M268.18,23.25c-0.94-6.23-5.29-9.72-12.66-9.72c-3.28,0-5.83,0.74-8.04,2.08c-1.95,1.24-2.83,2.74-3.22,3.73   v-4.87H232.2v35.78h12.06V33.36c0-8.11,2.61-11.66,6.3-11.66c3.62,0,5.49,2.01,5.76,5.43c0.13,1.81,0.13,3.75,0.13,4.89v18.22   h12.06V30.01C268.51,27.13,268.45,25.06,268.18,23.25z"></path>
	<g>
		<circle class="st0" cx="10.44" cy="19.45" r="5.72"></circle>
		<path class="st0" d="M43.72,15.25H22.66c-2.32,0-4.19,1.88-4.19,4.19v0c0,2.32,1.88,4.19,4.19,4.19h21.06    c2.32,0,4.19-1.88,4.19-4.19v0C47.91,17.13,46.04,15.25,43.72,15.25z"></path>
		
			<ellipse transform="matrix(0.0985 -0.9951 0.9951 0.0985 -35.8489 51.3822)" class="st0" cx="10.44" cy="45.48" rx="5.72" ry="5.72"></ellipse>
		<path class="st0" d="M43.72,41.28H22.66c-2.32,0-4.19,1.88-4.19,4.19v0c0,2.32,1.88,4.19,4.19,4.19h21.06    c2.32,0,4.19-1.88,4.19-4.19v0C47.91,43.16,46.04,41.28,43.72,41.28z"></path>
		<circle class="st0" cx="10.44" cy="32.46" r="5.72"></circle>
		<path class="st0" d="M43.72,28.27H22.66c-2.32,0-4.19,1.88-4.19,4.19v0c0,2.32,1.88,4.19,4.19,4.19h21.06    c2.32,0,4.19-1.88,4.19-4.19v0C47.91,30.15,46.04,28.27,43.72,28.27z"></path>
	</g>
</g>
</svg>
