<?xml version="1.0" encoding="utf-8"?>
<!-- Generator: Adobe Illustrator 27.4.1, SVG Export Plug-In . SVG Version: 6.00 Build 0)  -->
<svg version="1.1" id="Ebene_1" xmlns="http://www.w3.org/2000/svg" xmlns:xlink="http://www.w3.org/1999/xlink" x="0px" y="0px"
	 viewBox="0 0 126 26" enable-background="new 0 0 126 26" xml:space="preserve">
<path fill="#6F7273" d="M50.87,17.69c-2.6-0.01-4.71-2.11-4.72-4.72c0-2.6,2.11-4.71,4.72-4.72c2.6,0,4.71,2.11,4.72,4.72V13
	C55.58,15.57,53.46,17.66,50.87,17.69z M50.87,4.97c-4.4,0-7.97,3.57-7.97,7.97c0,0,0,0,0,0c0,4.4,3.57,7.97,7.97,7.97c0,0,0,0,0,0
	c4.39,0,7.97-3.55,7.97-7.94c0.03-4.39-3.49-7.97-7.88-8C50.96,4.97,50.87,4.97,50.87,4.97z M74.27,5.18h-2.12
	c-0.27,0-0.51,0.24-0.54,0.51v7.01c0,0.3-0.24,0.54-0.53,0.54c0,0,0,0-0.01,0c-0.13,0-0.26-0.05-0.36-0.15l-0.75-0.72l-7.52-7.01
	c-0.21-0.21-0.57-0.21-0.75,0c-0.09,0.1-0.15,0.22-0.15,0.36v14.42c0,0.3,0.24,0.54,0.54,0.54h2.15c0.27,0,0.51-0.24,0.54-0.51V13
	c0-0.3,0.24-0.54,0.54-0.54c0.15,0,0.3,0.06,0.39,0.15l4.6,4.48l3.46,3.43c0.27,0.24,0.69,0.21,0.96-0.06
	c0.12-0.12,0.15-0.27,0.15-0.45V5.72C74.81,5.42,74.57,5.18,74.27,5.18z M91.22,5.18h-2.36c-0.2,0-0.39,0.12-0.48,0.3l-1.46,3.25
	l-1.94,4.3c-0.13,0.27-0.44,0.39-0.72,0.27c-0.12-0.06-0.21-0.15-0.27-0.27L82.06,8.7C81.28,7,80.6,5.45,80.6,5.45
	c-0.09-0.18-0.27-0.3-0.48-0.3h-2.36c-0.3,0-0.54,0.24-0.54,0.53c0,0,0,0,0,0.01c0,0.06,0.03,0.15,0.06,0.21l1.32,2.8l5.43,11.7
	c0.12,0.27,0.45,0.39,0.72,0.27c0.12-0.06,0.21-0.15,0.27-0.27l5.46-11.7l1.31-2.81c0.12-0.27,0-0.59-0.27-0.72L91.22,5.18
	L91.22,5.18z M113.7,5.18h-2.36c-0.2,0-0.39,0.12-0.48,0.3c0,0-0.72,1.55-1.46,3.25l-1.94,4.3c-0.11,0.26-0.41,0.39-0.67,0.28
	c-0.01,0-0.01,0-0.02-0.01c-0.12-0.06-0.21-0.15-0.27-0.27l-1.94-4.33l-1.46-3.25c-0.09-0.18-0.27-0.3-0.48-0.3h-2.36
	c-0.3,0-0.54,0.24-0.54,0.53c0,0,0,0,0,0c0,0.06,0.03,0.15,0.06,0.21l1.31,2.81l5.43,11.7c0.13,0.27,0.44,0.39,0.72,0.27
	c0.12-0.06,0.21-0.15,0.27-0.27l5.46-11.7l1.31-2.81c0.12-0.27,0-0.59-0.27-0.72C113.85,5.18,113.76,5.15,113.7,5.18L113.7,5.18z
	 M96.78,20.67c0.3,0,0.54-0.24,0.54-0.53c0,0,0,0,0,0V5.69c0-0.3-0.24-0.54-0.51-0.54h-2.15c-0.3,0-0.54,0.24-0.54,0.53c0,0,0,0,0,0
	v14.45c0,0.3,0.24,0.54,0.54,0.54L96.78,20.67L96.78,20.67z M119.91,15.6h-2.39c-0.29,0-0.54-0.24-0.54-0.53c0,0,0,0,0-0.01
	c0-0.07,0.02-0.15,0.06-0.21l1.19-2.6c0.13-0.27,0.44-0.39,0.72-0.27c0.12,0.06,0.21,0.15,0.27,0.27l1.19,2.6
	c0.12,0.27,0,0.57-0.27,0.72C120.09,15.57,120,15.6,119.91,15.6z M125.94,19.89l-0.45-1.01l-6.27-13.43
	c-0.11-0.26-0.42-0.37-0.67-0.26c-0.01,0.01-0.03,0.01-0.04,0.02c-0.12,0.06-0.21,0.15-0.24,0.24L112,18.88l-0.48,1.05
	c-0.13,0.26-0.02,0.58,0.24,0.72c0.09,0.03,0.15,0.06,0.24,0.06h2c0.39,0,0.51-0.12,0.66-0.42l0.63-1.37l0.09-0.24
	c0.09-0.18,0.27-0.33,0.48-0.3h5.73c0.2,0,0.39,0.12,0.48,0.3l0.12,0.24l0.63,1.37c0.15,0.33,0.24,0.42,0.66,0.42h2
	c0.3,0,0.54-0.24,0.54-0.53c0,0,0,0,0-0.01c0-0.09-0.03-0.15-0.06-0.24L125.94,19.89L125.94,19.89z M32.09,12.85
	c0-1.22,0.45-2.42,1.28-3.34c0.84-0.9,2-1.4,3.25-1.4c1.08,0,2.09,0.36,2.93,1.02c0.22,0.16,0.53,0.13,0.72-0.06l1.31-1.37
	c0.21-0.21,0.18-0.54-0.03-0.75l-0.03-0.03c-1.38-1.23-3.17-1.88-5.01-1.82c-4.3,0-7.79,3.46-7.85,7.76v0.12
	c0.03,4.3,3.55,7.76,7.85,7.76c1.84,0.06,3.64-0.59,5.01-1.82c0.24-0.18,0.27-0.51,0.06-0.75c0,0,0-0.03-0.03-0.03l-1.31-1.37
	c-0.18-0.21-0.51-0.21-0.72-0.06c-0.83,0.66-1.86,1.02-2.92,1.01c-1.23,0-2.41-0.51-3.25-1.4c-0.83-0.92-1.28-2.11-1.28-3.34v-0.12
	L32.09,12.85L32.09,12.85z M14.54,10.07c-0.18-0.33-0.09-0.75,0.24-0.93l3.43-1.97c0.18-0.09,0.24-0.33,0.15-0.48
	c-0.03-0.06-0.09-0.09-0.15-0.15l-6.77-3.94c-0.22-0.12-0.49-0.12-0.72,0L3.94,6.55C3.76,6.64,3.7,6.88,3.82,7.06
	c0.03,0.06,0.09,0.09,0.12,0.12l3.43,1.97c0.32,0.17,0.44,0.56,0.27,0.88c-0.01,0.02-0.02,0.03-0.03,0.04
	c-0.17,0.32-0.56,0.44-0.88,0.27c-0.02-0.01-0.03-0.02-0.05-0.03L1.76,7.48C1.43,7.27,1.31,6.84,1.49,6.49
	c0.06-0.12,0.15-0.21,0.27-0.27l8.95-5.16c0.22-0.12,0.49-0.12,0.72,0l8.95,5.16c0.33,0.21,0.45,0.64,0.27,0.99
	c-0.06,0.12-0.15,0.21-0.27,0.27l-4.93,2.84C15.14,10.5,14.73,10.39,14.54,10.07z"/>
<path fill="#8BC400" d="M18.33,17.06l-6.21-3.58c-0.22-0.13-0.36-0.37-0.36-0.63V5.66c0-0.39,0.33-0.72,0.72-0.72
	c0.12,0,0.24,0.03,0.36,0.09l2.27,1.31c0.32,0.17,0.44,0.56,0.27,0.88c-0.01,0.02-0.02,0.03-0.03,0.05
	c-0.17,0.32-0.56,0.44-0.88,0.27c-0.02-0.01-0.03-0.02-0.05-0.03l-0.78-0.45c-0.18-0.09-0.39-0.03-0.48,0.12
	c-0.03,0.05-0.05,0.11-0.06,0.18v4.66c0,0.27,0.15,0.51,0.36,0.63l4.6,2.69V13.8c0-0.39,0.3-0.69,0.69-0.69s0.69,0.3,0.69,0.69v2.63
	c0,0.39-0.3,0.72-0.69,0.72C18.6,17.15,18.46,17.12,18.33,17.06L18.33,17.06z"/>
<path fill="#6F7273" d="M11.76,24.82v-5.67c0.01-0.37,0.31-0.66,0.68-0.66c0,0,0,0,0,0c0.39,0,0.69,0.3,0.69,0.69v3.94
	c0,0.21,0.15,0.36,0.36,0.36c0.06,0,0.12-0.03,0.18-0.06l6.77-3.91c0.22-0.13,0.36-0.37,0.36-0.63v-7.85
	c0.01-0.19-0.14-0.35-0.33-0.36c-0.01,0-0.02,0-0.03,0c-0.06,0-0.12,0.03-0.18,0.06l-3.43,1.97c-0.32,0.19-0.73,0.08-0.93-0.24
	c-0.18-0.33-0.09-0.75,0.24-0.93l4.93-2.83c0.33-0.21,0.78-0.09,0.99,0.27c0.06,0.12,0.09,0.24,0.09,0.36v10.36
	c0,0.27-0.15,0.51-0.36,0.63l-8.96,5.16c-0.33,0.21-0.78,0.09-0.98-0.27C11.79,25.09,11.76,24.95,11.76,24.82L11.76,24.82z"/>
<path fill="#8BC400" d="M2.72,16.43v-2.63c0-0.39,0.3-0.69,0.69-0.69s0.69,0.3,0.69,0.69v1.52l4.57-2.66
	c0.22-0.13,0.36-0.37,0.36-0.63V7.39C9.02,7.2,8.87,7.04,8.68,7.03c-0.01,0-0.02,0-0.03,0c-0.06,0-0.12,0.03-0.18,0.06L7.7,7.54
	C7.38,7.71,6.98,7.61,6.78,7.3C6.6,6.97,6.72,6.55,7.01,6.34l2.27-1.31c0.33-0.21,0.78-0.09,0.98,0.24
	c0.06,0.12,0.12,0.24,0.12,0.39v7.19c0,0.27-0.15,0.51-0.36,0.63l-6.21,3.58c-0.33,0.21-0.78,0.09-0.99-0.24
	C2.75,16.71,2.71,16.57,2.72,16.43L2.72,16.43z"/>
<path fill="#6F7273" d="M9.28,25.44l-8.93-5.16C0.14,20.15,0,19.91,0,19.65V9.3c0.01-0.4,0.33-0.72,0.74-0.72
	c0.12,0,0.24,0.03,0.34,0.09l4.9,2.84c0.32,0.17,0.44,0.56,0.27,0.88c-0.01,0.02-0.02,0.03-0.03,0.05
	c-0.17,0.32-0.56,0.44-0.88,0.27c-0.02-0.01-0.03-0.02-0.04-0.03l-3.4-1.94C1.7,10.64,1.49,10.7,1.4,10.85
	c-0.06,0.06-0.06,0.12-0.06,0.18v7.85c0,0.27,0.15,0.51,0.36,0.63l6.78,3.91c0.18,0.09,0.39,0.03,0.48-0.12
	c0.03-0.06,0.06-0.12,0.06-0.18v-3.97c0-0.39,0.3-0.69,0.69-0.69c0.37-0.01,0.68,0.28,0.69,0.65c0,0,0,0,0,0v5.67
	c-0.01,0.39-0.32,0.71-0.72,0.72C9.55,25.56,9.4,25.5,9.28,25.44L9.28,25.44z"/>
<path fill="#8BC400" d="M14.45,20.58c-0.17-0.32-0.07-0.73,0.24-0.92l0.77-0.45c0.18-0.09,0.24-0.33,0.12-0.48
	c-0.03-0.06-0.09-0.09-0.12-0.12l-4.03-2.33c-0.22-0.12-0.49-0.12-0.72,0l-4.03,2.33c-0.17,0.09-0.24,0.3-0.15,0.47
	c0,0,0,0.01,0.01,0.01c0.03,0.06,0.09,0.12,0.15,0.15l0.78,0.45c0.32,0.17,0.44,0.56,0.27,0.88c-0.01,0.02-0.02,0.03-0.03,0.05
	c-0.17,0.32-0.56,0.44-0.88,0.27c-0.02-0.01-0.03-0.02-0.05-0.03l-2.27-1.31c-0.33-0.21-0.45-0.64-0.27-0.99
	c0.06-0.12,0.15-0.21,0.27-0.27l6.21-3.58c0.22-0.12,0.49-0.12,0.72,0l6.21,3.58c0.33,0.21,0.45,0.64,0.27,0.99
	c-0.06,0.12-0.15,0.21-0.27,0.27l-2.27,1.28C15.05,20.99,14.65,20.89,14.45,20.58L14.45,20.58z"/>
</svg>
