<?xml version="1.0" encoding="utf-8"?>
<!-- Generator: Adobe Illustrator 26.1.0, SVG Export Plug-In . SVG Version: 6.00 Build 0)  -->
<svg version="1.1" id="Layer_2" xmlns="http://www.w3.org/2000/svg" xmlns:xlink="http://www.w3.org/1999/xlink" x="0px" y="0px"
	 viewBox="0 0 387.3 71.6" style="enable-background:new 0 0 387.3 71.6;" xml:space="preserve">
<style type="text/css">
	.st0{fill:#2E16E6;}
	.st1{fill:#13212E;}
</style>
<g>
	<path class="st0" d="M59,0H30c-4.4,2.1-6.7,6-7,11.7h29C56.4,9.7,58.7,5.7,59,0L59,0z"/>
	<path class="st0" d="M36,29.9H7c-4.4,2.1-6.7,6-7,11.7h29C33.4,39.6,35.7,35.7,36,29.9L36,29.9z"/>
	<path class="st0" d="M58.1,59.9h-29c-4.4,2.1-6.7,6-7,11.7h29C55.5,69.6,57.8,65.6,58.1,59.9L58.1,59.9z"/>
	<path class="st0" d="M69,15H18.1c-4.4,2.1-6.7,6-7,11.7H62C66.4,24.7,68.7,20.7,69,15L69,15z"/>
	<path class="st0" d="M70,44.9H19.1c-4.4,2.1-6.7,6-7,11.7H63C67.4,54.6,69.7,50.7,70,44.9L70,44.9z"/>
</g>
<g>
	<path class="st1" d="M102.8,53.4c-4.9,0-9-1.6-12.3-4.9c-3.3-3.3-4.9-7.4-4.9-12.2c0-4.9,1.6-8.9,4.9-12.2
		c3.3-3.3,7.4-4.9,12.3-4.9c3.2,0,6,0.8,8.6,2.3c2.6,1.5,4.6,3.6,5.9,6.1l-7.2,4.2c-0.6-1.3-1.6-2.4-3-3.2c-1.3-0.8-2.8-1.2-4.5-1.2
		c-2.5,0-4.6,0.8-6.2,2.5c-1.6,1.7-2.5,3.8-2.5,6.4c0,2.6,0.8,4.7,2.5,6.3c1.6,1.7,3.7,2.5,6.2,2.5c1.7,0,3.2-0.4,4.5-1.1
		c1.3-0.8,2.3-1.8,3-3.2l7.3,4.2c-1.4,2.6-3.4,4.6-6,6.1C108.8,52.6,105.9,53.4,102.8,53.4z"/>
	<path class="st1" d="M147.4,48.4c-3.3,3.3-7.4,5-12.2,5s-8.9-1.7-12.2-5s-5-7.4-5-12.2s1.7-8.9,5-12.2s7.4-5,12.2-5s8.9,1.7,12.2,5
		c3.3,3.3,5,7.4,5,12.2S150.8,45.1,147.4,48.4z M128.9,42.6c1.7,1.7,3.8,2.5,6.3,2.5c2.5,0,4.6-0.8,6.3-2.5c1.7-1.7,2.5-3.8,2.5-6.4
		s-0.8-4.7-2.5-6.4c-1.7-1.7-3.8-2.5-6.3-2.5c-2.5,0-4.6,0.8-6.3,2.5c-1.7,1.7-2.5,3.8-2.5,6.4S127.3,40.9,128.9,42.6z"/>
	<path class="st1" d="M175.6,19c4.4,0,8.1,1.7,11.2,5c3.1,3.3,4.6,7.4,4.6,12.2s-1.5,8.9-4.6,12.2c-3.1,3.3-6.8,5-11.2,5
		c-4.5,0-8.1-1.6-10.5-4.7v16.8h-8.4V20h8.4v3.8C167.6,20.6,171.1,19,175.6,19z M167.7,42.8c1.7,1.7,3.8,2.6,6.4,2.6
		s4.8-0.9,6.5-2.6c1.7-1.7,2.6-3.9,2.6-6.6c0-2.7-0.9-4.9-2.6-6.6c-1.7-1.7-3.9-2.6-6.5-2.6s-4.7,0.9-6.4,2.6
		c-1.7,1.7-2.5,3.9-2.5,6.6C165.1,38.9,166,41.1,167.7,42.8z"/>
	<path class="st1" d="M215.7,20h9l-11.8,32.5c-1.7,4.7-3.9,8.1-6.7,10.2c-2.8,2.1-6.3,3-10.4,2.8v-7.8c2.3,0,4-0.4,5.4-1.4
		c1.3-1,2.4-2.6,3.2-4.8L190.9,20h9.2l8.4,21.8L215.7,20z"/>
	<path class="st1" d="M262.9,19c3.7,0,6.7,1.2,8.9,3.6c2.2,2.4,3.3,5.7,3.3,9.8v20h-8.4V33c0-2-0.5-3.5-1.4-4.6
		c-1-1.1-2.3-1.6-4-1.6c-1.9,0-3.4,0.6-4.5,1.9c-1.1,1.3-1.6,3.1-1.6,5.5v18.3H247V33c0-2-0.5-3.5-1.4-4.6c-1-1.1-2.3-1.6-4-1.6
		c-1.9,0-3.3,0.6-4.5,1.9c-1.1,1.3-1.7,3.1-1.7,5.5v18.3H227V20h8.4v3.4c2-2.9,5-4.4,9-4.4c4,0,6.9,1.6,8.8,4.7
		C255.4,20.6,258.7,19,262.9,19z"/>
	<path class="st1" d="M305.4,20h8.4v32.5h-8.4v-3.8c-2.5,3.2-6,4.7-10.6,4.7c-4.3,0-8-1.7-11.1-5c-3.1-3.3-4.6-7.4-4.6-12.2
		s1.5-8.9,4.6-12.2c3.1-3.3,6.8-5,11.1-5c4.5,0,8.1,1.6,10.6,4.7V20z M290,42.8c1.7,1.7,3.8,2.6,6.4,2.6s4.8-0.9,6.5-2.6
		c1.7-1.7,2.6-3.9,2.6-6.6c0-2.7-0.9-4.9-2.6-6.6c-1.7-1.7-3.9-2.6-6.5-2.6s-4.7,0.9-6.4,2.6c-1.7,1.7-2.5,3.9-2.5,6.6
		C287.4,38.9,288.3,41.1,290,42.8z"/>
	<path class="st1" d="M338.4,28h-7.3v13.5c0,1.1,0.3,2,0.8,2.5c0.6,0.5,1.4,0.8,2.5,0.9c1.1,0.1,2.4,0.1,4,0v7.6
		c-5.8,0.7-9.8,0.1-12.2-1.6c-2.4-1.7-3.5-4.8-3.5-9.3V28H317V20h5.7v-6.6l8.4-2.5V20h7.3V28z"/>
	<path class="st1" d="M346.9,16.1c-1.4,0-2.6-0.5-3.6-1.5c-1-1-1.5-2.2-1.5-3.6c0-1.4,0.5-2.6,1.5-3.6c1-1,2.2-1.6,3.6-1.6
		c1.4,0,2.7,0.5,3.7,1.6c1,1,1.5,2.3,1.5,3.6c0,1.4-0.5,2.6-1.5,3.6C349.5,15.5,348.3,16.1,346.9,16.1z M342.7,52.5V20h8.4v32.5
		H342.7z"/>
	<path class="st1" d="M372.6,53.4c-4.9,0-9-1.6-12.3-4.9c-3.3-3.3-4.9-7.4-4.9-12.2c0-4.9,1.6-8.9,4.9-12.2
		c3.3-3.3,7.4-4.9,12.3-4.9c3.2,0,6,0.8,8.6,2.3c2.6,1.5,4.6,3.6,5.9,6.1l-7.2,4.2c-0.7-1.3-1.6-2.4-3-3.2c-1.3-0.8-2.8-1.2-4.5-1.2
		c-2.5,0-4.6,0.8-6.2,2.5c-1.6,1.7-2.5,3.8-2.5,6.4c0,2.6,0.8,4.7,2.5,6.3c1.6,1.7,3.7,2.5,6.2,2.5c1.7,0,3.2-0.4,4.5-1.1
		c1.3-0.8,2.3-1.8,3-3.2l7.3,4.2c-1.4,2.6-3.4,4.6-6,6.1C378.6,52.6,375.8,53.4,372.6,53.4z"/>
</g>
</svg>
