<?xml version="1.0" encoding="utf-8"?>
<!-- Generator: Adobe Illustrator 27.4.1, SVG Export Plug-In . SVG Version: 6.00 Build 0)  -->
<svg version="1.1" id="Ebene_1" xmlns="http://www.w3.org/2000/svg" xmlns:xlink="http://www.w3.org/1999/xlink" x="0px" y="0px"
	 viewBox="0 0 82 24" enable-background="new 0 0 82 24" xml:space="preserve">
<defs>
	<filter id="Adobe_OpacityMaskFilter" filterUnits="userSpaceOnUse" x="0" y="4" width="16" height="16">
		<feColorMatrix  type="matrix" values="1 0 0 0 0  0 1 0 0 0  0 0 1 0 0  0 0 0 1 0"/>
	</filter>
</defs>
<mask maskUnits="userSpaceOnUse" x="0" y="4" width="16" height="16" id="mask0_660_2156_00000025436035499024482950000002444476842142358435_">
	<path fill="#FFFFFF" filter="url(#Adobe_OpacityMaskFilter)" d="M16,4H0v16h16V4z"/>
</mask>
<g mask="url(#mask0_660_2156_00000025436035499024482950000002444476842142358435_)">
	<path fill="#CC5514" d="M15.87,7.32l-3.19-3.19c-0.18-0.18-0.46-0.18-0.64,0L1.51,14.66c-0.18,0.18-0.18,0.46,0,0.64
		c0.32,0.32-1.4,3.54-1.51,3.78L0.92,20c0.24-0.11,3.46-1.83,3.78-1.51c0.18,0.18,0.46,0.18,0.64,0L15.87,7.96
		C16.04,7.79,16.04,7.5,15.87,7.32z"/>
	<path fill="#FB923C" d="M1.84,14.33l9.9-9.9l3.83,3.83l-9.9,9.9L1.84,14.33z"/>
	<path fill="#292F33" d="M10.46,5.71l0.64-0.64l3.83,3.83l-0.64,0.64L10.46,5.71z M2.48,13.69l0.64-0.64l3.83,3.83l-0.64,0.64
		L2.48,13.69z"/>
	<path fill="#BA4D12" d="M11.95,8.16c-0.68-0.68-2.66,0.21-4.43,1.98c-1.77,1.77-2.66,3.75-1.98,4.43c0.68,0.68,2.66-0.21,4.43-1.98
		C11.74,10.82,12.63,8.83,11.95,8.16z"/>
</g>
<path fill="#0F0F0F" d="M27.71,17.16c-1.01,0-1.88-0.17-2.61-0.5c-0.71-0.33-1.27-0.82-1.68-1.46c-0.39-0.64-0.61-1.43-0.66-2.38
	c-0.01-0.44-0.02-0.91-0.02-1.41c0-0.5,0.01-0.98,0.02-1.44c0.04-0.93,0.27-1.71,0.67-2.35c0.41-0.65,0.97-1.14,1.7-1.47
	c0.73-0.34,1.58-0.51,2.58-0.51c0.7,0,1.35,0.09,1.95,0.27c0.6,0.17,1.12,0.43,1.57,0.77c0.45,0.33,0.79,0.74,1.04,1.22
	c0.26,0.47,0.39,1,0.4,1.6c0.01,0.1-0.02,0.18-0.1,0.24c-0.06,0.06-0.14,0.1-0.24,0.1h-2.16c-0.14,0-0.25-0.03-0.32-0.08
	c-0.07-0.06-0.14-0.18-0.19-0.34c-0.15-0.57-0.39-0.95-0.74-1.15c-0.33-0.21-0.74-0.32-1.23-0.32c-0.59,0-1.05,0.17-1.39,0.5
	c-0.34,0.32-0.53,0.86-0.56,1.62c-0.03,0.87-0.03,1.77,0,2.69c0.03,0.76,0.22,1.3,0.56,1.63c0.34,0.32,0.81,0.48,1.39,0.48
	c0.49,0,0.91-0.11,1.25-0.32c0.34-0.21,0.58-0.6,0.72-1.15c0.04-0.16,0.1-0.27,0.18-0.32c0.09-0.06,0.2-0.1,0.34-0.1h2.16
	c0.1,0,0.18,0.03,0.24,0.1c0.07,0.06,0.11,0.14,0.1,0.24c-0.01,0.6-0.14,1.14-0.4,1.62c-0.25,0.47-0.59,0.87-1.04,1.22
	c-0.45,0.33-0.97,0.59-1.57,0.77C29.07,17.07,28.42,17.16,27.71,17.16z M34.26,17c-0.12,0-0.21-0.04-0.29-0.11
	c-0.07-0.07-0.11-0.17-0.11-0.29V9.08c0-0.11,0.04-0.2,0.11-0.27c0.07-0.09,0.17-0.13,0.29-0.13h1.84c0.12,0,0.21,0.04,0.29,0.13
	c0.07,0.07,0.11,0.17,0.11,0.27v0.64c0.29-0.33,0.63-0.59,1.02-0.77c0.41-0.18,0.86-0.27,1.36-0.27h0.7c0.11,0,0.2,0.04,0.27,0.11
	c0.09,0.07,0.13,0.17,0.13,0.29v1.65c0,0.11-0.04,0.2-0.13,0.29c-0.07,0.07-0.17,0.11-0.27,0.11h-1.55c-0.44,0-0.78,0.12-1.02,0.37
	c-0.23,0.23-0.35,0.57-0.35,1.01v4.1c0,0.12-0.04,0.21-0.13,0.29C36.46,16.96,36.36,17,36.24,17H34.26z M55.72,20.04
	c-0.1,0-0.18-0.03-0.24-0.1c-0.06-0.06-0.1-0.14-0.1-0.24c0-0.02,0-0.05,0-0.1c0.01-0.03,0.03-0.07,0.05-0.11l1.25-3.01L53.6,9.22
	c-0.03-0.07-0.05-0.14-0.05-0.19c0.02-0.1,0.06-0.18,0.13-0.24c0.06-0.07,0.14-0.11,0.24-0.11h1.82c0.14,0,0.24,0.04,0.3,0.11
	c0.07,0.06,0.12,0.14,0.14,0.22l1.84,4.66l1.87-4.66c0.04-0.09,0.1-0.16,0.16-0.22c0.07-0.07,0.18-0.11,0.32-0.11h1.79
	c0.1,0,0.18,0.04,0.24,0.11c0.07,0.06,0.11,0.14,0.11,0.22c0,0.05-0.02,0.12-0.05,0.21L57.96,19.7c-0.03,0.09-0.09,0.16-0.16,0.22
	c-0.07,0.07-0.18,0.11-0.32,0.11H55.72z M67.01,17.16c-0.9,0-1.65-0.14-2.27-0.43c-0.61-0.29-1.08-0.7-1.41-1.23
	c-0.32-0.54-0.5-1.19-0.54-1.94c-0.01-0.21-0.02-0.45-0.02-0.72c0-0.28,0.01-0.52,0.02-0.72c0.04-0.76,0.23-1.4,0.58-1.94
	c0.34-0.53,0.82-0.94,1.42-1.23c0.62-0.29,1.36-0.43,2.22-0.43c0.87,0,1.62,0.14,2.22,0.43c0.62,0.29,1.1,0.7,1.44,1.23
	c0.34,0.53,0.53,1.18,0.58,1.94c0.01,0.2,0.02,0.44,0.02,0.72c0,0.27-0.01,0.51-0.02,0.72c-0.04,0.75-0.23,1.39-0.56,1.94
	c-0.32,0.53-0.79,0.94-1.41,1.23C68.68,17.02,67.92,17.16,67.01,17.16z M67.01,15.21c0.48,0,0.83-0.14,1.04-0.43
	c0.22-0.29,0.35-0.72,0.38-1.3c0.01-0.16,0.02-0.37,0.02-0.64s-0.01-0.48-0.02-0.64c-0.03-0.57-0.16-0.99-0.38-1.28
	c-0.21-0.3-0.56-0.45-1.04-0.45c-0.47,0-0.82,0.15-1.04,0.45c-0.22,0.29-0.35,0.71-0.37,1.28c-0.01,0.16-0.02,0.37-0.02,0.64
	s0.01,0.48,0.02,0.64c0.02,0.58,0.14,1.01,0.37,1.3C66.2,15.06,66.54,15.21,67.01,15.21z M72.92,17c-0.12,0-0.21-0.04-0.29-0.11
	c-0.07-0.07-0.11-0.17-0.11-0.29V9.08c0-0.12,0.04-0.21,0.11-0.29s0.17-0.11,0.29-0.11h1.84c0.12,0,0.21,0.04,0.29,0.11
	s0.11,0.17,0.11,0.29v0.61c0.28-0.33,0.64-0.61,1.09-0.83s0.98-0.34,1.58-0.34c0.62,0,1.16,0.14,1.63,0.42
	c0.48,0.28,0.85,0.69,1.12,1.23C80.87,10.7,81,11.36,81,12.14v4.46c0,0.12-0.04,0.21-0.13,0.29C80.8,16.96,80.71,17,80.6,17h-2.02
	c-0.11,0-0.2-0.04-0.29-0.11c-0.07-0.07-0.11-0.17-0.11-0.29v-4.37c0-0.5-0.12-0.89-0.37-1.15c-0.23-0.28-0.59-0.42-1.06-0.42
	c-0.44,0-0.79,0.14-1.06,0.42c-0.26,0.27-0.38,0.65-0.38,1.15v4.37c0,0.12-0.04,0.21-0.13,0.29C75.12,16.96,75.03,17,74.92,17H72.92
	z"/>
<path fill="#CC5514" d="M43.3,17.16c-0.58,0-1.09-0.11-1.55-0.32c-0.45-0.22-0.81-0.52-1.07-0.9c-0.27-0.37-0.4-0.79-0.4-1.26
	c0-0.76,0.31-1.35,0.93-1.79c0.62-0.45,1.44-0.75,2.46-0.91l2-0.3v-0.22c0-0.38-0.08-0.68-0.24-0.88c-0.16-0.2-0.45-0.3-0.88-0.3
	c-0.3,0-0.54,0.06-0.74,0.18c-0.18,0.12-0.33,0.28-0.43,0.48c-0.1,0.14-0.23,0.21-0.4,0.21h-1.79c-0.12,0-0.21-0.03-0.27-0.1
	c-0.06-0.07-0.09-0.16-0.08-0.26c0-0.19,0.07-0.41,0.21-0.66c0.15-0.26,0.37-0.51,0.67-0.75c0.3-0.25,0.68-0.45,1.15-0.61
	s1.03-0.24,1.7-0.24c0.69,0,1.29,0.08,1.78,0.24s0.89,0.38,1.18,0.67c0.31,0.29,0.54,0.63,0.69,1.02c0.15,0.38,0.22,0.81,0.22,1.28
	v4.86c0,0.12-0.04,0.21-0.13,0.29C48.23,16.96,48.14,17,48.04,17h-1.86c-0.12,0-0.21-0.04-0.29-0.11c-0.07-0.07-0.11-0.17-0.11-0.29
	v-0.56c-0.14,0.2-0.33,0.39-0.56,0.56c-0.23,0.17-0.51,0.3-0.83,0.4C44.08,17.11,43.72,17.16,43.3,17.16z M44.05,15.34
	c0.31,0,0.59-0.06,0.83-0.19c0.26-0.14,0.45-0.35,0.59-0.62c0.15-0.29,0.22-0.65,0.22-1.07v-0.22l-1.36,0.24
	c-0.5,0.09-0.87,0.22-1.1,0.4c-0.22,0.17-0.34,0.37-0.34,0.61c0,0.18,0.05,0.34,0.16,0.46c0.11,0.13,0.25,0.23,0.42,0.3
	C43.65,15.3,43.84,15.34,44.05,15.34z M50.32,17c-0.12,0-0.21-0.04-0.29-0.11c-0.07-0.07-0.11-0.17-0.11-0.29V9.08
	c0-0.12,0.04-0.21,0.11-0.29s0.17-0.11,0.29-0.11h1.89c0.11,0,0.2,0.04,0.27,0.11c0.09,0.07,0.13,0.17,0.13,0.29v7.52
	c0,0.12-0.04,0.21-0.13,0.29C52.41,16.96,52.32,17,52.21,17H50.32z M50.31,7.48c-0.12,0-0.21-0.04-0.29-0.11
	c-0.07-0.07-0.11-0.17-0.11-0.29V5.66c0-0.12,0.04-0.21,0.11-0.29c0.07-0.09,0.17-0.13,0.29-0.13h1.9c0.12,0,0.21,0.04,0.29,0.13
	c0.09,0.07,0.13,0.17,0.13,0.29v1.42c0,0.12-0.04,0.21-0.13,0.29c-0.07,0.07-0.17,0.11-0.29,0.11H50.31z"/>
</svg>
