<svg xmlns="http://www.w3.org/2000/svg" viewBox="0 0 87.73 118.17"><defs><style>.cls-1{fill:#234eb5;}.cls-2{fill:#255cbb;}.cls-3{fill:#2c85cb;}.cls-4{fill:#09153a;}.cls-5{fill:#30a1d6;}.cls-6{fill:#2141b0;}.cls-7{fill:#39d7ec;}.cls-8{fill:#286ac0;}.cls-9{fill:#37cae7;}.cls-10{fill:#35bce1;}</style></defs><title>アセット 1</title><g id="レイヤー_2" data-name="レイヤー 2"><g id="グループ化_56" data-name="グループ化 56"><path id="パス_112" data-name="パス 112" class="cls-1" d="M87.72,84.4h0V50.64L58.49,67.52h0Z"/><path id="パス_113" data-name="パス 113" class="cls-2" d="M87.72,16.88,58.48,33.76,87.72,50.64Z"/><path id="パス_114" data-name="パス 114" class="cls-3" d="M29.25,50.64V84.41L58.49,67.53V33.77Z"/><path id="パス_115" data-name="パス 115" class="cls-4" d="M87.72,89.72,63.08,103.94l24.65,14.23Z"/><path id="パス_116" data-name="パス 116" class="cls-1" d="M58.48,101.29V67.52L29.24,84.41Z"/><path id="パス_117" data-name="パス 117" class="cls-5" d="M0,67.52H0L29.24,84.4V50.64L0,67.52Z"/><path id="パス_118" data-name="パス 118" class="cls-5" d="M29.24,16.88,0,33.76,29.24,50.63Z"/><path id="パス_119" data-name="パス 119" class="cls-5" d="M0,33.77H0Z"/><path id="パス_120" data-name="パス 120" class="cls-6" d="M87.71,84.41h0L58.5,67.53h0l0,33.76Z"/><path id="パス_121" data-name="パス 121" class="cls-7" d="M0,33.77H0V67.52H0L29.24,50.64h0Z"/><path id="パス_122" data-name="パス 122" class="cls-8" d="M58.48,33.77V67.52L87.72,50.64Z"/><path id="パス_123" data-name="パス 123" class="cls-9" d="M29.25,16.88V50.64L58.48,33.77Z"/><path id="パス_124" data-name="パス 124" class="cls-10" d="M58.49,0V33.77L87.72,16.88Z"/></g></g></svg>