<svg width="140" height="46" viewBox="0 0 140 46" fill="none" xmlns="http://www.w3.org/2000/svg">
<g clip-path="url(#clip0_3248_20781)">
<path d="M77.3095 39.56C69.1397 39.56 63.5859 34.127 63.5859 25.5146C63.5859 17.4656 69.6629 11.791 77.229 11.791C81.173 11.791 84.1511 12.9179 86.928 15.7753L83.6279 19.6388C81.8169 17.8278 79.7644 16.9424 77.2692 16.9424C72.6813 16.9424 69.7032 20.6047 69.7032 25.5146C69.7032 31.0281 72.3996 34.4087 77.3497 34.4087C80.7303 34.4087 82.3803 32.9599 84.1109 31.3501L87.4914 35.2136C84.9963 37.91 81.9779 39.56 77.3095 39.56Z" fill="#2B2A70"/>
<path d="M99.0813 39.56C95.3787 39.56 92.6421 38.1917 90.0664 36.2197L93.125 32.0745C94.6946 33.3221 96.9885 34.4087 99.202 34.4087C101.898 34.4087 102.623 33.4831 102.623 31.8733C102.623 29.1768 97.7129 28.2512 95.4592 27.0036C92.7628 25.5145 90.6298 23.8243 90.6298 19.5583C90.6298 14.0447 95.4592 11.791 100.208 11.791C102.744 11.791 105.802 12.4752 107.975 14.1252L105.319 18.5119C104.152 17.6265 102.14 16.9826 100.208 16.9826C97.4715 16.9826 96.5056 18.5119 96.5056 19.5985C96.5056 22.0132 99.9264 22.7779 103.066 24.1462C105.681 25.2731 108.499 27.1243 108.499 31.5513C108.499 36.5819 104.917 39.56 99.0813 39.56Z" fill="#2B2A70"/>
<path d="M134.218 39.1172V23.5827C134.218 22.6973 134.298 21.8522 134.338 21.7314C134.298 21.8522 134.097 22.3753 133.855 22.7778L127.859 33.8049H125.605L119.488 22.7778C119.287 22.4156 119.045 21.8924 119.005 21.7314C119.005 21.8522 119.126 22.6973 119.126 23.5827V39.077H113.25V12.1934H119.045L126.289 25.3132C126.531 25.7962 126.772 26.3998 126.813 26.5206C126.813 26.4401 127.014 25.7962 127.295 25.3132L134.137 12.1934H140.134V39.077H134.218V39.1172Z" fill="#2B2A70"/>
<path d="M14.0469 0L27.3277 22.9799H53.8894L40.6086 0H14.0469Z" fill="url(#paint0_linear_3248_20781)"/>
<path d="M40.6079 46L35.7383 37.5083L44.1092 22.9799L35.7383 8.49169L40.6079 0L53.8888 22.9799L40.6079 46Z" fill="url(#paint1_linear_3248_20781)"/>
<path d="M35.7383 8.49169L44.1092 22.9799H53.8888L40.6079 0L35.7383 8.49169Z" fill="url(#paint2_linear_3248_20781)"/>
<path d="M32.2361 37.5078H9.17578L14.0454 45.9995H37.146L32.2361 37.5078Z" fill="url(#paint3_linear_3248_20781)"/>
<path d="M14.0453 45.9992L18.9552 37.5075L10.5842 22.9791L17.2246 11.5093L12.3147 3.01758L0.804688 22.9791L14.0453 45.9992Z" fill="url(#paint4_linear_3248_20781)"/>
<path d="M18.9553 37.5078H9.17578L14.0454 45.9995L18.9553 37.5078Z" fill="#3B18EE"/>
</g>
<defs>
<linearGradient id="paint0_linear_3248_20781" x1="24.0228" y1="17.2473" x2="43.9385" y2="5.74904" gradientUnits="userSpaceOnUse">
<stop offset="0.00091" stop-color="#FE4E87"/>
<stop offset="1" stop-color="#CF34FE"/>
</linearGradient>
<linearGradient id="paint1_linear_3248_20781" x1="50.5763" y1="40.244" x2="30.6607" y2="5.74908" gradientUnits="userSpaceOnUse">
<stop stop-color="#FD588F"/>
<stop offset="1" stop-color="#8F34FD"/>
</linearGradient>
<linearGradient id="paint2_linear_3248_20781" x1="50.2205" y1="25.1182" x2="36.9435" y2="2.12172" gradientUnits="userSpaceOnUse">
<stop stop-color="#8A01D7"/>
<stop offset="0.999" stop-color="#4C00FE"/>
</linearGradient>
<linearGradient id="paint3_linear_3248_20781" x1="9.16331" y1="41.749" x2="37.1408" y2="41.749" gradientUnits="userSpaceOnUse">
<stop stop-color="#A671FF"/>
<stop offset="1" stop-color="#AA00FF"/>
</linearGradient>
<linearGradient id="paint4_linear_3248_20781" x1="22.7174" y1="40.996" x2="3.67113" y2="8.00675" gradientUnits="userSpaceOnUse">
<stop stop-color="#6729F4"/>
<stop offset="1" stop-color="#00E5C1"/>
</linearGradient>
<clipPath id="clip0_3248_20781">
<rect width="139.368" height="46" fill="white"/>
</clipPath>
</defs>
</svg>
