<?xml version="1.0" encoding="utf-8"?>
<!-- Generator: Adobe Illustrator 27.5.0, SVG Export Plug-In . SVG Version: 6.00 Build 0)  -->
<svg version="1.1" id="Layer_1" xmlns="http://www.w3.org/2000/svg" xmlns:xlink="http://www.w3.org/1999/xlink" x="0px" y="0px"
	 viewBox="0 0 356.7 94.8" style="enable-background:new 0 0 356.7 94.8;" xml:space="preserve">
<style type="text/css">
	
		.st0{clip-path:url(#SVGID_00000138549063036909274650000009641440012222529428_);fill:url(#SVGID_00000160899534450577824500000004883736254557457332_);}
	
		.st1{clip-path:url(#SVGID_00000035516591674794166330000002302199665928943767_);fill:url(#SVGID_00000016769896022497947070000016545627728334279050_);}
	
		.st2{clip-path:url(#SVGID_00000151536385708724137830000002849040314072035989_);fill:url(#SVGID_00000155865116829485489050000015179873249619565463_);}
	.st3{fill-rule:evenodd;clip-rule:evenodd;fill:#00ADEE;}
</style>
<g>
	<path d="M151.4,39.8c-2.7,0-5.4,0.9-7.5,2.7c-2.1,1.7-3.5,4.1-4.1,6.8c-0.5,2.7-0.1,5.4,1.2,7.8c1.3,2.4,3.4,4.3,5.9,5.3
		s5.3,1.2,7.9,0.4c2.6-0.8,4.9-2.5,6.4-4.7c1.5-2.3,2.2-5,1.9-7.7s-1.5-5.2-3.4-7.2c-1.1-1.1-2.4-2-3.8-2.6
		C154.5,40.1,153,39.8,151.4,39.8z M151.4,33.1c2.4,0,4.8,0.4,7.1,1.3c2.2,0.9,4.3,2.3,6,4s3.1,3.8,4,6s1.4,4.7,1.4,7.1
		c0,2.4-0.5,4.8-1.4,7.1c-0.9,2.2-2.3,4.3-4,6s-3.8,3.1-6,4c-3.1,1.3-6.5,1.7-9.8,1.2s-6.5-1.9-9-4v16H133V51.7
		c0-2.5,0.5-4.9,1.4-7.2c0.9-2.2,2.3-4.3,4-6s3.8-3.1,6-4c2.3-1,4.7-1.4,7.1-1.4l0,0H151.4z"/>
	<path d="M196.4,40.7c-2.9-1.2-6.1-1.2-9,0c-1.4,0.6-2.7,1.5-3.8,2.6s-2,2.4-2.6,3.8c-1.2,2.9-1.2,6.1,0,9s3.5,5.2,6.4,6.4
		s6.1,1.2,9,0s5.2-3.5,6.4-6.4c0.6-1.4,0.9-3,0.9-4.5v-0.1c0-1.5-0.3-3-0.9-4.4c-0.6-1.4-1.5-2.7-2.6-3.8
		C199.1,42.1,197.8,41.3,196.4,40.7z M191.9,33c4.3,0,8.5,1.5,11.8,4.2v-16h6.7v30.3c0,2.4-0.5,4.8-1.4,7.1c-0.9,2.2-2.3,4.3-4,6
		c-1.7,1.7-3.8,3.1-6,4s-4.6,1.4-7.1,1.4c-2.4,0-4.8-0.5-7.1-1.4c-3.4-1.4-6.3-3.8-8.3-6.8c-2-3-3.1-6.6-3.1-10.3s1.1-7.2,3.1-10.3
		c2-3,4.9-5.4,8.3-6.8C187,33.5,189.4,33,191.9,33z"/>
	<path d="M272.7,39.8c-2.7,0-5.4,0.9-7.5,2.7c-2.1,1.7-3.5,4.1-4.1,6.8c-0.5,2.7-0.1,5.4,1.2,7.8c1.3,2.4,3.4,4.3,5.9,5.3
		s5.3,1.2,7.9,0.4s4.9-2.5,6.4-4.7c1.5-2.3,2.2-5,1.9-7.7c-0.3-2.7-1.5-5.2-3.4-7.2c-1.1-1.1-2.4-2-3.8-2.6
		C275.8,40.1,274.2,39.8,272.7,39.8z M272.7,33.1c2.4,0,4.8,0.4,7.1,1.3c2.2,0.9,4.3,2.3,6,4s3.1,3.8,4,6s1.4,4.7,1.4,7.1
		s-0.5,4.8-1.4,7.1c-0.9,2.2-2.3,4.3-4,6s-3.8,3.1-6,4s-4.7,1.4-7.1,1.4s-4.8-0.5-7.1-1.4c-3.4-1.4-6.3-3.8-8.3-6.8
		c-2-3-3.1-6.6-3.1-10.3V21.3h6.7v16c1.4-1.2,3-2.1,4.7-2.8C267.8,33.6,270.2,33.1,272.7,33.1L272.7,33.1L272.7,33.1z"/>
	<path d="M323.2,39.8c-2.7,0-5.4,0.9-7.5,2.7c-2.1,1.7-3.5,4.1-4.1,6.8c-0.5,2.7-0.1,5.4,1.2,7.8c1.3,2.4,3.4,4.3,5.9,5.3
		s5.3,1.2,7.9,0.4s4.9-2.5,6.4-4.7c1.5-2.3,2.2-5,1.9-7.7c-0.3-2.7-1.5-5.2-3.4-7.2c-1.1-1.1-2.4-2-3.8-2.6
		C326.3,40.1,324.8,39.8,323.2,39.8z M323.2,33.1c2.4,0,4.8,0.4,7.1,1.3c2.2,0.9,4.3,2.3,6,4s3.1,3.8,4,6c1,2.2,1.5,4.7,1.5,7.1V70
		H335v-4.2c-1.4,1.2-3,2.1-4.7,2.8c-2.2,0.9-4.7,1.4-7.1,1.4s-4.8-0.5-7.1-1.4c-2.2-0.9-4.3-2.3-6-4c-1.7-1.7-3.1-3.8-4-6
		s-1.4-4.7-1.4-7.1s0.5-4.8,1.4-7.1c0.9-2.2,2.3-4.3,4-6s3.8-3.1,6-4s4.6-1.4,7.1-1.5L323.2,33.1L323.2,33.1z"/>
	<path d="M220.5,33v18.5c0,3.1,1.2,6.1,3.5,8.3c2.2,2.2,5.2,3.5,8.3,3.5s6.1-1.2,8.3-3.5c2.2-2.2,3.5-5.2,3.5-8.3V33h6.7v18.5
		c0,2.4-0.5,4.8-1.4,7.1c-0.9,2.2-2.3,4.3-4,6c-1.7,1.7-3.8,3.1-6,4s-4.7,1.4-7.1,1.4c-2.4,0-4.8-0.5-7.1-1.4c-2.2-0.9-4.3-2.3-6-4
		c-1.7-1.7-3.1-3.7-4-6c-0.9-2.2-1.4-4.7-1.4-7.1V33H220.5z"/>
	<path d="M301.3,63.4h-6.7v6.7h6.7V63.4z"/>
	<path d="M345.1,21.3h6.7V28h-6.7V21.3z M351.8,33v37h-6.7V33H351.8z"/>
	<path d="M59.3,48.2H82c-0.1-0.4-0.3-0.8-0.4-1.1c-0.6-1.4-1.5-2.7-2.6-3.8s-2.4-2-3.8-2.6c-2.9-1.2-6.1-1.2-9,0s-5.2,3.5-6.4,6.4
		C59.6,47.4,59.5,47.8,59.3,48.2L59.3,48.2z M88.2,54.9H59.3c0.1,0.4,0.3,0.8,0.4,1.1c0.6,1.4,1.5,2.7,2.6,3.8s2.4,2,3.8,2.6
		c2.9,1.2,6.1,1.2,9,0c0.5-0.2,1.1-0.5,1.6-0.8h9.4c-0.7,1.1-1.5,2.1-2.4,3c-1.7,1.7-3.8,3.1-6,4S73,70,70.6,70s-4.8-0.5-7.1-1.4
		c-2.2-0.9-4.3-2.3-6-4c-1.7-1.7-3.1-3.8-4-6s-1.4-4.7-1.4-7.1c0-2.4,0.5-4.8,1.4-7.1c0.9-2.2,2.3-4.3,4-6s3.8-3.1,6-4
		c2.3-1,4.7-1.4,7.1-1.4s4.8,0.4,7.1,1.3c2.2,0.9,4.3,2.3,6,4s3.1,3.8,4,6s1.4,4.7,1.4,7.1c0,1.1-0.1,2.3-0.3,3.4L88.2,54.9z"/>
	<path d="M99.7,48.2h22.6c-0.1-0.4-0.3-0.8-0.4-1.1c-0.6-1.4-1.5-2.7-2.6-3.8s-2.4-2-3.8-2.6c-2.9-1.2-6.1-1.2-9,0
		c-1.4,0.6-2.7,1.5-3.8,2.6c-1.1,1.1-2,2.4-2.6,3.8C100,47.4,99.9,47.8,99.7,48.2L99.7,48.2z M128.6,54.9H99.7
		c0.1,0.4,0.2,0.8,0.4,1.1c1.2,2.9,3.5,5.2,6.4,6.4s6.1,1.2,9,0c0.5-0.2,1.1-0.5,1.6-0.8h9.4c-0.7,1.1-1.5,2.1-2.4,3
		c-1.7,1.7-3.8,3.1-6,4S113.4,70,111,70s-4.8-0.5-7.1-1.4c-3.4-1.4-6.3-3.8-8.3-6.8c-2-3-3.1-6.6-3.1-10.3s1.1-7.2,3.1-10.3
		c2-3,4.9-5.4,8.3-6.8c2.2-0.9,4.7-1.4,7.1-1.4s4.8,0.4,7.1,1.3c2.2,0.9,4.3,2.3,6,4s3.1,3.8,4,6c1.4,3.3,1.8,6.9,1.1,10.5
		L128.6,54.9z"/>
</g>
<g>
	<g>
		<g>
			<defs>
				<path id="SVGID_1_" d="M43.5,51.1c0-3.1-1.2-5.9-3.4-8.1c-2.2-2.2-5-3.4-8.1-3.4s-5.9,1.2-8.1,3.4s-3.3,5-3.4,8
					c0,3.1,1.1,6,3.4,8.2c2.2,2.2,5,3.4,8.1,3.4s5.9-1.2,8.1-3.4C42.4,57,43.5,54.2,43.5,51.1 M50.1,21.6V51c0,2.4-0.4,4.8-1.4,7
					c-0.9,2.2-2.3,4.2-3.9,5.9c-1.6,1.6-3.6,3-5.9,3.9c-2.1,0.9-4.5,1.4-6.9,1.4s-4.8-0.5-6.9-1.4c-2.2-0.9-4.2-2.3-5.9-3.9
					c-1.6-1.6-3-3.6-3.9-5.9c-0.9-2.1-1.4-4.5-1.4-6.9V51c0-2.4,0.5-4.7,1.4-6.8c0.9-2.2,2.3-4.2,3.9-5.9c0.1-0.1,0.6-0.6,1.3-1.2
					c1.4-1.1,2.9-2.1,4.6-2.7c2.1-0.9,4.5-1.4,6.9-1.4s4.8,0.5,6.9,1.4c1.7,0.7,3.2,1.6,4.6,2.8V21.6H50.1z M14,21.6
					c0-2.4,0.5-4.8,1.4-6.9c0.9-2.2,2.3-4.2,3.9-5.9c1.6-1.6,3.6-3,5.9-3.9c2.1-0.9,4.5-1.4,6.9-1.4S36.9,4,39,4.9
					c2.2,0.9,4.2,2.3,5.9,3.9c1.6,1.6,3,3.6,3.9,5.9l0.1,0.3h-7.4c-0.4-0.5-0.8-1.1-1.3-1.6c-2.2-2.2-5-3.4-8.1-3.4
					s-5.9,1.2-8.1,3.4s-3.4,5-3.4,8.1v9.3c-1.8,1-3.5,2.3-5,3.8c-0.6,0.6-1.1,1.1-1.6,1.7C14,36.3,14,21.6,14,21.6z"/>
			</defs>
			<clipPath id="SVGID_00000015325898509740759560000005371859290793235623_">
				<use xlink:href="#SVGID_1_"  style="overflow:visible;"/>
			</clipPath>
			
				<linearGradient id="SVGID_00000061429857708048180630000004854178532762220718_" gradientUnits="userSpaceOnUse" x1="32.05" y1="26.9" x2="32.05" y2="92.5" gradientTransform="matrix(1 0 0 -1 0 96)">
				<stop  offset="0" style="stop-color:#933B95"/>
				<stop  offset="0.5" style="stop-color:#DB3D95"/>
				<stop  offset="1" style="stop-color:#F05F67"/>
			</linearGradient>
			
				<rect x="14" y="3.5" style="clip-path:url(#SVGID_00000015325898509740759560000005371859290793235623_);fill:url(#SVGID_00000061429857708048180630000004854178532762220718_);" width="36.1" height="65.6"/>
		</g>
	</g>
	<g>
		<g>
			<defs>
				<path id="SVGID_00000021833360982602409180000001206491580784912774_" d="M43.5,51.1V37.2c-1.4-1.1-2.9-2.1-4.6-2.8
					c-0.2-0.1-0.4-0.2-0.7-0.3v7.3c0.7,0.4,1.3,1,1.9,1.5c1.1,1.1,1.9,2.3,2.5,3.7l0,0C43.2,48,43.5,49.5,43.5,51.1"/>
			</defs>
			<clipPath id="SVGID_00000000931483190541725090000016495190126643669686_">
				<use xlink:href="#SVGID_00000021833360982602409180000001206491580784912774_"  style="overflow:visible;"/>
			</clipPath>
			
				<linearGradient id="SVGID_00000145043387733993144080000010329744108125929090_" gradientUnits="userSpaceOnUse" x1="43.6176" y1="52.0633" x2="37.4032" y2="55.0056" gradientTransform="matrix(1 0 0 -1 0 96)">
				<stop  offset="0" style="stop-color:#933B95"/>
				<stop  offset="1" style="stop-color:#DB3D95"/>
			</linearGradient>
			
				<rect x="38.3" y="34.2" style="clip-path:url(#SVGID_00000000931483190541725090000016495190126643669686_);fill:url(#SVGID_00000145043387733993144080000010329744108125929090_);" width="5.2" height="16.9"/>
		</g>
	</g>
	<g>
		<g>
			<defs>
				<path id="SVGID_00000028327627417007813950000007244371715752890550_" d="M55.7,66.4c-1.1,1.7-2.3,3.2-3.7,4.6
					c-5.1,5.1-12.1,8.2-19.9,8.2S17.3,76,12.2,71C7.1,65.9,4,58.9,4,51.1h6.6c0,6,2.4,11.4,6.3,15.3s9.3,6.3,15.3,6.3
					s11.4-2.4,15.3-6.3c1.7-1.7,3.1-3.7,4.2-5.9C52.6,62.6,54,64.7,55.7,66.4"/>
			</defs>
			<clipPath id="SVGID_00000114069269878137185920000017820711399184405391_">
				<use xlink:href="#SVGID_00000028327627417007813950000007244371715752890550_"  style="overflow:visible;"/>
			</clipPath>
			
				<linearGradient id="SVGID_00000026144720090674953450000010356492401502500277_" gradientUnits="userSpaceOnUse" x1="30.3297" y1="11.5679" x2="29.7304" y2="33.3826" gradientTransform="matrix(1 0 0 -1 0 96)">
				<stop  offset="0" style="stop-color:#00ADEE"/>
				<stop  offset="1" style="stop-color:#903191"/>
			</linearGradient>
			
				<rect x="3.9" y="51.1" style="clip-path:url(#SVGID_00000114069269878137185920000017820711399184405391_);fill:url(#SVGID_00000026144720090674953450000010356492401502500277_);" width="51.8" height="28.1"/>
		</g>
	</g>
	<path class="st3" d="M32.1,85.4c7.9,0,14.3,1.3,14.3,2.8c0,1.6-6.4,2.8-14.3,2.8s-14.3-1.3-14.3-2.8C17.7,86.6,24.1,85.4,32.1,85.4
		"/>
</g>
</svg>
