<?xml version="1.0" encoding="utf-8"?>
<!-- Generator: Adobe Illustrator 23.0.3, SVG Export Plug-In . SVG Version: 6.00 Build 0)  -->
<svg version="1.1" id="Ebene_1" xmlns="http://www.w3.org/2000/svg" xmlns:xlink="http://www.w3.org/1999/xlink" x="0px" y="0px"
	 viewBox="0 0 172.9 70.9" style="enable-background:new 0 0 172.9 70.9;" xml:space="preserve">
<style type="text/css">
	.st0{fill:#F2B600;}
	.st1{fill:#FFD910;}
	.st2{fill:#F2A900;}
</style>
<path class="st0" d="M168.3,30.4c0.4-0.5,0.7-1.1,0.9-1.7c1.8-4.7-0.5-10.1-5.3-11.9c-0.6-0.2-0.9-1.2-0.9-1.7
	c-0.2-3.1-2.1-5.9-5.2-7c-8-2.8-13.9,11.6-15.1,14.2c0,0,0,0.1-0.1,0.2c-0.3,0.7-1.9,4.5-5.3,12.2c-3.1,7-5.3,12.9-6,14.6
	c0.2-0.5,0.8-0.8,1.4-0.7c0.6,0.1,1.3,0.6,0.9,1.6c-1.6,4.7-2.4,5.4-3.8,8.9c-1.4,3.6,0.3,8.6,4.4,10.2c3.3,1.3,7,0.2,9.2-2.4
	c0.6-0.8,1.7-0.8,2.3-0.6c4.7,1.8,10.1-0.5,11.9-5.3c0.6-1.5,0.7-3,0.5-4.4c-0.1-1.3,0.6-2.3,1.7-2.4c4.6-0.6,8.9-3.6,10.7-8.3
	c1.7-4.6,0.8-9.5-2.1-13C168,32.3,167.7,31.4,168.3,30.4"/>
<path class="st1" d="M131.2,49.9c0,0,0.2-0.5,0.2-0.5c0.6-1.7,2.9-7.6,6-14.6c3.4-7.7,5-11.5,5.3-12.2c-0.2,0.3-0.7,0.9-1.6,0.7
	c-1-0.3-1-1.2-0.7-1.8c1.8-4.1,3.3-6.1,4.7-9.7c1.7-4.3-0.2-8.6-4.4-10.2c-3-1.2-6.3-0.4-8.5,1.8c-0.1,0.1-0.5,0.5-0.5,0.5
	c-0.4,0.4-0.5,0.9-0.6,1.5c0.1,1.3,0.6,2.1,1.6,2.9c0,0,1.8,1.2,1.8,3.4c0,2.3-1.9,4.2-4.2,4.2c-2.3,0-4.2-1.9-4.2-4.2
	c0-1.4,0.7-2.6,1.7-3.4c1-0.8,1.8-1.9,1.8-3.3c0-0.9-0.6-1.4-1.2-1.5l0,0C125.1,3,122,4.2,120,6.5c0,0-0.4,0.5-0.4,1
	c0,0.3,0,0.5,0.3,0.9c0.2,0.4,0.4,0.7,0.6,1.2c0.6,2.3-0.7,4.6-3,5.2c-1.3,0.4-3.1-0.5-3.1-0.5c-0.9-0.5-1.7-0.5-2.3-0.1
	c-2.3,1.1-3.7,2.5-5.1,4.8c-0.1,0.3-0.2,0.6-0.3,0.9c0,0.5,0.1,1,0.5,1.4c2.9,2.5,4.8,6.1,4.8,10.2c0,3-2.2,6-2.2,6
	c0,0.1-0.1,0.3-0.1,0.4c-0.1,0.7,0.3,1.5,1.5,1.5c0.5,0,1,0,1.5-0.2c0,0,2.7-0.8,4.5,0.5c1.9,1.3,2.4,4,1,5.9c-1.3,1.9-4,2.4-5.9,1
	c-1.1-0.8-1.7-2-1.8-3.3c0-2.7-2-3.8-3-3.8c-0.1,0-0.5,0-0.6,0c-0.6,0.1-1.1,0.5-1.4,1.1c-0.1,0.2-0.2,0.3-0.3,0.5
	c-0.4,0.9-0.6,2.2-0.4,3.5c0,0.1,0,0.2,0.1,0.3c0.2,2.5,1.5,4.9,3.6,6.5c0,0,0.4,0.3,0.7,0.1c0.1,0,0.2-0.1,0.2-0.1
	c1.2-0.9,3-0.8,4.1,0.3c1.2,1.2,1.2,3.3,0,4.5c-0.2,0.2-0.7,0.5-0.7,0.5c-0.2,0.1-0.4,0.3-0.4,0.6c0,0,0,0.1,0,0.1
	c0.7,2.2,1.7,4.1,4.1,5c6.7,2.6,12.4-7.2,14.1-11.2C130.7,51,130.9,50.4,131.2,49.9"/>
<path d="M155.2,21c-1.6,0-2.8,1.3-2.8,2.8c0,1.6,1.3,2.8,2.8,2.8c1.6,0,2.8-1.3,2.8-2.8C158,22.2,156.7,21,155.2,21 M155.2,27.3
	c-1.9,0-3.5-1.6-3.5-3.5c0-2,1.6-3.5,3.5-3.5c1.9,0,3.5,1.6,3.5,3.5C158.7,25.7,157.1,27.3,155.2,27.3"/>
<path d="M154.6,24.2v1.4h-1v-3.7h1.5c0.5,0,0.8,0.1,1.1,0.2c0.2,0.2,0.3,0.4,0.3,0.8c0,0.2-0.1,0.4-0.2,0.6
	c-0.1,0.2-0.3,0.3-0.5,0.3c0.1,0,0.2,0.1,0.4,0.2s0.2,0.3,0.3,0.5l0.5,1h-1l-0.5-0.9c-0.1-0.2-0.2-0.3-0.3-0.4
	c-0.1-0.1-0.2-0.1-0.4-0.1H154.6z M155,23.5c0.2,0,0.3,0,0.4-0.1c0.1-0.1,0.1-0.2,0.1-0.4c0-0.2,0-0.3-0.1-0.4
	c-0.1-0.1-0.2-0.1-0.4-0.1h-0.4v1H155z"/>
<path d="M139.7,26c0-0.1,0-0.2-0.1-0.3c-0.1-0.1-0.2-0.1-0.5-0.1h-4.6c-0.4,0-0.7,0.2-0.8,0.5c-0.4,1.1-4,12.1-4.4,13.2l-4.4-13.2
	c-0.1-0.4-0.4-0.5-0.8-0.5h-4.7c-0.4,0-0.5,0.1-0.5,0.4c0,0,0,0.1,0,0.1c0,0,0,0.1,0,0.1l7,18.3c0.5,1.4,1.8,2.3,3.3,2.3
	c1.5,0,2.8-0.9,3.3-2.3l7-18.3v0C139.7,26.1,139.7,26.1,139.7,26"/>
<path d="M147,38.7h-4.4c0.2-0.5,2-6.1,2.2-6.6L147,38.7z M155.2,46.1l-7.1-18.3c-0.5-1.3-1.8-2.3-3.3-2.3c-1.5,0-2.8,0.9-3.3,2.2
	l-7.1,18.4c-0.1,0.2-0.1,0.3,0.1,0.4c0.1,0.1,0.3,0.1,0.5,0.1h4.2c0.4,0,0.6-0.2,0.7-0.5c0.2-0.5,0.9-2.4,1.1-2.9h7.6
	c0.2,0.5,0.9,2.4,1.1,2.9c0.1,0.2,0.2,0.3,0.3,0.4c0.1,0.1,0.3,0.1,0.5,0.1h4.1c0.3,0,0.4-0.1,0.5-0.2
	C155.3,46.5,155.3,46.3,155.2,46.1"/>
<path d="M18.9,36c0,1-0.2,1.9-0.5,2.8c-0.4,0.9-0.8,1.6-1.4,2.2c-0.6,0.6-1.3,1.1-2.2,1.5c-0.8,0.4-1.7,0.6-2.7,0.7
	c-0.3,0-0.6,0-0.8,0.1c-0.3,0-0.6,0-0.9,0H8.8V28.7h2.5c1,0,2,0.2,2.9,0.5c0.9,0.4,1.7,0.9,2.4,1.5c0.7,0.7,1.2,1.4,1.6,2.3
	C18.7,34,18.9,34.9,18.9,36 M26.2,36c0-1.3-0.2-2.6-0.5-3.8c-0.4-1.2-0.8-2.4-1.5-3.4c-0.6-1.1-1.4-2-2.3-2.9
	c-0.9-0.9-1.9-1.6-2.9-2.2c-1.1-0.6-2.2-1.1-3.5-1.4c-1.2-0.3-2.5-0.5-3.9-0.5H8.5c-3.8,0.2-6.9,3-7,6.8v20.7c0,0.3,0.1,0.5,0.3,0.6
	c0.2,0.1,0.4,0.2,0.6,0.2h9.4c1.3,0,2.6-0.2,3.9-0.5c1.2-0.3,2.4-0.8,3.5-1.4c1.1-0.6,2-1.3,2.9-2.2c0.9-0.9,1.6-1.8,2.3-2.8
	c0.6-1,1.1-2.2,1.5-3.4C26.1,38.7,26.2,37.4,26.2,36"/>
<path class="st2" d="M8.5,21.8H2.3c-0.3,0-0.5,0.1-0.7,0.2s-0.2,0.4-0.2,0.6v5.9C1.6,24.9,4.7,22.1,8.5,21.8"/>
<path d="M43.6,28.8c0.6,0.2,1.1,0.5,1.6,0.9c0.5,0.4,0.9,0.8,1.2,1.3c0.4,0.5,0.7,1,1,1.6H36.1c0.2-0.5,0.5-1,0.9-1.5
	c0.4-0.5,0.8-0.9,1.3-1.3c0.5-0.4,1-0.7,1.5-0.9c0.5-0.2,1.1-0.3,1.7-0.3C42.3,28.5,43,28.6,43.6,28.8 M52.6,46.3
	c0.2-0.2,0.2-0.5,0.2-0.8c0-0.2,0-0.3-0.1-0.5c0-0.2-0.1-0.3-0.3-0.5l-2.3-2.6c-0.3-0.3-0.5-0.4-0.7-0.6c-0.2-0.1-0.4-0.2-0.6-0.2
	c-0.2,0-0.4,0-0.5,0.1c-0.2,0.1-0.4,0.2-0.6,0.4c-0.3,0.3-0.6,0.5-1,0.8c-0.4,0.2-0.9,0.5-1.4,0.6c-0.5,0.2-1.1,0.3-1.6,0.4
	c-0.6,0.1-1.1,0.2-1.6,0.2c-0.6,0-1.2-0.1-1.9-0.2c-0.7-0.2-1.3-0.4-1.9-0.8c-0.6-0.4-1.1-0.9-1.6-1.5s-0.7-1.4-0.9-2.4h15.9
	c0.9,0,1.6-0.1,2.1-0.2c0.5-0.1,0.8-0.3,1-0.6c0.2-0.3,0.3-0.7,0.3-1.2c0-0.5,0-1.1,0-1.9c0-1.2-0.2-2.3-0.5-3.4
	c-0.3-1.1-0.8-2.2-1.4-3.1c-0.6-1-1.3-1.9-2.2-2.7c-0.8-0.8-1.8-1.5-2.8-2.1s-2.1-1-3.2-1.4s-2.3-0.5-3.5-0.5
	c-1.3,0-2.6,0.2-3.8,0.5c-1.2,0.4-2.3,0.8-3.3,1.5c-1,0.6-2,1.4-2.8,2.3c-0.8,0.9-1.5,1.9-2.1,2.9c-0.6,1.1-1,2.2-1.3,3.4
	c-0.3,1.2-0.5,2.5-0.5,3.8c0,2.1,0.4,4,1.2,5.8s1.9,3.3,3.2,4.6s2.9,2.3,4.7,3.1c1.8,0.7,3.7,1.1,5.7,1.1c1.8,0,3.5-0.3,5.1-1
	c1.6-0.7,3.1-1.6,4.4-2.8C52.3,46.7,52.5,46.5,52.6,46.3"/>
<path d="M72.5,28.8c0.6,0.2,1.1,0.5,1.6,0.9c0.5,0.4,0.9,0.8,1.2,1.3c0.4,0.5,0.7,1,1,1.6H65.1c0.2-0.5,0.5-1,0.9-1.5
	c0.4-0.5,0.8-0.9,1.3-1.3c0.5-0.4,1-0.7,1.5-0.9c0.5-0.2,1.1-0.3,1.7-0.3C71.3,28.5,72,28.6,72.5,28.8 M81.6,46.3
	c0.2-0.2,0.2-0.5,0.2-0.8c0-0.2,0-0.3-0.1-0.5c0-0.2-0.1-0.3-0.3-0.5l-2.3-2.6c-0.3-0.3-0.5-0.4-0.7-0.6c-0.2-0.1-0.4-0.2-0.6-0.2
	s-0.4,0-0.5,0.1c-0.2,0.1-0.4,0.2-0.6,0.4c-0.3,0.3-0.6,0.5-1,0.8c-0.4,0.2-0.9,0.5-1.4,0.6c-0.5,0.2-1.1,0.3-1.6,0.4
	c-0.6,0.1-1.1,0.2-1.6,0.2c-0.6,0-1.2-0.1-1.9-0.2c-0.7-0.2-1.3-0.4-1.9-0.8c-0.6-0.4-1.1-0.9-1.6-1.5s-0.7-1.4-0.9-2.4h15.9
	c0.9,0,1.6-0.1,2.1-0.2c0.5-0.1,0.8-0.3,1-0.6c0.2-0.3,0.3-0.7,0.3-1.2c0-0.5,0-1.1,0-1.9c0-1.2-0.2-2.3-0.5-3.4
	c-0.3-1.1-0.8-2.2-1.4-3.1c-0.6-1-1.3-1.9-2.2-2.7c-0.8-0.8-1.8-1.5-2.8-2.1c-1-0.6-2.1-1-3.2-1.4c-1.1-0.3-2.3-0.5-3.5-0.5
	c-1.3,0-2.6,0.2-3.8,0.5c-1.2,0.4-2.3,0.8-3.3,1.5c-1,0.6-2,1.4-2.8,2.3c-0.8,0.9-1.5,1.9-2.1,2.9c-0.6,1.1-1,2.2-1.3,3.4
	c-0.3,1.2-0.5,2.5-0.5,3.8c0,2.1,0.4,4,1.2,5.8s1.9,3.3,3.2,4.6c1.3,1.3,2.9,2.3,4.7,3.1c1.8,0.7,3.7,1.1,5.7,1.1
	c1.8,0,3.5-0.3,5.1-1c1.6-0.7,3.1-1.6,4.4-2.8C81.3,46.7,81.5,46.5,81.6,46.3"/>
<path d="M99.9,32.3c-0.1,0.4-0.3,0.7-0.6,1c-0.2,0.3-0.6,0.5-0.9,0.7c-0.4,0.2-0.8,0.3-1.2,0.3h-4v-6.4h4c0.5,0,0.9,0.1,1.2,0.3
	c0.4,0.2,0.7,0.4,0.9,0.7c0.3,0.3,0.4,0.6,0.6,1c0.1,0.4,0.2,0.8,0.2,1.1C100.1,31.5,100,31.9,99.9,32.3 M85.7,49.3
	c0,0.3,0.1,0.5,0.2,0.6c0.2,0.1,0.4,0.2,0.6,0.2h5.7c0.6,0,0.9-0.3,0.9-0.8v-9.1h5.8c1.3,0,2.5-0.3,3.5-0.8s2-1.2,2.7-2.1
	c0.8-0.9,1.3-1.8,1.8-2.9s0.6-2.2,0.6-3.4c0-0.8-0.1-1.5-0.3-2.3c-0.2-0.8-0.5-1.5-0.8-2.2c-0.4-0.7-0.8-1.3-1.3-1.9
	c-0.5-0.6-1.1-1.1-1.8-1.5c-0.6-0.4-1.4-0.8-2.1-1c-0.8-0.2-1.6-0.4-2.5-0.4H86.6c-0.3,0-0.5,0.1-0.6,0.2s-0.2,0.4-0.2,0.6V49.3z"/>
</svg>
