<svg width="17" height="20" viewBox="0 0 17 20" fill="none" xmlns="http://www.w3.org/2000/svg">
<path fill-rule="evenodd" clip-rule="evenodd" d="M0 18.1977C0 19.2909 0.709421 19.9999 1.80302 19.9999L7.071 20C10.2136 20 12.7844 18.9371 14.5322 17.0764H0V18.1977ZM7.071 9.99995e-05L1.80302 0C0.709421 0 0 0.709097 0 1.80229V2.92359H14.5322C12.7844 1.06289 10.2136 9.99995e-05 7.071 9.99995e-05ZM11.6684 12.8497C11.6684 13.7341 12.2447 14.3079 13.1333 14.3079H16.29C16.6478 13.4203 16.8883 12.4445 17 11.3915H13.1333C12.2447 11.3915 11.6684 11.9652 11.6684 12.8497ZM7.293 7.15746C7.293 8.04196 7.86936 8.61566 8.75797 8.61566H17C16.8882 7.56266 16.6478 6.58687 16.29 5.69927H8.75797C7.86936 5.69927 7.293 6.27297 7.293 7.15746ZM8.75697 12.8497C8.75697 11.9652 8.1806 11.3915 7.292 11.3915H0V14.3079H7.292C8.1806 14.3079 8.75697 13.7342 8.75697 12.8497ZM4.38158 7.15746C4.38158 6.27297 3.80522 5.69927 2.91662 5.69927H0V8.61566H2.91662C3.80522 8.61566 4.38158 8.04196 4.38158 7.15746Z" fill="#343434"/>
</svg>
