<?xml version="1.0" encoding="utf-8"?>
<!-- Generator: Adobe Illustrator 23.0.3, SVG Export Plug-In . SVG Version: 6.00 Build 0)  -->
<svg version="1.1" id="Ebene_1" xmlns="http://www.w3.org/2000/svg" xmlns:xlink="http://www.w3.org/1999/xlink" x="0px" y="0px"
	 viewBox="0 0 56.1 45" style="enable-background:new 0 0 56.1 45;" xml:space="preserve">
<path d="M46.9,23.5c0-9-7.3-16.3-16.3-16.3s-16.3,7.3-16.3,16.3l0,0v4.1l0,0c0,2.7,0.7,5.3,1.9,7.7l3.6-1.8
	c-5.5-6-5.2-15.2,0.8-20.8s15.2-5.2,20.8,0.8c4.6,5,5.2,12.5,1.4,18.1l2.7,2.5c0.9-2.1,1.4-4.3,1.4-6.6l0,0L46.9,23.5L46.9,23.5z"/>
<path d="M28,37.9c-2-0.4-3.9-1.2-5.6-2.3l-4.3,2.2c2.4,3,5.9,5,9.6,5.7c6.2,1.1,12.5-1.4,16.1-6.5l-3-3C37.5,37.3,32.7,38.8,28,37.9
	z"/>
<path d="M32.5,27.2c-0.2-0.4-0.7-0.7-1.2-0.6c-0.3,0-0.7,0.1-1,0.3c-0.5,0.2-0.9,0.7-1.1,1.2c-0.3-0.1-0.5-0.1-0.8,0l-28,13.8
	C0,42.1-0.1,43,0.1,43.5c0.3,0.4,0.7,0.7,1.2,0.8c0.1,0,0.2,0,0.3-0.1l27.7-14.3c0.2-0.1,0.4-0.3,0.5-0.6c0.5,0.2,1.1,0.1,1.6-0.1
	c0.4-0.2,0.8-0.5,1-0.9C32.7,27.9,32.7,27.5,32.5,27.2z"/>
<path d="M55.9,42.9L33.2,21.5c-0.2-0.2-0.4-0.3-0.7-0.3c0-0.6-0.2-1.1-0.7-1.5c-0.4-0.4-0.9-0.6-1.4-0.6c-0.3,0-0.6,0.1-0.8,0.3
	c-0.3,0.3-0.4,0.7-0.3,1.1c0.1,0.4,0.3,0.8,0.6,1.1c0.4,0.4,1,0.6,1.5,0.6c0,0.3,0.1,0.5,0.3,0.7L54,44.8c0.2,0.1,0.4,0.2,0.6,0.2
	c0.4,0,0.8-0.2,1.1-0.4c0.2-0.2,0.3-0.5,0.4-0.8C56.1,43.5,56.1,43.1,55.9,42.9z"/>
<circle cx="30.7" cy="12.8" r="1.5"/>
<circle cx="30.7" cy="1.1" r="1.1"/>
<path d="M22.1,3.9c-0.6,0-1.1-0.5-1.1-1.1s0.5-1.1,1.1-1.1c0.6,0,1.1,0.5,1.1,1.1c0,0.4-0.3,0.8-0.7,1C22.4,3.9,22.2,3.9,22.1,3.9z"
	/>
<path d="M14.8,8.8c-0.6,0-1.1-0.5-1.1-1.1s0.5-1.1,1.1-1.1s1.1,0.5,1.1,1.1c0,0.3-0.1,0.6-0.3,0.8C15.4,8.6,15.1,8.8,14.8,8.8z"/>
<path d="M10,16c-0.6,0-1.1-0.5-1.1-1.1c0-0.6,0.5-1.1,1.1-1.1c0.2,0,0.3,0,0.5,0.1c0.6,0.2,0.8,0.9,0.6,1.4C10.8,15.7,10.4,16,10,16
	z"/>
<path d="M51.3,33.1c-0.1,0-0.3,0-0.4-0.1c-0.6-0.2-0.8-0.9-0.6-1.4c0.2-0.4,0.6-0.7,1-0.7c0.1,0,0.3,0,0.4,0.1
	c0.6,0.2,0.8,0.9,0.6,1.4C52.2,32.9,51.8,33.1,51.3,33.1L51.3,33.1z"/>
<path d="M8.3,24.6c-0.6,0-1.1-0.5-1.1-1.1c0-0.6,0.5-1.1,1.1-1.1s1.1,0.5,1.1,1.1C9.4,24.1,8.9,24.6,8.3,24.6
	C8.3,24.6,8.3,24.6,8.3,24.6z"/>
<path d="M53,24.6c-0.6,0-1.1-0.5-1.1-1.1c0-0.6,0.5-1.1,1.1-1.1c0.6,0,1.1,0.5,1.1,1.1c0,0.3-0.1,0.6-0.3,0.8
	C53.6,24.5,53.3,24.6,53,24.6z"/>
<path d="M10,33.1c-0.6,0-1.1-0.4-1.2-1c0-0.5,0.3-1,0.7-1.1c0.1-0.1,0.3-0.1,0.4-0.1c0.6,0,1.1,0.5,1.1,1.1
	C11.1,32.6,10.6,33.1,10,33.1L10,33.1L10,33.1z"/>
<path d="M51.3,16c-0.6,0-1.1-0.5-1.1-1.1c0-0.6,0.5-1.1,1.1-1.1c0.6,0,1.1,0.5,1.1,1.1c0,0.4-0.3,0.8-0.7,1C51.6,16,51.5,16,51.3,16
	z"/>
<path d="M46.5,8.8c-0.6,0-1.1-0.5-1.1-1.1c0-0.6,0.5-1.1,1.1-1.1c0.6,0,1.1,0.5,1.1,1.1c0,0.3-0.1,0.6-0.3,0.8
	C47.1,8.6,46.8,8.8,46.5,8.8z"/>
<path d="M39.2,3.9c-0.1,0-0.3,0-0.4-0.1c-0.6-0.2-0.8-0.9-0.6-1.4c0.2-0.4,0.6-0.7,1-0.7c0.1,0,0.3,0,0.4,0.1
	c0.6,0.2,0.8,0.9,0.6,1.4C40,3.6,39.7,3.9,39.2,3.9z"/>
</svg>
