<svg xmlns="http://www.w3.org/2000/svg" width="239" height="65" viewBox="0 0 239 65" fill="none"><path d="M37.8441 7H13.6659C6.11844 7 0 13.1184 0 20.6659V45.1945C0 52.742 6.11844 58.8604 13.6659 58.8604H37.8441C45.3916 58.8604 51.51 52.742 51.51 45.1945V20.6659C51.51 13.1184 45.3916 7 37.8441 7Z" fill="url(#paint0_linear_722_614)"></path><path d="M25.7862 43.8339C25.3587 43.8339 24.9487 43.6641 24.6464 43.3618C24.3441 43.0595 24.1743 42.6495 24.1743 42.222V23.6119C24.1743 23.1844 24.3441 22.7744 24.6464 22.4721C24.9487 22.1698 25.3587 22 25.7862 22H25.975C26.4025 22 26.8125 22.1698 27.1148 22.4721C27.4171 22.7744 27.5869 23.1844 27.5869 23.6119V42.222C27.5869 42.6495 27.4171 43.0595 27.1148 43.3618C26.8125 43.6641 26.4025 43.8339 25.975 43.8339H25.7862ZM30.9985 38.5876V27.2463C30.9985 27.0225 31.0567 26.8025 31.1675 26.608C31.2784 26.4136 31.4379 26.2513 31.6304 26.1372C31.823 26.0231 32.042 25.9611 32.2658 25.9573C32.4895 25.9535 32.7105 26.008 32.9068 26.1155L43.2628 31.7872C43.4655 31.8983 43.6347 32.0619 43.7525 32.2608C43.8703 32.4597 43.9325 32.6866 43.9325 32.9178C43.9325 33.149 43.8703 33.376 43.7525 33.5749C43.6347 33.7738 43.4655 33.9373 43.2628 34.0484L32.9075 39.7205C32.7113 39.8288 32.4902 39.8841 32.2661 39.8807C32.0421 39.8773 31.8227 39.8155 31.6299 39.7013C31.4371 39.587 31.2775 39.4244 31.1668 39.2295C31.0562 39.0346 30.9984 38.8142 30.9992 38.5901L30.9985 38.5876ZM18.8551 39.7166L8.49982 34.0463C8.29706 33.9352 8.1279 33.7717 8.01007 33.5728C7.89224 33.3739 7.83008 33.1469 7.83008 32.9157C7.83008 32.6845 7.89224 32.4576 8.01007 32.2587C8.1279 32.0598 8.29706 31.8962 8.49982 31.7851L18.8551 26.1131C19.0514 26.0056 19.2723 25.9511 19.496 25.9548C19.7198 25.9586 19.9387 26.0206 20.1313 26.1346C20.3238 26.2487 20.4834 26.4109 20.5942 26.6054C20.705 26.7998 20.7633 27.0197 20.7634 27.2435V38.5858C20.7642 38.81 20.7064 39.0304 20.5957 39.2253C20.4851 39.4202 20.3255 39.5828 20.1327 39.697C19.9398 39.8113 19.7205 39.8731 19.4964 39.8765C19.2723 39.8799 19.0513 39.8246 18.8551 39.7163V39.7166Z" fill="white"></path><path d="M86.975 32.61C86.975 35.06 86.4617 37.2183 85.435 39.085C84.4083 40.9517 82.915 42.41 80.955 43.46C79.0183 44.4867 76.7083 45 74.025 45H65.24V20.29H74.025C76.7083 20.29 79.0183 20.8033 80.955 21.83C82.915 22.8333 84.4083 24.2683 85.435 26.135C86.4617 27.9783 86.975 30.1367 86.975 32.61ZM73.605 40.59C76.265 40.59 78.3183 39.89 79.765 38.49C81.235 37.09 81.97 35.13 81.97 32.61C81.97 30.0667 81.235 28.095 79.765 26.695C78.3183 25.295 76.265 24.595 73.605 24.595H70.175V40.59H73.605ZM107.22 25.61V45H102.285V41.08C101.771 42.3867 100.92 43.4133 99.7297 44.16C98.563 44.8833 97.2097 45.245 95.6697 45.245C93.4297 45.245 91.6447 44.51 90.3147 43.04C88.9847 41.57 88.3197 39.5167 88.3197 36.88V25.61H93.2197V36.32C93.2197 37.86 93.6164 39.0617 94.4097 39.925C95.203 40.765 96.2764 41.185 97.6297 41.185C99.053 41.185 100.185 40.73 101.025 39.82C101.865 38.91 102.285 37.6033 102.285 35.9V25.61H107.22ZM121.292 25.365C122.925 25.365 124.395 25.7617 125.702 26.555C127.008 27.3483 128.023 28.5033 128.747 30.02C129.493 31.5133 129.867 33.275 129.867 35.305C129.867 37.335 129.493 39.1083 128.747 40.625C128.023 42.1183 127.008 43.2617 125.702 44.055C124.395 44.8483 122.925 45.245 121.292 45.245C119.658 45.245 118.258 44.86 117.092 44.09C115.948 43.2967 115.132 42.2467 114.642 40.94V45H109.707V19.1H114.642V29.635C115.132 28.3283 115.948 27.29 117.092 26.52C118.258 25.75 119.658 25.365 121.292 25.365ZM119.752 29.67C118.258 29.67 117.022 30.1833 116.042 31.21C115.085 32.2133 114.607 33.5783 114.607 35.305C114.607 37.0083 115.085 38.3733 116.042 39.4C117.022 40.4033 118.258 40.905 119.752 40.905C121.292 40.905 122.528 40.415 123.462 39.435C124.395 38.4317 124.862 37.055 124.862 35.305C124.862 33.555 124.395 32.1783 123.462 31.175C122.528 30.1717 121.292 29.67 119.752 29.67ZM139.794 40.065L144.694 25.61H149.944L142.769 45H136.749L129.574 25.61H134.859L139.794 40.065ZM168.922 34.57C168.922 35.06 168.864 35.62 168.747 36.25H154.537C154.607 37.9767 155.074 39.2483 155.937 40.065C156.801 40.8817 157.874 41.29 159.157 41.29C160.301 41.29 161.246 41.01 161.992 40.45C162.762 39.89 163.252 39.1317 163.462 38.175H168.677C168.421 39.5283 167.872 40.7417 167.032 41.815C166.192 42.8883 165.107 43.7283 163.777 44.335C162.471 44.9417 161.012 45.245 159.402 45.245C157.512 45.245 155.832 44.8483 154.362 44.055C152.892 43.2383 151.749 42.0833 150.932 40.59C150.116 39.0967 149.707 37.335 149.707 35.305C149.707 33.275 150.116 31.5133 150.932 30.02C151.749 28.5033 152.892 27.3483 154.362 26.555C155.832 25.7617 157.512 25.365 159.402 25.365C161.316 25.365 162.984 25.7617 164.407 26.555C165.854 27.3483 166.962 28.445 167.732 29.845C168.526 31.2217 168.922 32.7967 168.922 34.57ZM163.952 34.08C164.022 32.4933 163.602 31.2917 162.692 30.475C161.806 29.6583 160.709 29.25 159.402 29.25C158.072 29.25 156.952 29.6583 156.042 30.475C155.132 31.2917 154.631 32.4933 154.537 34.08H163.952ZM175.361 29.32C176.084 28.0833 177.041 27.115 178.231 26.415C179.421 25.6917 180.751 25.33 182.221 25.33V30.615H180.786C177.169 30.615 175.361 32.295 175.361 35.655V45H170.426V25.61H175.361V29.32ZM189.637 25.365C191.994 25.365 193.884 25.96 195.307 27.15C196.73 28.34 197.617 29.9267 197.967 31.91H193.347C193.16 30.9767 192.74 30.23 192.087 29.67C191.434 29.11 190.582 28.83 189.532 28.83C188.692 28.83 188.039 29.0283 187.572 29.425C187.105 29.8217 186.872 30.3583 186.872 31.035C186.872 31.5717 187.059 32.0033 187.432 32.33C187.805 32.6567 188.272 32.9133 188.832 33.1C189.392 33.2867 190.197 33.5083 191.247 33.765C192.717 34.0917 193.907 34.4417 194.817 34.815C195.75 35.165 196.544 35.7367 197.197 36.53C197.874 37.3 198.212 38.35 198.212 39.68C198.212 41.3367 197.559 42.6783 196.252 43.705C194.969 44.7317 193.23 45.245 191.037 45.245C188.517 45.245 186.499 44.685 184.982 43.565C183.465 42.4217 182.544 40.8 182.217 38.7H186.942C187.059 39.6567 187.479 40.415 188.202 40.975C188.925 41.5117 189.87 41.78 191.037 41.78C191.877 41.78 192.519 41.5817 192.962 41.185C193.405 40.765 193.627 40.2283 193.627 39.575C193.627 39.015 193.429 38.56 193.032 38.21C192.659 37.86 192.18 37.5917 191.597 37.405C191.037 37.2183 190.232 36.9967 189.182 36.74C187.735 36.4133 186.557 36.0867 185.647 35.76C184.76 35.41 183.99 34.8617 183.337 34.115C182.707 33.3683 182.392 32.3417 182.392 31.035C182.392 29.355 183.034 27.99 184.317 26.94C185.6 25.89 187.374 25.365 189.637 25.365ZM218.122 34.57C218.122 35.06 218.064 35.62 217.947 36.25H203.737C203.807 37.9767 204.274 39.2483 205.137 40.065C206.001 40.8817 207.074 41.29 208.357 41.29C209.501 41.29 210.446 41.01 211.192 40.45C211.962 39.89 212.452 39.1317 212.662 38.175H217.877C217.621 39.5283 217.072 40.7417 216.232 41.815C215.392 42.8883 214.307 43.7283 212.977 44.335C211.671 44.9417 210.212 45.245 208.602 45.245C206.712 45.245 205.032 44.8483 203.562 44.055C202.092 43.2383 200.949 42.0833 200.132 40.59C199.316 39.0967 198.907 37.335 198.907 35.305C198.907 33.275 199.316 31.5133 200.132 30.02C200.949 28.5033 202.092 27.3483 203.562 26.555C205.032 25.7617 206.712 25.365 208.602 25.365C210.516 25.365 212.184 25.7617 213.607 26.555C215.054 27.3483 216.162 28.445 216.932 29.845C217.726 31.2217 218.122 32.7967 218.122 34.57ZM213.152 34.08C213.222 32.4933 212.802 31.2917 211.892 30.475C211.006 29.6583 209.909 29.25 208.602 29.25C207.272 29.25 206.152 29.6583 205.242 30.475C204.332 31.2917 203.831 32.4933 203.737 34.08H213.152Z" fill="#2D1D60"></path><circle cx="93" cy="20" r="2" fill="#2D1D60"></circle><circle cx="102" cy="20" r="2" fill="#2D1D60"></circle><defs><linearGradient id="paint0_linear_722_614" x1="19.0587" y1="16.0237" x2="51.7887" y2="58.6464" gradientUnits="userSpaceOnUse"><stop stop-color="#8360FF"></stop><stop offset="1" stop-color="#D3137A"></stop></linearGradient></defs></svg>