<svg width="42" height="42" viewBox="0 0 42 42" fill="none" xmlns="http://www.w3.org/2000/svg">
<path d="M16.855 1.42993C16.875 1.85893 16.886 2.28993 16.886 2.72393C16.886 13.2889 10.744 22.4189 1.83496 26.7369" stroke="#E4B8E4" stroke-width="1.25" stroke-miterlimit="10"/>
<path d="M25.145 1.42993C25.125 1.85893 25.114 2.28993 25.114 2.72393C25.114 13.2889 31.256 22.4189 40.165 26.7369" stroke="#EDBABA" stroke-width="1.25" stroke-miterlimit="10"/>
<path d="M1.26514 17.74C10.4721 20.088 17.1241 28.599 16.7631 38.481C16.7381 39.168 16.6801 39.845 16.5901 40.512" stroke="#BBECC0" stroke-width="1.25" stroke-miterlimit="10"/>
<path d="M40.7349 17.74C31.5279 20.088 24.8759 28.599 25.2369 38.481C25.2619 39.168 25.3199 39.845 25.4099 40.512" stroke="#9EE1E6" stroke-width="1.25" stroke-miterlimit="10"/>
<path d="M10.1289 37.79C12.8679 34.928 16.7249 33.145 20.9999 33.145C25.2749 33.145 29.1319 34.928 31.8709 37.79" stroke="#BAB9EB" stroke-width="1.25" stroke-miterlimit="10"/>
<path d="M31.8709 4.20996C29.1319 7.07196 25.2749 8.85496 20.9999 8.85496C16.7249 8.85496 12.8679 7.07196 10.1289 4.20996" stroke="#9EE1E6" stroke-width="1.25" stroke-miterlimit="10"/>
<path d="M37.845 31.9659C31.501 29.4549 25.786 25.6989 21 20.9999C16.214 16.3009 10.498 12.5459 4.15503 10.0339" stroke="#BAB9EB" stroke-width="1.25" stroke-miterlimit="10"/>
<path d="M4.15503 31.9659C10.499 29.4549 16.214 25.6989 21 20.9999C25.786 16.3009 31.502 12.5459 37.845 10.0339" stroke="#F7F5D9" stroke-width="1.25" stroke-miterlimit="10"/>
<path d="M21 41C32.0457 41 41 32.0457 41 21C41 9.95431 32.0457 1 21 1C9.95431 1 1 9.95431 1 21C1 32.0457 9.95431 41 21 41Z" stroke="#EEEEEE" stroke-width="1.25" stroke-miterlimit="10"/>
</svg>
