<svg xmlns="http://www.w3.org/2000/svg" width="142" height="28" viewBox="0 0 142 28" fill="none" id="intro__logo" class="intro__logo">
              <path fill="#00BEFF" d="M135.774 16.2275L117.555 6.27686C115.873 5.29582 115.312 3.33373 116.294 1.65194C117.275 0.1103 119.377 -0.450297 121.059 0.390598L139.278 10.3412C140.96 11.3222 141.52 13.2843 140.539 14.9661C139.698 16.6479 137.456 17.2085 135.774 16.2275ZM127.365 22.2539L117.695 16.9282C116.013 15.9472 115.453 13.9851 116.434 12.3033C117.415 10.7616 119.517 10.201 121.199 11.0419L130.869 16.3676C132.551 17.3486 133.111 19.3107 132.13 20.9925C131.149 22.5342 129.047 23.0948 127.365 22.2539Z"></path><path fill="#00BEFF" opacity="0.5" d="M115.873 24.4963V14.1253C115.873 12.1632 117.415 10.6216 119.377 10.6216C121.339 10.6216 122.881 12.1632 122.881 14.1253V24.4963C122.881 26.4584 121.339 28.0001 119.377 28.0001C117.415 28.0001 115.873 26.4584 115.873 24.4963Z"></path><path fill="currentColor" d="M0 22.277H2.88529V15.213H9.55132V12.5267H2.88529V8.04949H10.1483V5.36319H0V22.277ZM29.6489 8.04949H34.524V22.277H37.4093V8.04949H42.2845V5.36319H29.6489V8.04949ZM57.4074 12.1287H50.4429V5.36319H47.5576V22.277H50.4429V14.815H57.4074V22.277H60.2927V5.36319H57.4074V12.1287ZM79.9923 7.45254C79.2958 6.65659 78.3009 6.05964 77.306 5.56217C76.311 5.06471 75.1171 4.86572 73.9232 4.86572C72.7293 4.86572 71.5354 5.06471 70.5405 5.56217C69.5455 6.05964 68.5506 6.65659 67.8541 7.45254C67.1577 8.24848 66.5607 9.24341 66.0633 10.3378C65.6653 11.3328 65.3668 12.5267 65.3668 13.8201C65.3668 15.1135 65.5658 16.3074 65.9638 17.3023C66.3617 18.3968 66.9587 19.3917 67.7546 20.1876C68.4511 20.9836 69.446 21.5805 70.441 22.078C71.4359 22.5755 72.6298 22.7744 73.8237 22.7744C75.0176 22.7744 76.2115 22.5755 77.2065 22.078C78.2014 21.5805 79.1963 20.9836 79.8928 20.1876C80.5892 19.3917 81.1862 18.3968 81.6836 17.3023C82.0816 16.2079 82.2806 15.014 82.2806 13.8201C82.2806 12.6262 82.0816 11.3328 81.6836 10.3378C81.3852 9.24341 80.7882 8.24848 79.9923 7.45254ZM79.0968 16.2079C78.7984 17.0039 78.4004 17.6008 78.0024 18.1978C77.505 18.7947 76.908 19.1927 76.2115 19.4912C74.8186 20.1876 72.9283 20.1876 71.6349 19.4912C70.9384 19.1927 70.3415 18.6952 69.844 18.1978C69.3465 17.6008 68.9486 17.0039 68.7496 16.2079C68.4511 15.412 68.3516 14.616 68.3516 13.8201C68.3516 12.9246 68.4511 12.1287 68.7496 11.4323C69.048 10.6363 69.446 10.0394 69.844 9.44239C70.3415 8.84544 70.9384 8.44747 71.6349 8.14899C72.3313 7.85051 73.1273 7.65152 73.9232 7.65152C74.8186 7.65152 75.5151 7.85051 76.2115 8.14899C76.908 8.44747 77.505 8.94493 78.0024 9.44239C78.4999 10.0394 78.8979 10.6363 79.0968 11.4323C79.3953 12.2282 79.4948 13.0241 79.4948 13.8201C79.4948 14.7155 79.3953 15.5115 79.0968 16.2079ZM100.488 5.36319L95.9111 17.3023L91.235 5.36319H87.3547V22.277H90.24V10.3378L94.9162 22.277H96.8066L101.483 10.3378V22.277H104.368V5.36319H100.488ZM28.6539 22.277L21.6894 5.36319H19.4011L12.2376 22.277H15.5209L20.4955 9.44239L23.6793 17.7998C23.6793 17.7998 21.59 16.6059 19.6996 16.6059L18.7047 19.0932C22.5849 19.0932 25.4702 22.1775 25.4702 22.1775H28.6539V22.277Z"></path>
            </svg>