<?xml version="1.0" encoding="utf-8"?>
<!-- Generator: $$$/GeneralStr/196=Adobe Illustrator 27.6.0, SVG Export Plug-In . SVG Version: 6.00 Build 0)  -->
<svg version="1.1" id="Ebene_1" xmlns="http://www.w3.org/2000/svg" xmlns:xlink="http://www.w3.org/1999/xlink" x="0px" y="0px"
	 viewBox="0 0 932.36 1294.17" enable-background="new 0 0 932.36 1294.17" xml:space="preserve">
<path fill="#091F46" d="M815.74,253.82c-2.16,0.07-4.32,0.2-6.49,0.2c-182.58,0.01-365.16,0.01-547.74,0
	c-1.48,0-2.96-0.21-4.44-0.32c-0.15-0.23-0.3-0.47-0.44-0.71c-0.06,0.22-0.11,0.44-0.17,0.67c-0.55,1.26-1.47,2.5-1.57,3.79
	c-0.24,3.15-0.1,6.33-0.1,9.49c0,296.22,0,592.44,0,888.67c0,2.17-0.02,4.33-0.03,6.49c0,0-0.03,0.14-0.03,0.14
	c-0.47,6.57-0.85,13.15-1.44,19.7c-1.51,16.71-6.74,32.32-14.93,46.86c-20.28,35.99-51.49,57.07-91.78,63.66
	c-34.65,5.67-66.5-2.82-94.85-23.89c-24.02-17.86-39.5-41.59-47.08-70.22c-3.47-13.11-6.09-26.69-3.81-40.53
	c0.19-1.14,0.03-2.33,0.03-3.5C0.87,812.14,0.88,469.97,0.83,127.8c0-32.04,10.34-60.38,31.28-84.34
	C52.3,20.34,77.89,6.03,108.56,1.64c6.69-0.96,13.51-1.46,20.27-1.46c227.65-0.08,455.3-0.5,682.94,0.31
	c40.58,0.14,73.52,19.55,97.7,52.6c12.22,16.7,20.14,35.42,22.34,55.94c1.23,11.41,0.12,23.13-0.53,34.68
	c-1.24,22.22-10.32,41.75-23.32,59.13c-21.15,28.27-49.68,44.97-84.79,50.03c-2.46,0.36-4.94,0.63-7.41,0.95
	C815.76,253.82,815.74,253.82,815.74,253.82z"/>
<path fill="#25D38E" d="M435.76,532.43c68.41-0.93,127.91,54.41,127.22,127.69c-0.67,70.7-53.98,117.16-107.65,124.53
	c-42.89,5.89-80.15-6.09-110.45-37.34c-20.63-21.28-33.25-46.87-35.49-76.62C302.84,583.62,375.53,530.35,435.76,532.43z"/>
<path fill="#25D38E" d="M734.53,532.43c69.02-0.24,125.66,55.9,126.12,124.4c0.48,72.56-55.53,129.07-126.57,129.26
	c-70.96,0.19-125.96-58.02-127.11-125.21C605.79,591.81,663.12,530.98,734.53,532.43z"/>
<path fill="#25D38E" d="M256.47,253.65c0.06-0.22,0.11-0.44,0.17-0.67c0.15,0.24,0.3,0.48,0.44,0.71c0,0-0.33,0.35-0.33,0.35
	L256.47,253.65z"/>
<polygon fill="#25D38E" points="815.74,253.82 815.76,253.82 815.76,254.02 "/>
<polygon fill="#25D38E" points="254.74,1162.23 254.77,1162.09 255.02,1162.19 "/>
</svg>
