<svg xmlns="http://www.w3.org/2000/svg" width="204.27" height="35.19" viewBox="0 0 204.27 35.19"><title>Element 1</title><g id="Ebene_2" data-name="Ebene 2"><g id="Ebene_1-2" data-name="Ebene 1"><path d="M39.64,12.84H32.27C28.28,6.43,21,6,14.82,7.93c-4.7,1.45-6.8,5-6.73,9.9s2.58,8.13,7.19,9.62c6.31,2,12.54.11,16.19-5.32H15.78c-1.15-2.22-.49-4-.7-6.22H40V33.66c-1.22,1.07-2.86.39-4.64.29l-.77-5.1C28.05,35.11,20.72,36.19,12.79,34,4.23,31.58-.27,25.45,0,16.71.27,8.69,5.64,2.59,14,.83A28.19,28.19,0,0,1,32,2.65C36.15,4.55,39.17,7.43,39.64,12.84Z" fill="#080808"/><path d="M125.12,23.54h7.56c6.25,5.9,17.81,6.34,22,.69-1.78-3.56-5.39-2.66-8.3-3.15-4.08-.7-8.32-.64-12.35-1.51S126.37,16.94,126,12c-.45-5.14,2.41-8.22,6.74-9.92a28.7,28.7,0,0,1,21.9.18c3.86,1.58,6.75,4.23,7.11,9.17h-7.95c-4.79-5.92-16.43-6.32-19.62-.24,2,2.45,4.85,2.4,7.6,2.64,4.81.41,9.65.68,14.29,2.11,3.73,1.15,6.67,3.33,6.9,7.58.22,4.08-2,7.08-5.57,8.69a30.7,30.7,0,0,1-26.52-.13A9.32,9.32,0,0,1,125.12,23.54Z" fill="#080808"/><path d="M203,11.64h-7.58c-5.47-6.08-16.17-6.53-20-.57,1.88,2.56,4.8,2.51,7.53,2.75,5,.43,10,.66,14.75,2.22,3.27,1.08,6,2.93,6.48,6.78a8.31,8.31,0,0,1-4.86,9,30,30,0,0,1-27.79-.14,8.76,8.76,0,0,1-5-7.62c2.54-1.4,5.24-.15,7.62-.73,5.62,6.17,18.1,6.52,22,.62-2.43-3.24-6.17-2.67-9.47-3-4.47-.4-8.95-.57-13.24-2.06-3.38-1.17-5.83-3.22-6.19-7s1.26-6.41,4.22-8.47C178.2-1.21,192.51-1,199,4,201.38,5.86,203.23,8.12,203,11.64Z" fill="#080808"/><path d="M98.94,35c-6.6-.27-13.88-2.08-17.81-10A16.48,16.48,0,0,1,89.3,2.39a28,28,0,0,1,19.49-1.1c8.35,2.38,12.91,8.54,12.69,16.83-.2,8-4.93,13.57-13.26,15.89A34.61,34.61,0,0,1,98.94,35Zm1.36-7.08a29.8,29.8,0,0,0,3,0c5.95-.6,9.61-4,10-9.21.44-6.14-2.45-9.71-8.85-11.2a18.16,18.16,0,0,0-10.31.66,10.17,10.17,0,0,0-5.07,14.83C91.63,27.09,95.8,28,100.3,27.87Z" fill="#080808"/><path d="M47.45,33.82V1.2h7.87v26H76.9c1.18,2.37.71,4.32.56,6.61Z" fill="#080808"/></g></g></svg>