<?xml version="1.0" encoding="UTF-8"?> <svg xmlns="http://www.w3.org/2000/svg" viewBox="0 0 526.59 125.27"><defs><style>.d{fill:#93007e;}</style></defs><g id="a"></g><g id="b"><g id="c"><g><path class="d" d="M114.62,43.3c-6.14,0-11.56,3.04-14.87,7.7v-.03s-.05,.08-.07,.12c-.51,.72-.96,1.49-1.36,2.29-1.01,1.59-2.17,2.94-3.92,2.94-4.73,0-4.73-5.33-4.73-7.55v-5.51c0-11.03-9.02-20.05-20.05-20.05s-20.05,9.02-20.05,20.05v5.83c0,2.61-2.12,4.73-4.73,4.73-4.73,0-4.73-6.53-4.73-9.14V20.05C40.1,9.02,31.08,0,20.05,0h0C9.02,0,0,9.02,0,20.05V105.22c0,11.03,9.02,20.05,20.05,20.05h0c11.03,0,20.05-9.02,20.05-20.05v-26.79c0-2.61,0-9.14,4.73-9.14,2.61,0,4.73,2.12,4.73,4.73v8c0,11.03,9.02,20.05,20.05,20.05s20.05-9.02,20.05-20.05v-7.68c0-2.22,0-7.55,4.73-7.55,1.75,0,2.93,1.38,3.93,2.96,.4,.79,.85,1.55,1.35,2.26,.02,.04,.04,.08,.07,.11v-.02c3.31,4.65,8.73,7.7,14.87,7.7,10.08,0,18.25-8.17,18.25-18.25s-8.17-18.25-18.25-18.25Z"></path><g><path d="M185.82,95.92c-4.37,0-8.48-.86-12.31-2.59-3.84-1.73-7.2-4.13-10.09-7.2-2.89-3.07-5.14-6.62-6.76-10.64-1.62-4.02-2.43-8.32-2.43-12.91s.83-8.94,2.5-12.98c1.67-4.04,3.96-7.57,6.88-10.59,2.92-3.03,6.28-5.39,10.09-7.08,4.33-1.93,9.01-2.76,14.03-2.5,3.37,.18,6.71,.94,9.81,2.27,4.56,1.95,8.44,4.78,11.62,8.49,1.03,1.19,.72,3.03-.66,3.78h0c-1.08,.58-2.39,.29-3.19-.64-2.29-2.63-4.97-4.72-8.03-6.26-3.67-1.85-7.47-2.77-11.42-2.77-3.7,0-7.16,.74-10.39,2.22-3.23,1.48-6.06,3.53-8.51,6.14-2.45,2.61-4.36,5.63-5.73,9.06-1.38,3.42-2.06,7.08-2.06,10.96s.7,7.53,2.09,10.94c1.39,3.41,3.31,6.41,5.75,9.01,2.45,2.6,5.28,4.64,8.51,6.12,3.23,1.48,6.69,2.22,10.39,2.22,3.15,0,6.14-.56,8.96-1.67,2.83-1.11,5.39-2.68,7.68-4.7s4.22-4.36,5.78-7.02c1.56-2.66,2.64-5.53,3.26-8.62h-16.66c-1.33,0-2.42-1.08-2.42-2.42h0c0-1.2,.97-2.17,2.17-2.17h20.82c.98,0,1.79,.84,1.71,1.82-.32,3.69-1.22,7.17-2.69,10.44-1.71,3.81-4.01,7.15-6.9,10.04-2.89,2.89-6.19,5.15-9.9,6.79-3.71,1.63-7.68,2.45-11.9,2.45Z"></path><path d="M227.23,92.26V33.01c0-1.37,1.11-2.48,2.48-2.48h0c1.37,0,2.48,1.11,2.48,2.48v56.07c0,.38,.31,.69,.69,.69h27.19c1.37,0,2.48,1.11,2.48,2.48h0c0,1.37-1.11,2.48-2.48,2.48h-30.36c-1.37,0-2.48-1.11-2.48-2.48Z"></path><path d="M297.38,95.92c-4.34,0-8.42-.86-12.24-2.59-3.82-1.73-7.18-4.12-10.09-7.18-2.9-3.06-5.18-6.59-6.83-10.62-1.65-4.02-2.48-8.32-2.48-12.91s.82-8.89,2.48-12.91c1.65-4.02,3.93-7.56,6.83-10.62,2.9-3.06,6.27-5.45,10.09-7.18,3.82-1.73,7.9-2.59,12.24-2.59s8.47,.86,12.29,2.59c3.82,1.73,7.18,4.12,10.09,7.18,2.9,3.06,5.17,6.59,6.81,10.62,1.63,4.02,2.45,8.32,2.45,12.91s-.82,8.89-2.45,12.91c-1.64,4.02-3.91,7.56-6.81,10.62-2.9,3.06-6.27,5.45-10.09,7.18-3.82,1.73-7.92,2.59-12.29,2.59Zm0-4.95c3.73,0,7.21-.75,10.43-2.25,3.22-1.5,6.05-3.55,8.48-6.17,2.43-2.61,4.33-5.63,5.71-9.06s2.06-7.05,2.06-10.87-.7-7.54-2.09-10.96c-1.39-3.42-3.31-6.43-5.76-9.03-2.45-2.6-5.27-4.64-8.48-6.12-3.21-1.48-6.66-2.22-10.36-2.22s-7.21,.75-10.43,2.25c-3.23,1.5-6.05,3.55-8.48,6.17-2.43,2.61-4.33,5.63-5.71,9.06-1.38,3.42-2.06,7.05-2.06,10.87s.7,7.54,2.09,10.96c1.39,3.42,3.31,6.44,5.76,9.06,2.45,2.61,5.28,4.65,8.51,6.12,3.23,1.47,6.67,2.2,10.34,2.2Z"></path><path d="M361.16,95.92c-3.39,0-6.68-.53-9.86-1.58-3.18-1.05-5.95-2.55-8.32-4.49-1.58-1.3-2.84-2.76-3.79-4.4-.76-1.31-.1-3,1.32-3.53h.01c1.14-.43,2.38,.04,3,1.09,.76,1.29,1.81,2.44,3.13,3.45,1.94,1.48,4.19,2.61,6.74,3.37,2.55,.76,5.14,1.15,7.77,1.15,3.12,0,6.04-.53,8.76-1.6,2.72-1.07,4.92-2.56,6.6-4.47,1.68-1.91,2.52-4.18,2.52-6.81s-.87-4.79-2.61-6.49c-1.74-1.7-3.98-3.04-6.72-4.04-2.74-.99-5.59-1.77-8.55-2.32-4.34-.76-8.22-1.78-11.65-3.05-3.42-1.27-6.14-3.06-8.14-5.39-2-2.32-3-5.44-3-9.35,0-3.64,1.06-6.79,3.19-9.45,2.12-2.66,4.91-4.72,8.37-6.19,3.45-1.47,7.2-2.2,11.23-2.2,3.27,0,6.48,.51,9.63,1.54,3.15,1.02,5.93,2.52,8.35,4.47,1.62,1.31,2.93,2.81,3.95,4.51,.79,1.33,.13,3.06-1.33,3.58h0c-1.13,.41-2.37-.07-2.97-1.12-.76-1.32-1.81-2.48-3.13-3.49-1.93-1.47-4.16-2.58-6.72-3.35-2.55-.76-5.14-1.15-7.77-1.15-3.15-.03-6.08,.5-8.78,1.58-2.47,.99-4.51,2.34-6.12,4.03-2.07,2.19-3.1,5.23-2.91,8.23,.16,2.48,.93,4.44,2.31,5.88,1.56,1.62,3.68,2.83,6.37,3.64,2.69,.81,5.73,1.54,9.12,2.18,4.04,.7,7.79,1.78,11.26,3.23,3.47,1.45,6.27,3.38,8.39,5.78,2.12,2.4,3.19,5.37,3.19,8.92s-1.06,6.75-3.19,9.42c-2.13,2.67-4.91,4.75-8.37,6.21-3.45,1.47-7.21,2.2-11.28,2.2Z"></path><path d="M416.69,95.92c-3.39,0-6.68-.53-9.86-1.58-3.18-1.05-5.95-2.55-8.32-4.49-1.58-1.3-2.84-2.76-3.79-4.4-.76-1.31-.1-3,1.32-3.53h.01c1.14-.43,2.38,.04,3,1.09,.76,1.29,1.81,2.44,3.13,3.45,1.94,1.48,4.19,2.61,6.74,3.37,2.55,.76,5.14,1.15,7.77,1.15,3.12,0,6.04-.53,8.76-1.6,2.72-1.07,4.92-2.56,6.6-4.47,1.68-1.91,2.52-4.18,2.52-6.81s-.87-4.79-2.61-6.49c-1.74-1.7-3.98-3.04-6.72-4.04-2.74-.99-5.59-1.77-8.55-2.32-4.34-.76-8.22-1.78-11.65-3.05-3.42-1.27-6.14-3.06-8.14-5.39-2-2.32-3-5.44-3-9.35,0-3.64,1.06-6.79,3.19-9.45,2.12-2.66,4.91-4.72,8.37-6.19,3.45-1.47,7.2-2.2,11.23-2.2,3.27,0,6.48,.51,9.63,1.54s5.93,2.52,8.35,4.47c1.62,1.31,2.93,2.81,3.95,4.51,.79,1.33,.13,3.06-1.33,3.58h0c-1.13,.41-2.37-.07-2.97-1.12-.76-1.32-1.8-2.48-3.13-3.49-1.93-1.47-4.17-2.58-6.72-3.35-2.55-.76-5.14-1.15-7.77-1.15-3.15-.03-6.08,.5-8.78,1.58-2.48,.99-4.52,2.34-6.13,4.04-2.06,2.18-3.09,5.22-2.9,8.22,.16,2.48,.93,4.44,2.31,5.88,1.56,1.62,3.68,2.83,6.37,3.64,2.69,.81,5.73,1.54,9.12,2.18,4.04,.7,7.79,1.78,11.26,3.23,3.47,1.45,6.27,3.38,8.39,5.78,2.12,2.4,3.19,5.37,3.19,8.92s-1.06,6.75-3.19,9.42c-2.12,2.67-4.91,4.75-8.37,6.21-3.46,1.47-7.22,2.2-11.28,2.2Z"></path><path d="M477.9,30.54h-.03c2.35,0,4.44,1.47,5.24,3.67l21.83,53.04c1.32,3.64-1.37,7.49-5.24,7.49h0c-2.35,0-4.44-1.47-5.24-3.68l-2.35-6.46c-.27-.74-.97-1.23-1.76-1.23h-24.89c-.79,0-1.49,.49-1.76,1.23l-2.34,6.46c-.8,2.21-2.9,3.68-5.25,3.68h0c-3.87,0-6.57-3.84-5.25-7.48l21.79-53.04c.8-2.21,2.9-3.68,5.25-3.68Zm-6.99,41.64h13.95c1.3,0,2.2-1.29,1.76-2.51l-6.99-19.12c-.6-1.64-2.92-1.64-3.52,0l-6.96,19.12c-.44,1.22,.46,2.51,1.76,2.51Z"></path><g><path d="M512.97,89.14v-27.53c0-3.09,2.5-5.59,5.59-5.59h0c3.09,0,5.59,2.5,5.59,5.59v27.53c0,3.09-2.5,5.59-5.59,5.59h0c-3.09,0-5.59-2.5-5.59-5.59Z"></path><circle cx="518.57" cy="38.56" r="8.02"></circle><path d="M513.95,45.11s3.93,2.02,3.93,5.92-2.47,5.95-2.47,5.95h6.31s-2.54-1.43-2.54-5.94,4-5.94,4-5.94h-9.24Z"></path></g></g></g></g></g></svg> 