<?xml version="1.0" encoding="utf-8"?>
<!-- Generator: Adobe Illustrator 23.0.3, SVG Export Plug-In . SVG Version: 6.00 Build 0)  -->
<svg version="1.1" id="Layer_1" xmlns="http://www.w3.org/2000/svg" xmlns:xlink="http://www.w3.org/1999/xlink" x="0px" y="0px"
	 viewBox="0 0 67.6 67.6" style="enable-background:new 0 0 67.6 67.6;" xml:space="preserve">
<style type="text/css">
	.st0{fill:#01A0C6;}
	.st1{fill:#FFFFFF;}
</style>
<g>
	<g>
		<g>
			<path id="SVGID_1_" class="st0" d="M0,33.8c0,18.6,15.2,33.8,33.8,33.8s33.8-15.2,33.8-33.8S52.4,0,33.8,0C15.1,0,0,15.1,0,33.8"
				/>
		</g>
	</g>
	<path class="st1" d="M45.8,51.4c0,2.9-5.4,5.2-12.1,5.2s-12.1-2.3-12.1-5.2c0-2.9,5.4-5.2,12.1-5.2C40.4,46.3,45.8,48.6,45.8,51.4"
		/>
	<path class="st1" d="M47.6,29.9c0,7.6-6.2,13.8-13.8,13.8S20,37.5,20,29.9c0-7.6,6.2-13.8,13.8-13.8C41.4,16.1,47.6,22.2,47.6,29.9
		"/>
	<path class="st1" d="M51,16.9c0,1.9-1.5,3.4-3.5,3.4c-1.9,0-3.5-1.5-3.5-3.4s1.6-3.5,3.5-3.5C49.5,13.5,51,15,51,16.9"/>
</g>
</svg>
