<?xml version="1.0" encoding="utf-8"?>
<!-- Generator: $$$/GeneralStr/196=Adobe Illustrator 27.6.0, SVG Export Plug-In . SVG Version: 6.00 Build 0)  -->
<svg version="1.1" id="Ebene_1" xmlns="http://www.w3.org/2000/svg" xmlns:xlink="http://www.w3.org/1999/xlink" x="0px" y="0px"
	 viewBox="0 0 186.6 186.6" enable-background="new 0 0 186.6 186.6" xml:space="preserve">
<g>
	<path fill-rule="evenodd" clip-rule="evenodd" fill="#00044C" d="M118.4,25.1c0,13.9-11.2,25.1-25.1,25.1S68.2,39,68.2,25.1
		S79.4,0,93.3,0C107.2,0,118.4,11.3,118.4,25.1"/>
	<path fill-rule="evenodd" clip-rule="evenodd" fill="#00044C" d="M118.4,92.6c0,13.9-11.2,25.1-25.1,25.1s-25.1-11.2-25.1-25.1
		s11.2-25.1,25.1-25.1C107.2,67.4,118.4,78.7,118.4,92.6"/>
	<path fill-rule="evenodd" clip-rule="evenodd" fill="#2AFFA3" d="M118.4,161.5c0,13.9-11.2,25.1-25.1,25.1s-25.1-11.2-25.1-25.1
		c0-13.9,11.2-25.1,25.1-25.1C107.2,136.4,118.4,147.6,118.4,161.5"/>
	<path fill-rule="evenodd" clip-rule="evenodd" fill="#2AFFA3" d="M186.6,25.1c0,13.9-11.2,25.1-25.1,25.1
		c-13.9,0-25.1-11.2-25.1-25.1S147.6,0,161.5,0C175.3,0,186.6,11.3,186.6,25.1"/>
	<path fill-rule="evenodd" clip-rule="evenodd" fill="#2AFFA3" d="M186.6,92.6c0,13.9-11.2,25.1-25.1,25.1
		c-13.9,0-25.1-11.2-25.1-25.1s11.2-25.1,25.1-25.1C175.3,67.4,186.6,78.7,186.6,92.6"/>
	<path fill-rule="evenodd" clip-rule="evenodd" fill="#2AFFA3" d="M186.6,161.5c0,13.9-11.2,25.1-25.1,25.1
		c-13.9,0-25.1-11.2-25.1-25.1c0-13.9,11.2-25.1,25.1-25.1C175.3,136.4,186.6,147.6,186.6,161.5"/>
	<path fill-rule="evenodd" clip-rule="evenodd" fill="#2AFFA3" d="M50.2,25.1C50.2,39,39,50.2,25.1,50.2S0,39,0,25.1S11.2,0,25.1,0
		C39,0,50.2,11.3,50.2,25.1"/>
	<path fill-rule="evenodd" clip-rule="evenodd" fill="#00044C" d="M50.2,92.6c0,13.9-11.2,25.1-25.1,25.1S0,106.5,0,92.6
		s11.2-25.1,25.1-25.1C39,67.4,50.2,78.7,50.2,92.6"/>
	<path fill-rule="evenodd" clip-rule="evenodd" fill="#2AFFA3" d="M50.2,161.5c0,13.9-11.2,25.1-25.1,25.1S0,175.4,0,161.5
		c0-13.9,11.2-25.1,25.1-25.1C39,136.4,50.2,147.6,50.2,161.5"/>
</g>
</svg>
