<?xml version="1.0" encoding="utf-8"?>
<!-- Generator: Adobe Illustrator 23.0.3, SVG Export Plug-In . SVG Version: 6.00 Build 0)  -->
<svg version="1.1" id="Ebene_1" xmlns="http://www.w3.org/2000/svg" xmlns:xlink="http://www.w3.org/1999/xlink" x="0px" y="0px"
	 width="224.8px" height="69.4px" viewBox="0 0 224.8 69.4" enable-background="new 0 0 224.8 69.4" xml:space="preserve">
<g>
	<g>
		<defs>
			<rect id="SVGID_1_" width="224.8" height="69.4"/>
		</defs>
		<clipPath id="SVGID_2_">
			<use xlink:href="#SVGID_1_"  overflow="visible"/>
		</clipPath>
		<path clip-path="url(#SVGID_2_)" fill="#F28A00" d="M0,13.8c0,0,0-1.4,1.2-2l23-11.5c0,0,1.2-0.6,2.5-0.1l48.4,18.2
			c0,0,1.3,0.5,1.3,1.9v35.6c0,0,0,1.4-1.2,2l-23,11.5c0,0-1.2,0.6-1.2-0.8V49c0,0,0-1.4-1.2-0.8l-23,11.5c0,0-1.2,0.6-1.2-0.8V39.4
			c0,0,0-1.4-1.2-0.8l-23,11.5c0,0-1.2,0.6-1.2-0.8V13.8L0,13.8z"/>
	</g>
	<g>
		<path d="M91,4C91,4,91,3.9,91,4l0.4-0.1c0,0,0.1,0,0.1,0.1l0.1,4.7l0.6,4.8l1.2-5c0,0,0-0.1,0.1-0.1h0.6c0,0,0.1,0,0.1,0.1l1.2,5
			l0.6-4.8L96.2,4c0,0,0-0.1,0.1-0.1h0.3c0,0,0.1,0,0.1,0.1l-0.2,4.8l-0.7,5.4c0,0.1,0,0.1-0.1,0.1h-0.6c0,0-0.1,0-0.1-0.1l-1.3-5.1
			l-1.3,5.1c0,0.1,0,0.1-0.1,0.1h-0.6c0,0-0.1,0-0.1-0.1l-0.7-5.4L91,4z"/>
		<path d="M98.6,13.8C98.6,13.8,98.7,13.8,98.6,13.8l2.3-0.1V4.4h-2.1c0,0-0.1,0-0.1-0.1V4c0,0,0-0.1,0.1-0.1h4.6c0,0,0.1,0,0.1,0.1
			v0.3c0,0,0,0.1-0.1,0.1h-2.1v9.3h2.2c0,0,0.1,0,0.1,0.1v0.3c0,0,0,0.1-0.1,0.1h-5c0,0-0.1,0-0.1-0.1V13.8z"/>
		<path d="M111.1,8.4c0,1-0.7,1.8-1.6,2.1l1.5,3.6c0,0.1,0,0.1-0.1,0.1h-0.3c-0.1,0-0.1,0-0.1-0.1l-1.5-3.6h-2.2v3.5
			c0,0,0,0.1-0.1,0.1h-0.3c0,0-0.1,0-0.1-0.1V4c0,0,0-0.1,0.1-0.1h2.5c1.2,0,2.2,1,2.2,2.2V8.4z M110.6,6.1c0-1-0.8-1.7-1.7-1.7h-2
			v5.7h2c1,0,1.7-0.8,1.7-1.7V6.1z"/>
		<path d="M118.6,4.4C118.6,4.4,118.6,4.4,118.6,4.4l-2.4,0.1v9.8c0,0,0,0.1-0.1,0.1h-0.3c0,0-0.1,0-0.1-0.1V4.4h-2.4
			c0,0-0.1,0-0.1-0.1V4c0,0,0-0.1,0.1-0.1h5.2c0,0,0.1,0,0.1,0.1V4.4z"/>
	</g>
	<g>
		<path d="M125.3,12.2c0,1.2-1,2.2-2.2,2.2h-0.7c-1.2,0-2.2-1-2.2-2.2V12c0,0,0-0.1,0.1-0.1h0.4c0,0,0.1,0,0.1,0.1v0.2
			c0,0.9,0.8,1.7,1.7,1.7h0.7c0.9,0,1.7-0.8,1.7-1.7v-0.5c0-2.8-4.4-2.2-4.4-5.2V6c0-1.2,1-2.2,2.2-2.2h0.3c1.2,0,2.2,1,2.2,2.2v0.2
			c0,0,0,0.1-0.1,0.1h-0.3c0,0-0.1,0-0.1-0.1V6c0-1-0.8-1.7-1.7-1.7h-0.3c-0.9,0-1.7,0.8-1.7,1.7v0.5c0,1.4,1.5,2,2.5,2.6
			c1.1,0.6,1.9,1.3,1.9,2.6V12.2z"/>
		<path d="M132.6,12.2c0,1.2-1,2.2-2.2,2.2h-0.5c-1.2,0-2.2-1-2.2-2.2V6c0-1.2,1-2.2,2.2-2.2h0.5c1.2,0,2.2,1,2.2,2.2v0.2
			c0,0,0,0.1-0.1,0.1h-0.3c0,0-0.1,0-0.1-0.1V6c0-1-0.8-1.7-1.7-1.7h-0.5c-0.9,0-1.7,0.8-1.7,1.7v6.2c0,0.9,0.8,1.7,1.7,1.7h0.5
			c0.9,0,1.7-0.8,1.7-1.7v-0.3c0,0,0-0.1,0.1-0.1h0.3c0,0,0.1,0,0.1,0.1V12.2z"/>
		<path d="M139.8,14.2C139.8,14.2,139.8,14.3,139.8,14.2l-0.4,0.1c0,0-0.1,0-0.1-0.1V9.4h-3.8v4.8c0,0,0,0.1-0.1,0.1h-0.3
			c0,0-0.1,0-0.1-0.1V4c0,0,0-0.1,0.1-0.1h0.3c0,0,0.1,0,0.1,0.1v4.9h3.8V4c0,0,0-0.1,0.1-0.1h0.3c0,0,0.1,0,0.1,0.1V14.2z"/>
		<path d="M147.2,14.2C147.2,14.2,147.1,14.3,147.2,14.2l-0.4,0.1c0,0-0.1,0-0.1-0.1v-3.5h-3.8v3.5c0,0,0,0.1-0.1,0.1h-0.3
			c0,0-0.1,0-0.1-0.1v-3.8l1.7-6.4c0,0,0-0.1,0.1-0.1h1.2c0,0,0.1,0,0.1,0.1l1.7,6.4V14.2z M145.1,4.4h-0.6l-1.5,5.7h3.6L145.1,4.4z
			"/>
		<path d="M154.9,4.4C154.9,4.4,154.8,4.4,154.9,4.4l-4.2,0.1v4.4h3.9c0,0,0.1,0,0.1,0.1v0.3c0,0,0,0.1-0.1,0.1h-3.9v4.9
			c0,0,0,0.1-0.1,0.1h-0.3c0,0-0.1,0-0.1-0.1V4c0,0,0-0.1,0.1-0.1h4.6c0,0,0.1,0,0.1,0.1V4.4z"/>
		<path d="M162.2,4.4C162.2,4.4,162.2,4.4,162.2,4.4l-2.5,0.1v9.8c0,0,0,0.1-0.1,0.1h-0.3c0,0-0.1,0-0.1-0.1V4.4h-2.4
			c0,0-0.1,0-0.1-0.1V4c0,0,0-0.1,0.1-0.1h5.2c0,0,0.1,0,0.1,0.1V4.4z"/>
	</g>
	<g>
		<path d="M96,31.3c-0.3,0-0.5-0.2-0.5-0.5v-4.4h-2.6v4.4c0,0.3-0.2,0.5-0.5,0.5h-0.7c-0.3,0-0.5-0.2-0.5-0.5V20.3
			c0-0.3,0.2-0.5,0.5-0.5h0.7c0.3,0,0.5,0.2,0.5,0.5v4.4h2.6v-4.4c0-0.3,0.2-0.5,0.5-0.5h0.7c0.3,0,0.5,0.2,0.5,0.5v10.4
			c0,0.3-0.2,0.5-0.5,0.5H96z"/>
		<path d="M99.6,22.5c0-1.5,1.2-2.8,2.8-2.8h0.5c1.5,0,2.8,1.2,2.8,2.8v6.2c0,1.5-1.2,2.8-2.8,2.8h-0.5c-1.5,0-2.8-1.2-2.8-2.8V22.5
			z M101.3,28.7c0,0.6,0.5,1.1,1.1,1.1h0.5c0.6,0,1.1-0.5,1.1-1.1v-6.2c0-0.6-0.5-1.1-1.1-1.1h-0.5c-0.6,0-1.1,0.5-1.1,1.1V28.7z"/>
		<path d="M110.9,31.4c-1.5,0-2.8-1.2-2.8-2.8v-6.2c0-1.5,1.2-2.8,2.8-2.8h0.5c1.5,0,2.8,1.2,2.8,2.8v0.3c0,0.3-0.2,0.5-0.5,0.5H113
			c-0.3,0-0.5-0.2-0.5-0.5v-0.3c0-0.6-0.5-1.1-1.2-1.1h-0.5c-0.6,0-1.1,0.5-1.1,1.1v6.2c0,0.6,0.5,1.1,1.1,1.1h0.5
			c0.6,0,1.2-0.5,1.2-1.1v-0.5c0-0.3,0.2-0.5,0.5-0.5h0.7c0.3,0,0.5,0.2,0.5,0.5v0.5c0,1.5-1.2,2.8-2.8,2.8H110.9z"/>
		<path d="M121.3,31.3c-0.3,0-0.5-0.2-0.5-0.5v-4.4h-2.6v4.4c0,0.3-0.2,0.5-0.5,0.5h-0.7c-0.3,0-0.5-0.2-0.5-0.5V20.3
			c0-0.3,0.2-0.5,0.5-0.5h0.7c0.3,0,0.5,0.2,0.5,0.5v4.4h2.6v-4.4c0-0.3,0.2-0.5,0.5-0.5h0.7c0.3,0,0.5,0.2,0.5,0.5v10.4
			c0,0.3-0.2,0.5-0.5,0.5H121.3z"/>
		<path d="M127.6,31.4c-1.5,0-2.8-1.2-2.8-2.8v-0.4c0-0.3,0.2-0.5,0.5-0.5h0.7c0.3,0,0.5,0.2,0.5,0.5v0.4c0,0.6,0.5,1.1,1.1,1.1h0.6
			c0.6,0,1.1-0.5,1.1-1.1v-0.5c0-2.2-4.4-1.8-4.4-5.2v-0.5c0-1.5,1.2-2.8,2.8-2.8h0.4c1.5,0,2.8,1.2,2.8,2.8v0.3
			c0,0.3-0.2,0.5-0.5,0.5h-0.7c-0.3,0-0.5-0.2-0.5-0.5v-0.3c0-0.6-0.5-1.1-1.1-1.1h-0.4c-0.6,0-1.1,0.5-1.1,1.1v0.5
			c0,2,4.4,1.7,4.4,5.2v0.5c0,1.5-1.2,2.8-2.8,2.8H127.6z"/>
		<path d="M136.2,31.4c-1.5,0-2.8-1.2-2.8-2.8v-6.2c0-1.5,1.2-2.8,2.8-2.8h0.5c1.5,0,2.8,1.2,2.8,2.8v0.3c0,0.3-0.2,0.5-0.5,0.5
			h-0.7c-0.3,0-0.5-0.2-0.5-0.5v-0.3c0-0.6-0.5-1.1-1.2-1.1h-0.5c-0.6,0-1.1,0.5-1.1,1.1v6.2c0,0.6,0.5,1.1,1.1,1.1h0.5
			c0.6,0,1.2-0.5,1.2-1.1v-0.5c0-0.3,0.2-0.5,0.5-0.5h0.7c0.3,0,0.5,0.2,0.5,0.5v0.5c0,1.5-1.2,2.8-2.8,2.8H136.2z"/>
		<path d="M146.6,31.3c-0.3,0-0.5-0.2-0.5-0.5v-4.4h-2.6v4.4c0,0.3-0.2,0.5-0.5,0.5h-0.7c-0.3,0-0.5-0.2-0.5-0.5V20.3
			c0-0.3,0.2-0.5,0.5-0.5h0.7c0.3,0,0.5,0.2,0.5,0.5v4.4h2.6v-4.4c0-0.3,0.2-0.5,0.5-0.5h0.7c0.3,0,0.5,0.2,0.5,0.5v10.4
			c0,0.3-0.2,0.5-0.5,0.5H146.6z"/>
	</g>
	<g>
		<path d="M153,31.4c-1.5,0-2.8-1.2-2.8-2.8v-8.3c0-0.3,0.2-0.5,0.5-0.5h0.7c0.3,0,0.5,0.2,0.5,0.5v8.3c0,0.6,0.5,1.1,1.1,1.1h0.4
			c0.6,0,1.1-0.5,1.1-1.1v-8.3c0-0.3,0.2-0.5,0.5-0.5h0.7c0.3,0,0.5,0.2,0.5,0.5v8.3c0,1.5-1.2,2.8-2.8,2.8H153z"/>
		<path d="M159.4,31.3c-0.3,0-0.5-0.2-0.5-0.5V20.3c0-0.3,0.2-0.5,0.5-0.5h0.7c0.3,0,0.5,0.2,0.5,0.5v9.3h3.4c0.3,0,0.5,0.2,0.5,0.5
			v0.7c0,0.3-0.2,0.5-0.5,0.5H159.4z"/>
	</g>
	<g>
		<path d="M167.3,31.3c-0.3,0-0.5-0.2-0.5-0.5V20.3c0-0.3,0.2-0.5,0.5-0.5h4.9c0.3,0,0.5,0.2,0.5,0.5V21c0,0.3-0.2,0.5-0.5,0.5h-3.7
			v3.2h3.4c0.3,0,0.5,0.2,0.5,0.5v0.7c0,0.3-0.2,0.5-0.5,0.5h-3.4v3.2h3.8c0.3,0,0.5,0.2,0.5,0.5v0.7c0,0.3-0.2,0.5-0.5,0.5H167.3z"
			/>
	</g>
	<g>
		<path d="M187.3,31.3c-0.3,0-0.5-0.2-0.5-0.5v-7.2c0-0.4,0.1-1.7,0.1-1.9h-0.4c0,0.2-0.2,1.5-0.3,1.9l-0.8,2.8
			c-0.1,0.2-0.3,0.3-0.5,0.3h-0.8c-0.2,0-0.4-0.1-0.5-0.3l-0.8-2.8c-0.1-0.4-0.3-1.7-0.3-1.9h-0.4c0,0.2,0.1,1.5,0.1,1.9v7.2
			c0,0.3-0.2,0.5-0.5,0.5h-0.7c-0.3,0-0.5-0.2-0.5-0.5V20.3c0-0.3,0.2-0.5,0.5-0.5h1.8c0.2,0,0.4,0.1,0.4,0.3l0.9,3.8
			c0.1,0.3,0.2,1.1,0.2,1.2c0-0.2,0.1-0.9,0.2-1.2l0.9-3.8c0-0.2,0.2-0.3,0.4-0.3h1.8c0.3,0,0.5,0.2,0.5,0.5v10.4
			c0,0.3-0.2,0.5-0.5,0.5H187.3z"/>
		<path d="M196.8,30.8c0,0.3-0.2,0.5-0.5,0.5h-0.7c-0.3,0-0.5-0.2-0.5-0.5v-3.1h-3.3v3.1c0,0.3-0.2,0.5-0.5,0.5h-0.7
			c-0.3,0-0.5-0.2-0.5-0.5v-4c0,0,0,0,0-0.1l1.7-6.5c0.1-0.2,0.3-0.4,0.5-0.4h2.1c0.2,0,0.4,0.1,0.5,0.4l1.7,6.5c0,0,0,0.1,0,0.1
			V30.8z M193.8,21.5h-0.4l-1.2,4.6h2.8L193.8,21.5z"/>
	</g>
	<g>
		<path d="M199.5,31.3c-0.3,0-0.5-0.2-0.5-0.5v-0.7c0-0.3,0.2-0.5,0.5-0.5h1.8v-8.1h-1.6c-0.3,0-0.5-0.2-0.5-0.5v-0.7
			c0-0.3,0.2-0.5,0.5-0.5h4.9c0.3,0,0.5,0.2,0.5,0.5V21c0,0.3-0.2,0.5-0.5,0.5H203v8.1h1.8c0.3,0,0.5,0.2,0.5,0.5v0.7
			c0,0.3-0.2,0.5-0.5,0.5H199.5z"/>
		<path d="M212.2,31.3c-0.2,0-0.4-0.1-0.5-0.3l-2.2-7.3c-0.1-0.4-0.4-1.7-0.4-1.9h-0.4c0,0.2,0.1,1.5,0.1,1.9v7.2
			c0,0.3-0.2,0.5-0.5,0.5h-0.7c-0.3,0-0.5-0.2-0.5-0.5V20.3c0-0.3,0.2-0.5,0.5-0.5h1.8c0.2,0,0.4,0.1,0.5,0.3l2.2,7.3
			c0.1,0.4,0.4,1.8,0.4,1.9h0.4c0-0.2-0.1-1.5-0.1-1.9v-7.2c0-0.3,0.2-0.5,0.5-0.5h0.7c0.3,0,0.5,0.2,0.5,0.5v10.4
			c0,0.3-0.2,0.5-0.5,0.5H212.2z"/>
	</g>
	<g>
		<path d="M217.2,31.3c-0.3,0-0.5-0.2-0.5-0.5v-0.6c0-0.3,0-0.3,0.1-0.5l3.8-8.2h-3.3c-0.3,0-0.5-0.2-0.5-0.5v-0.7
			c0-0.3,0.2-0.5,0.5-0.5h4.7c0.3,0,0.5,0.2,0.5,0.5V21c0,0,0,0.3-0.1,0.5l-3.8,8.1h3.8c0.3,0,0.5,0.2,0.5,0.5v0.7
			c0,0.3-0.2,0.5-0.5,0.5H217.2z"/>
	</g>
	<g>
		<path d="M96.2,46.2c0,1.2-1,2.2-2.2,2.2h-0.3c-1.2,0-2.2-1-2.2-2.2V38c0,0,0-0.1,0.1-0.1h0.3c0,0,0.1,0,0.1,0.1v8.2
			c0,0.9,0.8,1.7,1.7,1.7H94c0.9,0,1.7-0.8,1.7-1.7V38c0,0,0-0.1,0.1-0.1h0.3c0,0,0.1,0,0.1,0.1V46.2z"/>
		<path d="M103.5,48.2C103.5,48.2,103.5,48.2,103.5,48.2l-0.7,0.1c-0.1,0-0.1,0-0.1-0.1l-3.5-9.5v9.5c0,0,0,0.1-0.1,0.1h-0.3
			c0,0-0.1,0-0.1-0.1V38c0,0,0-0.1,0.1-0.1h0.6c0,0,0.1,0,0.1,0.1l3.5,9.5V38c0,0,0-0.1,0.1-0.1h0.3c0,0,0.1,0,0.1,0.1V48.2z"/>
		<path d="M105.9,47.8C105.9,47.8,105.9,47.8,105.9,47.8l2.3-0.1v-9.3h-2.1c0,0-0.1,0-0.1-0.1V38c0,0,0-0.1,0.1-0.1h4.6
			c0,0,0.1,0,0.1,0.1v0.3c0,0,0,0.1-0.1,0.1h-2.1v9.3h2.2c0,0,0.1,0,0.1,0.1v0.3c0,0,0,0.1-0.1,0.1h-5c0,0-0.1,0-0.1-0.1V47.8z"/>
		<path d="M116.1,48.2C116.1,48.2,116,48.2,116.1,48.2l-0.7,0.1c0,0-0.1,0-0.1-0.1L113.1,38c0-0.1,0-0.1,0.1-0.1h0.3
			c0,0,0.1,0,0.1,0.1l2.1,9.6l2.1-9.6c0,0,0-0.1,0.1-0.1h0.3c0.1,0,0.1,0,0.1,0.1L116.1,48.2z"/>
		<path d="M125.6,48.2C125.6,48.2,125.5,48.2,125.6,48.2l-4.7,0.1c0,0-0.1,0-0.1-0.1V38c0,0,0-0.1,0.1-0.1h4.6c0,0,0.1,0,0.1,0.1
			v0.3c0,0,0,0.1-0.1,0.1h-4.2v4.4h3.9c0,0,0.1,0,0.1,0.1v0.3c0,0,0,0.1-0.1,0.1h-3.9v4.4h4.2c0,0,0.1,0,0.1,0.1V48.2z"/>
		<path d="M132.8,42.4c0,1-0.7,1.8-1.6,2.1l1.5,3.6c0,0.1,0,0.1-0.1,0.1h-0.3c-0.1,0-0.1,0-0.1-0.1l-1.5-3.6h-2.2v3.5
			c0,0,0,0.1-0.1,0.1h-0.3c0,0-0.1,0-0.1-0.1V38c0,0,0-0.1,0.1-0.1h2.5c1.2,0,2.2,1,2.2,2.2V42.4z M132.3,40.1c0-1-0.8-1.7-1.7-1.7
			h-2v5.7h2c1,0,1.7-0.8,1.7-1.7V40.1z"/>
		<path d="M140.1,46.2c0,1.2-1,2.2-2.2,2.2h-0.7c-1.2,0-2.2-1-2.2-2.2V46c0,0,0-0.1,0.1-0.1h0.4c0,0,0.1,0,0.1,0.1v0.2
			c0,0.9,0.8,1.7,1.7,1.7h0.7c0.9,0,1.7-0.8,1.7-1.7v-0.5c0-2.8-4.4-2.2-4.4-5.2V40c0-1.2,1-2.2,2.2-2.2h0.3c1.2,0,2.2,1,2.2,2.2
			v0.2c0,0,0,0.1-0.1,0.1h-0.3c0,0-0.1,0-0.1-0.1V40c0-1-0.8-1.7-1.7-1.7h-0.3c-0.9,0-1.7,0.8-1.7,1.7v0.5c0,1.4,1.5,2,2.5,2.6
			c1.1,0.6,1.9,1.3,1.9,2.6V46.2z"/>
		<path d="M142.3,47.8C142.3,47.8,142.4,47.8,142.3,47.8l2.3-0.1v-9.3h-2.1c0,0-0.1,0-0.1-0.1V38c0,0,0-0.1,0.1-0.1h4.6
			c0,0,0.1,0,0.1,0.1v0.3c0,0,0,0.1-0.1,0.1h-2.1v9.3h2.2c0,0,0.1,0,0.1,0.1v0.3c0,0,0,0.1-0.1,0.1h-5c0,0-0.1,0-0.1-0.1V47.8z"/>
		<path d="M154.9,38.3C154.9,38.4,154.8,38.4,154.9,38.3l-2.5,0.1v9.8c0,0,0,0.1-0.1,0.1H152c0,0-0.1,0-0.1-0.1v-9.8h-2.4
			c0,0-0.1,0-0.1-0.1V38c0,0,0-0.1,0.1-0.1h5.2c0,0,0.1,0,0.1,0.1V38.3z"/>
		<path d="M159.7,43.7v4.5c0,0,0,0.1-0.1,0.1h-0.3c0,0-0.1,0-0.1-0.1v-4.5L157,38c0-0.1,0-0.1,0.1-0.1h0.3c0,0,0.1,0,0.1,0l2,5l2-5
			c0,0,0,0,0.1,0h0.3c0.1,0,0.1,0,0.1,0.1L159.7,43.7z"/>
	</g>
	<g>
		<path d="M173.6,46.2c0,1.2-1,2.2-2.2,2.2h-0.5c-1.2,0-2.2-1-2.2-2.2V40c0-1.2,1-2.2,2.2-2.2h0.5c1.2,0,2.2,1,2.2,2.2V46.2z
			 M173.1,40c0-1-0.8-1.7-1.7-1.7h-0.5c-1,0-1.7,0.8-1.7,1.7v6.2c0,1,0.8,1.7,1.7,1.7h0.5c1,0,1.7-0.8,1.7-1.7V40z"/>
		<path d="M181.1,38.3C181.1,38.4,181.1,38.4,181.1,38.3l-4.2,0.1v4.4h3.9c0,0,0.1,0,0.1,0.1v0.3c0,0,0,0.1-0.1,0.1h-3.9v4.9
			c0,0,0,0.1-0.1,0.1h-0.3c0,0-0.1,0-0.1-0.1V38c0,0,0-0.1,0.1-0.1h4.6c0,0,0.1,0,0.1,0.1V38.3z"/>
	</g>
	<g>
		<path d="M96.2,65.2C96.2,65.2,96.2,65.2,96.2,65.2l-0.4,0.1c0,0-0.1,0-0.1-0.1v-3.5h-3.8v3.5c0,0,0,0.1-0.1,0.1h-0.3
			c0,0-0.1,0-0.1-0.1v-3.8l1.7-6.4c0,0,0-0.1,0.1-0.1h1.2c0,0,0.1,0,0.1,0.1l1.7,6.4V65.2z M94.1,55.4h-0.6L92,61.1h3.6L94.1,55.4z"
			/>
		<path d="M103.9,59.4c0,1.2-1,2.2-2.2,2.2h-2v3.5c0,0,0,0.1-0.1,0.1h-0.3c0,0-0.1,0-0.1-0.1V55c0,0,0-0.1,0.1-0.1h2.5
			c1.2,0,2.2,1,2.2,2.2V59.4z M103.4,57.1c0-1-0.8-1.7-1.7-1.7h-2v5.7h2c1,0,1.7-0.8,1.7-1.7V57.1z"/>
	</g>
	<g>
		<path d="M111.2,59.4c0,1.2-1,2.2-2.2,2.2h-2v3.5c0,0,0,0.1-0.1,0.1h-0.3c0,0-0.1,0-0.1-0.1V55c0,0,0-0.1,0.1-0.1h2.5
			c1.2,0,2.2,1,2.2,2.2V59.4z M110.7,57.1c0-1-0.8-1.7-1.7-1.7h-2v5.7h2c1,0,1.7-0.8,1.7-1.7V57.1z"/>
	</g>
	<g>
		<path d="M118.4,65.2C118.4,65.2,118.4,65.2,118.4,65.2l-4.3,0.1c0,0-0.1,0-0.1-0.1V55c0,0,0-0.1,0.1-0.1h0.3c0,0,0.1,0,0.1,0.1
			v9.8h3.9c0,0,0.1,0,0.1,0.1V65.2z"/>
		<path d="M120.4,64.8C120.4,64.8,120.5,64.8,120.4,64.8l2.3-0.1v-9.3h-2.1c0,0-0.1,0-0.1-0.1V55c0,0,0-0.1,0.1-0.1h4.6
			c0,0,0.1,0,0.1,0.1v0.3c0,0,0,0.1-0.1,0.1h-2.1v9.3h2.2c0,0,0.1,0,0.1,0.1v0.3c0,0,0,0.1-0.1,0.1h-5c0,0-0.1,0-0.1-0.1V64.8z"/>
		<path d="M132.8,65.2C132.8,65.2,132.8,65.2,132.8,65.2l-4.7,0.1c0,0-0.1,0-0.1-0.1V55c0,0,0-0.1,0.1-0.1h4.6c0,0,0.1,0,0.1,0.1
			v0.3c0,0,0,0.1-0.1,0.1h-4.2v4.4h3.9c0,0,0.1,0,0.1,0.1v0.3c0,0,0,0.1-0.1,0.1h-3.9v4.4h4.2c0,0,0.1,0,0.1,0.1V65.2z"/>
		<path d="M140.1,63c0,1.2-1,2.2-2.2,2.2h-2.5c0,0-0.1,0-0.1-0.1V55c0,0,0-0.1,0.1-0.1h2.5c1.2,0,2.2,1,2.2,2.2V63z M139.6,57.1
			c0-0.9-0.8-1.7-1.7-1.7h-2v9.3h2c1,0,1.7-0.8,1.7-1.7V57.1z"/>
	</g>
	<g>
		<path d="M152.4,63.2c0,1.2-1,2.2-2.2,2.2h-0.7c-1.2,0-2.2-1-2.2-2.2V63c0,0,0-0.1,0.1-0.1h0.4c0,0,0.1,0,0.1,0.1v0.2
			c0,0.9,0.8,1.7,1.7,1.7h0.7c0.9,0,1.7-0.8,1.7-1.7v-0.5c0-2.8-4.4-2.2-4.4-5.2V57c0-1.2,1-2.2,2.2-2.2h0.3c1.2,0,2.2,1,2.2,2.2
			v0.2c0,0,0,0.1-0.1,0.1h-0.3c0,0-0.1,0-0.1-0.1V57c0-1-0.8-1.7-1.7-1.7h-0.3c-0.9,0-1.7,0.8-1.7,1.7v0.5c0,1.4,1.5,2,2.5,2.6
			c1.1,0.6,1.9,1.3,1.9,2.6V63.2z"/>
		<path d="M159.7,63.2c0,1.2-1,2.2-2.2,2.2H157c-1.2,0-2.2-1-2.2-2.2V57c0-1.2,1-2.2,2.2-2.2h0.5c1.2,0,2.2,1,2.2,2.2v0.2
			c0,0,0,0.1-0.1,0.1h-0.3c0,0-0.1,0-0.1-0.1V57c0-1-0.8-1.7-1.7-1.7H157c-0.9,0-1.7,0.8-1.7,1.7v6.2c0,0.9,0.8,1.7,1.7,1.7h0.5
			c0.9,0,1.7-0.8,1.7-1.7v-0.3c0,0,0-0.1,0.1-0.1h0.3c0,0,0.1,0,0.1,0.1V63.2z"/>
	</g>
	<g>
		<path d="M162.2,64.8C162.2,64.8,162.2,64.8,162.2,64.8l2.3-0.1v-9.3h-2.1c0,0-0.1,0-0.1-0.1V55c0,0,0-0.1,0.1-0.1h4.6
			c0,0,0.1,0,0.1,0.1v0.3c0,0,0,0.1-0.1,0.1H165v9.3h2.2c0,0,0.1,0,0.1,0.1v0.3c0,0,0,0.1-0.1,0.1h-5c0,0-0.1,0-0.1-0.1V64.8z"/>
		<path d="M174.6,65.2C174.6,65.2,174.5,65.2,174.6,65.2l-4.7,0.1c0,0-0.1,0-0.1-0.1V55c0,0,0-0.1,0.1-0.1h4.6c0,0,0.1,0,0.1,0.1
			v0.3c0,0,0,0.1-0.1,0.1h-4.2v4.4h3.9c0,0,0.1,0,0.1,0.1v0.3c0,0,0,0.1-0.1,0.1h-3.9v4.4h4.2c0,0,0.1,0,0.1,0.1V65.2z"/>
		<path d="M181.7,65.2C181.7,65.2,181.7,65.2,181.7,65.2l-0.7,0.1c-0.1,0-0.1,0-0.1-0.1l-3.5-9.5v9.5c0,0,0,0.1-0.1,0.1H177
			c0,0-0.1,0-0.1-0.1V55c0,0,0-0.1,0.1-0.1h0.6c0,0,0.1,0,0.1,0.1l3.5,9.5V55c0,0,0-0.1,0.1-0.1h0.3c0,0,0.1,0,0.1,0.1V65.2z"/>
		<path d="M189.2,63.2c0,1.2-1,2.2-2.2,2.2h-0.5c-1.2,0-2.2-1-2.2-2.2V57c0-1.2,1-2.2,2.2-2.2h0.5c1.2,0,2.2,1,2.2,2.2v0.2
			c0,0,0,0.1-0.1,0.1h-0.3c0,0-0.1,0-0.1-0.1V57c0-1-0.8-1.7-1.7-1.7h-0.5c-0.9,0-1.7,0.8-1.7,1.7v6.2c0,0.9,0.8,1.7,1.7,1.7h0.5
			c0.9,0,1.7-0.8,1.7-1.7v-0.3c0,0,0-0.1,0.1-0.1h0.3c0,0,0.1,0,0.1,0.1V63.2z"/>
		<path d="M196.5,65.2C196.5,65.2,196.4,65.2,196.5,65.2l-4.7,0.1c0,0-0.1,0-0.1-0.1V55c0,0,0-0.1,0.1-0.1h4.6c0,0,0.1,0,0.1,0.1
			v0.3c0,0,0,0.1-0.1,0.1h-4.2v4.4h3.9c0,0,0.1,0,0.1,0.1v0.3c0,0,0,0.1-0.1,0.1h-3.9v4.4h4.2c0,0,0.1,0,0.1,0.1V65.2z"/>
		<path d="M203.7,63.2c0,1.2-1,2.2-2.2,2.2h-0.7c-1.2,0-2.2-1-2.2-2.2V63c0,0,0-0.1,0.1-0.1h0.4c0,0,0.1,0,0.1,0.1v0.2
			c0,0.9,0.8,1.7,1.7,1.7h0.7c0.9,0,1.7-0.8,1.7-1.7v-0.5c0-2.8-4.4-2.2-4.4-5.2V57c0-1.2,1-2.2,2.2-2.2h0.3c1.2,0,2.2,1,2.2,2.2
			v0.2c0,0,0,0.1-0.1,0.1h-0.3c0,0-0.1,0-0.1-0.1V57c0-1-0.8-1.7-1.7-1.7H201c-0.9,0-1.7,0.8-1.7,1.7v0.5c0,1.4,1.5,2,2.5,2.6
			c1.1,0.6,1.9,1.3,1.9,2.6V63.2z"/>
	</g>
</g>
</svg>
