<svg xmlns="http://www.w3.org/2000/svg" width="25.94mm" height="25.91mm" viewBox="0 0 73.53 73.46"><title>humtap</title><g id="Ebene_2" data-name="Ebene 2"><g id="Ebene_1-2" data-name="Ebene 1"><path d="M36.74,0C42.9,0,49.07,0,55.23.05c11.06.19,18,7.09,18.18,18.22.14,12.32.17,24.65,0,37-.17,11-7.33,18-18.32,18.12q-18.24.16-36.49,0C7.38,73.26.23,66.12.1,54.85Q-.09,36.61.1,18.36C.23,7.11,7.36.2,18.74,0,24.74,0,30.74,0,36.74,0Zm-16,16V49c-2.44.88-4.67,1.26-6.34,2.43a5,5,0,0,0-1.89,4.06,5.17,5.17,0,0,0,3.29,3.09c6,1.62,10.91-2.32,11-8.55,0-3.64,0-7.29,0-11.33l20.79-3.87v11.7a16,16,0,0,0-2.91.29,10.85,10.85,0,0,0-3.17,1.39c-2.85,2-2.8,5.22,0,6.87,4.31,2.53,12-.73,12.13-5.67.35-12.76.12-25.54.12-38.48l-6.08,1.15v14.4l-21,3.62V14.78Z" fill="#e62b23"/></g></g></svg>