<svg xmlns="http://www.w3.org/2000/svg" width="178.34mm" height="71.35mm" viewBox="0 0 505.54 202.24"><title>interra-systems</title><g id="Ebene_2" data-name="Ebene 2"><g id="interra_systems" data-name="interra systems"><path d="M5.08,40.67s16.34.66,21,.33c-1.33,9.33-2.66,98.67-2.66,98.67H1.75S7.42,55,5.08,40.67Z" fill="#203f92"/><path d="M39.08,40.67c-.83,1.16,21,.33,21,.33l-.66,16.67s5.83-20.67,31.33-19c23.83,1.83,24.33,25.66,24.33,25.66s-1,74.17-2,74.67-20.66,1-20.66,1,3.66-55.5,2.33-61.67c-1.17-2.83.5-14.83-15-17.66-20.5.33-22,33-22,33l-1.33,46-21-.34S41.08,42.33,39.08,40.67Z" fill="#203f92"/><path d="M134.58,22.83s18.5-4.5,18.84-5.5-.67,24.5-.67,24.5h18.5l-.5,18.67h-18.5l-1.5,50.67s-.83,17.16,19.33,8.33c-1,11-2.66,19.5-2.66,19.5s-35.34,14.83-37.34-17.33c1.17-32.34,2.5-60.84,2.5-60.84l-10.5-.16.67-18.84h11Z" fill="#203f92"/><path d="M254.75,41.17s18.83.5,19.33-.17-.16,13.33-.16,13.33S282.58,35,300.58,39.5c-.16,11,.5,22.67.5,22.67s-21.66-8.17-26.5,20.5a513.52,513.52,0,0,0-1.66,57.16l-21.17.17S256.42,55.33,254.75,41.17Z" fill="#203f92"/><path d="M306.75,41.17s18.83.5,19.33-.17-.16,13.33-.16,13.33S334.58,35,352.58,39.5c-.16,11,.5,22.67.5,22.67s-21.66-8.17-26.5,20.5a513.52,513.52,0,0,0-1.66,57.16l-21.17.17S308.42,55.33,306.75,41.17Z" fill="#203f92"/><path d="M363.75,44.17s54.33-18.34,59.83,13a74.5,74.5,0,0,1,.5,10.5s-2.83,72.16-2.16,72.16l-20.34.17s2.84-51.5,2-51.5-3.33,4.33-13,7.17l-9.66,4.16s-10.34,3.5-9.67,17.17,21.17,10.17,24,7.17c.42-.25-3.5,16.16-3.5,16.16s-22.83,8.09-35.17-7.5c-10.33-15.5-3.58-35.08,4.67-41.16,7.5-6.34,23.42-11.34,23.67-11.5S400.58,76.5,403.08,69c2.84-9-2.83-14.83-13.16-15s-28.17,8.67-28.17,8.67Z" fill="#203f92"/><circle cx="16.88" cy="16.88" r="16.88" fill="#dadada"/><path d="M402,138.5s100,27.75,103.5,46.75c1.75,15.25-52.75,16-52.75,16s-84,3.75-227.5-16.75C110.25,169.25,7.75,142,7.75,142S155.5,171.25,226,177.5s153.75,16.25,210.75,9.75C529.75,181.25,402,138.5,402,138.5Z" fill="#dadada"/><path d="M215.88,153.38l-.38,6.75a19.27,19.27,0,0,0-10.37-1.32c-6.5,2.75-.38,7.19-.38,7.19a68.75,68.75,0,0,1,7.25,6.81c4.38,8.13-3.81,12.13-3.81,12.13-4.63,2.75-14.5,2.87-19.5.69l-.13-7.19s11.32,5.56,14.82.31c1.81-2.69-1.07-4.81-1.07-4.81l-6.5-5.81s-3.75-3.07-2.87-7.69c0,0,1.44-6,7.56-7.44S215.88,153.38,215.88,153.38Z" fill="#203f92"/><path d="M218.94,153l9.44.19,4.68,25.94L246,153.06h9.19l-22.63,40.82s-4.18,11.56-20.5,7.5c0-2.88-.06-7-.06-7s6.69,3.75,10.69-.63,4.25-6.69,4.25-6.69Z" fill="#203f92"/><path d="M290.13,146.94s7-1.06,8.43-1.81c.36,0-1,8.18-1,8.18l8.32.07-.94,6.25h-8.25l-2.38,15.31s-1.75,8.19,8.07,4.62a42.49,42.49,0,0,1-1.69,6.44s-6.69,1.88-11.81.63-4.32-7.82-4.32-7.82l3.19-19-4.69-.06,1.07-6.44,4.87.07Z" fill="#203f92"/><path d="M347.19,152.94l8.81.19-.87,5.31s5.18-6.88,12.25-6.13c8.81.57,9,6,9,6s4.87-6.62,12.12-6.06c7.19.31,9.19,3.38,9.63,7.56-.82,6.38-4,26.32-4,26.32l-9.25.18,3.5-22.06s.31-4.56-4.94-4.87c-5.25-.07-7.63,7.43-7.63,7.43s-1.25,5.88-3,19.38c-2.37.12-9.31.12-9.31.12s2.88-15.43,3.38-21.56c.62-5.56-4.25-5.19-4.25-5.19s-5-.75-7.82,6.57a171,171,0,0,0-3.31,20.06l-9.31.06S346.56,162.19,347.19,152.94Z" fill="#203f92"/><path d="M279.63,153.46l-.38,6.75a19.33,19.33,0,0,0-10.37-1.31c-6.5,2.75-.38,7.18-.38,7.18a69.21,69.21,0,0,1,7.25,6.82c4.38,8.12-3.81,12.12-3.81,12.12-4.63,2.75-14.5,2.88-19.5.69l-.13-7.19s11.32,5.56,14.82.31c1.81-2.68-1.07-4.81-1.07-4.81l-6.5-5.81s-3.75-3.06-2.87-7.69c0,0,1.44-6,7.56-7.44S279.63,153.46,279.63,153.46Z" fill="#203f92"/><path d="M427.54,153.37l-.37,6.75a19.35,19.35,0,0,0-10.38-1.31c-6.5,2.75-.37,7.19-.37,7.19a68.75,68.75,0,0,1,7.25,6.81c4.37,8.13-3.81,12.13-3.81,12.13-4.63,2.75-14.5,2.87-19.5.68l-.13-7.18s11.31,5.56,14.81.31c1.82-2.69-1.06-4.81-1.06-4.81l-6.5-5.82s-3.75-3.06-2.87-7.68c0,0,1.43-6,7.56-7.44S427.54,153.37,427.54,153.37Z" fill="#203f92"/><rect x="315.05" y="165.51" width="5.71" height="3.87" fill="#234092"/><path d="M320.38,165.5l12,.13s2.25-7-5.13-8-10.37,8-10.37,8-3.5,14.12,5.5,15,14.37-1.75,14.37-1.75l-1.87,6.75S304.5,194.75,307.25,169c4.88-18.12,19.5-16.87,19.5-16.87s18-1,13.75,17.12c-10.12.25-21.12.13-21.12.13Z" fill="#234092"/><path d="M214,37.5c-40.83,1.67-39.83,55.67-39.83,55.67S170,158.67,239,137.67c.33-1.67,2.17-20.5,2.17-20.5S194,145.33,194,89.33h53.17S256.83,41,214,37.5ZM228.5,78H194.83s1.34-21.67,18.84-23.5C231.67,55.33,228.5,78,228.5,78Z" fill="#203f92"/></g></g></svg>