<svg width="116" height="36" viewBox="0 0 116 36" fill="none" xmlns="http://www.w3.org/2000/svg">
<path d="M5.1604 9.20933C5.1604 4.12316 9.19036 0 14.1616 0C23.7988 0 32.2063 7.24673 36.6645 17.9971L36.6655 17.9971C32.2072 28.7509 23.7994 36 14.1619 36C9.19049 36 5.1604 31.8755 5.1604 26.7877C5.1604 22.6627 7.80944 19.171 11.4614 17.9971C7.80956 16.8236 5.1604 13.3329 5.1604 9.20933Z" fill="url(#paint0_linear_1048_95558)"/>
<path d="M5.20381 25.1934C2.32982 25.1934 -1.28569e-07 23.5447 0 21.511C1.04237e-07 19.8621 1.53143 18.4663 3.64267 17.9971L18.2133 17.9971C15.6359 22.2957 10.7753 25.1934 5.20381 25.1934Z" fill="#C51EA9"/>
<path d="M5.20381 10.8007C2.32982 10.8007 -1.28569e-07 12.4494 0 14.4832C1.04237e-07 16.1321 1.53143 17.5278 3.64267 17.9971L18.2133 17.9971C15.6359 13.6984 10.7753 10.8007 5.20381 10.8007Z" fill="url(#paint1_linear_1048_95558)"/>
<path d="M18.1015 26.8172C15.5062 26.8172 13.4023 24.7965 13.4023 22.3038C13.4023 20.2829 14.7853 18.5722 16.6918 17.9971L29.8494 17.9971C27.522 23.2657 23.1327 26.8172 18.1015 26.8172Z" fill="url(#paint2_linear_1048_95558)"/>
<path fill-rule="evenodd" clip-rule="evenodd" d="M26.9586 14.4419C27.9777 14.4419 28.8038 13.6158 28.8038 12.5967C28.8038 11.5776 27.9777 10.7515 26.9586 10.7515C25.9395 10.7515 25.1134 11.5776 25.1134 12.5967C25.1134 13.6158 25.9395 14.4419 26.9586 14.4419Z" fill="white"/>
<path d="M44.708 23.3481H48.1925V12.403H44.708V23.3481ZM46.4538 11.1275C47.4443 11.1275 48.2424 10.3793 48.2424 9.46004C48.2424 8.54082 47.4443 7.79974 46.4538 7.79974C45.4705 7.79974 44.6653 8.54082 44.6653 9.46004C44.6653 10.3793 45.4705 11.1275 46.4538 11.1275Z" fill="#262626"/>
<path d="M53.8949 17.1059C53.902 15.8589 54.6288 15.1179 55.7333 15.1179C56.8378 15.1179 57.4934 15.8447 57.4862 17.0561V23.3481H60.9707V16.372C60.9778 13.9065 59.4743 12.2604 57.1727 12.2604C55.5552 12.2604 54.3295 13.0799 53.845 14.4124H53.7239V12.403H50.4104V23.3481H53.8949V17.1059Z" fill="#262626"/>
<path d="M73.3534 12.403H69.6837L67.66 19.942H67.546L65.5294 12.403H61.8596L65.6078 23.3481H69.5982L73.3534 12.403Z" fill="#262626"/>
<path d="M74.6895 23.3481H78.174V12.403H74.6895V23.3481ZM76.4353 11.1275C77.4258 11.1275 78.2239 10.3793 78.2239 9.46004C78.2239 8.54082 77.4258 7.79974 76.4353 7.79974C75.452 7.79974 74.6467 8.54082 74.6467 9.46004C74.6467 10.3793 75.452 11.1275 76.4353 11.1275Z" fill="#262626"/>
<path d="M84.3894 23.5048C86.0426 23.5048 87.0259 22.5856 87.4677 21.5738H87.5746V23.3481H91.0234V8.75459H87.539V14.277H87.4677C87.0544 13.2723 86.0996 12.2604 84.3751 12.2604C82.0878 12.2604 80.0142 14.0205 80.0142 17.8826C80.0142 21.6094 81.9738 23.5048 84.3894 23.5048ZM85.6008 20.7899C84.311 20.7899 83.5913 19.6427 83.5913 17.8755C83.5913 16.1155 84.3039 14.9825 85.6008 14.9825C86.8763 14.9825 87.6173 16.087 87.6173 17.8755C87.6173 19.6498 86.8691 20.7899 85.6008 20.7899Z" fill="#262626"/>
<path d="M98.312 23.5547C101.184 23.5547 103.072 22.1652 103.471 20.0132L100.272 19.9206C100.001 20.6474 99.2882 21.0393 98.3761 21.0393C97.0365 21.0393 96.2099 20.1486 96.2099 18.809V18.7164H103.507V17.847C103.507 14.2414 101.312 12.2605 98.2051 12.2605C94.8988 12.2605 92.7753 14.5264 92.7753 17.9183C92.7753 21.4241 94.8703 23.5547 98.312 23.5547ZM96.2099 16.6927C96.2598 15.6024 97.122 14.7758 98.2764 14.7758C99.4236 14.7758 100.25 15.5739 100.264 16.6927H96.2099Z" fill="#262626"/>
<path d="M110.395 23.5547C113.837 23.5547 115.925 21.2816 115.925 17.9112C115.925 14.5336 113.837 12.2605 110.395 12.2605C106.954 12.2605 104.866 14.5336 104.866 17.9112C104.866 21.2816 106.954 23.5547 110.395 23.5547ZM110.417 20.9253C109.127 20.9253 108.414 19.6997 108.414 17.8898C108.414 16.0727 109.127 14.84 110.417 14.84C111.664 14.84 112.376 16.0727 112.376 17.8898C112.376 19.6997 111.664 20.9253 110.417 20.9253Z" fill="#262626"/>
<defs>
<linearGradient id="paint0_linear_1048_95558" x1="20.913" y1="0" x2="20.913" y2="36" gradientUnits="userSpaceOnUse">
<stop stop-color="#F33D5E"/>
<stop offset="0.499912" stop-color="#C51EA9"/>
<stop offset="1" stop-color="#4F3CE4"/>
</linearGradient>
<linearGradient id="paint1_linear_1048_95558" x1="18.2133" y1="14.3989" x2="0" y2="14.3989" gradientUnits="userSpaceOnUse">
<stop stop-color="#C51EA9" stop-opacity="0"/>
<stop offset="1" stop-color="#F33D5E"/>
</linearGradient>
<linearGradient id="paint2_linear_1048_95558" x1="13.4023" y1="17.9971" x2="13.4023" y2="26.8172" gradientUnits="userSpaceOnUse">
<stop stop-color="#F33D5E" stop-opacity="0"/>
<stop offset="1" stop-color="white"/>
</linearGradient>
</defs>
</svg>
