<svg viewBox="0 0 372.69 226.91" xmlns="http://www.w3.org/2000/svg"><path d="m0 185.74v41.17h225.02v-41.04h-13.5v27.62h-198.1v-27.75z" fill="#46bbc8"/><path d="m0 0v111.49h13.27v-98l198.21-.16.01 98 13.53.16v-111.49z" fill="#46bbc8"/><g fill="#000"><path d="m.05 124.51h13.38v48.43h-13.38z"/><path d="m118.77 148.87v-.14c0-7-5-13.08-12.36-13.08s-12.15 6-12.15 12.94v.14c0 7 5 13.08 12.28 13.08s12.22-6 12.22-12.94m-38.16 0v-.14c0-13.91 11.12-25.19 25.94-25.19s25.8 11.15 25.8 25.05v.14c0 13.91-11.11 25.18-25.94 25.18s-25.8-11.14-25.8-25"/><path d="m230.41 148.87v-.14c0-7-5-13.08-12.35-13.08s-12.15 6-12.15 12.94v.14c0 7 5 13.08 12.28 13.08s12.21-6 12.21-12.94m-38.15 0v-.14c0-13.91 11.11-25.19 25.94-25.19s25.81 11.15 25.81 25.05v.14c0 13.91-11.11 25.18-25.94 25.18s-25.8-11.14-25.8-25"/><path d="m255.5 124.51h17.69l7.84 18.75 8.03-18.75h17.5v48.44h-13.24v-27.82l-8.08 19.22h-8.62l-8.08-19.08v27.68h-13.04z"/><path d="m35.32 156.83a24.65 24.65 0 0 0 15.58 5.81c3.57 0 5.49-1.25 5.49-3.33v-.14c0-2-1.58-3.11-8.09-4.63-10.23-2.36-18.12-5.26-18.12-15.22v-.14c0-9 7.07-15.5 18.6-15.5 7.14 0 12.93 1.69 17.75 4.94l-4.64 11a24 24 0 0 0 -13.45-4.77c-3.22 0-4.8 1.38-4.8 3.11v.14c0 2.22 1.65 3.19 8.3 4.71 11 2.42 17.91 6 17.91 15.09v.1c0 9.89-7.76 15.78-19.42 15.78a34.45 34.45 0 0 1 -19.76-5.84z"/><path d="m157.61 136.28h-14.4v-11.76h41.81l-4.96 11.76h-9.13v36.67h-13.32z"/><path d="m337.7 124.34-20.45 48.78h12.8l13.96-32.87 4.65 11.14h-3.54l-4.96 11.76h13.41l4.19 10.03h14.93l-21.18-48.84z"/></g></svg>