<?xml version="1.0" encoding="utf-8"?>
<!-- Generator: Adobe Illustrator 27.5.0, SVG Export Plug-In . SVG Version: 6.00 Build 0)  -->
<svg version="1.1" id="Ebene_1" xmlns="http://www.w3.org/2000/svg" xmlns:xlink="http://www.w3.org/1999/xlink" x="0px" y="0px"
	 viewBox="0 0 347 80" style="enable-background:new 0 0 347 80;" xml:space="preserve">
<style type="text/css">
	.st0{fill:url(#SVGID_1_);}
	.st1{fill:#FFFFFF;}
	.st2{fill:#121826;}
</style>
<linearGradient id="SVGID_1_" gradientUnits="userSpaceOnUse" x1="25.243" y1="8.8133" x2="78.8316" y2="67.1536" gradientTransform="matrix(1 0 0 -1 0 82)">
	<stop  offset="0" style="stop-color:#FF61D3"/>
	<stop  offset="0.5" style="stop-color:#B318FF"/>
	<stop  offset="1" style="stop-color:#00F0FF"/>
</linearGradient>
<path class="st0" d="M95.7,38.7l-3.8-2.1c-1.7-8.3-5.7-15.6-11.3-21.5c-3.2-3.3-6.9-6.1-10.9-8.3V4.5c0-1.3-2.4-2.4-6.4-3.2
	C59.5,0.5,54.5,0,49,0c-1.9,0-3.8,0.1-5.6,0.2c-8.6,0.5-14.9,2.3-14.9,4.3v2.4c-2.7,1.5-5.3,3.2-7.7,5.2
	C13.5,18.3,8.3,26.9,6.2,36.6l-3.8,2.1c-1.7,0.9-2.7,2.9-2.3,4.8l3.5,19.6c0.3,2,2,3.5,4,3.7l5.9,0.7c3.2,3.4,7.2,6.1,11.8,8.1
	c6.2,2.6,13.6,4.1,21.4,4.3c0.8,0,1.6,0,2.4,0c6,0,11.7-0.7,17-2c6.9-1.8,12.8-4.8,17.4-9.1c0.5-0.5,1.1-1,1.6-1.6l5.5-0.5
	c2.1-0.2,3.7-1.7,4.1-3.8L98,43.5C98.3,41.6,97.4,39.7,95.7,38.7z"/>
<path class="st1" d="M49,69.3c-10.4,0-18.9-2.2-24.7-6.2c-5.6-4-8.3-9.7-8.3-17.6c0-18.2,14.8-33,33-33c18.2,0,33,14.8,33,33
	c0,7.9-2.7,13.6-8.3,17.6C68,67.2,59.4,69.3,49,69.3z"/>
<path class="st2" d="M49,61.7c-6.5,0-12.5-3.8-15.3-9.7l5.2-2.5c1.9,3.9,5.8,6.4,10.1,6.4s8.2-2.4,10.1-6.4l5.2,2.5
	C61.5,57.9,55.5,61.7,49,61.7z"/>
<path d="M137.6,62.7c-3,0-5.8-0.6-8.3-1.7c-2.5-1.2-4.6-2.9-6.2-5l5-6c2.6,3.6,5.7,5.4,9.3,5.4c4.9,0,7.3-2.9,7.3-8.7V22.3V15h8.7
	v31.1c0,5.5-1.3,9.6-4,12.4C146.7,61.3,142.7,62.7,137.6,62.7z"/>
<path d="M176,25.7c5.3,0,9.3,1.3,12.1,3.8c2.8,2.5,4.2,6.3,4.2,11.4v21h-7.9v-4.4c-1,1.6-2.5,2.8-4.4,3.6c-1.9,0.8-4.2,1.2-6.8,1.2
	s-5-0.4-7-1.3c-2-0.9-3.6-2.2-4.7-3.8c-1.1-1.7-1.6-3.5-1.6-5.6c0-3.2,1.2-5.8,3.6-7.7c2.4-2,6.2-3,11.3-3h9.3v-0.5
	c0-2.5-0.8-4.4-2.3-5.8c-1.5-1.3-3.7-2-6.6-2c-2,0-4,0.3-6,0.9c-1.9,0.6-3.6,1.5-4.9,2.6l-3.3-6.1c1.9-1.4,4.1-2.5,6.8-3.3
	C170.3,26.1,173,25.7,176,25.7z M174.9,56.3c2.1,0,4-0.5,5.6-1.4c1.7-1,2.8-2.4,3.5-4.2v-4.2h-8.7c-4.8,0-7.2,1.6-7.2,4.8
	c0,1.5,0.6,2.7,1.8,3.6C171,55.9,172.7,56.3,174.9,56.3z"/>
<path d="M214.2,62.4c-2.9,0-5.7-0.4-8.5-1.1c-2.8-0.8-5-1.7-6.6-2.9l3.2-6.4c1.6,1.1,3.5,1.9,5.8,2.6c2.3,0.6,4.5,0.9,6.7,0.9
	c5,0,7.5-1.3,7.5-4c0-1.3-0.6-2.1-1.9-2.6c-1.3-0.5-3.3-1-6.1-1.4c-3-0.4-5.4-1-7.2-1.5c-1.8-0.6-3.4-1.6-4.8-3
	c-1.3-1.5-2-3.5-2-6.1c0-3.4,1.4-6.1,4.2-8.1c2.9-2.1,6.7-3.1,11.5-3.1c2.5,0,4.9,0.3,7.4,0.9c2.5,0.5,4.5,1.3,6,2.2l-3.2,6.4
	c-3-1.8-6.5-2.7-10.3-2.7c-2.5,0-4.3,0.4-5.6,1.1c-1.3,0.7-1.9,1.7-1.9,2.9c0,1.3,0.7,2.3,2,2.9c1.4,0.5,3.5,1.1,6.4,1.5
	c2.9,0.4,5.2,1,7,1.5c1.8,0.6,3.4,1.6,4.7,3c1.3,1.4,2,3.4,2,5.9c0,3.4-1.5,6-4.4,8.1C223.1,61.4,219.2,62.4,214.2,62.4z"/>
<path d="M257.5,25.7c3.5,0,6.6,0.8,9.3,2.3c2.8,1.5,4.9,3.7,6.5,6.4c1.6,2.8,2.3,6,2.3,9.6c0,3.6-0.8,6.8-2.3,9.7
	c-1.6,2.8-3.7,4.9-6.5,6.4c-2.7,1.5-5.8,2.3-9.3,2.3c-4.8,0-8.7-1.6-11.5-4.8V75h-8.4V26.1h8v4.7c1.4-1.7,3.1-3,5.1-3.8
	C252.8,26.2,255,25.7,257.5,25.7z M256.5,55.3c3.1,0,5.6-1,7.6-3.1c2-2.1,3-4.8,3-8.1c0-3.4-1-6.1-3-8.1c-2-2.1-4.5-3.1-7.6-3.1
	c-2,0-3.8,0.5-5.4,1.4c-1.6,0.9-2.9,2.2-3.8,3.9c-0.9,1.7-1.4,3.7-1.4,5.9c0,2.2,0.5,4.2,1.4,5.9c0.9,1.7,2.2,3,3.8,4
	C252.7,54.8,254.5,55.3,256.5,55.3z"/>
<path d="M317.3,44.3c0,0.6,0,1.4-0.1,2.5h-28.1c0.5,2.6,1.8,4.7,3.8,6.3c2.1,1.5,4.7,2.3,7.8,2.3c3.9,0,7.2-1.3,9.7-3.9l4.5,5.2
	c-1.6,1.9-3.6,3.4-6.1,4.4c-2.5,1-5.2,1.5-8.3,1.5c-3.9,0-7.4-0.8-10.4-2.3c-3-1.6-5.3-3.7-7-6.5c-1.6-2.8-2.4-6-2.4-9.5
	c0-3.5,0.8-6.6,2.3-9.4c1.6-2.8,3.8-5,6.6-6.6c2.8-1.6,6-2.3,9.5-2.3c3.5,0,6.6,0.8,9.3,2.3c2.8,1.5,4.9,3.7,6.4,6.5
	C316.5,37.4,317.3,40.6,317.3,44.3z M299.2,32.4c-2.7,0-5,0.8-6.8,2.4c-1.8,1.6-3,3.7-3.4,6.3h20.3c-0.4-2.6-1.5-4.7-3.3-6.3
	C304.2,33.3,301.9,32.4,299.2,32.4z"/>
<path d="M333.4,31.4c2.4-3.8,6.7-5.6,12.8-5.6v8c-0.7-0.1-1.4-0.2-1.9-0.2c-3.3,0-5.8,1-7.7,2.9c-1.8,1.9-2.8,4.6-2.8,8.2V62h-8.4
	V26.1h8V31.4z"/>
</svg>
