<svg xmlns="http://www.w3.org/2000/svg" width="743.68" height="325.94" viewBox="0 0 743.68 325.94"><title>keen-ai</title><g id="Ebene_2" data-name="Ebene 2"><g id="Ebene_1-2" data-name="Ebene 1"><path d="M11.11,251.27c-.68,0-1-.41-1-1.25l.5-171.5c0-.83.34-1.25,1-1.25H39.88c.67,0,1,.42,1,1.25v59.25l39.62-59.5a2.22,2.22,0,0,1,1.77-1h29c.68,0,.84.34.51,1l-43.66,69,49,103c.33.67-.09,1-1.26,1H85.06c-.85,0-1.35-.33-1.52-1l-34.07-73.5-8.83,13.75V250c0,.84-.34,1.25-1,1.25Z" transform="translate(-10.1)"/><path d="M128.09,251.27c-.68,0-1-.41-1-1.25l.25-171.75a.89.89,0,0,1,1-1h81c.67,0,1,.42,1,1.25v28a.89.89,0,0,1-1,1H157.62v39h51.74a.89.89,0,0,1,1,1l.25,28.25a.89.89,0,0,1-1,1h-52v43.75h52c.67,0,1,.42,1,1.25v28.5a.89.89,0,0,1-1,1Z" transform="translate(-10.1)"/><path d="M227.53,251.27c-.68,0-1-.41-1-1.25l.25-171.75a.89.89,0,0,1,1-1h81c.67,0,1,.42,1,1.25v28a.89.89,0,0,1-1,1H257.06v39H308.8a.89.89,0,0,1,1,1l.25,28.25a.89.89,0,0,1-1,1h-52v43.75h52c.67,0,1,.42,1,1.25v28.5a.89.89,0,0,1-1,1Z" transform="translate(-10.1)"/><path d="M328.23,251.27c-1.35,0-2-.58-2-1.75L326,79.27a1.78,1.78,0,0,1,2-2H350.7l42.65,98.5-1.26-96.5c0-1.33.76-2,2.27-2h25c1,0,1.51.67,1.51,2l.25,170.5q0,1.5-1.26,1.5H397.64l-43.66-92,1.76,90c0,1.34-.75,2-2.27,2Z" transform="translate(-10.1)"/><path d="M530.51,250l31.3-171.75a1.2,1.2,0,0,1,1.26-1h36.6a1.2,1.2,0,0,1,1.26,1L631,250c.16.84-.17,1.25-1,1.25h-28c-.67,0-1.09-.41-1.26-1.25l-2.78-18.25H563.58L560.8,250c-.17.84-.59,1.25-1.26,1.25h-28C530.85,251.27,530.51,250.86,530.51,250Zm38.12-45h24.22l-10.34-70.25L581,125.52l-1,9.25Z" transform="translate(-10.1)"/><path d="M644.21,251.27A1.11,1.11,0,0,1,643,250l.25-171.75a.89.89,0,0,1,1-1h28.27a.89.89,0,0,1,1,1L673.74,250c0,.84-.34,1.25-1,1.25Z" transform="translate(-10.1)"/><rect x="462.71" y="9.47" width="271.5" height="307" fill="none" stroke="#000" stroke-linejoin="round" stroke-width="18.94"/></g></g></svg>