<svg xmlns="http://www.w3.org/2000/svg" viewBox="232.9 383.3 147.6 25" xml:space="preserve"><path fill="#00B9E8" d="M233.4 383.8h5.3v10.5l9.7-10.5h6.4L245 394l10.2 13.8h-6.3l-7.4-10.2-2.8 2.9v7.3h-5.3v-24zm25 0h18.1v4.7h-12.8v4.9H275v4.7h-11.3v5h13v4.7h-18.2v-24zm22.9 0h4.9l11.2 14.7v-14.7h5.2v23.9h-4.5l-11.6-15.2v15.2h-5.2v-23.9zm25.3 20.5 3.1-3.7c2.2 1.8 4.4 2.9 7.1 2.9 2.2 0 3.5-.9 3.5-2.3v-.1c0-1.3-.8-2-4.8-3-4.8-1.2-7.9-2.6-7.9-7.3v-.1c0-4.3 3.5-7.2 8.4-7.2 3.5 0 6.5 1.1 8.9 3l-2.7 4c-2.1-1.5-4.2-2.4-6.2-2.4s-3.1.9-3.1 2.1v.1c0 1.6 1 2.1 5.2 3.1 4.9 1.3 7.6 3 7.6 7.2v.1c0 4.8-3.6 7.4-8.8 7.4-3.7 0-7.4-1.3-10.3-3.8zm23.6-20.5h5.3v9.5h9.7v-9.5h5.3v23.9h-5.3v-9.6h-9.7v9.6h-5.3v-23.9zm49.8 12c0 2-.5 4-1.4 5.7 0 .1-.1.1-.1.2l-.9-.5c0-.1.1-.1.1-.2.8-1.6 1.2-3.3 1.2-5.2 0-2.7-.9-5.2-2.5-7.2l-1.5 1.2c0-.1-.1-.1-.1-.2-1.6-1.9-3.9-3.2-6.6-3.3l-.2 2.4h-.5c-3.9 0-7 3.2-7 7 0 3.9 3.2 7 7 7 2.3 0 4.4-1.1 5.7-2.9 0-.1.1-.1.1-.2l2 1.4 1.6 1.1.8.6c0 .1-.1.1-.1.2-2.3 3.1-5.9 5.1-10 5.1-6.8 0-12.4-5.6-12.4-12.4 0-6.8 5.6-12.4 12.4-12.4h.9c3.5.2 6.5 1.9 8.6 4.4 0 .1.1.1.1.2 1.8 2.3 2.8 5 2.8 8z"/></svg>