<?xml version="1.0" encoding="utf-8"?>
<!-- Generator: Adobe Illustrator 27.4.1, SVG Export Plug-In . SVG Version: 6.00 Build 0)  -->
<svg version="1.1" id="Ebene_1" xmlns="http://www.w3.org/2000/svg" xmlns:xlink="http://www.w3.org/1999/xlink" x="0px" y="0px"
	 viewBox="0 0 132 20" enable-background="new 0 0 132 20" xml:space="preserve">
<g opacity="0.9">
	<path fill="#1B191C" d="M28.7,16.68V1.19h-2.15v17.22h11.16v-1.73H28.7z"/>
	<path fill="#1B191C" d="M53.1,18.41h2.18L48.75,1.19h-3.19l-6.53,17.22h2.15l1.68-4.4h8.55L53.1,18.41z M43.52,12.28l3.63-9.53
		l3.63,9.53H43.52z"/>
	<path fill="#1B191C" d="M59.62,16.68V1.19h-2.15v17.22h11.16v-1.73H59.62z"/>
	<path fill="#1B191C" d="M84.01,18.41h2.18L79.66,1.19h-3.19l-6.53,17.22h2.15l1.68-4.4h8.55L84.01,18.41z M74.43,12.28l3.63-9.53
		l3.63,9.53H74.43z"/>
	<path fill="#1B191C" d="M90.54,16.68V1.19h-2.15v17.22h11.16v-1.73H90.54z"/>
	<path fill="#1B191C" d="M100.58,18.41h2.69v-2.28h-2.69V18.41z"/>
	<path fill="#1B191C" d="M118.71,18.41h2.18l-6.53-17.22h-3.18l-6.53,17.22h2.15l1.68-4.4h8.55L118.71,18.41z M109.12,12.28
		l3.63-9.53l3.63,9.53H109.12z"/>
	<path fill="#1B191C" d="M132,2.93V1.19h-9.43v1.73h3.65v13.75h-3.65v1.73H132v-1.73h-3.65V2.93H132z"/>
</g>
<rect fill="#F8D231" width="19" height="20"/>
<path fill="#1B191C" d="M16,11V9H3v2H16z"/>
<path fill="#1B191C" d="M11,6V4H8v2H11z"/>
<path fill="#1B191C" d="M11,16v-2H8v2H11z"/>
</svg>
