<?xml version="1.0" encoding="utf-8"?>
<!-- Generator: Adobe Illustrator 15.0.2, SVG Export Plug-In . SVG Version: 6.00 Build 0)  -->
<!DOCTYPE svg PUBLIC "-//W3C//DTD SVG 1.1//EN" "http://www.w3.org/Graphics/SVG/1.1/DTD/svg11.dtd">
<svg version="1.1" id="Layer_1" xmlns="http://www.w3.org/2000/svg" xmlns:xlink="http://www.w3.org/1999/xlink" x="0px" y="0px"
	 width="188.979px" height="51px" viewBox="0 0 188.979 51" enable-background="new 0 0 188.979 51" xml:space="preserve">
<g>
	<g>
		<path fill="#464646" d="M61.149,41.261V8.458h5.755v27.737h14.458v5.062L61.149,41.261L61.149,41.261z"/>
		<path fill="#464646" d="M102.658,41.261v-3.245c-0.918,1.187-2.033,2.112-3.344,2.811c-1.313,0.685-2.737,1.025-4.279,1.025
			s-2.952-0.272-4.228-0.838c-1.28-0.553-2.395-1.367-3.346-2.433c-0.951-1.063-1.688-2.367-2.213-3.909
			c-0.526-1.541-0.786-3.298-0.786-5.265c0-1.899,0.26-3.621,0.786-5.161c0.525-1.542,1.256-2.854,2.189-3.938
			c0.935-1.079,2.051-1.917,3.342-2.507c1.296-0.587,2.713-0.885,4.255-0.885c1.478,0,2.868,0.337,4.18,1.01
			c1.313,0.673,2.442,1.631,3.394,2.875v-3.293h5.213V41.26L102.658,41.261L102.658,41.261z M96.514,37.275
			c1.241,0,2.435-0.303,3.563-0.908c1.129-0.604,1.989-1.354,2.581-2.236v-9.396c-0.592-0.882-1.452-1.637-2.581-2.26
			c-1.132-0.622-2.322-0.933-3.563-0.933c-2.068,0-3.7,0.727-4.896,2.187c-1.199,1.46-1.794,3.353-1.794,5.678
			c0,1.147,0.152,2.208,0.465,3.171c0.312,0.971,0.763,1.798,1.353,2.488c0.591,0.687,1.296,1.229,2.112,1.623
			C94.577,37.084,95.496,37.275,96.514,37.275z"/>
		<path fill="#464646" d="M121.15,41.852c-2,0-3.515-0.521-4.553-1.564c-1.031-1.055-1.547-2.562-1.547-4.529V22.032h-3.935v-4.523
			h3.935v-6.495h5.164v6.495h4.818v4.523h-4.818v12.442c0,0.817,0.188,1.487,0.562,2.018c0.379,0.527,0.945,0.783,1.697,0.783
			c0.491,0,0.951-0.076,1.379-0.242c0.427-0.162,0.737-0.358,0.935-0.592l1.229,3.888c-0.457,0.459-1.082,0.828-1.867,1.104
			C123.365,41.715,122.363,41.852,121.15,41.852z"/>
		<path fill="#464646" d="M140.184,41.852c-1.771,0-3.418-0.295-4.938-0.886c-1.521-0.589-2.848-1.435-3.956-2.53
			c-1.119-1.098-1.988-2.422-2.611-3.961c-0.621-1.539-0.932-3.244-0.932-5.113c0-1.698,0.293-3.316,0.885-4.839
			c0.594-1.525,1.416-2.846,2.483-3.961c1.062-1.113,2.336-2,3.812-2.653c1.479-0.658,3.104-0.986,4.869-0.986
			c1.771,0,3.377,0.321,4.813,0.959c1.447,0.641,2.68,1.542,3.688,2.706c1.019,1.163,1.806,2.533,2.363,4.107
			c0.556,1.572,0.834,3.292,0.834,5.166v1.228H133.15c0.098,0.886,0.336,1.729,0.715,2.536c0.376,0.805,0.885,1.5,1.523,2.089
			c0.641,0.595,1.403,1.058,2.312,1.403c0.896,0.346,1.907,0.516,3.021,0.516c1.146,0,2.344-0.221,3.592-0.663
			c1.244-0.442,2.295-1.089,3.147-1.944l2.362,3.396c-1.188,1.148-2.608,2.012-4.282,2.584
			C143.874,41.566,142.087,41.852,140.184,41.852z M146.479,27.439c-0.026-0.688-0.181-1.41-0.438-2.165
			c-0.266-0.756-0.666-1.438-1.204-2.042c-0.541-0.608-1.221-1.107-2.042-1.501c-0.814-0.392-1.814-0.592-3-0.592
			c-1.115,0-2.072,0.192-2.877,0.569c-0.809,0.376-1.477,0.867-2.02,1.476c-0.543,0.604-0.959,1.287-1.256,2.04
			c-0.295,0.754-0.479,1.498-0.541,2.208h13.377V27.439L146.479,27.439z"/>
		<path fill="#464646" d="M156.121,41.261V8.458h5.16v32.803H156.121z"/>
		<path fill="#464646" d="M167.234,45.936c0.262,0.131,0.58,0.229,0.959,0.291c0.379,0.068,0.714,0.104,1.007,0.104
			c0.817,0,1.502-0.149,2.041-0.444c0.541-0.295,0.991-0.835,1.354-1.619l1.179-2.709l-9.733-24.048h5.507l6.938,17.802
			l6.936-17.799h5.559L177.52,45.544c-0.817,2.033-1.918,3.424-3.295,4.181c-1.379,0.752-3.002,1.147-4.871,1.185
			c-0.356,0-0.845-0.032-1.447-0.103c-0.608-0.065-1.094-0.146-1.45-0.25L167.234,45.936z"/>
	</g>
	<polygon fill="#464646" points="21.652,26.191 15.039,26.191 15.039,15.664 17.695,15.664 17.695,23.539 21.652,23.539 	"/>
	<path fill="#20C76E" d="M41.232,0H15.039v8.405H0V41.26h32.86V26.191h8.372V0z M28.311,36.709H4.552V12.956h23.759V36.709z
		 M38.578,23.539H32.86V8.405H17.695V2.654h20.883V23.539z"/>
</g>
</svg>
