<svg width="98" height="30" viewBox="0 0 98 30" fill="none" xmlns="http://www.w3.org/2000/svg">
<path d="M12.5544 8.36126V8.4261H18.325V8.36126V8.4261H22.654V6.68457H8.2254V8.4261H12.5544V8.36126Z" fill="black"/>
<path d="M12.5544 8.42603H8.2254V20.0054L12.5544 17.4903V8.42603Z" fill="#FADA29"/>
<path d="M22.654 3.00244H8.2254V6.68468H22.654V3.00244Z" fill="#FF4382"/>
<path d="M12.5543 20.7236L12.5727 20.7096L15.4741 22.4234L18.3064 20.7096L18.3248 20.7236V14.1372L12.5543 17.4906V20.7236Z" fill="#4CCACD"/>
<path d="M12.5543 17.4903L18.3248 14.137V8.42603H12.5543V17.4903Z" fill="#FADA29"/>
<path d="M12.5544 17.4905L8.2254 20.0055V23.1736L12.5544 20.7235V17.4905Z" fill="#F7941E"/>
<path d="M18.325 8.42603V14.137L22.6541 11.6219V8.42603H18.325Z" fill="#4E8FF9"/>
<path d="M18.325 20.7237L22.6541 23.2202V11.6223L18.325 14.1374V20.7237Z" fill="#785FF6"/>
<path d="M18.325 20.7234L18.3065 20.7095L15.4742 22.4232L12.5729 20.7095L12.5544 20.7234L8.2254 23.1735V23.294V24.4427L11.3202 26.2398H19.5591L22.654 24.4427V23.3033V23.2198L18.325 20.7234Z" fill="white"/>
<path d="M22.6539 2.59033H8.22532C8.11661 2.59033 8.01236 2.63376 7.93549 2.71107C7.85862 2.78838 7.81544 2.89323 7.81544 3.00256V24.4429C7.81108 24.5188 7.8277 24.5945 7.86347 24.6615C7.89923 24.7286 7.95274 24.7843 8.01808 24.8227L15.2347 28.9913C15.2976 29.028 15.3691 29.0471 15.4419 29.0468C15.5131 29.0466 15.583 29.0273 15.6446 28.9913L22.8611 24.8227C22.9229 24.7862 22.9742 24.7342 23.0098 24.6716C23.0453 24.609 23.0639 24.5381 23.0638 24.466V3.00256C23.0638 2.89323 23.0206 2.78838 22.9437 2.71107C22.8668 2.63376 22.7626 2.59033 22.6539 2.59033ZM15.4695 21.9464L12.9642 20.4874V8.83855H17.915V20.492L15.4695 21.9464ZM8.63519 8.0141V7.08775H22.2486V8.0141H8.63519ZM8.63519 8.83855H12.1445V20.4596L8.63519 22.4698V8.83855ZM18.7347 8.83855H22.2486V22.5068L18.7347 20.4642V8.83855ZM22.2486 3.41478V6.29573H8.63519V3.41478H22.2486ZM19.4486 25.8324H11.4306L8.63519 24.2067V23.4332L12.5083 21.2145H12.5543L15.2623 22.7847H15.3129C15.3374 22.798 15.3638 22.8074 15.3913 22.8125H15.5478C15.5749 22.8061 15.6011 22.7968 15.6261 22.7847H15.6768L18.3203 21.2145H18.3617L22.2486 23.4332V24.1882L19.4486 25.8324Z" fill="#2A3039"/>
<path d="M31.7663 7.58133V23H41.0616V20.2467H34.9161V7.58133H31.7663ZM41.8084 8.94699C41.8084 9.4022 41.9773 9.784 42.315 10.0924C42.6527 10.4007 43.0566 10.5549 43.5265 10.5549C43.9964 10.5549 44.3929 10.4007 44.7159 10.0924C45.0537 9.784 45.2225 9.4022 45.2225 8.94699C45.2225 8.47708 45.0537 8.09529 44.7159 7.8016C44.3929 7.49323 43.9964 7.33904 43.5265 7.33904C43.0566 7.33904 42.6527 7.49323 42.315 7.8016C41.9773 8.09529 41.8084 8.47708 41.8084 8.94699ZM42.1168 12.8677V23H44.8921V12.8677H42.1168ZM53.8016 16.8325V23H56.7531V16.5242C56.7531 15.3054 56.4595 14.3582 55.8721 13.6827C55.2847 12.9926 54.3889 12.6475 53.1848 12.6475C52.4653 12.6475 51.8485 12.8017 51.3346 13.11C50.8353 13.4037 50.4315 13.8369 50.1231 14.4096V12.8677H47.2596V23H50.1231V16.8325C50.1231 16.4067 50.2039 16.0396 50.3654 15.7312C50.5269 15.4228 50.7619 15.1879 51.0703 15.0263C51.3786 14.8501 51.7311 14.762 52.1275 14.762C52.7149 14.762 53.1408 14.9382 53.4051 15.2907C53.6694 15.6431 53.8016 16.157 53.8016 16.8325ZM58.4182 23.7049C58.477 24.5859 58.7119 25.3642 59.1231 26.0397C59.5489 26.7298 60.1583 27.2585 60.9513 27.6256C61.7442 28.0074 62.7281 28.1983 63.9029 28.1983C64.872 28.1983 65.7678 28.0074 66.5901 27.6256C67.4124 27.2585 68.0659 26.6711 68.5505 25.8635C69.0498 25.0558 69.2994 24.0279 69.2994 22.7797V12.8677H66.5461V22.7797C66.5461 23.4699 66.4139 24.0426 66.1496 24.4978C65.8999 24.953 65.5622 25.2908 65.1364 25.511C64.7252 25.7313 64.2847 25.8414 63.8148 25.8414C63.3008 25.8414 62.8529 25.7533 62.4711 25.5771C62.0893 25.4009 61.7883 25.1513 61.568 24.8282C61.3478 24.5198 61.2303 24.1454 61.2156 23.7049H58.4182ZM58.22 17.8458C58.22 18.9618 58.4476 19.9089 58.9028 20.6872C59.358 21.4508 59.9601 22.0308 60.709 22.4273C61.4579 22.8238 62.2509 23.022 63.0879 23.022C63.9396 23.022 64.6885 22.8238 65.3346 22.4273C65.9954 22.0161 66.5093 21.4214 66.8765 20.6431C67.2583 19.8649 67.4492 18.9324 67.4492 17.8458C67.4492 16.7444 67.2583 15.812 66.8765 15.0484C66.5093 14.2701 65.9954 13.6754 65.3346 13.2642C64.6885 12.853 63.9396 12.6475 63.0879 12.6475C62.2509 12.6475 61.4579 12.8457 60.709 13.2422C59.9601 13.6387 59.358 14.226 58.9028 15.0043C58.4476 15.7679 58.22 16.7151 58.22 17.8458ZM61.1716 17.8458C61.1716 17.229 61.2964 16.7151 61.546 16.3039C61.7956 15.878 62.1334 15.555 62.5592 15.3347C62.9851 15.1145 63.4403 15.0043 63.9249 15.0043C64.2479 15.0043 64.5637 15.0704 64.872 15.2026C65.1804 15.32 65.4594 15.4962 65.709 15.7312C65.9734 15.9662 66.1789 16.2598 66.3258 16.6123C66.4726 16.9647 66.5461 17.3759 66.5461 17.8458C66.5461 18.4625 66.4139 18.9838 66.1496 19.4097C65.8999 19.8208 65.5695 20.1365 65.1584 20.3568C64.7619 20.5624 64.3507 20.6652 63.9249 20.6652C63.4403 20.6652 62.9851 20.555 62.5592 20.3348C62.1334 20.1145 61.7956 19.7988 61.546 19.3876C61.2964 18.9618 61.1716 18.4478 61.1716 17.8458ZM74.358 19.0352V12.8677H71.4064V19.3436C71.4064 20.5477 71.7001 21.4948 72.2874 22.185C72.8895 22.8752 73.7926 23.2203 74.9967 23.2203C75.7163 23.2203 76.3257 23.0734 76.8249 22.7797C77.3242 22.4714 77.7354 22.0308 78.0584 21.4581V23H80.8999V12.8677H78.0584V19.0352C78.0584 19.461 77.9703 19.8282 77.7941 20.1365C77.6326 20.4449 77.3976 20.6872 77.0893 20.8634C76.7956 21.0249 76.4431 21.1057 76.032 21.1057C75.4446 21.1057 75.0188 20.9295 74.7544 20.5771C74.4901 20.21 74.358 19.696 74.358 19.0352ZM82.9174 8.94699C82.9174 9.4022 83.0862 9.784 83.424 10.0924C83.7617 10.4007 84.1656 10.5549 84.6355 10.5549C85.1054 10.5549 85.5018 10.4007 85.8249 10.0924C86.1626 9.784 86.3315 9.4022 86.3315 8.94699C86.3315 8.47708 86.1626 8.09529 85.8249 7.8016C85.5018 7.49323 85.1054 7.33904 84.6355 7.33904C84.1656 7.33904 83.7617 7.49323 83.424 7.8016C83.0862 8.09529 82.9174 8.47708 82.9174 8.94699ZM83.2258 12.8677V23H86.0011V12.8677H83.2258ZM94.5361 12.8677L92.4656 15.7973L90.4391 12.8677H87.1792L90.9678 17.7797L86.9589 23H90.2189L92.4656 19.7841L94.7564 23H97.9062L93.9414 17.7797L97.6859 12.8677H94.5361Z" fill="black"/>
</svg>
