<?xml version="1.0" encoding="utf-8"?>
<!-- Generator: Adobe Illustrator 24.0.1, SVG Export Plug-In . SVG Version: 6.00 Build 0)  -->
<svg version="1.1" id="Ebene_1" xmlns="http://www.w3.org/2000/svg" xmlns:xlink="http://www.w3.org/1999/xlink" x="0px" y="0px"
	 viewBox="0 0 797.5 380" width="300px" height="143px" style="enable-background:new 0 0 797.5 380;" xml:space="preserve">
<style type="text/css">
	.st0{fill:#00595A;}
	.st1{fill:#AFCA0B;}
</style>
<g id="XMLID_54_">
	<path id="XMLID_135_" class="st0" d="M267.6,267.3c0-0.8,0.7-1.5,1.5-1.5h27.2c0.8,0,1.5-0.7,1.5-1.5V13.1c0-0.8-0.7-1.5-1.5-1.5
		h-26.7c-0.8,0-1.5-0.7-1.5-1.5V1.5c0-0.8,0.7-1.5,1.5-1.5h38.4c0.8,0,1.5,0.7,1.5,1.5v262.7c0,0.9,0.7,1.5,1.5,1.5h31.3
		c0.8,0,1.5,0.7,1.5,1.5v8.5c0,0.9-0.7,1.5-1.5,1.5h-73.1c-0.8,0-1.5-0.7-1.5-1.5V267.3z"/>
	<path id="XMLID_131_" class="st0" d="M371.5,199.5c0,9.7,1.8,18.7,5.4,27.1c3.6,8.4,8.5,15.7,14.7,22c6.2,6.2,13.6,11.1,22,14.7
		c8.5,3.6,17.5,5.4,27.2,5.4c9.4,0,18.4-1.8,27-5.4c8.6-3.6,16-8.5,22.2-14.7c6.2-6.2,11.2-13.5,15-22c3.7-8.4,5.6-17.5,5.6-27.1
		c0-9.7-1.9-18.7-5.6-27.1c-3.7-8.4-8.7-15.8-15-22.2c-6.2-6.4-13.6-11.3-22.2-14.9c-8.6-3.6-17.6-5.4-27-5.4
		c-9.7,0-18.8,1.8-27.2,5.4c-8.4,3.6-15.8,8.6-22,14.9c-6.2,6.4-11.1,13.7-14.7,22.2C373.3,180.8,371.5,189.8,371.5,199.5
		 M359.9,199.5c0-11,2.1-21.5,6.2-31.5c4.1-9.9,9.9-18.6,17.2-25.9c7.3-7.3,15.9-13.1,25.7-17.4c9.8-4.3,20.4-6.4,31.7-6.4
		c11.3,0,21.9,2.1,31.9,6.4c9.9,4.3,18.6,10.1,25.9,17.4c7.3,7.3,13.1,15.9,17.4,25.9c4.3,9.9,6.4,20.4,6.4,31.5
		c0,11.3-2.1,21.9-6.4,31.7c-4.3,9.8-10.1,18.3-17.4,25.5c-7.3,7.2-15.9,12.9-25.9,17.2c-9.9,4.3-20.6,6.4-31.9,6.4
		c-11.3,0-21.9-2.1-31.7-6.4c-9.8-4.3-18.4-10-25.7-17.2c-7.3-7.2-13-15.7-17.2-25.5C361.9,221.4,359.9,210.8,359.9,199.5"/>
	<path id="XMLID_127_" class="st0" d="M682.4,261.3c0.5,0.6,0.4,1.5-0.3,2c0,0-13.8,9-22.5,12.2c-8.7,3.2-17.9,4.8-27.5,4.8
		c-11.3,0-21.9-2.1-31.7-6.4c-9.8-4.3-18.3-10-25.5-17.2c-7.2-7.2-12.9-15.7-17.2-25.5c-4.3-9.8-6.4-20.4-6.4-31.7
		c0-11,2.1-21.5,6.4-31.5c4.3-9.9,10-18.5,17.2-25.7c7.2-7.2,15.7-12.9,25.5-17.2c9.8-4.3,20.4-6.4,31.7-6.4c9.9,0,19.3,1.6,28,4.8
		c8.7,3.2,22.1,12.2,22.1,12.2c0.7,0.5,1.3,1.5,1.3,2.4v35.4c0,0.8-0.7,1.5-1.5,1.5h-8.5c-0.8,0-1.5-0.7-1.5-1.5V145
		c0-0.9-0.6-1.9-1.3-2.3c0,0-10.7-6.5-17.4-8.8c-6.7-2.3-13.9-3.5-21.6-3.5c-9.6,0-18.6,1.8-26.9,5.4c-8.4,3.6-15.6,8.5-21.8,14.9
		c-6.2,6.3-11,13.7-14.6,22.1c-3.6,8.4-5.4,17.4-5.4,27c0,9.6,1.8,18.7,5.4,27.1c3.6,8.4,8.5,15.7,14.7,21.9
		c6.2,6.2,13.5,11.1,22,14.7c8.4,3.6,17.5,5.4,27.1,5.4c8.6,0,16.5-1.3,23.8-3.9c7.3-2.6,18.8-10.1,18.8-10.1
		c0.7-0.5,1.7-0.3,2.3,0.3L682.4,261.3z"/>
	<path id="XMLID_123_" class="st0" d="M749,68.6c0-3,1.1-5.7,3.3-7.9c2.2-2.2,4.8-3.3,7.9-3.3s5.6,1.1,7.7,3.3
		c2.1,2.2,3.1,4.8,3.1,7.9c0,3-1,5.6-3.1,7.7c-2.1,2.1-4.6,3.1-7.7,3.1s-5.7-1-7.9-3.1C750.1,74.2,749,71.6,749,68.6 M720.9,267.3
		c0-0.8,0.7-1.5,1.5-1.5h30.1c0.8,0,1.5-0.7,1.5-1.5V135.1c0-0.8-0.7-1.5-1.5-1.5h-30.1c-0.8,0-1.5-0.7-1.5-1.5v-8.5
		c0-0.8,0.7-1.5,1.5-1.5h41.7c0.8,0,1.5,0.7,1.5,1.5v140.7c0,0.8,0.7,1.5,1.5,1.5H796c0.8,0,1.5,0.7,1.5,1.5v8.5
		c0,0.8-0.7,1.5-1.5,1.5h-73.6c-0.8,0-1.5-0.7-1.5-1.5V267.3z"/>
	<path id="XMLID_119_" class="st1" d="M229.7,280.2c0,0-7.7-120.2-9.1-136c-1.3-15.8-3.5-39.3-7.9-56.9
		c-4.3-17.6-10.5-28.7-18.9-40.6C159.8-1.8,93-13.7,44.7,20.4l30.5,42.8c11.3-7.3,25.6-10.6,40.9-8.4c30.4,4.3,50.7,33,45.7,62.1
		c-2.6,14.9-11.4,27.2-23.5,35L229.7,280.2z"/>
	<path id="XMLID_117_" class="st0" d="M75.2,63.2L44.7,20.4C-3.4,55-14.5,122.3,20.2,170.5c8.5,11.8,16.8,21.5,31.9,31.3
		c15.2,9.8,37.1,19.3,51.6,25.7c14.5,6.4,126,52.7,126,52.7l-91.4-128.4c-11.4,7.3-25.7,10.6-40.4,8.1c-11.3-2-53.6-16.6-45.7-62.1
		C54.8,83,63.3,70.9,75.2,63.2"/>
	<path id="XMLID_86_" class="st0" d="M794.7,353.9c0,3-0.9,5.5-2.8,7.5c-1.9,2-4.4,3.1-7.5,3.1c-3,0-5.4-1.1-7.2-3.3
		c-1.8-2.2-2.7-5.4-2.7-9.4c0-4,1-7.2,3-9.6c2-2.4,4.6-3.6,7.8-3.6c2.8,0,5.1,0.9,6.8,2.8c1.7,1.9,2.6,4.1,2.6,6.7V353.9z
		 M797.3,336.8h-2.6v4.6h-0.1c-1.9-3.6-5.1-5.4-9.4-5.4c-4,0-7.3,1.5-9.8,4.5c-2.5,3-3.7,6.8-3.7,11.5c0,4.7,1.1,8.3,3.4,11
		c2.3,2.6,5.2,3.9,8.9,3.9c4.7,0,8.3-2,10.6-6h0.1v3.8c0,8.6-4.1,12.9-12.2,12.9c-2.8,0-5.7-0.9-8.8-2.6v2.8c3,1.5,5.9,2.2,8.8,2.2
		c5.1,0,8.8-1.3,11.2-3.8c2.4-2.6,3.6-6.6,3.6-12.1V336.8z M765.6,322.7h-2.6v43.5h2.6V322.7z M751.2,341.8c1.9,2.2,2.9,5.5,2.9,9.6
		c0,4.1-1,7.3-2.9,9.6c-1.9,2.3-4.6,3.4-8.2,3.4c-3.5,0-6.2-1.2-8.2-3.5c-2-2.3-3-5.4-3-9.3c0-4.2,1-7.4,3.1-9.7
		c2.1-2.3,4.8-3.5,8.3-3.5C746.6,338.5,749.3,339.6,751.2,341.8 M753.1,362.7c2.5-2.8,3.7-6.5,3.7-11.1c0-4.8-1.2-8.6-3.6-11.4
		c-2.4-2.7-5.7-4.1-9.9-4.1c-4.3,0-7.7,1.4-10.3,4.1c-2.6,2.8-3.9,6.6-3.9,11.5c0,4.5,1.2,8.2,3.7,11c2.5,2.8,5.9,4.2,10.2,4.2
		C747.2,366.9,750.6,365.5,753.1,362.7 M729,322.8c-0.8-0.4-1.9-0.5-3.1-0.5c-2.3,0-4.3,0.8-5.8,2.4c-1.6,1.6-2.3,4-2.3,7.1v5.1
		h-5.3v2.4h5.3v27h2.6v-27h7.8v-2.4h-7.8v-4.9c0-4.9,1.8-7.3,5.4-7.3c1.4,0,2.5,0.3,3.2,0.8V322.8z M708.9,336.7
		c-0.9-0.3-1.8-0.5-2.9-0.5c-1.9,0-3.6,0.6-5,1.9c-1.5,1.2-2.5,3-3.2,5.2h-0.1v-6.5H695v29.4h2.6v-13.8c0-4.4,0.8-7.8,2.4-10.2
		c1.6-2.4,3.5-3.6,5.8-3.6c1.2,0,2.2,0.3,3.1,0.9V336.7z M688.7,366.2v-2.6h-17.3v-16.9h15.2v-2.6h-15.2v-16.5h16.4V325h-19.2v41.2
		H688.7z M640.4,350.4v2.9c0,3.3-0.9,6-2.8,8.1c-1.9,2.1-4.2,3.1-7.1,3.1c-2.1,0-3.7-0.6-4.8-1.7c-1.2-1.1-1.7-2.6-1.7-4.3
		c0-2.2,0.6-3.8,1.9-4.8c1.2-1,3.4-1.7,6.5-2.1L640.4,350.4z M643,366.2v-19.1c0-3.6-0.8-6.3-2.5-8.2c-1.7-1.9-4-2.8-7-2.8
		c-1.6,0-3.4,0.3-5.3,0.9c-1.9,0.6-3.3,1.3-4.4,2.2v3.2c3.1-2.6,6.2-3.9,9.4-3.9c4.7,0,7.1,3.2,7.1,9.5l-9,1.3
		c-6.8,1.1-10.2,4.2-10.2,9.3c0,2.4,0.8,4.4,2.4,5.9c1.6,1.6,3.8,2.4,6.6,2.4c2.2,0,4.2-0.6,6-1.8s3.2-2.8,4.1-4.8h0.1v5.9H643z
		 M614.6,336.8h-2.6v29.4h2.6V336.8z M614.8,328.7c0.4-0.4,0.7-1,0.7-1.6c0-0.6-0.2-1.2-0.7-1.5c-0.5-0.4-1-0.6-1.6-0.6
		c-0.6,0-1.1,0.2-1.5,0.6c-0.5,0.4-0.7,0.9-0.7,1.5c0,0.7,0.2,1.2,0.7,1.6c0.4,0.4,0.9,0.6,1.5,0.6
		C613.8,329.4,614.4,329.2,614.8,328.7 M601,353.8c0,3-0.9,5.5-2.8,7.6c-1.8,2.1-4.4,3.1-7.8,3.1c-2.9,0-5.2-1.1-7-3.3
		c-1.8-2.2-2.7-5.3-2.7-9.4c0-4.1,1-7.4,3-9.7c2-2.4,4.6-3.5,7.6-3.5c2.9,0,5.3,1,7,2.9c1.7,1.9,2.6,4.2,2.6,7V353.8z M603.7,366.2
		v-43.5H601v18.8h-0.1c-1.9-3.6-5-5.4-9.4-5.4c-4,0-7.2,1.5-9.7,4.4c-2.5,2.9-3.7,6.8-3.7,11.5c0,4.6,1.1,8.3,3.4,10.9
		c2.3,2.6,5.2,4,8.9,4c2.4,0,4.5-0.5,6.3-1.6c1.9-1.1,3.3-2.6,4.2-4.4h0.1v5.3H603.7z M551.2,349.2c0.4-3.4,1.5-6.1,3.3-7.9
		c1.8-1.8,4.1-2.8,6.8-2.8c2.7,0,4.7,0.9,6.3,2.8c1.5,1.9,2.3,4.5,2.4,7.9H551.2z M572.9,351.6v-1.2c0-4.4-1-7.9-2.9-10.5
		c-2-2.6-4.8-3.8-8.4-3.8c-3.9,0-7.1,1.5-9.5,4.4c-2.4,2.9-3.7,6.5-3.7,10.8c0,5,1.2,8.8,3.5,11.5c2.3,2.7,5.4,4.1,9.2,4.1
		c3.8,0,7.1-1.1,10.2-3.2v-2.8c-3.1,2.4-6.4,3.6-9.6,3.6c-3.3,0-5.8-1.1-7.7-3.4c-1.9-2.3-2.8-5.4-2.8-9.5H572.9z M541.7,366.2V325
		h-2.5L524,357.9c-0.6,1.7-1,2.7-1,2.7l-0.3,0.9h-0.2c-0.2-0.6-0.4-1.2-0.6-1.7c-0.1-0.3-0.3-0.7-0.4-1c-0.1-0.3-0.2-0.6-0.3-0.8
		L505.9,325h-2.6v41.2h2.8v-29.9c0-1.8-0.1-3.6-0.2-5.5h0.1c0.4,1.6,0.9,2.9,1.3,3.9l14.7,31.5h0.9l14.6-31.7c0.4-0.8,0.9-2,1.5-3.6
		h0.1c-0.2,3.3-0.3,5.3-0.3,6.1v29.2H541.7z M477.2,322.7h-2.6v43.5h2.6V322.7z M463.1,350.4v2.9c0,3.3-0.9,6-2.8,8.1
		c-1.9,2.1-4.2,3.1-7.1,3.1c-2.1,0-3.7-0.6-4.8-1.7c-1.2-1.1-1.7-2.6-1.7-4.3c0-2.2,0.6-3.8,1.9-4.8c1.2-1,3.4-1.7,6.5-2.1
		L463.1,350.4z M465.7,366.2v-19.1c0-3.6-0.8-6.3-2.5-8.2c-1.7-1.9-4-2.8-7-2.8c-1.6,0-3.4,0.3-5.3,0.9c-1.9,0.6-3.3,1.3-4.4,2.2
		v3.2c3.1-2.6,6.2-3.9,9.4-3.9c4.7,0,7.1,3.2,7.1,9.5l-9,1.3c-6.8,1.1-10.2,4.2-10.2,9.3c0,2.4,0.8,4.4,2.4,5.9
		c1.6,1.6,3.8,2.4,6.6,2.4c2.2,0,4.2-0.6,6-1.8c1.8-1.2,3.2-2.8,4.1-4.8h0.1v5.9H465.7z M436.1,336.8h-2.6v29.4h2.6V336.8z
		 M436.3,328.7c0.4-0.4,0.7-1,0.7-1.6c0-0.6-0.2-1.2-0.7-1.5c-0.5-0.4-1-0.6-1.6-0.6c-0.6,0-1.1,0.2-1.5,0.6
		c-0.5,0.4-0.7,0.9-0.7,1.5c0,0.7,0.2,1.2,0.7,1.6c0.4,0.4,0.9,0.6,1.5,0.6C435.4,329.4,435.9,329.2,436.3,328.7 M425.2,362.1
		c-2.2,1.6-4.7,2.4-7.7,2.4c-3.2,0-5.8-1.2-7.8-3.5c-2-2.3-2.9-5.4-2.9-9.2c0-3.9,1.1-7.1,3.2-9.6c2.1-2.5,4.9-3.7,8.4-3.7
		c2.5,0,4.8,0.7,6.9,1.9v-3c-2.1-0.9-4.3-1.4-6.5-1.4c-4.3,0-7.9,1.5-10.6,4.5c-2.8,3-4.1,6.8-4.1,11.5c0,4.4,1.2,8,3.7,10.8
		c2.5,2.7,5.7,4.1,9.7,4.1c3,0,5.6-0.7,7.8-2V362.1z M393.3,341.8c1.9,2.2,2.9,5.5,2.9,9.6c0,4.1-1,7.3-2.9,9.6
		c-1.9,2.3-4.6,3.4-8.2,3.4c-3.5,0-6.2-1.2-8.2-3.5c-2-2.3-3-5.4-3-9.3c0-4.2,1-7.4,3.1-9.7c2.1-2.3,4.8-3.5,8.3-3.5
		C388.7,338.5,391.4,339.6,393.3,341.8 M395.2,362.7c2.5-2.8,3.7-6.5,3.7-11.1c0-4.8-1.2-8.6-3.6-11.4c-2.4-2.7-5.7-4.1-9.9-4.1
		c-4.3,0-7.7,1.4-10.3,4.1c-2.6,2.8-3.9,6.6-3.9,11.5c0,4.5,1.3,8.2,3.7,11c2.5,2.8,5.9,4.2,10.2,4.2
		C389.3,366.9,392.7,365.5,395.2,362.7 M348.7,366.2c1.8,0.4,3.5,0.7,4.9,0.7c4,0,7.1-1,9.3-3c2.2-2,3.3-4.6,3.3-7.7
		c0-2.2-0.6-4.1-1.9-5.8c-1.3-1.7-3.8-3.6-7.7-5.8c-3.7-2.1-6.1-3.8-7.2-5.1c-1.1-1.2-1.7-2.9-1.7-5c0-2.2,0.8-4,2.5-5.4
		c1.6-1.4,3.9-2.1,6.6-2.1c2.7,0,5.3,0.5,7.7,1.6v-3c-2.5-0.8-4.9-1.2-7.3-1.2c-3.8,0-6.8,1-9,3c-2.3,2-3.4,4.5-3.4,7.4
		c0,2.1,0.6,4,1.7,5.7c1.1,1.6,3.8,3.7,7.9,6.1c3.7,2.2,6.2,3.9,7.3,5.1c1.1,1.3,1.7,2.9,1.7,5c0,2.4-0.8,4.2-2.5,5.6
		c-1.7,1.3-4.1,2-7.3,2c-3,0-6-0.9-9-2.8v3.2C345.4,365.3,346.8,365.8,348.7,366.2 M323.5,336.7c-0.9-0.3-1.8-0.5-2.9-0.5
		c-1.9,0-3.6,0.6-5.1,1.9c-1.5,1.2-2.5,3-3.2,5.2h-0.1v-6.5h-2.6v29.4h2.6v-13.8c0-4.4,0.8-7.8,2.4-10.2c1.6-2.4,3.5-3.6,5.8-3.6
		c1.2,0,2.2,0.3,3.1,0.9V336.7z M302,366.2V348c0-3.8-0.8-6.8-2.5-8.8c-1.7-2-4.1-3.1-7.3-3.1c-4.4,0-7.8,2-10.1,6H282v-19.4h-2.6
		v43.5h2.6v-16.3c0-3.7,1-6.5,2.9-8.5c1.9-2,4.1-3,6.7-3c2.7,0,4.6,0.8,5.9,2.4c1.3,1.6,1.9,4.2,1.9,7.7v17.6H302z M270.6,325h-2.8
		v41.2h2.8V325z"/>
</g>
<g>
</g>
<g>
</g>
<g>
</g>
<g>
</g>
<g>
</g>
<g>
</g>
</svg>
