<?xml version="1.0" encoding="utf-8"?>
<!-- Generator: Adobe Illustrator 23.0.3, SVG Export Plug-In . SVG Version: 6.00 Build 0)  -->
<svg version="1.1" id="Ebene_1" xmlns="http://www.w3.org/2000/svg" xmlns:xlink="http://www.w3.org/1999/xlink" x="0px" y="0px"
	 viewBox="0 0 139.7 139.7" style="enable-background:new 0 0 139.7 139.7;" xml:space="preserve">
<path d="M69.8,0C31.9,0,0.9,30.2,0,68.1c2.7-1.3,5.6-2,8.5-2.2c5.4-0.3,8.5,3.9,10.7,7c0.6,0.9,1.4,1.8,2.2,2.6
	c0.4-0.2,2.6-1.6,4.2-13.9c2.1-16.3,3.8-24,8.3-23.9c2.3,0.1,3.2,2.7,4.3,7.8c0.7,3.3,1.4,7.9,2.2,13.6c1.2,9.7,2.1,19.4,2.1,19.5
	c0.4,9.4,1.7,20.3,3.3,24.7c1.7-5.3,3.6-20.4,4.6-33.6c2.1-25,5.9-24.9,7.5-24.8s5.2,0.2,8,27.4c0.8,9.6,2.6,18.7,4.1,21.3
	c1.4-2.4,3.2-10.3,4.1-18.6c2.3-18.4,6-18.2,7.4-18.2c3.1,0.1,5.8,5.3,8.1,15.2c1,4.5,2.9,9,4.1,9.8c1-0.7,2.8-4.7,3.8-8.5
	C99.8,64,103.5,63,105,63c1.1,0,4.9,0.6,7.6,8.6c1,1.9,2.8,3.9,3.8,3.9s3.4-2.7,5.1-5.5c1.1-2.1,3.8-6.9,7.1-6.9
	c3,0,6.7,2.2,11.2,5.6C139.1,30.5,108,0,69.8,0z"/>
<path d="M125.1,71.8L125,72c-1.1,1.8-4.8,7.6-8.7,7.6c-4,0-7-5.2-7.5-6.2l-0.1-0.3c-1-3.2-2.9-5.9-3.8-5.9c-0.9,0.3-2.7,3.9-3.6,7.3
	C98.7,85.1,95,86.3,93.1,86c-4.1-0.6-6.5-8.4-7.6-13c-1.1-5-2.9-10-4.1-11.6c-1.1,2-2.5,8.1-3.3,14.1c-0.5,4.4-2.4,19.1-6.1,21.9
	c-0.7,0.6-1.6,0.8-2.5,0.7c-2.3-0.4-4.3-2.8-6.2-13.8c-1-5.9-1.5-11.6-1.6-11.8c-0.9-8.7-2.6-18.8-4-22.5
	c-1.3,3.5-2.7,12.2-3.3,19.9c0,0.1-0.7,9-1.8,18c-2.3,17.9-4.1,20-5.9,20.7c-0.3,0.1-0.6,0.2-0.9,0.2c-0.8,0-1.5-0.3-2-0.9
	c-4-4-5.1-23.3-5.4-29.1c-1.3-14.5-3.4-30.6-5-35.9C32.3,45.6,31,52,29.7,62c-1.6,12.3-4,17.5-8.3,17.5c-2.3,0-3.8-2.1-5.4-4.2
	c-1.9-2.5-4.1-5.4-7.2-5.3c-3.1,0.2-6.1,1.2-8.8,2.8c1.7,38.6,34.3,68.5,72.8,66.8c35.9-1.5,64.7-30,66.8-65.8
	c-2.3-1.9-8.3-6.7-11.1-6.7C127.9,67.3,126.2,69.6,125.1,71.8z"/>
</svg>
