<?xml version="1.0" encoding="utf-8"?>
<!-- Generator: Adobe Illustrator 27.4.1, SVG Export Plug-In . SVG Version: 6.00 Build 0)  -->
<svg version="1.1" id="Ebene_1" xmlns="http://www.w3.org/2000/svg" xmlns:xlink="http://www.w3.org/1999/xlink" x="0px" y="0px"
	 viewBox="0 0 670 135" enable-background="new 0 0 670 135" xml:space="preserve">
<rect x="23" y="26" fill="#FFFFFF" width="84" height="75"/>
<path d="M236.66,32.24c-9.94,0-17.69,3.73-22.75,11.16c-4.02-6.93-11.63-11.16-20.71-11.16c-8,0-14.21,2.84-18.88,8.71l-0.11-7.43
	h-12.95v63.29h14.5V61.7c0-9.84,6.46-16.52,15.9-16.52c8.68,0,13.46,5.65,13.46,15.78v35.86h14.5V61.7c0-9.84,6.32-16.52,15.9-16.52
	c8.65,0,13.31,5.65,13.31,15.78v35.86h14.5V59.78C263.32,42.61,253.09,32.24,236.66,32.24z"/>
<path d="M329.64,33.52l-0.11,8.46c-4.92-6.15-13.31-9.84-23.29-9.84c-18.77,0-31.69,13.58-31.69,33.01
	c0,19.47,12.92,33.05,31.69,33.05c9.83,0,18.37-3.7,23.29-9.84l0.11,8.46h12.95V33.52H329.64z M308.57,85.15
	c-11.52,0-19.52-8.21-19.52-20.01c0-11.76,8-19.97,19.52-19.97c11.52,0,19.52,8.21,19.52,19.97
	C328.09,76.94,320.09,85.15,308.57,85.15z"/>
<path d="M408.26,7.15v33.16c-5.02-5.12-12.92-8.17-22.1-8.17c-18.09,0-31.43,13.04-31.43,33.01c0,20.01,13.35,33.05,31.43,33.05
	c10.08,0,18.62-3.7,23.54-9.84l0.14,8.46h12.92V7.15H408.26z M388.74,85.15c-11.52,0-19.52-8.21-19.52-20.01
	c0-11.76,8-19.97,19.52-19.97c11.52,0,19.52,8.21,19.52,19.97C408.26,76.94,400.26,85.15,388.74,85.15z"/>
<path d="M503.71,64.01c0-7.43-2.19-13.08-7.64-19.33L505,34.41l-10.48-7.92l-8.15,9.88c-4.52-2.7-10.59-4.23-17.33-4.23
	c-19.77,0-34.13,13.43-34.13,31.88c0,19.23,13.42,31.52,34.63,31.52c11.91,0,19.16,4.87,19.16,12.79c0,8.07-7.75,13.43-19.41,13.43
	c-12.13,0-19.77-6.11-19.52-15.49h-14.21c-0.79,17.06,12.67,28.47,33.73,28.47c20.56,0,34.02-10.27,34.02-26.26
	c0-9.35-5.67-16.42-15.9-20.11C498.01,83.73,503.71,75.27,503.71,64.01z M469.3,82.59c-11.88,0-19.92-7.43-19.92-18.59
	c0-11.27,7.9-18.83,19.92-18.83c12.06,0,19.92,7.57,19.92,18.83C489.21,75.17,481.21,82.59,469.3,82.59z"/>
<path d="M516.77,33.52v63.29h14.46V33.52H516.77z M524.02,6.37c-5.31,0-9.19,3.73-9.19,8.96c0,5.01,3.88,8.74,9.19,8.74
	c5.56,0,9.44-3.73,9.44-8.74C533.46,10.1,529.58,6.37,524.02,6.37z"/>
<path d="M593.6,78.61c-3.91,4.23-9.58,6.54-15.79,6.54c-11.77,0-19.81-8.07-19.81-20.01c0-11.76,8.15-19.97,19.81-19.97
	c5.67,0,11.23,2.2,15.14,6.04l8.79-9.35c-6.85-6.54-14.89-9.74-24.19-9.74c-20.31,0-34.02,13.43-34.02,33.01
	c0,20.01,13.46,33.05,34.13,33.05c9.83,0,17.73-3.2,24.83-9.99L593.6,78.61z"/>
<path d="M647.14,64.15l21.46-30.63h-16.94l-9.08,13.18l-4.92,7.71l-4.77-7.71l-9.04-13.18h-17.23l21.49,30.63l-22.89,32.66h16.79
	l8.68-12.3l6.96-10.52l6.85,10.52l8.29,12.3H670L647.14,64.15z"/>
<path fill="#515FBC" d="M58.06,0.32C27.81,3.27,3.3,27.55,0.32,57.5c-4.02,40.55,30.07,74.27,70.94,70.26
	c30.25-2.99,54.72-27.22,57.74-57.18C133.1,30.1,98.97-3.69,58.06,0.32z M102.52,97.48c0,0.39-0.5,0.6-0.79,0.36l-9.29-8
	c-0.22-0.18-0.36-0.46-0.36-0.71L92.04,60.7c0-0.39-0.47-0.6-0.79-0.36L64.99,81.49c-0.18,0.14-0.43,0.14-0.61,0L38.11,60.35
	c-0.32-0.25-0.79-0.04-0.79,0.36l-0.07,28.43c0,0.25-0.11,0.53-0.32,0.71l-9.29,8c-0.32,0.25-0.79,0.04-0.79-0.36v-3.09
	c0-0.28,0.11-0.53,0.32-0.71l6.35-5.51c0.18-0.18,0.32-0.43,0.32-0.71L33.8,56.15v-2.52c0-0.39,0.47-0.6,0.79-0.36l1.76,1.39
	l28.03,22.25c0.18,0.14,0.43,0.14,0.57,0l28.03-22.25l1.79-1.39c0.32-0.25,0.79-0.04,0.79,0.36v2.52l-0.04,31.31
	c0,0.28,0.11,0.53,0.32,0.71l6.35,5.51c0.18,0.18,0.32,0.43,0.32,0.71V97.48L102.52,97.48z M102.52,41.44l-0.04,47.44
	c0,0.39-0.47,0.6-0.79,0.36l-2.3-1.92c-0.22-0.18-0.32-0.46-0.32-0.71l-0.07-39.98c0-0.39-0.47-0.6-0.79-0.36L64.99,72.96
	c-0.18,0.14-0.43,0.14-0.61,0L31.11,46.27c-0.29-0.25-0.75-0.04-0.75,0.36l-0.07,39.98c0,0.25-0.14,0.53-0.36,0.71l-2.3,1.92
	c-0.29,0.25-0.75,0.04-0.75-0.36l-0.04-47.44v-1.92c0-0.39,0.43-0.64,0.75-0.39l2.01,1.56l34.77,27.72c0.18,0.14,0.43,0.14,0.61,0
	l34.77-27.72l1.97-1.56c0.32-0.25,0.79,0,0.79,0.39V41.44L102.52,41.44z M102.52,33.45c0,0.28-0.14,0.53-0.36,0.71l-0.36,0.28
	l-36.82,29.6c-0.18,0.14-0.43,0.14-0.61,0l-36.85-29.6l-0.36-0.28c-0.22-0.18-0.32-0.43-0.32-0.71V30.6c0-0.39,0.43-0.6,0.75-0.39
	l2.01,1.56l34.77,27.72c0.18,0.14,0.43,0.14,0.61,0l34.77-27.72l1.97-1.56c0.32-0.21,0.79,0,0.79,0.39V33.45L102.52,33.45z"/>
</svg>
