<?xml version="1.0" encoding="utf-8"?>
<!-- Generator: Adobe Illustrator 27.5.0, SVG Export Plug-In . SVG Version: 6.00 Build 0)  -->
<svg version="1.1" id="Ebene_1" xmlns="http://www.w3.org/2000/svg" xmlns:xlink="http://www.w3.org/1999/xlink" x="0px" y="0px"
	 viewBox="0 0 176 28" style="enable-background:new 0 0 176 28;" xml:space="preserve">
<style type="text/css">
	.st0{fill:url(#SVGID_1_);}
	.st1{fill-rule:evenodd;clip-rule:evenodd;fill:#FFFFFF;}
</style>
<path d="M35.3,21.7v-9.6h0l3.4,9.6H41l3.4-9.7h0v9.7h2.8V8H43l-3,9.4h0L36.7,8h-4.2v13.7H35.3z M52.1,21.9c0.6,0,1.2-0.1,1.8-0.3
	c0.6-0.2,1.1-0.5,1.5-0.9c0,0.2,0,0.3,0.1,0.5c0,0.2,0.1,0.3,0.1,0.5h2.8c-0.1-0.2-0.2-0.5-0.3-0.9c-0.1-0.4-0.1-0.8-0.1-1.3v-5.2
	c0-0.6-0.1-1.1-0.4-1.4c-0.3-0.4-0.6-0.6-1-0.9c-0.4-0.2-0.9-0.3-1.4-0.4c-0.5-0.1-1-0.1-1.5-0.1c-0.6,0-1.1,0.1-1.6,0.2
	c-0.5,0.1-1,0.3-1.5,0.5c-0.4,0.3-0.8,0.6-1.1,1s-0.4,1-0.5,1.6h2.7c0.1-0.5,0.2-0.9,0.5-1.2c0.3-0.2,0.7-0.3,1.3-0.3
	c0.2,0,0.5,0,0.7,0c0.2,0,0.4,0.1,0.6,0.2c0.2,0.1,0.3,0.2,0.4,0.4c0.1,0.2,0.1,0.4,0.1,0.7c0,0.3-0.1,0.5-0.2,0.6
	c-0.2,0.1-0.4,0.3-0.7,0.3c-0.3,0.1-0.7,0.1-1.1,0.2c-0.4,0-0.8,0.1-1.2,0.2c-0.4,0.1-0.8,0.2-1.2,0.3s-0.8,0.3-1.1,0.5
	s-0.6,0.5-0.8,0.9c-0.2,0.4-0.3,0.8-0.3,1.4c0,0.5,0.1,1,0.3,1.3c0.2,0.4,0.4,0.7,0.7,0.9c0.3,0.2,0.7,0.4,1.1,0.5
	C51.2,21.9,51.6,21.9,52.1,21.9z M53.1,20.1c-0.2,0-0.4,0-0.6-0.1c-0.2,0-0.4-0.1-0.5-0.2c-0.2-0.1-0.3-0.2-0.4-0.4
	c-0.1-0.2-0.1-0.4-0.1-0.6c0-0.3,0-0.5,0.1-0.6c0.1-0.2,0.2-0.3,0.4-0.4c0.1-0.1,0.3-0.2,0.5-0.3c0.2-0.1,0.4-0.1,0.6-0.2
	c0.2,0,0.4-0.1,0.7-0.1c0.2,0,0.4-0.1,0.6-0.1c0.2,0,0.4-0.1,0.6-0.1c0.2-0.1,0.3-0.1,0.4-0.2v1c0,0.2,0,0.4,0,0.6
	c0,0.3-0.1,0.5-0.3,0.8c-0.1,0.2-0.4,0.5-0.7,0.6C54.1,20,53.7,20.1,53.1,20.1z M62.5,21.7v-4.5c0-0.4,0-0.9,0.1-1.2
	c0.1-0.4,0.2-0.7,0.5-1c0.2-0.3,0.5-0.5,0.8-0.7c0.3-0.2,0.8-0.2,1.3-0.2c0.2,0,0.3,0,0.5,0c0.2,0,0.3,0,0.5,0.1v-2.5
	c-0.2-0.1-0.4-0.1-0.6-0.1c-0.3,0-0.7,0.1-1,0.2c-0.3,0.1-0.6,0.2-0.9,0.4c-0.3,0.2-0.5,0.4-0.7,0.7c-0.2,0.3-0.4,0.5-0.5,0.9h0
	v-1.8h-2.6v9.9H62.5z M69.8,21.7v-3.4l1.1-1l2.7,4.4h3.3l-4.2-6.3l3.7-3.6h-3.2l-3.4,3.6V8h-2.7v13.7H69.8z M82,21.9
	c1.1,0,2.1-0.3,2.9-0.8c0.8-0.5,1.4-1.4,1.8-2.6h-2.4c-0.1,0.3-0.3,0.6-0.7,0.9c-0.4,0.3-0.9,0.4-1.4,0.4c-0.8,0-1.4-0.2-1.8-0.6
	c-0.4-0.4-0.6-1-0.7-1.9h7.2c0.1-0.8,0-1.5-0.2-2.2c-0.2-0.7-0.5-1.3-0.9-1.9c-0.4-0.5-0.9-1-1.5-1.3c-0.6-0.3-1.4-0.5-2.2-0.5
	c-0.8,0-1.4,0.1-2.1,0.4c-0.6,0.3-1.2,0.6-1.6,1.1c-0.4,0.5-0.8,1-1,1.7C77.1,15.3,77,16,77,16.7c0,0.8,0.1,1.5,0.4,2.1
	c0.2,0.6,0.6,1.2,1,1.6c0.4,0.5,1,0.8,1.6,1.1C80.6,21.8,81.3,21.9,82,21.9z M84.1,15.6h-4.4c0-0.2,0.1-0.4,0.1-0.7
	c0.1-0.2,0.2-0.5,0.4-0.7c0.2-0.2,0.4-0.4,0.7-0.5c0.3-0.1,0.6-0.2,1.1-0.2c0.7,0,1.2,0.2,1.5,0.5S84,15,84.1,15.6z M91.9,21.8
	c0.3,0,0.5,0,0.8,0s0.5,0,0.8-0.1v-2.1c-0.1,0-0.3,0-0.4,0.1c-0.1,0-0.3,0-0.4,0c-0.5,0-0.8-0.1-0.9-0.2c-0.2-0.2-0.2-0.5-0.2-0.9
	v-4.9h2v-1.8h-2v-3h-2.7v3h-1.7v1.8h1.7v5.9c0,0.5,0.1,0.9,0.2,1.2c0.2,0.3,0.4,0.5,0.7,0.7c0.3,0.2,0.6,0.3,1,0.3
	C91.1,21.7,91.5,21.8,91.9,21.8z M97.2,10.2V8h-2.7v2.2H97.2z M97.2,21.7v-9.9h-2.7v9.9H97.2z M101.7,21.7v-5.2c0-1,0.2-1.7,0.5-2.2
	c0.3-0.4,0.9-0.7,1.6-0.7c0.7,0,1.1,0.2,1.4,0.6c0.3,0.4,0.4,1,0.4,1.8v5.6h2.7v-6.1c0-0.6-0.1-1.2-0.2-1.7
	c-0.1-0.5-0.3-0.9-0.6-1.3c-0.3-0.4-0.6-0.6-1.1-0.8c-0.5-0.2-1.1-0.3-1.8-0.3c-0.6,0-1.1,0.1-1.7,0.4c-0.6,0.3-1,0.7-1.3,1.3h-0.1
	v-1.4H99v9.9H101.7z M114.4,25.4c1.1,0,2-0.2,2.7-0.5c0.7-0.3,1.2-0.7,1.6-1.1c0.4-0.4,0.6-0.9,0.7-1.4c0.1-0.5,0.2-1,0.2-1.4v-9.3
	h-2.6v1.3h0c-0.3-0.6-0.7-1-1.2-1.2c-0.5-0.2-1.1-0.4-1.7-0.4c-0.7,0-1.3,0.1-1.8,0.4c-0.5,0.3-1,0.6-1.3,1.1
	c-0.4,0.5-0.6,1-0.8,1.6c-0.2,0.6-0.3,1.2-0.3,1.9c0,0.7,0.1,1.3,0.2,1.9c0.2,0.6,0.4,1.1,0.8,1.6c0.3,0.5,0.8,0.8,1.3,1.1
	c0.5,0.3,1.2,0.4,1.9,0.4c0.6,0,1.2-0.1,1.7-0.4c0.5-0.2,1-0.6,1.3-1.2h0v1.3c0,0.7-0.2,1.3-0.5,1.7c-0.4,0.5-0.9,0.7-1.7,0.7
	c-0.5,0-0.9-0.1-1.3-0.3c-0.4-0.2-0.6-0.6-0.7-1.1H110c0,0.6,0.2,1,0.5,1.4c0.3,0.4,0.6,0.7,1,1c0.4,0.3,0.9,0.4,1.4,0.6
	C113.4,25.3,113.9,25.4,114.4,25.4z M114.6,19.3c-0.4,0-0.8-0.1-1.1-0.3c-0.3-0.2-0.5-0.4-0.7-0.7c-0.2-0.3-0.3-0.6-0.4-0.9
	c-0.1-0.4-0.1-0.7-0.1-1.1c0-0.4,0-0.7,0.1-1.1c0.1-0.3,0.2-0.6,0.4-0.9c0.2-0.3,0.4-0.5,0.7-0.6c0.3-0.2,0.6-0.2,1-0.2
	c0.4,0,0.8,0.1,1.1,0.2c0.3,0.2,0.5,0.4,0.7,0.7c0.2,0.3,0.3,0.6,0.4,1c0.1,0.4,0.1,0.8,0.1,1.2c0,0.4,0,0.7-0.1,1s-0.2,0.6-0.4,0.9
	c-0.2,0.3-0.4,0.5-0.7,0.6C115.3,19.2,115,19.3,114.6,19.3z M128.4,21.7c0.7,0,1.3-0.1,1.8-0.3c0.5-0.2,1-0.5,1.3-0.9
	c0.4-0.4,0.6-0.8,0.8-1.3c0.2-0.5,0.3-1,0.3-1.5c0-0.8-0.2-1.6-0.7-2.1c-0.4-0.6-1.1-1-1.9-1.2v0c0.7-0.3,1.2-0.6,1.5-1.2
	c0.4-0.5,0.5-1.2,0.5-1.9c0-0.7-0.2-1.3-0.5-1.7c-0.3-0.5-0.7-0.8-1.1-1.1c-0.2-0.1-0.5-0.2-0.7-0.3S129,8.1,128.7,8
	c-0.3,0-0.7-0.1-1-0.1c-0.3,0-0.7,0-1,0h-5v13.7H128.4z M127.2,13.9h-3.6V9.5h3.6c0.4,0,0.8,0,1.1,0.1c0.4,0,0.7,0.1,0.9,0.3
	c0.3,0.2,0.5,0.4,0.6,0.7c0.2,0.3,0.2,0.7,0.2,1.2c0,0.7-0.2,1.3-0.7,1.6C129,13.7,128.3,13.9,127.2,13.9z M128.1,20.1h-4.6v-4.7
	h4.2c0.4,0,0.8,0,1.1,0.1c0.4,0.1,0.7,0.2,0.9,0.4c0.3,0.2,0.5,0.4,0.7,0.7s0.2,0.7,0.2,1.1c0,0.8-0.2,1.4-0.7,1.8
	C129.6,19.9,128.9,20.1,128.1,20.1z M136,21.7V8h-1.6v13.7H136z M142.4,21.9c0.8,0,1.5-0.1,2.1-0.4c0.6-0.3,1.1-0.6,1.5-1.1
	c0.4-0.5,0.7-1,0.9-1.6c0.2-0.6,0.3-1.3,0.3-2c0-0.7-0.1-1.4-0.3-2c-0.2-0.6-0.5-1.2-0.9-1.6c-0.4-0.5-0.9-0.8-1.5-1.1
	c-0.6-0.3-1.3-0.4-2.1-0.4c-0.8,0-1.5,0.1-2.1,0.4c-0.6,0.3-1.1,0.6-1.5,1.1c-0.4,0.5-0.7,1-0.9,1.6c-0.2,0.6-0.3,1.3-0.3,2
	c0,0.7,0.1,1.4,0.3,2s0.5,1.2,0.9,1.6c0.4,0.5,0.9,0.8,1.5,1.1C140.9,21.7,141.6,21.9,142.4,21.9z M142.4,20.5
	c-0.4,0-0.8-0.1-1.2-0.2c-0.4-0.2-0.7-0.4-1-0.7c-0.3-0.3-0.5-0.7-0.7-1.2c-0.2-0.5-0.2-1-0.2-1.6c0-0.6,0.1-1.1,0.2-1.6
	c0.2-0.5,0.4-0.9,0.7-1.2s0.6-0.6,1-0.7c0.4-0.2,0.8-0.2,1.2-0.2c0.4,0,0.8,0.1,1.2,0.2c0.4,0.2,0.7,0.4,1,0.7s0.5,0.7,0.7,1.2
	c0.2,0.5,0.2,1,0.2,1.6c0,0.6-0.1,1.1-0.2,1.6c-0.2,0.5-0.4,0.9-0.7,1.2c-0.3,0.3-0.6,0.6-1,0.7C143.2,20.4,142.8,20.5,142.4,20.5z
	 M152.8,21.9c1.3,0,2.3-0.3,3-1c0.7-0.7,1.2-1.6,1.4-2.8h-1.7c-0.1,0.8-0.4,1.4-0.8,1.8c-0.5,0.4-1.1,0.6-1.9,0.6
	c-0.5,0-1-0.1-1.3-0.3c-0.4-0.2-0.7-0.5-0.9-0.8c-0.2-0.3-0.4-0.7-0.5-1.2c-0.1-0.4-0.2-0.9-0.2-1.3c0-0.5,0.1-1,0.2-1.4
	c0.1-0.5,0.3-0.9,0.5-1.2c0.2-0.4,0.6-0.6,0.9-0.9c0.4-0.2,0.9-0.3,1.5-0.3c0.7,0,1.2,0.2,1.7,0.5c0.4,0.3,0.7,0.8,0.8,1.5h1.7
	c-0.1-0.6-0.2-1.1-0.5-1.5c-0.2-0.4-0.6-0.8-0.9-1.1c-0.4-0.3-0.8-0.5-1.3-0.6c-0.5-0.1-1-0.2-1.6-0.2c-0.8,0-1.5,0.1-2.1,0.4
	c-0.6,0.3-1.1,0.7-1.5,1.1c-0.4,0.5-0.7,1-0.9,1.7s-0.3,1.3-0.3,2.1c0,0.7,0.1,1.4,0.3,2c0.2,0.6,0.5,1.2,0.9,1.6
	c0.4,0.4,0.9,0.8,1.5,1C151.4,21.8,152.1,21.9,152.8,21.9z M160.3,21.7v-3.8l1.5-1.4l3.4,5.2h2.1l-4.2-6.3l3.9-3.6h-2.2l-4.5,4.3V8
	h-1.6v13.7H160.3z M171.7,21.9c0.5,0,1,0,1.5-0.1c0.5-0.1,1-0.3,1.4-0.5c0.4-0.2,0.7-0.6,1-1c0.2-0.4,0.4-0.9,0.4-1.5
	c0-0.5-0.1-0.9-0.3-1.2c-0.2-0.3-0.4-0.6-0.7-0.8c-0.3-0.2-0.6-0.4-1-0.5c-0.4-0.1-0.8-0.2-1.2-0.3c-0.4-0.1-0.8-0.2-1.2-0.3
	c-0.4-0.1-0.7-0.2-1-0.3c-0.3-0.1-0.6-0.3-0.8-0.5c-0.2-0.2-0.3-0.4-0.3-0.7c0-0.3,0.1-0.5,0.2-0.6c0.1-0.2,0.3-0.3,0.5-0.4
	c0.2-0.1,0.4-0.2,0.7-0.2c0.2,0,0.5-0.1,0.7-0.1c0.3,0,0.5,0,0.8,0.1c0.3,0.1,0.5,0.2,0.7,0.3s0.4,0.3,0.5,0.5
	c0.1,0.2,0.2,0.5,0.2,0.8h1.6c0-0.6-0.2-1.1-0.4-1.5c-0.2-0.4-0.5-0.7-0.9-1c-0.4-0.2-0.8-0.4-1.3-0.5c-0.5-0.1-1-0.1-1.6-0.1
	c-0.4,0-0.9,0.1-1.3,0.2c-0.4,0.1-0.8,0.3-1.2,0.5c-0.4,0.2-0.6,0.5-0.9,0.9c-0.2,0.4-0.3,0.8-0.3,1.3c0,0.6,0.2,1.1,0.5,1.5
	c0.3,0.4,0.7,0.6,1.2,0.8c0.5,0.2,1,0.4,1.6,0.5c0.6,0.1,1.1,0.2,1.6,0.4c0.5,0.1,0.9,0.3,1.2,0.5c0.3,0.2,0.5,0.5,0.5,1
	c0,0.3-0.1,0.6-0.2,0.8c-0.2,0.2-0.3,0.3-0.6,0.5s-0.5,0.2-0.8,0.2c-0.3,0-0.6,0.1-0.8,0.1c-0.3,0-0.7,0-1-0.1
	c-0.3-0.1-0.6-0.2-0.8-0.3c-0.2-0.1-0.5-0.3-0.6-0.6c-0.2-0.2-0.2-0.6-0.2-0.9h-1.6c0,0.6,0.2,1.1,0.4,1.6c0.2,0.4,0.5,0.8,0.9,1
	c0.4,0.3,0.8,0.5,1.3,0.6C170.7,21.8,171.2,21.9,171.7,21.9z"/>
<linearGradient id="SVGID_1_" gradientUnits="userSpaceOnUse" x1="13.9683" y1="42.1736" x2="13.9683" y2="2.0635" gradientTransform="matrix(1 0 0 -1 0 30)">
	<stop  offset="0" style="stop-color:#9B5FF8"/>
	<stop  offset="1" style="stop-color:#6231EF"/>
</linearGradient>
<path class="st0" d="M14,27.9c7.7,0,14-6.3,14-14c0-7.7-6.3-14-14-14C6.3,0,0,6.3,0,14C0,21.7,6.3,27.9,14,27.9z"/>
<path class="st1" d="M15.1,10.8L12,5.6c-0.3-0.5-1-0.4-1.3,0L1.9,19.7c-0.3,0.5-0.2,1,0.4,1.2L9,21l2.3-3.8l0.6-1.7L15.1,10.8z
	 M10.9,7.6l1.9,3.2l-1.7,2.6l-3.3,5.8H4.1L10.9,7.6z"/>
<path class="st1" d="M13.4,20l-2.3-4.2c0-0.1,0-0.3,0-0.4l5.5-9.7c0.3-0.5,0.9-0.5,1.2,0L26,19.7c0.3,0.5,0.2,1-0.4,1.2l-6.3,0
	l-2.2-3.8c-0.1-0.3-0.2-0.3-0.3,0L15.3,20L13.4,20z M17.2,7.6l-4.4,7.7c0,0.1,0,0.2,0,0.2l1.5,2.6l2.7-4.6l3.2,5.8h3.6L17.2,7.6z"/>
</svg>
