<svg width="698" height="160" viewBox="0 0 698 160" fill="none" xmlns="http://www.w3.org/2000/svg">
<path d="M266.691 37.24V37H282.291V121H266.691V65.56L243.411 104.56H239.571L216.291 65.56V121H200.571V37H216.291V37.24L216.651 37L241.491 78.88L266.331 37L266.691 37.24ZM342.513 61H357.393V121H342.513V115.12C339.713 117.52 336.633 119.4 333.273 120.76C329.993 122.04 326.513 122.68 322.833 122.68C316.753 122.68 311.433 121.32 306.873 118.6C302.313 115.88 298.793 112.12 296.313 107.32C293.913 102.52 292.713 97.12 292.713 91.12C292.713 85.12 293.913 79.72 296.313 74.92C298.793 70.12 302.313 66.36 306.873 63.64C311.433 60.84 316.753 59.44 322.833 59.44C326.513 59.44 329.993 60.12 333.273 61.48C336.633 62.76 339.713 64.6 342.513 67V61ZM324.753 108.4C328.033 108.4 330.993 107.68 333.633 106.24C336.353 104.72 338.473 102.64 339.993 100C341.593 97.36 342.393 94.36 342.393 91C342.393 85.96 340.673 81.84 337.233 78.64C333.873 75.44 329.713 73.84 324.753 73.84C319.713 73.84 315.553 75.48 312.273 78.76C309.073 81.96 307.473 86.08 307.473 91.12C307.473 96.16 309.073 100.32 312.273 103.6C315.553 106.8 319.713 108.4 324.753 108.4ZM397.18 103L412.9 61H428.62L406.3 121H388.06L365.74 61H381.46L397.18 103ZM461.603 59.44C467.363 59.44 472.523 60.88 477.083 63.76C481.723 66.56 485.323 70.36 487.883 75.16C490.443 79.96 491.723 85.28 491.723 91.12C491.723 93.04 491.563 94.8 491.243 96.4H444.923C446.123 100.64 448.243 103.96 451.283 106.36C454.323 108.68 458.203 109.84 462.923 109.84C465.803 109.84 468.563 109.2 471.203 107.92C473.923 106.64 475.963 105 477.323 103L488.723 109.72C485.923 113.88 482.283 117.08 477.803 119.32C473.403 121.48 468.323 122.56 462.563 122.56C456.163 122.56 450.483 121.2 445.523 118.48C440.563 115.76 436.723 112 434.003 107.2C431.363 102.4 430.043 97 430.043 91C430.043 85.08 431.363 79.72 434.003 74.92C436.723 70.12 440.483 66.36 445.283 63.64C450.083 60.84 455.523 59.44 461.603 59.44ZM477.803 84.76C477.163 80.92 475.363 77.92 472.403 75.76C469.523 73.52 465.883 72.4 461.483 72.4C458.443 72.4 455.643 72.96 453.083 74.08C450.603 75.2 448.603 76.72 447.083 78.64C445.563 80.56 444.763 82.6 444.683 84.76H477.803ZM536.777 59.8L535.697 73.84C535.217 73.68 534.377 73.6 533.177 73.6C528.217 73.6 524.097 75.04 520.817 77.92C517.617 80.8 516.017 84.72 516.017 89.68V121H501.137V61H516.017V71.08C517.377 67.88 519.697 65.2 522.977 63.04C526.257 60.88 530.217 59.8 534.857 59.8H536.777ZM555.106 51.04C552.306 51.04 550.106 50.28 548.506 48.76C546.906 47.24 546.106 45.16 546.106 42.52C546.106 39.8 546.906 37.68 548.506 36.16C550.106 34.64 552.306 33.88 555.106 33.88C557.906 33.88 560.106 34.64 561.706 36.16C563.306 37.68 564.106 39.8 564.106 42.52C564.106 45.08 563.266 47.16 561.586 48.76C559.986 50.28 557.826 51.04 555.106 51.04ZM547.546 121V61H562.426V121H547.546ZM628.845 109.36C625.885 113.44 622.165 116.68 617.685 119.08C613.205 121.48 608.365 122.68 603.165 122.68C597.485 122.68 592.205 121.28 587.325 118.48C582.525 115.6 578.685 111.76 575.805 106.96C573.005 102.08 571.605 96.8 571.605 91.12C571.605 85.44 573.005 80.2 575.805 75.4C578.685 70.52 582.525 66.68 587.325 63.88C592.205 61 597.485 59.56 603.165 59.56C608.285 59.56 613.085 60.76 617.565 63.16C622.045 65.48 625.765 68.64 628.725 72.64L616.485 80.92C612.725 76.52 608.285 74.32 603.165 74.32C600.125 74.32 597.325 75.08 594.765 76.6C592.205 78.12 590.165 80.16 588.645 82.72C587.125 85.28 586.365 88.08 586.365 91.12C586.365 94.16 587.125 96.96 588.645 99.52C590.165 102.08 592.205 104.12 594.765 105.64C597.325 107.08 600.125 107.8 603.165 107.8C608.285 107.8 612.725 105.6 616.485 101.2L628.845 109.36ZM696.7 121H678.1L661.3 98.56L652.54 108.16V121H637.66V37H652.54V86.32L675.1 61H695.86L671.38 87.64L696.7 121Z" fill="black"/>
<rect width="160" height="160" rx="40" fill="#758BFF"/>
<path d="M79.0769 104.985C74.6805 94.7831 67.5461 85.9905 58.4873 79.6488C53.3556 76.0644 47.1912 73.0008 41.3554 71.1626C39.5092 70.5805 36.693 69.8452 36.3175 69.8452C36.1611 69.8452 36.2549 70.121 36.6617 70.8869C39.1963 75.5742 46.0178 82.0844 55.0296 88.4414C56.1718 89.2532 57.0792 89.9119 57.0479 89.9119C57.001 89.9119 56.3439 89.6362 55.5772 89.3145C42.4662 83.7541 31.045 72.7863 23.1596 58.2035C22.127 56.2887 20.625 53.1026 20.625 52.8269C20.625 52.7196 21.2352 53.2251 21.9862 53.9298C25.0996 56.8555 26.9928 57.9278 36.5053 62.1862C46.7375 66.7663 55.4208 70.8562 57.7989 72.2195C68.876 78.5765 76.1668 88.1197 79.7966 101.018L80.0156 101.783L80.2347 100.941C80.9074 98.2296 82.472 94.2163 84.0835 91.0914C88.2452 82.9728 94.1123 76.8762 102.201 72.2195C104.579 70.8562 113.263 66.7663 123.495 62.1862C133.007 57.9278 134.9 56.8555 138.014 53.9298C138.765 53.2251 139.375 52.7196 139.375 52.8269C139.375 53.1026 137.873 56.2887 136.84 58.2035C128.955 72.7863 117.534 83.7541 104.423 89.3145C103.656 89.6362 102.999 89.9119 102.952 89.9119C102.921 89.9119 103.828 89.2532 104.97 88.4414C113.982 82.0844 120.804 75.5742 123.338 70.8869C123.745 70.121 123.839 69.8452 123.682 69.8452C122.838 69.8452 117.941 71.3158 114.89 72.48C112.418 73.4297 107.176 76.0031 104.986 77.3511C99.823 80.5373 95.2075 84.3515 91.4526 88.5333C86.6807 93.864 83.5672 98.8424 80.2816 106.44L80 107.099L79.0769 104.985Z" fill="white"/>
</svg>
