<?xml version="1.0" encoding="utf-8"?>
<!-- Generator: Adobe Illustrator 23.0.3, SVG Export Plug-In . SVG Version: 6.00 Build 0)  -->
<svg version="1.1" id="Ebene_1" xmlns="http://www.w3.org/2000/svg" xmlns:xlink="http://www.w3.org/1999/xlink" x="0px" y="0px"
	 viewBox="0 0 41.9 41.9" style="enable-background:new 0 0 41.9 41.9;" xml:space="preserve">
<style type="text/css">
	.st0{fill-rule:evenodd;clip-rule:evenodd;}
	.st1{fill-rule:evenodd;clip-rule:evenodd;fill:#FF0000;}
	.st2{fill-rule:evenodd;clip-rule:evenodd;fill:#00C837;}
	.st3{fill-rule:evenodd;clip-rule:evenodd;fill:#0000FF;}
	.st4{filter:url(#Adobe_OpacityMaskFilter);}
	.st5{fill-rule:evenodd;clip-rule:evenodd;fill:#FFFFFF;}
	.st6{mask:url(#d_1_);fill-rule:evenodd;clip-rule:evenodd;}
</style>
<path class="st0" d="M11.7,32.2c-0.8,0-1.5-0.7-1.5-1.5c0-0.2,0-0.4,0.1-0.6l9.3-19.5c0.4-0.7,1.3-1,2-0.6c0.7,0.4,1,1.2,0.7,1.9
	l-9.3,19.5C12.8,31.9,12.3,32.2,11.7,32.2"/>
<path class="st0" d="M22.4,24.1l6.4-13.5c0.4-0.7,1.2-1.1,2-0.7c0.7,0.4,1.1,1.2,0.7,2l0,0l-9.2,19.5c-0.3,0.8-1.2,1.1-2,0.8
	c-0.8-0.3-1.1-1.2-0.8-2c0,0,0,0,0-0.1L22.4,24.1"/>
<path class="st1" d="M11.7,32.2c-0.8,0-1.5-0.7-1.5-1.5V11.2c0-0.8,0.6-1.5,1.5-1.5c0.8,0,1.5,0.6,1.5,1.5c0,0,0,0.1,0,0.1v19.5
	C13.2,31.5,12.5,32.2,11.7,32.2"/>
<path class="st2" d="M21,32.2c-0.8,0-1.5-0.7-1.5-1.5V11.2c0-0.8,0.7-1.5,1.5-1.5c0.8,0,1.4,0.7,1.5,1.5v19.5
	C22.5,31.5,21.8,32.2,21,32.2"/>
<path class="st3" d="M30.2,32.2c-0.8,0-1.5-0.7-1.5-1.5l0-19.5c0-0.8,0.7-1.5,1.6-1.4c0.8,0,1.4,0.7,1.4,1.4l0,19.5
	C31.7,31.5,31,32.2,30.2,32.2L30.2,32.2z"/>
<g transform="translate(0 .033)">
	<defs>
		<filter id="Adobe_OpacityMaskFilter" filterUnits="userSpaceOnUse" x="0" y="0" width="41.9" height="41.9">
			<feColorMatrix  type="matrix" values="1 0 0 0 0  0 1 0 0 0  0 0 1 0 0  0 0 0 1 0"/>
		</filter>
	</defs>
	<mask maskUnits="userSpaceOnUse" x="0" y="0" width="41.9" height="41.9" id="d_1_">
		<g class="st4">
			<path id="c_1_" class="st5" d="M0,41.9V0h41.9v41.9L0,41.9z"/>
		</g>
	</mask>
	<path class="st6" d="M38,0H3.9C1.8,0,0,1.7,0,3.9V38c0,2.2,1.8,3.9,3.9,3.9H38c2.2,0,3.9-1.8,3.9-3.9V3.9C41.9,1.7,40.2,0,38,0
		 M38,3c0.5,0,0.9,0.4,0.9,0.9V38c0,0.5-0.4,0.9-0.9,0.9H3.9C3.4,38.9,3,38.5,3,38c0,0,0,0,0,0V3.9C3,3.4,3.4,3,3.9,3L38,3"/>
</g>
</svg>
