<?xml version="1.0" encoding="utf-8"?>
<!-- Generator: Adobe Illustrator 23.0.2, SVG Export Plug-In . SVG Version: 6.00 Build 0)  -->
<svg version="1.1" id="Layer_1" xmlns="http://www.w3.org/2000/svg" xmlns:xlink="http://www.w3.org/1999/xlink" x="0px" y="0px"
	 viewBox="0 0 274.1 53.8" style="enable-background:new 0 0 274.1 53.8;" xml:space="preserve">
<style type="text/css">
	.st0{fill:#FF4338;}
</style>
<g>
	<g>
		<g>
			<g>
				<path class="st0" d="M45.8,53H36V37.6c0-2.5-1.5-4.2-3.7-4.2c-2.9,0-4.4,2.1-4.4,6V53H18V37.6c0-2.5-1.5-4.2-3.8-4.2
					c-2.8,0-4.3,2.1-4.3,6V53H0V25.1h9.9v1.5c1.9-1.5,4.3-2.3,7.1-2.3c3.6,0,6.7,1.5,8.7,4c2.4-2.6,5.5-4,9.3-4
					c6.3,0,10.8,4.8,10.8,11.4V53z M37.4,51.6h6.9V35.8c0-5.8-4-10-9.4-10c-3.6,0-6.7,1.5-8.8,4.2l-0.6,0.8L25,30
					c-1.6-2.6-4.5-4.1-8-4.1c-3.1,0-5.5,1-7.2,3l-1.3,1.4v-3.6h-7v25h7V39.4c0-4.7,2.2-7.4,5.8-7.4c3.1,0,5.2,2.3,5.2,5.6v14h7V39.4
					c0-4.7,2.2-7.4,5.9-7.4c3,0,5.2,2.4,5.2,5.6L37.4,51.6L37.4,51.6z"/>
			</g>
			<g>
				<path class="st0" d="M64.8,53.8c-8.4,0-14.7-6.3-14.7-14.7s6.3-14.7,14.7-14.7c8.3,0,14.2,6.1,14.4,14.7V42H60.1
					c0.8,2.3,2.5,3.7,4.7,3.7c2.4,0,4-0.8,5-2.7l0.3-0.5l8.9,1.8l-0.3,0.8C76.3,50.7,71.4,53.8,64.8,53.8z M64.9,25.8
					c-7.6,0-13.3,5.7-13.3,13.3s5.7,13.3,13.2,13.3c5.7,0,9.9-2.4,12.1-7l-6.1-1.2c-1.3,2-3.2,3-6,3c-3.2,0-5.6-2.2-6.4-5.7
					l-0.2-0.9h19.5v-1.4C77.6,31.3,72.3,25.8,64.9,25.8z M71.2,36.8H58.3l0.3-0.9c0.8-2.8,3.3-4.7,6.3-4.7c2.9,0,5.2,1.8,6,4.7
					L71.2,36.8z M60.4,35.4h8.8c-0.8-1.7-2.3-2.7-4.3-2.7C63.2,32.7,61.3,33.5,60.4,35.4z"/>
			</g>
			<g>
				<path class="st0" d="M93.8,53H84V13.7h9.9V53z M85.4,51.6h7V15.1h-7V51.6z"/>
			</g>
			<g>
				<path class="st0" d="M113.9,53.8c-8.8,0-15.4-6.3-15.4-14.7c0-8.3,6.6-14.6,15.4-14.6c8.7,0,15.2,6.3,15.2,14.6
					C129.1,47.5,122.6,53.8,113.9,53.8z M113.9,25.9c-7.9,0-13.9,5.7-13.9,13.2c0,7.7,5.8,13.2,13.9,13.2c7.8,0,13.8-5.7,13.8-13.2
					C127.7,31.6,121.8,25.9,113.9,25.9z"/>
			</g>
			<g>
				<path class="st0" d="M182.5,53h-9.9V25.1h9.9v3.5c2.2-2.6,5-3.9,8.4-3.9c0.8,0,1.4,0.1,2.1,0.2l0.6,0.1l-0.4,9.7h-2.2
					c-5.7,0-8.4,2.9-8.4,9.2L182.5,53L182.5,53z M174.1,51.6h7V44c0-7,3.3-10.6,9.8-10.6h0.8l0.3-7.1c-0.3,0-0.7-0.1-1.1-0.1
					c-3.6,0-6.5,1.7-8.5,5.1l-1.4,2.3v-7h-7V51.6z"/>
			</g>
			<g>
				<path class="st0" d="M207.7,53h-9.9V25.1h9.9V53z M199.3,51.6h7v-25h-7V51.6z"/>
			</g>
			<g>
				<path class="st0" d="M232.7,53h-9.6l-11.6-28h10.5l5.9,15l5.8-15h10.5L232.7,53z M224.1,51.6h7.6l10.4-25h-7.3l-6.8,17.6
					l-6.9-17.6h-7.3L224.1,51.6z"/>
			</g>
			<g>
				<path class="st0" d="M259.6,53.8c-8.4,0-14.7-6.3-14.7-14.7s6.3-14.7,14.7-14.7c8.3,0,14.2,6.1,14.4,14.7V42h-19.1
					c0.8,2.3,2.5,3.7,4.7,3.7c2.4,0,4-0.8,5-2.7l0.3-0.5l8.9,1.8l-0.3,0.8C271.1,50.7,266.2,53.8,259.6,53.8z M259.7,25.8
					c-7.6,0-13.3,5.7-13.3,13.3s5.7,13.3,13.2,13.3c5.7,0,9.9-2.4,12.1-7l-6.1-1.2c-1.3,2-3.2,3-6,3c-3.2,0-5.6-2.2-6.4-5.7
					l-0.2-0.9h19.5v-1.4C272.5,31.3,267.1,25.8,259.7,25.8z M266,36.8h-12.8l0.3-0.9c0.8-2.8,3.4-4.7,6.3-4.7c3,0,5.2,1.8,6,4.7
					L266,36.8z M255.2,35.4h8.8c-0.8-1.7-2.3-2.7-4.3-2.7C258,32.7,256.1,33.5,255.2,35.4z"/>
			</g>
			<g>
				<path class="st0" d="M113.9,46.7c-4.6,0-7.3-3.8-7.3-7.6c0-4.7,3.7-7.6,7.3-7.6c3.5,0,7.1,2.8,7.1,7.6S117.4,46.7,113.9,46.7z
					 M113.9,33c-3.6,0-5.8,3.1-5.8,6.1c0,4,3,6.1,5.8,6.1c2.8,0,5.6-2.3,5.6-6.1S116.7,33,113.9,33z"/>
			</g>
		</g>
	</g>
	<g>
		<path class="st0" d="M180.4,8.4c-1.3,0-2.5,0.8-3,2l-5.5-1.1V2.4c0-0.6-0.4-0.7-1.1-0.8L163,0v51.6h-7v-3l-1.2,1.1
			c-2,1.8-4.6,2.7-7.7,2.7c-6.9,0-12.2-5.7-12.2-13.3c0-7.1,4.6-12.5,10.8-13.2c0.3,1.5,1.6,2.5,3.1,2.5c1.8,0,3.2-1.4,3.2-3.2
			c0-1.8-1.4-3.2-3.2-3.2c-1.5,0-2.7,1-3.1,2.4c-7.1,0.7-12.3,6.8-12.3,14.7c0,8.4,5.9,14.7,13.6,14.7c2.9,0,5.4-0.7,7.5-2.1v1.3
			h9.9V1.8l3,0.6c0,0,2,0.4,3,0.6v7.5l6.8,1.4c0.1,1.7,1.5,3,3.2,3c1.8,0,3.2-1.4,3.2-3.2C183.6,9.9,182.2,8.4,180.4,8.4z
			 M148.9,23.5c1,0,1.7,0.8,1.7,1.7s-0.8,1.7-1.7,1.7s-1.7-0.8-1.7-1.7S147.9,23.5,148.9,23.5z M180.4,13.4c-1,0-1.7-0.8-1.7-1.7
			s0.8-1.7,1.7-1.7s1.7,0.8,1.7,1.7S181.4,13.4,180.4,13.4z"/>
		<g>
			<path class="st0" d="M148.8,46.7c-4.2,0-7.1-3.1-7.1-7.6c0-4.4,3-7.6,7.1-7.6c4,0,7.2,3.3,7.2,7.6S152.9,46.7,148.8,46.7z
				 M148.8,33c-3.3,0-5.6,2.5-5.6,6.1c0,3.7,2.3,6.1,5.6,6.1c2.8,0,5.8-2.1,5.8-6.1C154.6,35.3,151.6,33,148.8,33z"/>
		</g>
	</g>
</g>
</svg>
