<?xml version="1.0" encoding="utf-8"?>
<!-- Generator: Adobe Illustrator 27.5.0, SVG Export Plug-In . SVG Version: 6.00 Build 0)  -->
<svg version="1.1" id="Ebene_1" xmlns="http://www.w3.org/2000/svg" xmlns:xlink="http://www.w3.org/1999/xlink" x="0px" y="0px"
	 viewBox="0 0 1366 204.5" style="enable-background:new 0 0 1366 204.5;" xml:space="preserve">
<style type="text/css">
	.st0{fill:#00FF86;}
</style>
<path d="M931.4,94.3h11.1V61.3H959v82.2h-16.5v-34.1h-11.1"/>
<path d="M694.8,61.7h-16.3l6.4,17.8l9.1,24.5l-32-0.1l-15.8,40.6h17.4l9.5-25.8h26.3l2.5,6.7l7.1,18.9h17.8L694.8,61.7z"/>
<path d="M906.7,60.8h-16.9v82.9h16.9V60.8z"/>
<path d="M437.9,143.1v-81h51.8v14.8h-35.9v18.7h32.4v14.1h-32.4v18.7h35.7v14.9L437.9,143.1z"/>
<path d="M581.5,77.1v66h-16.2v-66h-26.1v-15h68.3v15H581.5z"/>
<path d="M1003.7,62.1h18.9l18.6,32.1l18.6-32.1h18l-29.2,46.9v34h-16v-34L1003.7,62.1z"/>
<path d="M1229.3,143.1v-81h16.3v81H1229.3z"/>
<path d="M831.2,77.2c-1.2-3-3.1-5.7-5.5-8c-2.5-2.3-5.4-4.1-8.6-5.3c-3.5-1.3-7.3-1.9-11.1-1.8H775v81h16.1v-30.5V99V75.8h12.7
	c3.5-0.2,6.9,0.9,9.5,3.1c1.2,1.1,2.1,2.4,2.8,3.9c0.6,1.5,0.9,3.1,0.8,4.7c0,1.6-0.2,3.1-0.9,4.6c-0.6,1.4-1.6,2.7-2.7,3.8
	c-1.8,1.6-4.2,2.7-6.6,3v13.7c3.5,0,6.9-0.6,10.2-1.8c3.2-1.2,6.1-2.9,8.6-5.2c2.4-2.2,4.3-5,5.5-8c1.3-3.2,2-6.7,1.9-10.1
	C833.1,83.9,832.5,80.4,831.2,77.2z"/>
<path d="M1332.4,129.3c-1.2,0.1-2.4,0.2-3.6,0.2c-3.2,0-6.4-0.6-9.5-1.7c-3-1.1-5.7-2.9-8-5.1c-2.4-2.3-4.3-5.1-5.6-8.2
	c-1.5-3.6-2.2-7.4-2.1-11.3c-0.1-4,0.7-8,2.2-11.8c1.3-3.1,3.2-6,5.7-8.3c2.3-2.1,5.1-3.8,8.1-4.9c2.9-1.1,5.9-1.6,9-1.6
	c3.1-0.1,6.3,0.4,9.2,1.4c2.4,0.9,4.6,2.1,6.6,3.7c1.8,1.4,3.2,3.2,4.3,5.1c1,1.8,1.8,3.7,2.3,5.7l15-4.6c-0.9-3.4-2.3-6.6-4.1-9.5
	c-1.9-3.2-4.3-6.1-7.2-8.5c-3.3-2.7-7.1-4.8-11.1-6.2c-4.8-1.6-9.8-2.4-14.9-2.3c-5.4,0-10.7,1-15.6,2.9c-5,1.9-9.6,4.8-13.4,8.5
	c-3.8,3.7-6.9,8.1-9,12.9c-2.3,5.5-3.5,11.3-3.4,17.3c-0.1,5.9,1,11.7,3.3,17.2c2,4.8,5,9.2,8.9,12.9c3.8,3.7,8.4,6.5,13.4,8.4
	c5.1,2,10.6,2.9,16.1,2.9c2.3,0,4.5-0.2,6.8-0.5L1332.4,129.3z"/>
<path d="M363.3,125.6h15.9V62.1h-21.9l-24.3,58.5l-24.9-58.5h-21.2v81h15.4V86.7l23.8,56.3h13.4l23.8-56.8V125.6z"/>
<path d="M1174.4,111.7c-1-2.6-2.5-5-4.4-7c-2.1-2.2-4.5-4-7.2-5.4c-3.1-1.6-6.5-2.7-9.9-3.3l-11.5-2.2c-2.6-0.4-5-1.6-6.8-3.5
	c-1.5-1.5-2.3-3.5-2.3-5.6c0-1.4,0.3-2.7,0.9-3.9c0.6-1.2,1.5-2.3,2.6-3.2c1.2-1,2.6-1.8,4.1-2.3c1.7-0.5,3.6-0.8,5.4-0.7
	c2.3-0.1,4.6,0.3,6.7,1.1c1.7,0.7,3.2,1.6,4.5,2.9c1.1,1.1,2,2.3,2.6,3.7c0.5,1.1,1,2.3,1.3,3.5l14.4-4.3c-0.6-2.4-1.4-4.8-2.6-7
	c-1.3-2.6-3.2-4.9-5.4-6.9c-2.6-2.2-5.6-3.9-8.8-5c-4.1-1.4-8.4-2.1-12.8-2c-3.8,0-7.5,0.6-11.1,1.9c-3.4,1.2-6.5,3.1-9.2,5.4
	c-2.6,2.2-4.7,5-6.2,8c-1.5,3.1-2.3,6.5-2.3,10c-0.1,2.8,0.4,5.6,1.4,8.2c1,2.6,2.5,5,4.5,7c4.3,4.2,9.8,7,15.8,8l11.5,2.3
	c2.8,0.4,5.4,1.6,7.5,3.5c0.8,0.8,1.5,1.7,1.9,2.8c0.4,1,0.7,2.2,0.6,3.3c0,1.4-0.3,2.7-1,3.9c-0.6,1.2-1.5,2.3-2.6,3.1
	c-2.9,2-6.4,3-10,2.8c-0.9,0-1.7,0-2.6,0v14.1h2.4c4.4,0.1,8.7-0.6,12.8-2.1c3.5-1.3,6.7-3.2,9.5-5.6c2.5-2.2,4.5-5,5.8-8
	c1.3-2.9,2-6,2-9.2C1175.9,117,1175.4,114.2,1174.4,111.7z"/>
<path class="st0" d="M204.5,147.7c0,2.8-0.4,5.5-1.2,8h-42.1V45.6c3.4-1.6,6.5-3.8,9.1-6.6l28.3-28.7c3.7,4.7,5.9,10.7,5.9,17.1
	V147.7z"/>
<path class="st0" d="M34.2,165.5L5.9,194.2C2.2,189.5,0,183.6,0,177.1V57c0-2.8,0.4-5.5,1.2-8.1h42.1v110.1
	C39.9,160.6,36.9,162.8,34.2,165.5z"/>
<path class="st0" d="M59.3,0c-6.7,0-13.2,2.5-18.2,7.1l-32,29.5c-2,1.8-3.6,3.9-5,6.1h143c7.2,0,14.1-2.9,19.1-8L194.6,6
	c-4.6-3.8-10.5-6-16.9-6H59.3z"/>
<path class="st0" d="M145.2,204.5c6.7,0,13.2-2.5,18.2-7.1l32-29.5c2-1.8,3.6-3.9,5-6.1h-143c-7.2,0-14.1,2.9-19.1,8L9.9,198.5
	c4.6,3.8,10.5,6,16.9,6H145.2z"/>
</svg>
