<?xml version="1.0" encoding="utf-8"?>
<!-- Generator: Adobe Illustrator 27.5.0, SVG Export Plug-In . SVG Version: 6.00 Build 0)  -->
<svg version="1.1" id="Ebene_1" xmlns="http://www.w3.org/2000/svg" xmlns:xlink="http://www.w3.org/1999/xlink" x="0px" y="0px"
	 viewBox="0 0 311 72" style="enable-background:new 0 0 311 72;" xml:space="preserve">
<style type="text/css">
	.st0{fill:#FFCE00;}
</style>
<path d="M124.8,37.7c0.4,0.7,0.7,1.4,1.1,2.2c0.3,0.8,0.7,1.5,1,2.3c0.3-0.8,0.7-1.6,1-2.3c0.4-0.8,0.7-1.5,1.1-2.2l10.4-20.2
	c0.2-0.3,0.4-0.6,0.6-0.8c0.2-0.2,0.4-0.3,0.7-0.4c0.2-0.1,0.5-0.1,0.8-0.2c0.3,0,0.7,0,1.1,0h5.2c1.1,0,2,0.9,2,2v36
	c0,1.1-0.9,2-2,2h-4.3c-1.1,0-2-0.9-2-2V33c0-1.1,0.1-2.3,0.2-3.6l-10.8,20.6c-0.3,0.6-0.8,1.1-1.4,1.5c-0.6,0.3-1.2,0.5-1.9,0.5
	h-1.3c-0.7,0-1.4-0.2-1.9-0.5c-0.6-0.3-1-0.8-1.4-1.5l-10.8-20.6c0.1,0.6,0.1,1.3,0.2,1.9c0,0.6,0.1,1.2,0.1,1.7v21c0,1.1-0.9,2-2,2
	H106c-1.1,0-2-0.9-2-2V18c0-1.1,0.9-2,2-2h5.2c0.4,0,0.8,0,1.1,0c0.3,0,0.6,0.1,0.8,0.2c0.2,0.1,0.5,0.2,0.7,0.4
	c0.2,0.2,0.4,0.5,0.6,0.8L124.8,37.7z"/>
<path d="M171.8,48.3c1.2,0,2.3-0.2,3.3-0.6c1-0.4,1.8-1,2.5-1.8c0.7-0.8,1.2-1.7,1.5-2.8c0.4-1.1,0.5-2.3,0.5-3.7V18
	c0-1.1,0.9-2,2-2h5.2c1.1,0,2,0.9,2,2v21.4c0,2.4-0.4,4.7-1.2,6.7c-0.8,2-1.9,3.8-3.4,5.2c-1.5,1.5-3.2,2.6-5.3,3.4
	c-2.1,0.8-4.5,1.2-7.1,1.2c-2.6,0-5-0.4-7.1-1.2c-2.1-0.8-3.9-2-5.3-3.4c-1.5-1.5-2.6-3.2-3.4-5.2c-0.8-2-1.2-4.3-1.2-6.7V18
	c0-1.1,0.9-2,2-2h5.2c1.1,0,2,0.9,2,2v21.4c0,1.4,0.2,2.6,0.5,3.7c0.4,1.1,0.9,2,1.5,2.8s1.5,1.4,2.5,1.8
	C169.5,48.1,170.6,48.3,171.8,48.3z"/>
<path d="M204.6,41.2V54c0,1.1-0.9,2-2,2h-5.3c-1.1,0-2-0.9-2-2V18c0-1.1,0.9-2,2-2h11c2.9,0,5.3,0.3,7.4,0.9c2,0.6,3.7,1.4,5,2.5
	c1.3,1.1,2.2,2.3,2.8,3.8c0.6,1.4,0.9,3,0.9,4.7c0,1.3-0.2,2.5-0.5,3.7c-0.3,1.2-0.9,2.2-1.5,3.2c-0.7,1-1.5,1.9-2.5,2.6
	c-0.7,0.5-1.4,1-2.2,1.4c0,0,1.5,2.7,1.9,3.4l6.6,10.9c0.6,0.9,0.3,2.2-0.7,2.7c-0.3,0.2-0.7,0.3-1,0.3h-4.8c-1.6,0-2.7-0.6-3.3-1.8
	l-6.6-11.6c-0.3-0.5-0.6-0.9-1-1.1c-0.4-0.2-0.9-0.3-1.7-0.3H204.6z M204.6,34.8h3.7c1.3,0,2.3-0.2,3.2-0.5c0.9-0.3,1.6-0.8,2.2-1.3
	c0.6-0.6,1-1.2,1.2-2c0.3-0.8,0.4-1.6,0.4-2.5c0-1.8-0.6-3.1-1.7-4.1c-1.1-1-2.9-1.5-5.3-1.5h-3.7V34.8z"/>
<path d="M257.2,18v3.1c0,1.1-0.9,2-2,2h-14.4v10.1h11.6c1.1,0,2,0.9,2,2v3.2c0,1.1-0.9,2-2,2h-11.6V54c0,1.1-0.9,2-2,2h-5.3
	c-1.1,0-2-0.9-2-2V18c0-1.1,0.9-2,2-2h21.7C256.3,16,257.2,16.9,257.2,18z"/>
<path d="M299.7,54.6c0.3,0.7-0.2,1.4-0.9,1.4h-0.7c-0.3,0-0.5-0.1-0.6-0.2c-0.2-0.1-0.3-0.3-0.4-0.6l-4.7-11.5h-19.5l-4.6,11.5
	c-0.1,0.2-0.2,0.4-0.4,0.5c-0.2,0.1-0.4,0.2-0.7,0.2h-0.7c-0.7,0-1.2-0.7-0.9-1.4l15.1-37c0.3-0.8,1-1.2,1.9-1.2h0.2
	c0.8,0,1.5,0.5,1.9,1.2L299.7,54.6z M273.8,41.6h17.8l-8.1-20c-0.1-0.3-0.3-0.7-0.4-1.1c-0.1-0.4-0.3-0.8-0.4-1.3
	c-0.1,0.4-0.3,0.9-0.4,1.3c-0.1,0.4-0.3,0.8-0.4,1.1L273.8,41.6z"/>
<path d="M310.5,55c0,0.6-0.4,1-1,1h-0.9c-0.6,0-1-0.4-1-1V17.4c0-0.6,0.4-1,1-1h0.9c0.6,0,1,0.4,1,1V55z"/>
<path d="M255,53.6c0-0.3,0.1-0.7,0.2-1c0.1-0.3,0.3-0.6,0.5-0.8c0.2-0.2,0.5-0.4,0.8-0.5c0.3-0.1,0.6-0.2,1-0.2c0.3,0,0.7,0.1,1,0.2
	c0.3,0.1,0.6,0.3,0.8,0.5c0.2,0.2,0.4,0.5,0.6,0.8c0.1,0.3,0.2,0.6,0.2,1c0,0.4-0.1,0.7-0.2,1c-0.1,0.3-0.3,0.6-0.6,0.8
	c-0.2,0.2-0.5,0.4-0.8,0.5c-0.3,0.1-0.6,0.2-1,0.2c-0.7,0-1.3-0.2-1.8-0.7C255.2,54.9,255,54.3,255,53.6z"/>
<path class="st0" d="M52,8c0-4.4,3.6-8,8-8h4c4.4,0,8,3.6,8,8v56c0,4.4-3.6,8-8,8h-4c-4.4,0-8-3.6-8-8V8z"/>
<path class="st0" d="M26,26c0-4.4,3.6-8,8-8h4c4.4,0,8,3.6,8,8v20c0,4.4-3.6,8-8,8h-4c-4.4,0-8-3.6-8-8V26z"/>
<path class="st0" d="M0,8c0-4.4,3.6-8,8-8h4c4.4,0,8,3.6,8,8v56c0,4.4-3.6,8-8,8H8c-4.4,0-8-3.6-8-8V8z"/>
</svg>
