<svg width="130" height="34" viewBox="0 0 130 34" fill="none" xmlns="http://www.w3.org/2000/svg">
<path fill-rule="evenodd" clip-rule="evenodd" d="M99.2206 19.6995C97.6712 19.6995 96.4105 18.4389 96.4105 16.8895C96.4105 15.34 97.6712 14.0794 99.2206 14.0794C99.5856 14.0794 99.9457 14.1509 100.281 14.2881C100.399 14.3364 100.528 14.2518 100.528 14.1244V11.4306C100.528 11.3461 100.469 11.2715 100.386 11.2542C99.9922 11.1714 99.6009 11.1294 99.2206 11.1294C96.0447 11.1294 93.4606 13.7135 93.4606 16.8895C93.4606 20.0656 96.0447 22.6495 99.2206 22.6495C100.156 22.6495 101.081 22.417 101.912 21.9746C102.003 21.9263 102.032 21.8089 101.977 21.7217L100.59 19.5159C100.542 19.4387 100.444 19.4127 100.361 19.4503C99.9991 19.6138 99.6094 19.6995 99.2206 19.6995ZM105.799 17.9409C105.799 18.9373 106.607 19.745 107.603 19.745H107.831C108.827 19.745 109.635 18.9373 109.635 17.9409V11.5657C109.635 11.4668 109.715 11.3869 109.814 11.3869H112.48C112.578 11.3869 112.658 11.4668 112.658 11.5657V17.7828C112.658 20.5573 110.36 22.8051 107.567 22.7223C104.88 22.6425 102.775 20.3667 102.775 17.6778V11.5658C102.775 11.467 102.855 11.3871 102.954 11.3871H105.62C105.719 11.3871 105.799 11.467 105.799 11.5658V17.9409ZM117.88 17.1283H119.773C120.67 17.1283 121.4 16.3987 121.4 15.5018C121.4 14.6048 120.67 13.8753 119.773 13.8753H117.88V17.1283ZM114.979 11.4042H120.325C122.544 11.4042 124.437 13.1262 124.521 15.3435C124.609 17.6747 122.738 19.5995 120.426 19.5995H117.861V22.3219C117.861 22.4207 117.781 22.5007 117.682 22.5007L114.979 22.5005C114.88 22.5005 114.801 22.4205 114.801 22.3217L114.8 11.5829C114.8 11.4841 114.88 11.4042 114.979 11.4042ZM85.3552 17.1164H87.2483C88.1452 17.1164 88.8746 16.3868 88.8746 15.49C88.8746 14.5931 88.1452 13.8635 87.2483 13.8635H85.3552V17.1164ZM90.0542 19.0183L90.1276 19.1464C90.825 20.3647 91.2737 21.17 91.6049 21.7648L91.7014 21.938C91.7533 22.0313 91.8018 22.1183 91.8474 22.1999C91.9143 22.3191 91.8278 22.4653 91.6912 22.4653L88.541 22.4648C88.476 22.4648 88.4159 22.4294 88.3844 22.3721L86.8549 19.5877H85.3358L85.3356 22.3102C85.3356 22.4088 85.2561 22.4889 85.1574 22.4889C84.5237 22.4892 83.7591 22.489 83.0852 22.4888H83.0824H83.0802H83.0783H83.0768H83.0756H83.0746L82.454 22.4886C82.3551 22.4886 82.2756 22.4094 82.2756 22.3107C82.2752 20.4795 82.2752 16.4606 82.2752 13.7722V11.5711C82.2752 11.4722 82.3551 11.3923 82.454 11.3923H87.6986C89.6559 11.3923 91.4158 12.6938 91.8792 14.5955C92.2971 16.3103 91.5898 18.016 90.1777 18.9376L90.0542 19.0183ZM75.1751 18.1877H79.1555V15.7166H75.1744L75.1742 13.9973L79.9947 13.998C80.0933 13.998 80.1734 13.9181 80.1734 13.8194V11.5831C80.1734 11.4844 80.0933 11.4043 79.9947 11.4043L72.268 11.4041C72.1694 11.4041 72.0894 11.484 72.0894 11.5829V22.3215C72.0894 22.4203 72.1694 22.5002 72.268 22.5002L79.9947 22.5C80.0933 22.5 80.1734 22.4201 80.1734 22.3213V20.0849C80.1734 19.9863 80.0933 19.9061 79.9947 19.9061H75.1755L75.1751 18.1877ZM63.8189 17.1283H65.7117C66.6086 17.1283 67.338 16.3987 67.338 15.5018C67.338 14.6048 66.6086 13.8753 65.7117 13.8753H63.8189V17.1283ZM60.9174 11.4042H66.2638C68.4827 11.4042 70.3752 13.1262 70.459 15.3435C70.5471 17.6747 68.6764 19.5995 66.3645 19.5995H63.7993V22.3219C63.7993 22.4207 63.7191 22.5007 63.6205 22.5007L60.9178 22.5005C60.8189 22.5005 60.7392 22.4205 60.7392 22.3217L60.7388 11.5829C60.7388 11.4841 60.8188 11.4042 60.9174 11.4042ZM42.2598 17.1283H40.367V13.8753H42.2598C43.1567 13.8753 43.8861 14.6048 43.8861 15.5018C43.8861 16.3987 43.1567 17.1283 42.2598 17.1283ZM42.8119 11.4042H37.4655C37.3667 11.4042 37.2867 11.4841 37.2867 11.5829L37.2871 22.3217C37.2871 22.4205 37.367 22.5005 37.4659 22.5005L40.1686 22.5007C40.2672 22.5007 40.3474 22.4207 40.3474 22.3219V19.5995H42.9126C45.2243 19.5995 47.0953 17.6747 47.0072 15.3437C46.9233 13.1262 45.031 11.4042 42.8119 11.4042ZM51.7784 16.0605V17.1155H55.6146V16.0604C55.6146 15.0029 54.7542 14.1423 53.6965 14.1423C52.639 14.1423 51.7784 15.0029 51.7784 16.0605ZM48.7549 16.2095C48.7549 13.5208 50.8592 11.245 53.5468 11.165C56.3395 11.082 58.6381 13.3298 58.6381 16.1045V22.3215C58.6381 22.4201 58.558 22.5002 58.4594 22.5002L55.7934 22.5004C55.6945 22.5004 55.6146 22.4203 55.6146 22.3217V19.5866H51.7784V22.3218C51.7784 22.4205 51.6983 22.5006 51.5995 22.5006H48.9338C48.8352 22.5006 48.7549 22.4205 48.7549 22.3218V16.2095ZM128.255 20.748H127.969V20.252H128.255C128.392 20.252 128.503 20.3632 128.503 20.5C128.503 20.6368 128.392 20.748 128.255 20.748ZM128.639 21.0021L128.668 20.983C128.828 20.8788 128.924 20.7031 128.924 20.5129V20.4871C128.924 20.1777 128.672 19.9259 128.362 19.9259H127.555C127.555 20.1641 127.555 21.1378 127.556 21.4906H127.966V21.0741H128.207L128.434 21.4872L128.913 21.4874C128.9 21.4639 128.885 21.4376 128.868 21.4065L128.855 21.3842L128.855 21.3834C128.809 21.3018 128.747 21.1911 128.656 21.0323L128.639 21.0021ZM128.189 22.1555C128.591 22.1555 128.934 22.0202 129.207 21.7531C129.482 21.4863 129.62 21.1491 129.62 20.7512C129.62 20.3494 129.483 20.0102 129.211 19.7428C128.939 19.4759 128.596 19.3405 128.189 19.3405C127.783 19.3405 127.439 19.4759 127.167 19.7428C126.895 20.0096 126.758 20.349 126.758 20.7512C126.758 21.1491 126.897 21.4863 127.171 21.7531C127.445 22.0202 127.787 22.1555 128.189 22.1555ZM128.189 18.9955C128.694 18.9955 129.127 19.1665 129.476 19.5038C129.824 19.8405 130 20.2601 130 20.7512C130 21.2377 129.824 21.6552 129.476 21.9924C129.127 22.3297 128.694 22.5007 128.189 22.5007C127.684 22.5007 127.251 22.3297 126.902 21.9924C126.555 21.6552 126.378 21.2377 126.378 20.7512C126.378 20.2601 126.555 19.8405 126.902 19.5038C127.251 19.1665 127.684 18.9955 128.189 18.9955Z" fill="#FF6320"/>
<path fill-rule="evenodd" clip-rule="evenodd" d="M4.46655 0.526001C3.96205 0.528544 3.45664 0.648084 2.99229 0.887345L2.21401 1.28829C1.85957 1.47087 1.83177 1.96702 2.1635 2.18793L18.7546 13.2323C19.0655 13.4394 19.0655 13.8957 18.7546 14.1025L12.8053 18.062C12.6596 18.1588 12.5722 18.322 12.5722 18.4969L12.5716 21.117C12.5716 21.5344 13.0365 21.7833 13.3839 21.5523L24.347 14.2549C24.7648 13.9769 24.7647 13.3636 24.3468 13.0858L6.28635 1.07083C5.74733 0.712214 5.12492 0.529089 4.49943 0.526001H4.46655Z" fill="#FF6320"/>
<path fill-rule="evenodd" clip-rule="evenodd" d="M25.5945 16.9972L12.8058 25.5089C12.6603 25.6057 12.5727 25.769 12.5727 25.9438L12.5722 28.562C12.5722 28.9793 13.0371 29.2284 13.3846 28.9973L24.9552 21.2939C25.862 20.6902 26.4066 19.6731 26.4066 18.5838V17.4323C26.4066 17.1249 26.1545 16.9088 25.8827 16.9088C25.7855 16.9088 25.6859 16.9364 25.5945 16.9972Z" fill="#FF6B00"/>
<path fill-rule="evenodd" clip-rule="evenodd" d="M6.28619 16.9246V32.7467C6.28619 33.164 6.75109 33.413 7.09863 33.1818L9.33336 31.6941C9.47888 31.5971 9.56627 31.4337 9.56627 31.259V18.4123C9.56627 18.2375 9.47888 18.0742 9.33336 17.9774L7.09863 16.4895C7.00706 16.4286 6.90751 16.4012 6.81032 16.401C6.53853 16.401 6.28619 16.6172 6.28619 16.9246Z" fill="#FF6320"/>
<path fill-rule="evenodd" clip-rule="evenodd" d="M0 5.63043V29.7949C0 30.8842 0.544832 31.9012 1.45155 32.5049L2.46891 33.1819C2.81608 33.4132 3.28098 33.1641 3.28098 32.7468V11.3525C3.28098 10.9352 3.74588 10.6863 4.09323 10.9174L10.8443 15.4105C11.0196 15.5271 11.248 15.5271 11.4233 15.4105L13.3883 14.1028C13.6991 13.8959 13.6991 13.4396 13.3884 13.2326L1.0913 5.04563C0.968489 4.96388 0.834779 4.92682 0.704339 4.92682C0.33918 4.92682 0 5.21731 0 5.63043Z" fill="#FF6B00"/>
</svg>
