<svg xmlns="http://www.w3.org/2000/svg" viewBox="0 0 521.4 95.4"><g data-name="Layer 2"><g data-name="Layer 1"><path fill="#0055bd" d="M467.07 0h54.33v35.83h-54.33z"/><path fill="#efc300" d="M467.07 17.91h54.33v17.91h-54.33z"/><path d="M389.88 24v.11a28.08 28.08 0 100 45.76v5.2h11.81V15.41zm-16.27 39.28a16.31 16.31 0 1116.27-17v1.35a16.29 16.29 0 01-16.27 15.65zm-31.36 11.78V58.08l-23.4 16.98h23.4zM419.5 2.54l-11.85 8.58v11.87l11.84-8.61.01-11.84zm-11.85 27.84l-.02 44.68h11.81l.05-53.29-11.84 8.61z" fill="#0068e5"/><path d="M152.52 18.9A28.08 28.08 0 10180.6 47a28.08 28.08 0 00-28.08-28.1zm0 44.38A16.31 16.31 0 11168.82 47a16.31 16.31 0 01-16.3 16.28zM90.42 18.9a28.08 28.08 0 1023.81 43L104 56a16.29 16.29 0 01-28.76-3.11h42.65a28.07 28.07 0 00-27.45-34zm0 11.77a16.3 16.3 0 0115.19 10.42H75.24q.24-.65.54-1.26a16.3 16.3 0 0114.64-9.16zM28.32 18.9a27.92 27.92 0 00-16.45 5.33L7.36 20.8a2.45 2.45 0 00-1.45-.48H.06L0 95.4h11.81V69.73A28.08 28.08 0 1028.32 18.9zm0 44.38A16.31 16.31 0 1144.62 47a16.3 16.3 0 01-16.3 16.28zM214.73 18.9a27.9 27.9 0 00-16.37 5.27l-4.47-3.37a2.43 2.43 0 00-1.45-.48h-5.85l-.06 75.08h11.82V69.82a28.08 28.08 0 1016.38-50.92zm0 44.38A16.31 16.31 0 11231 47a16.3 16.3 0 01-16.27 16.28zm107.36-10.4a28.15 28.15 0 10-4.35 10L308.21 56a16.28 16.28 0 01-28.75-3.12h30.38zm-27.45-22.21a16.3 16.3 0 0115.19 10.42h-30.37q.24-.65.54-1.26a16.3 16.3 0 0114.64-9.16zM248.78 2.54h11.82v72.52h-11.82z" fill="#00204e"/></g></g></svg>