<?xml version="1.0" encoding="utf-8"?>
<!-- Generator: Adobe Illustrator 23.0.3, SVG Export Plug-In . SVG Version: 6.00 Build 0)  -->
<svg version="1.1" id="Ebene_1" xmlns="http://www.w3.org/2000/svg" xmlns:xlink="http://www.w3.org/1999/xlink" x="0px" y="0px"
	 viewBox="0 0 99.7 37" style="enable-background:new 0 0 99.7 37;" xml:space="preserve">
<path id="Shape" d="M30.7,6.2c-1.2,0-2.3,1-2.3,2.2s1,2.3,2.2,2.3c1.2,0,2.3-1,2.3-2.2v0C32.9,7.3,31.9,6.2,30.7,6.2L30.7,6.2z
	 M18.2,5.9c-1.2-0.5-2.7-0.6-4.2-0.6H0l1.5,3.5h3.7v17.1c0,0.4-0.4,0.8-0.8,0.8H2.2v3.4h10.5v-3.4h-2.2c-0.4,0-0.8-0.4-0.8-0.8v-4.6
	h4.4c1.4,0,2.6-0.1,3.8-0.5c2.9-1,4.7-4,4.7-7.5C22.7,9.8,20.9,7.1,18.2,5.9L18.2,5.9z M16.1,17.1c-0.7,0.3-1.5,0.5-2.5,0.5H9.7V9
	h3.9c1.1,0,2,0.2,2.7,0.6c1.2,0.7,1.8,2,1.8,3.7C18.1,15.1,17.4,16.5,16.1,17.1L16.1,17.1z M98.1,26.8c-0.5,0-0.8-0.2-0.8-0.8v-7.1
	c0-4.5-2.5-7-7.3-7c-4.3,0-7,2.2-7,2.2s-2.1,1.5-2.1,1.5l3.1,1.9l0.6-0.3l0.1-0.1l1-0.6c0.9-0.5,2.4-1.1,4-1.1
	c1.8,0,3.3,0.8,3.3,3.1v0.6h-1.1c-2.9,0-10,0.6-10,6c0,3.6,2.9,5.4,5.9,5.4c2.4,0,4.5-1.3,5.6-3.4c0,0,0.1,1.1,0.1,1.1
	c0.1,1,0.5,1.9,2.1,1.9h4.2v-3.3L98.1,26.8L98.1,26.8z M92.8,23c0,2-0.7,2.9-1.8,3.5l0,0c-0.8,0.4-1.7,0.6-2.6,0.6
	c-0.9,0-1.7-0.2-2.2-0.6c-0.5-0.4-0.8-1.1-0.8-1.8c0-0.8,0.4-1.6,1.1-2.2c0.7-0.6,1.8-0.9,3.7-0.9h2.6V23L92.8,23z M49.7,11.9
	c-4.2,0-5.7,3-5.7,3l-0.1-1c-0.1-0.9-0.4-1.6-1.8-1.6h-6.3l1.5,3.3h2c0.4,0,0.8,0.4,0.8,0.8v16.6c0,0.4-0.4,0.8-0.8,0.8h-1.8V37h9.6
	v-3.3h-1.8c-0.4,0-0.8-0.4-0.8-0.8v-3.4c0-0.5,0-1-0.1-1.5h0.1c0,0,1.6,2.5,5.1,2.5c4.7,0,8.1-3.7,8.1-9.3
	C57.5,15.7,54.5,11.9,49.7,11.9L49.7,11.9z M48.6,26.8c-2.9,0-4.4-2.7-4.4-5.5c0-3.9,2.2-5.6,4.5-5.6c2.6,0,4.4,2.2,4.4,5.6
	C53.1,24.8,51,26.8,48.6,26.8L48.6,26.8L48.6,26.8z M71.7,11.9c-4.2,0-5.7,3-5.7,3l-0.1-1c0-0.9-0.4-1.6-1.8-1.6h-6.3l1.5,3.3h2
	c0.4,0,0.8,0.4,0.8,0.8v16.6c0,0.2-0.1,0.4-0.2,0.6c-0.1,0.1-0.3,0.2-0.6,0.2h-1.8V37H69v-3.3h-1.8c-0.4,0-0.8-0.4-0.8-0.8v-3.4
	c0-0.5,0-1-0.1-1.5h0.1c0,0,1.6,2.5,5.1,2.5c4.7,0,8.1-3.7,8.1-9.3C79.6,15.7,76.5,11.9,71.7,11.9L71.7,11.9z M70.7,26.8
	c-2.9,0-4.4-2.7-4.4-5.5c0-3.9,2.2-5.6,4.5-5.6c2.6,0,4.4,2.2,4.4,5.6C75.2,24.8,73.1,26.8,70.7,26.8L70.7,26.8L70.7,26.8z
	 M33.7,26.8c-0.4,0-0.8-0.4-0.8-0.8V13.1c0-0.4-0.4-0.8-0.8-0.8h-7.6l1.5,3.3h1.7c0.4,0,0.8,0.4,0.8,0.8V26c0,0.4-0.4,0.8-0.8,0.8
	h-1.8v3.3h9.6v-3.3H33.7L33.7,26.8z M30.7,0c-2.1,0-4.2,0.6-6,1.6l0.8,1.2c3.2-1.8,7.2-1.8,10.4,0l0.8-1.2C34.9,0.6,32.8,0,30.7,0
	L30.7,0z M30.7,2.8c-1.5,0-2.9,0.4-4.2,1.2l0.8,1.2C29.4,4,32,4,34.1,5.2L34.9,4C34.8,4,33,2.8,30.7,2.8L30.7,2.8z"/>
</svg>
