<svg width="98" height="48" fill="none" xmlns="http://www.w3.org/2000/svg"><g clip-path="url('#clip0')"><path d="M2.079 1.932a.414.414 0 0 0-.315.155.58.58 0 0 0-.13.372v26.739c0 .14.046.273.13.372a.414.414 0 0 0 .315.154h10.17c.55 0 1.079.26 1.468.72.39.46.609 1.085.61 1.737v7.263c0 .103.025.203.072.289a.473.473 0 0 0 .196.194c.08.04.167.053.253.036a.424.424 0 0 0 .228-.134l8.543-9.443c.385-.426.892-.663 1.42-.662h64.977a.414.414 0 0 0 .315-.154.58.58 0 0 0 .13-.372V2.458a.579.579 0 0 0-.13-.372.414.414 0 0 0-.315-.154H2.079Z" fill="#fff"/><path d="M13.341 7.832v7.334c0 .707-.238 1.386-.66 1.886-.424.5-.998.78-1.596.78h-2.82v8.201a.513.513 0 0 1-.116.33.367.367 0 0 1-.28.137H4.71a.367.367 0 0 1-.278-.137.513.513 0 0 1-.116-.33V5.631c0-.06.01-.122.03-.178a.48.48 0 0 1 .086-.152.398.398 0 0 1 .128-.1.343.343 0 0 1 .15-.036h6.376c.296 0 .59.069.863.203.274.134.523.33.732.578.21.247.376.541.49.865.113.324.171.67.171 1.02Zm-5.077 6.667h.564c.15 0 .293-.07.399-.195a.733.733 0 0 0 .165-.472V9.165a.773.773 0 0 0-.043-.255.686.686 0 0 0-.122-.216.568.568 0 0 0-.183-.145.49.49 0 0 0-.216-.05h-.564v6ZM21.012 5.164c.297 0 .59.069.864.203s.523.33.732.578c.21.247.376.541.49.865.113.323.171.67.171 1.02v16.002c0 .707-.238 1.386-.66 1.886-.424.5-.998.78-1.597.78H16.5c-.599 0-1.173-.28-1.596-.78-.423-.5-.66-1.179-.66-1.886V7.83c0-.707.237-1.385.66-1.885.423-.5.997-.781 1.596-.781h4.512Zm-1.692 4a.733.733 0 0 0-.165-.471.524.524 0 0 0-.399-.195c-.15 0-.293.07-.399.195a.733.733 0 0 0-.165.471V22.5c0 .177.06.346.165.471.106.125.25.196.4.196.149 0 .292-.07.398-.196a.733.733 0 0 0 .165-.471V9.164ZM33.172 23.832c0 .707-.238 1.386-.661 1.886-.424.5-.998.781-1.596.781H24.54a.367.367 0 0 1-.279-.137.513.513 0 0 1-.115-.33V5.63c0-.124.041-.242.115-.33a.367.367 0 0 1 .279-.136h6.375c.598 0 1.172.28 1.596.78.423.501.66 1.18.66 1.887v16Zm-5.078-.666h.564c.15 0 .294-.07.4-.196a.733.733 0 0 0 .165-.471V9.164a.775.775 0 0 0-.043-.255.687.687 0 0 0-.122-.216.569.569 0 0 0-.183-.145.49.49 0 0 0-.216-.05h-.565v14.668ZM34.048 23.832V7.83c0-.707.238-1.385.661-1.885.423-.5.997-.781 1.595-.781h4.513c.599 0 1.173.28 1.596.78.423.501.66 1.18.66 1.887v4.2c0 .061-.01.122-.03.179a.481.481 0 0 1-.085.151.396.396 0 0 1-.128.101.342.342 0 0 1-.15.036h-3.16a.342.342 0 0 1-.152-.036.396.396 0 0 1-.128-.101.48.48 0 0 1-.085-.151.542.542 0 0 1-.03-.179V9.192a.759.759 0 0 0-.156-.477.548.548 0 0 0-.39-.217.487.487 0 0 0-.222.044.563.563 0 0 0-.19.143.684.684 0 0 0-.126.22.774.774 0 0 0-.045.26V22.47a.76.76 0 0 0 .156.477c.102.13.242.207.392.217a.488.488 0 0 0 .22-.045.563.563 0 0 0 .19-.143.683.683 0 0 0 .126-.219.772.772 0 0 0 .045-.26v-2.867c0-.123.041-.242.115-.33a.367.367 0 0 1 .28-.136h3.16c.051 0 .102.012.15.036a.399.399 0 0 1 .129.1.48.48 0 0 1 .085.152.54.54 0 0 1 .03.178v4.201c0 .35-.058.697-.172 1.021-.113.324-.28.618-.489.865-.21.248-.458.444-.732.578a1.96 1.96 0 0 1-.863.203h-4.513a1.96 1.96 0 0 1-.864-.203 2.272 2.272 0 0 1-.732-.578 2.742 2.742 0 0 1-.49-.865 3.09 3.09 0 0 1-.171-1.02ZM49.349 23.166h-1.706l-.246 2.913a.5.5 0 0 1-.128.3.363.363 0 0 1-.265.12h-2.58a.345.345 0 0 1-.163-.041.406.406 0 0 1-.133-.116.494.494 0 0 1-.081-.172.55.55 0 0 1-.015-.195L46.19 5.573a.497.497 0 0 1 .13-.292.362.362 0 0 1 .262-.117h3.816c.096 0 .189.042.26.117a.497.497 0 0 1 .131.292l2.158 20.402a.547.547 0 0 1-.014.195.494.494 0 0 1-.082.171.407.407 0 0 1-.133.117.345.345 0 0 1-.163.041h-2.578a.363.363 0 0 1-.265-.121.502.502 0 0 1-.128-.3l-.235-2.912Zm-.322-4-.538-6.668-.537 6.667h1.075ZM57.828 11.499c-.006.622.197 1.22.564 1.666l3.949 4.668c.184.219.329.479.425.765.098.287.145.593.14.901v4.334c0 .708-.239 1.386-.662 1.886-.423.5-.997.781-1.595.781h-4.513a1.96 1.96 0 0 1-.864-.203 2.271 2.271 0 0 1-.732-.578 2.743 2.743 0 0 1-.49-.865 3.09 3.09 0 0 1-.17-1.02v-4.201c0-.124.04-.243.115-.33a.367.367 0 0 1 .279-.137h3.16c.104 0 .205.05.279.137a.513.513 0 0 1 .115.33v2.844a.76.76 0 0 0 .137.45c.09.127.216.21.354.234.08.012.16.005.237-.023a.547.547 0 0 0 .208-.137.67.67 0 0 0 .142-.226.771.771 0 0 0 .05-.275v-2.334c.006-.622-.197-1.221-.564-1.667l-3.949-4.667c-.366-.446-.568-1.045-.564-1.667V7.832c0-.35.059-.697.172-1.021a2.74 2.74 0 0 1 .489-.865c.21-.248.458-.444.732-.578a1.96 1.96 0 0 1 .863-.203h4.513c.599 0 1.173.28 1.596.781.423.5.661 1.179.661 1.886v4.2a.513.513 0 0 1-.116.33.367.367 0 0 1-.279.136h-3.16a.367.367 0 0 1-.278-.136.513.513 0 0 1-.116-.33V9.193a.76.76 0 0 0-.155-.477.548.548 0 0 0-.392-.217.487.487 0 0 0-.22.044.563.563 0 0 0-.19.143.682.682 0 0 0-.127.22.772.772 0 0 0-.044.26v2.333ZM72.833 5.631v2.4a.513.513 0 0 1-.115.33.367.367 0 0 1-.28.137h-2.144v17.535a.54.54 0 0 1-.03.179.48.48 0 0 1-.085.151.397.397 0 0 1-.128.101.341.341 0 0 1-.151.036h-3.16a.343.343 0 0 1-.15-.036.398.398 0 0 1-.129-.1.48.48 0 0 1-.085-.152.542.542 0 0 1-.03-.179V8.498h-2.144a.367.367 0 0 1-.28-.137.513.513 0 0 1-.115-.33v-2.4a.54.54 0 0 1 .03-.179.482.482 0 0 1 .086-.151.398.398 0 0 1 .128-.101.342.342 0 0 1 .15-.036h8.237c.052 0 .104.012.151.036a.398.398 0 0 1 .129.101.479.479 0 0 1 .085.151c.02.057.03.118.03.18ZM79.802 26.478h-5.698a.367.367 0 0 1-.279-.137.513.513 0 0 1-.115-.33V5.61c0-.062.01-.122.03-.179a.479.479 0 0 1 .085-.151.397.397 0 0 1 .128-.101.343.343 0 0 1 .151-.036h3.16c.104 0 .205.05.279.137a.513.513 0 0 1 .115.33v17.535h2.144c.052 0 .103.012.151.036a.398.398 0 0 1 .128.1.48.48 0 0 1 .086.152c.02.057.03.117.03.178v2.401c0 .061-.01.122-.03.179a.482.482 0 0 1-.086.151.399.399 0 0 1-.128.101.343.343 0 0 1-.15.036ZM81.48 5.164h5.98c.104 0 .204.049.278.136a.513.513 0 0 1 .116.33V8.03c0 .061-.01.122-.03.178a.48.48 0 0 1-.086.152.398.398 0 0 1-.128.1.342.342 0 0 1-.15.036h-2.427v5.334h2.426c.105 0 .205.05.28.137a.512.512 0 0 1 .115.33v3.068a.512.512 0 0 1-.116.33.367.367 0 0 1-.279.136h-2.426v5.334h2.426c.105 0 .205.049.279.136a.513.513 0 0 1 .115.33v2.4a.54.54 0 0 1-.03.18.48.48 0 0 1-.085.15.398.398 0 0 1-.128.102.343.343 0 0 1-.151.035h-5.98a.367.367 0 0 1-.28-.136.513.513 0 0 1-.115-.33V5.63c0-.06.01-.122.03-.178a.48.48 0 0 1 .085-.152.397.397 0 0 1 .129-.101.342.342 0 0 1 .151-.035Z" fill="#000"/><path d="M96.61 6.778 91.492.731l-.017-.02-.012-.013C91.077.252 90.557 0 90.016 0H2.078C1.528.001 1 .26.61.72.22 1.182.001 1.807 0 2.458v26.74c0 .368.07.731.206 1.063.135.332.332.623.575.853l4.83 5.707c.194.29.44.523.722.684.282.161.59.245.903.245h5.457v1.694c-.002.341.057.68.173.992.116.313.287.593.5.823l4.997 5.904c.198.263.441.473.713.617.271.144.565.22.863.222.524-.002 1.029-.24 1.41-.668l8.543-9.442a.41.41 0 0 1 .304-.142h64.977c.552-.001 1.08-.26 1.47-.72.39-.461.608-1.086.609-1.737V8.552c0-.331-.057-.66-.167-.965a2.499 2.499 0 0 0-.476-.809ZM12.247 29.722H2.078a.414.414 0 0 1-.314-.154.579.579 0 0 1-.13-.372V2.456c0-.14.046-.273.13-.371a.414.414 0 0 1 .314-.155h87.938c.118 0 .231.056.314.155.084.098.13.232.13.371v26.74c0 .14-.046.273-.13.372a.414.414 0 0 1-.314.154H25.039c-.528-.001-1.035.236-1.42.662l-8.543 9.443a.423.423 0 0 1-.229.134.383.383 0 0 1-.253-.036.474.474 0 0 1-.195-.194.596.596 0 0 1-.073-.289v-7.264c0-.651-.22-1.275-.61-1.736-.389-.46-.917-.72-1.468-.72Z" fill="#000"/></g><defs><clipPath id="clip0"><path fill="#fff" d="M0 0h97.252v48H0z"/></clipPath></defs></svg>