<svg xmlns="http://www.w3.org/2000/svg" width="168" height="88" viewBox="0 0 168 88"><title>qloo</title><g id="Ebene_2" data-name="Ebene 2"><g id="Ebene_1-2" data-name="Ebene 1"><path d="M111.8,32.3A28.82,28.82,0,0,0,109.4,44a30.19,30.19,0,0,0,2.4,11.7,11.93,11.93,0,0,0,0-23.4Zm-57.3,45L48.7,66a29.34,29.34,0,1,0-19.4,7.3,25.89,25.89,0,0,0,6.3-.7L41.4,84a7.43,7.43,0,0,0,6.5,4,7.64,7.64,0,0,0,3.3-.8A7.33,7.33,0,0,0,54.5,77.3ZM14.7,44A14.65,14.65,0,1,1,29.3,58.7,14.72,14.72,0,0,1,14.7,44ZM69.3,73.3A7.34,7.34,0,0,1,62,66V7.3a7.3,7.3,0,1,1,14.6,0V66A7.21,7.21,0,0,1,69.3,73.3Z"/><path d="M138.7,14.7A29.34,29.34,0,0,0,124,18.6a29.3,29.3,0,1,0,0,50.8,29.32,29.32,0,1,0,14.7-54.7Zm-29.4,44A14.7,14.7,0,1,1,124,44,14.72,14.72,0,0,1,109.3,58.7Zm29.4,0a15,15,0,0,1-3.7-.5A29.72,29.72,0,0,0,138.7,44,28.63,28.63,0,0,0,135,29.8a15,15,0,0,1,3.7-.5,14.7,14.7,0,1,1,0,29.4Z"/></g></g></svg>