<svg width="1200" height="218" viewBox="0 0 1200 218" fill="none" xmlns="http://www.w3.org/2000/svg"><path d="M577.393 56.869c-15.305 0-28.926 5.055-40.3 21.484h-.561V60.66h-36.509v136.204h38.194v-77.369c0-18.535 9.548-31.735 24.853-31.735 11.936 0 20.361 6.6 20.361 26.258v82.986h38.193V104.47c0-26.398-11.374-47.601-44.231-47.601zm-97.59 139.995V100.96c0-31.313-28.083-43.95-61.783-43.95-47.741 0-62.485 26.819-63.889 47.741h36.508c.842-12.217 10.11-20.08 25.696-20.08 16.71 0 26.82 8.004 26.82 24.152v6.319l-35.245 2.106c-53.218 3.229-57.992 27.241-57.992 41.844 0 31.032 26.258 41.563 47.742 41.563 15.867 0 33.981-4.774 46.618-21.483h.562v17.692h34.963zm-36.508-46.899c0 16.429-19.377 23.028-31.313 23.028-12.778 0-23.871-3.651-23.871-15.867 0-9.829 5.898-15.165 23.31-16.709l31.734-2.949.14 12.497zm591.575-53.218c0-8.284 10.11-12.216 20.08-12.216 14.6 0 22.75 6.88 23.31 18.254l38.19-.843c-2.1-29.627-25.13-45.073-60.1-45.073-40.3 0-56.443 22.747-56.443 43.669 0 56.167 81.583 35.526 81.583 58.273 0 11.093-12.78 14.042-22.47 14.042-11.37 0-23.03-5.336-23.59-18.535h-38.191c3.231 40.299 41.281 46.057 60.381 46.057 56.16 0 62.06-34.964 62.06-45.636 0-54.903-84.81-33.7-84.81-57.992zm-49.146 100.117V100.96c0-31.313-28.083-43.95-61.783-43.95-47.742 0-62.485 26.819-63.889 47.741h36.508c.842-12.217 10.11-20.08 25.696-20.08 16.71 0 26.82 8.004 26.82 24.152v6.319l-35.245 2.106c-53.218 3.229-57.992 27.241-57.992 41.844 0 31.032 26.258 41.563 47.742 41.563 15.867 0 33.981-4.774 46.618-21.483h.562v17.692h34.963zm-36.508-46.899c0 16.429-19.377 23.028-31.313 23.028-12.778 0-23.871-3.651-23.871-15.867 0-9.829 5.898-15.165 23.309-16.709l31.735-2.949v12.497h.14zm-138.451-.983c-2.387 12.497-9.829 20.782-23.87 20.782-19.94 0-26.258-20.08-26.258-38.194 0-17.552 2.948-42.405 26.538-42.405 9.829 0 20.642 4.212 21.905 22.045h37.211l2.527-.141c-1.825-28.925-21.203-54.34-61.783-54.34-41.283 0-66.277 29.487-66.277 73.156 0 41.844 22.467 70.489 67.119 70.489 36.509 0 54.622-21.624 60.38-51.532l-37.492.14zm-177.767-87.76h17.693V21.484h38.614v39.738h20.36v29.487h-20.36v69.647c0 6.178 2.668 9.127 12.638 9.127 3.229 0 5.335-.281 7.722-.843v30.33c-6.178.843-12.356 1.545-18.535 1.545-25.134 0-40.439-6.178-40.439-35.947v-74h-17.693V61.223zm490.332 0h17.7V21.484h38.61v39.738H1200v29.487h-20.36v69.647c0 6.178 2.67 9.127 12.64 9.127 3.23 0 5.33-.281 7.72-.843v30.33c-6.18.843-12.36 1.545-18.53 1.545-25.14 0-40.44-6.178-40.44-35.947v-74h-17.7V61.223zM296.981 138.03c0 18.535-9.548 31.734-24.854 31.734-11.935 0-20.36-6.6-20.36-26.258V60.52h-38.193v92.534c0 26.258 14.884 47.461 47.741 47.461 15.306 0 25.416-5.055 36.789-21.484h.562v17.693h36.508V60.52h-38.193v77.51zm-163.445 58.132l12.497 21.484h44.512l-23.59-40.721c21.344-19.378 32.437-47.882 32.437-76.246C199.392 50.69 165.13 0 99.696 0S0 50.69 0 100.679c0 49.988 34.262 100.678 99.696 100.678 12.216 0 23.59-1.825 33.84-5.195zm-90.428-95.483c0-32.436 17.412-65.154 56.307-65.154s56.307 32.718 56.307 65.154c0 14.041-3.23 28.223-10.11 39.597H101.1l13.62 23.59c-4.633 1.264-9.829 1.966-15.305 1.966-38.895 0-56.307-32.717-56.307-65.153z" fill="#000"/></svg>