<?xml version="1.0" encoding="utf-8"?>
<!-- Generator: Adobe Illustrator 23.0.3, SVG Export Plug-In . SVG Version: 6.00 Build 0)  -->
<svg version="1.1" id="Ebene_1" xmlns="http://www.w3.org/2000/svg" xmlns:xlink="http://www.w3.org/1999/xlink" x="0px" y="0px"
	 viewBox="0 0 43.2 30.8" style="enable-background:new 0 0 43.2 30.8;" xml:space="preserve">
<style type="text/css">
	.st0{fill-rule:evenodd;clip-rule:evenodd;fill:#00B8B8;}
	.st1{fill-rule:evenodd;clip-rule:evenodd;fill:#FFC021;}
	.st2{fill-rule:evenodd;clip-rule:evenodd;fill:#3BC4A1;}
</style>
<title>Logo</title>
<g transform="translate(-3 -4)">
	<path class="st0" d="M31.2,6.7l12.4,12.4c3.6,3.6,3.6,9.4,0,13.1l0,0c-3.6,3.6-9.4,3.6-13.1,0L18.1,19.8c-3.6-3.6-3.6-9.4,0-13.1
		l0,0C21.7,3.1,27.6,3.1,31.2,6.7z"/>
	<path class="st1" d="M18.1,6.7L5.7,19.1c-3.6,3.6-3.6,9.4,0,13.1l0,0c3.6,3.6,9.4,3.6,13.1,0l12.4-12.4c3.6-3.6,3.6-9.4,0-13.1l0,0
		C27.5,3.1,21.7,3.1,18.1,6.7z"/>
	<path class="st2" d="M24.6,4c-5.1,0-9.2,4.2-9.2,9.3c0,2.4,1,4.8,2.7,6.5l6.5,6.5l6.5-6.5c3.6-3.6,3.6-9.4,0-13.1
		C29.4,5,27,4,24.6,4L24.6,4z"/>
</g>
</svg>
