<svg width="550" height="140" viewBox="0 0 550 140" fill="none" xmlns="http://www.w3.org/2000/svg">
<path d="M198.644 60.018C200.214 56.9475 202.437 54.5626 205.314 52.864C208.257 51.1655 211.821 50.316 216.006 50.316V59.528H213.652C203.647 59.528 198.644 64.9506 198.644 75.796V105H189.718V51.296H198.644V60.018ZM276.23 76.09C276.23 77.7886 276.132 79.5855 275.936 81.48H232.973C233.3 86.772 235.099 90.9206 238.368 93.926C241.703 96.866 245.725 98.336 250.433 98.336C254.291 98.336 257.495 97.454 260.046 95.69C262.662 93.8605 264.492 91.4435 265.539 88.438H275.151C273.713 93.5995 270.836 97.8135 266.52 101.08C262.204 104.281 256.841 105.882 250.433 105.882C245.332 105.882 240.755 104.739 236.701 102.452C232.711 100.165 229.573 96.9314 227.284 92.75C224.995 88.5034 223.851 83.6035 223.851 78.05C223.851 72.4966 224.962 67.6295 227.186 63.448C229.409 59.2666 232.515 56.0655 236.504 53.844C240.559 51.5575 245.202 50.414 250.433 50.414C255.534 50.414 260.046 51.5246 263.969 53.746C267.893 55.9675 270.901 59.038 272.994 62.958C275.151 66.8126 276.23 71.19 276.23 76.09ZM267.01 74.228C267.01 70.8306 266.258 67.9235 264.754 65.506C263.25 63.0235 261.19 61.1615 258.574 59.92C256.024 58.6135 253.179 57.96 250.041 57.96C245.529 57.96 241.67 59.3975 238.466 62.272C235.327 65.1466 233.529 69.132 233.071 74.228H267.01ZM311.057 50.414C315.699 50.414 319.754 51.4266 323.22 53.452C326.751 55.4775 329.367 58.0255 331.067 61.096V51.296H340.091V106.176C340.091 111.076 339.045 115.421 336.952 119.21C334.86 123.065 331.852 126.07 327.928 128.226C324.07 130.382 319.558 131.46 314.392 131.46C307.329 131.46 301.444 129.794 296.736 126.462C292.027 123.13 289.248 118.589 288.398 112.84H297.226C298.207 116.107 300.234 118.72 303.308 120.68C306.381 122.705 310.076 123.718 314.392 123.718C319.296 123.718 323.285 122.183 326.359 119.112C329.497 116.041 331.067 111.729 331.067 106.176V94.906C329.301 98.042 326.685 100.655 323.22 102.746C319.754 104.837 315.699 105.882 311.057 105.882C306.283 105.882 301.934 104.706 298.011 102.354C294.153 100.002 291.112 96.7026 288.889 92.456C286.665 88.2094 285.553 83.3745 285.553 77.952C285.553 72.464 286.665 67.662 288.889 63.546C291.112 59.3646 294.153 56.1306 298.011 53.844C301.934 51.5575 306.283 50.414 311.057 50.414ZM331.067 78.05C331.067 73.9995 330.25 70.4715 328.615 67.466C326.98 64.4605 324.757 62.174 321.945 60.606C319.198 58.9726 316.157 58.156 312.822 58.156C309.487 58.156 306.446 58.94 303.7 60.508C300.953 62.076 298.763 64.3625 297.128 67.368C295.493 70.3735 294.676 73.9015 294.676 77.952C294.676 82.068 295.493 85.6615 297.128 88.732C298.763 91.7375 300.953 94.0565 303.7 95.69C306.446 97.258 309.487 98.042 312.822 98.042C316.157 98.042 319.198 97.258 321.945 95.69C324.757 94.0565 326.98 91.7375 328.615 88.732C330.25 85.6615 331.067 82.1006 331.067 78.05ZM360.66 42.574C358.961 42.574 357.521 41.986 356.344 40.81C355.167 39.634 354.578 38.1966 354.578 36.498C354.578 34.7993 355.167 33.362 356.344 32.186C357.521 31.01 358.961 30.422 360.66 30.422C362.296 30.422 363.669 31.01 364.779 32.186C365.956 33.362 366.545 34.7993 366.545 36.498C366.545 38.1966 365.956 39.634 364.779 40.81C363.669 41.986 362.296 42.574 360.66 42.574ZM364.976 51.296V105H356.049V51.296H364.976ZM430.11 76.09C430.11 77.7886 430.012 79.5855 429.816 81.48H386.853C387.179 86.772 388.979 90.9206 392.248 93.926C395.583 96.866 399.605 98.336 404.313 98.336C408.17 98.336 411.375 97.454 413.926 95.69C416.542 93.8605 418.371 91.4435 419.419 88.438H429.031C427.592 93.5995 424.715 97.8135 420.399 101.08C416.084 104.281 410.72 105.882 404.313 105.882C399.212 105.882 394.634 104.739 390.58 102.452C386.59 100.165 383.451 96.9314 381.164 92.75C378.876 88.5034 377.731 83.6035 377.731 78.05C377.731 72.4966 378.841 67.6295 381.066 63.448C383.29 59.2666 386.394 56.0655 390.384 53.844C394.437 51.5575 399.083 50.414 404.313 50.414C409.413 50.414 413.926 51.5246 417.849 53.746C421.773 55.9675 424.782 59.038 426.873 62.958C429.031 66.8126 430.11 71.19 430.11 76.09ZM420.89 74.228C420.89 70.8306 420.137 67.9235 418.634 65.506C417.131 63.0235 415.071 61.1615 412.454 59.92C409.904 58.6135 407.059 57.96 403.921 57.96C399.408 57.96 395.551 59.3975 392.346 62.272C389.207 65.1466 387.41 69.132 386.951 74.228H420.89ZM445.612 105.588C443.913 105.588 442.473 105 441.296 103.824C440.119 102.648 439.53 101.211 439.53 99.512C439.53 97.8134 440.119 96.376 441.296 95.2C442.473 94.024 443.913 93.436 445.612 93.436C447.248 93.436 448.621 94.024 449.732 95.2C450.909 96.376 451.497 97.8134 451.497 99.512C451.497 101.211 450.909 102.648 449.732 103.824C448.621 105 447.248 105.588 445.612 105.588ZM460.903 77.952C460.903 72.464 462.017 67.662 464.238 63.546C466.463 59.3646 469.504 56.1306 473.361 53.844C477.284 51.5575 481.635 50.414 486.406 50.414C491.115 50.414 495.203 51.4266 498.668 53.452C502.136 55.4775 504.718 58.0255 506.417 61.096V51.296H515.441V105H506.417V95.004C504.651 98.14 502.003 100.753 498.471 102.844C495.007 104.869 490.954 105.882 486.308 105.882C481.537 105.882 477.221 104.706 473.361 102.354C469.504 100.002 466.463 96.7026 464.238 92.456C462.017 88.2094 460.903 83.3745 460.903 77.952ZM506.417 78.05C506.417 73.9995 505.6 70.4715 503.964 67.466C502.332 64.4605 500.107 62.174 497.294 60.606C494.548 58.9726 491.507 58.156 488.172 58.156C484.837 58.156 481.796 58.94 479.05 60.508C476.303 62.076 474.114 64.3625 472.478 67.368C470.845 70.3735 470.026 73.9015 470.026 77.952C470.026 82.068 470.845 85.6615 472.478 88.732C474.114 91.7375 476.303 94.0565 479.05 95.69C481.796 97.258 484.837 98.042 488.172 98.042C491.507 98.042 494.548 97.258 497.294 95.69C500.107 94.0565 502.332 91.7375 503.964 88.732C505.6 85.6615 506.417 82.1006 506.417 78.05ZM536.012 42.574C534.313 42.574 532.873 41.986 531.696 40.81C530.519 39.634 529.93 38.1966 529.93 36.498C529.93 34.7993 530.519 33.362 531.696 32.186C532.873 31.01 534.313 30.422 536.012 30.422C537.648 30.422 539.021 31.01 540.131 32.186C541.308 33.362 541.897 34.7993 541.897 36.498C541.897 38.1966 541.308 39.634 540.131 40.81C539.021 41.986 537.648 42.574 536.012 42.574ZM540.327 51.296V105H531.401V51.296H540.327Z" fill="#9CA8BA"/>
<path d="M198.644 60.018C200.214 56.9475 202.437 54.5626 205.314 52.864C208.257 51.1655 211.821 50.316 216.006 50.316V59.528H213.652C203.647 59.528 198.644 64.9506 198.644 75.796V105H189.718V51.296H198.644V60.018ZM276.23 76.09C276.23 77.7886 276.132 79.5855 275.936 81.48H232.973C233.3 86.772 235.099 90.9206 238.368 93.926C241.703 96.866 245.725 98.336 250.433 98.336C254.291 98.336 257.495 97.454 260.046 95.69C262.662 93.8605 264.492 91.4435 265.539 88.438H275.151C273.713 93.5995 270.836 97.8135 266.52 101.08C262.204 104.281 256.841 105.882 250.433 105.882C245.332 105.882 240.755 104.739 236.701 102.452C232.711 100.165 229.573 96.9314 227.284 92.75C224.995 88.5034 223.851 83.6035 223.851 78.05C223.851 72.4966 224.962 67.6295 227.186 63.448C229.409 59.2666 232.515 56.0655 236.504 53.844C240.559 51.5575 245.202 50.414 250.433 50.414C255.534 50.414 260.046 51.5246 263.969 53.746C267.893 55.9675 270.901 59.038 272.994 62.958C275.151 66.8126 276.23 71.19 276.23 76.09ZM267.01 74.228C267.01 70.8306 266.258 67.9235 264.754 65.506C263.25 63.0235 261.19 61.1615 258.574 59.92C256.024 58.6135 253.179 57.96 250.041 57.96C245.529 57.96 241.67 59.3975 238.466 62.272C235.327 65.1466 233.529 69.132 233.071 74.228H267.01ZM311.057 50.414C315.699 50.414 319.754 51.4266 323.22 53.452C326.751 55.4775 329.367 58.0255 331.067 61.096V51.296H340.091V106.176C340.091 111.076 339.045 115.421 336.952 119.21C334.86 123.065 331.852 126.07 327.928 128.226C324.07 130.382 319.558 131.46 314.392 131.46C307.329 131.46 301.444 129.794 296.736 126.462C292.027 123.13 289.248 118.589 288.398 112.84H297.226C298.207 116.107 300.234 118.72 303.308 120.68C306.381 122.705 310.076 123.718 314.392 123.718C319.296 123.718 323.285 122.183 326.359 119.112C329.497 116.041 331.067 111.729 331.067 106.176V94.906C329.301 98.042 326.685 100.655 323.22 102.746C319.754 104.837 315.699 105.882 311.057 105.882C306.283 105.882 301.934 104.706 298.011 102.354C294.153 100.002 291.112 96.7026 288.889 92.456C286.665 88.2094 285.553 83.3745 285.553 77.952C285.553 72.464 286.665 67.662 288.889 63.546C291.112 59.3646 294.153 56.1306 298.011 53.844C301.934 51.5575 306.283 50.414 311.057 50.414ZM331.067 78.05C331.067 73.9995 330.25 70.4715 328.615 67.466C326.98 64.4605 324.757 62.174 321.945 60.606C319.198 58.9726 316.157 58.156 312.822 58.156C309.487 58.156 306.446 58.94 303.7 60.508C300.953 62.076 298.763 64.3625 297.128 67.368C295.493 70.3735 294.676 73.9015 294.676 77.952C294.676 82.068 295.493 85.6615 297.128 88.732C298.763 91.7375 300.953 94.0565 303.7 95.69C306.446 97.258 309.487 98.042 312.822 98.042C316.157 98.042 319.198 97.258 321.945 95.69C324.757 94.0565 326.98 91.7375 328.615 88.732C330.25 85.6615 331.067 82.1006 331.067 78.05ZM360.66 42.574C358.961 42.574 357.521 41.986 356.344 40.81C355.167 39.634 354.578 38.1966 354.578 36.498C354.578 34.7993 355.167 33.362 356.344 32.186C357.521 31.01 358.961 30.422 360.66 30.422C362.296 30.422 363.669 31.01 364.779 32.186C365.956 33.362 366.545 34.7993 366.545 36.498C366.545 38.1966 365.956 39.634 364.779 40.81C363.669 41.986 362.296 42.574 360.66 42.574ZM364.976 51.296V105H356.049V51.296H364.976ZM430.11 76.09C430.11 77.7886 430.012 79.5855 429.816 81.48H386.853C387.179 86.772 388.979 90.9206 392.248 93.926C395.583 96.866 399.605 98.336 404.313 98.336C408.17 98.336 411.375 97.454 413.926 95.69C416.542 93.8605 418.371 91.4435 419.419 88.438H429.031C427.592 93.5995 424.715 97.8135 420.399 101.08C416.084 104.281 410.72 105.882 404.313 105.882C399.212 105.882 394.634 104.739 390.58 102.452C386.59 100.165 383.451 96.9314 381.164 92.75C378.876 88.5034 377.731 83.6035 377.731 78.05C377.731 72.4966 378.841 67.6295 381.066 63.448C383.29 59.2666 386.394 56.0655 390.384 53.844C394.437 51.5575 399.083 50.414 404.313 50.414C409.413 50.414 413.926 51.5246 417.849 53.746C421.773 55.9675 424.782 59.038 426.873 62.958C429.031 66.8126 430.11 71.19 430.11 76.09ZM420.89 74.228C420.89 70.8306 420.137 67.9235 418.634 65.506C417.131 63.0235 415.071 61.1615 412.454 59.92C409.904 58.6135 407.059 57.96 403.921 57.96C399.408 57.96 395.551 59.3975 392.346 62.272C389.207 65.1466 387.41 69.132 386.951 74.228H420.89ZM445.612 105.588C443.913 105.588 442.473 105 441.296 103.824C440.119 102.648 439.53 101.211 439.53 99.512C439.53 97.8134 440.119 96.376 441.296 95.2C442.473 94.024 443.913 93.436 445.612 93.436C447.248 93.436 448.621 94.024 449.732 95.2C450.909 96.376 451.497 97.8134 451.497 99.512C451.497 101.211 450.909 102.648 449.732 103.824C448.621 105 447.248 105.588 445.612 105.588ZM460.903 77.952C460.903 72.464 462.017 67.662 464.238 63.546C466.463 59.3646 469.504 56.1306 473.361 53.844C477.284 51.5575 481.635 50.414 486.406 50.414C491.115 50.414 495.203 51.4266 498.668 53.452C502.136 55.4775 504.718 58.0255 506.417 61.096V51.296H515.441V105H506.417V95.004C504.651 98.14 502.003 100.753 498.471 102.844C495.007 104.869 490.954 105.882 486.308 105.882C481.537 105.882 477.221 104.706 473.361 102.354C469.504 100.002 466.463 96.7026 464.238 92.456C462.017 88.2094 460.903 83.3745 460.903 77.952ZM506.417 78.05C506.417 73.9995 505.6 70.4715 503.964 67.466C502.332 64.4605 500.107 62.174 497.294 60.606C494.548 58.9726 491.507 58.156 488.172 58.156C484.837 58.156 481.796 58.94 479.05 60.508C476.303 62.076 474.114 64.3625 472.478 67.368C470.845 70.3735 470.026 73.9015 470.026 77.952C470.026 82.068 470.845 85.6615 472.478 88.732C474.114 91.7375 476.303 94.0565 479.05 95.69C481.796 97.258 484.837 98.042 488.172 98.042C491.507 98.042 494.548 97.258 497.294 95.69C500.107 94.0565 502.332 91.7375 503.964 88.732C505.6 85.6615 506.417 82.1006 506.417 78.05ZM536.012 42.574C534.313 42.574 532.873 41.986 531.696 40.81C530.519 39.634 529.93 38.1966 529.93 36.498C529.93 34.7993 530.519 33.362 531.696 32.186C532.873 31.01 534.313 30.422 536.012 30.422C537.648 30.422 539.021 31.01 540.131 32.186C541.308 33.362 541.897 34.7993 541.897 36.498C541.897 38.1966 541.308 39.634 540.131 40.81C539.021 41.986 537.648 42.574 536.012 42.574ZM540.327 51.296V105H531.401V51.296H540.327Z" fill="black" fill-opacity="0.5"/>
<path d="M95.3446 47.3088V33.0756L50.5038 7.2339L23.0623 23.0422L10.626 44.4507L50.5038 21.4672L95.3446 47.3088Z" fill="#3195D8"/>
<path d="M50.5041 29.6336L5.83838 55.3584V87.1503L18.0411 108.325V62.6504L62.8819 36.8085L50.5041 29.6336Z" fill="#3195D8"/>
<path d="M37.4835 59.6169L25.1055 66.7338V118.125L52.8975 134.167H77.1861L37.4835 111.242V59.6169Z" fill="#3195D8"/>
<path d="M44.5483 92.9253V107.159L89.2724 133L117.064 116.959L129.384 95.7253L89.3306 118.767L44.5483 92.9253Z" fill="#3195D8"/>
<path d="M121.852 31.2663V77.6996L77.0117 103.483L89.3895 110.658L134.289 84.6996V52.7331L121.852 31.2663Z" fill="#3195D8"/>
<path d="M102.411 80.675L114.788 73.6169V21.7001L87.347 5.83342H62.2407L102.411 28.9917V80.675Z" fill="#3195D8"/>
</svg>
