<svg xmlns="http://www.w3.org/2000/svg" xmlns:xlink="http://www.w3.org/1999/xlink" viewBox="0 0 226.67 44.41"><defs><style>.rlog1{isolation:isolate;}.rlog2{fill:#12ffc1;}.rlog3{opacity:0.8;mix-blend-mode:multiply;}.rlog4{fill:url(#rg);}.rlog5{fill:url(#rg-2);}</style><radialGradient id="rg" cx="128.21" cy="21.22" r="15.32" gradientUnits="userSpaceOnUse"><stop offset="0" stop-color="#111621"/><stop offset="1" stop-color="#fff" stop-opacity="0"/></radialGradient><radialGradient id="rg-2" cx="128.21" cy="21.22" r="15.34" xlink:href="#rg"/></defs><g class="rlog1"><g><g><path class="rlog2" d="M141.77,7.47c-6.21,0-10.05,3.64-13.13,7.8-3.08-4.16-6.94-7.8-13.16-7.8a13.47,13.47,0,0,0,0,26.95c6.22,0,10.07-3.64,13.16-7.8,3.08,4.16,6.93,7.8,13.13,7.8a13.47,13.47,0,0,0,0-26.95ZM115.48,28a7.05,7.05,0,1,1,0-14.11c3.87,0,6.29,2.63,9.3,7.05C121.77,25.36,119.35,28,115.48,28Zm26.29,0c-3.85,0-6.26-2.63-9.27-7.06,3-4.42,5.42-7.05,9.27-7.05a7.05,7.05,0,0,1,0,14.11Z"/><g class="rlog3"><path class="rlog4" d="M141.77,7.47c-6.21,0-10.05,3.64-13.13,7.8,0,0,2.74,4.18,3.86,5.67,3-4.42,5.42-7.05,9.27-7.05a7,7,0,0,1,5.08,2.18,16.47,16.47,0,0,0,3-5.86A13.39,13.39,0,0,0,141.77,7.47Z"/><path class="rlog5" d="M124.76,21c-3,4.41-5.42,7-9.28,7a7.06,7.06,0,0,1-7.06-7.05c0-.13,0-.26,0-.39a10.83,10.83,0,0,0-6.43.92,13.48,13.48,0,0,0,13.45,12.95c6.22,0,10.07-3.64,13.16-7.8l.21.27-.2-.27C127.3,24.75,125.71,22.35,124.76,21Z"/></g><path class="rlog2" d="M0,0H11.9C19.78,0,25,4.18,25,10.54c0,4.59-2.66,8-7,9.6l7.78,13.31H18.16L11.33,21.14H6.52V33.46H0ZM6.52,5.74V15.4h5.9c3.44,0,5.69-1.93,5.69-4.85s-2.24-4.8-5.69-4.8Z"/><path class="rlog2" d="M27.47,21c0-7.31,5.43-13.26,12.63-13.26A12.43,12.43,0,0,1,52.68,20.46a11,11,0,0,1-.16,2.09H34a7,7,0,0,0,7.15,6,8.48,8.48,0,0,0,6.11-2.61l3.29,4.33a12.86,12.86,0,0,1-9.66,3.92A13.1,13.1,0,0,1,27.47,21Zm6.63-2.45H46.16c-.73-3.55-3-5.38-5.95-5.38C37,13.15,34.83,15.34,34.1,18.53Z"/><path class="rlog2" d="M67.56,38.57c4.23,0,6.89-2.3,6.89-6.58V29.8a9.9,9.9,0,0,1-7.62,3.29c-6.42,0-11.64-5.17-11.64-12.68,0-7.25,5.22-12.53,11.64-12.53a9.94,9.94,0,0,1,7.62,3V8.46h6.42V31.73c0,9.86-6.84,12.68-12.94,12.68-4.65,0-8.46-1.2-10.91-3.34l3.23-5A12,12,0,0,0,67.56,38.57Zm6.89-18.16a6.45,6.45,0,1,0-12.89,0,6.45,6.45,0,1,0,12.89,0Z"/><path class="rlog2" d="M92.13,33.46H85.77v-25h6.37v2.71a7.25,7.25,0,0,1,6.11-3.44,6.37,6.37,0,0,1,4,1.25L99.6,15a5.42,5.42,0,0,0-3.29-1.1c-2.56,0-4.17,2.14-4.17,5.53Z"/><path class="rlog2" d="M181.25,8.46l-9,25H164l-9.08-25h7l6.37,19.31,6.47-19.31Z"/><path class="rlog2" d="M181.25,21c0-7.31,5.42-13.26,12.63-13.26a12.43,12.43,0,0,1,12.58,12.73,10.73,10.73,0,0,1-.16,2.09H187.78a7,7,0,0,0,7.15,6,8.47,8.47,0,0,0,6.1-2.61l3.29,4.33a12.85,12.85,0,0,1-9.65,3.92A13.1,13.1,0,0,1,181.25,21Zm6.63-2.45h12.06c-.73-3.55-3-5.38-6-5.38C190.8,13.15,188.61,15.34,187.88,18.53Z"/><path class="rlog2" d="M216.55,33.46h-6.37v-25h6.37v2.71a7.25,7.25,0,0,1,6.1-3.44,6.37,6.37,0,0,1,4,1.25L224,15a5.4,5.4,0,0,0-3.29-1.1c-2.56,0-4.18,2.14-4.18,5.53Z"/><path class="rlog2" d="M129.84,28.18c2.88,3.47,6.5,6.24,11.91,6.24a13.41,13.41,0,0,0,3.31-.43,18.84,18.84,0,0,0-1.46-6.27,7,7,0,0,1-1.84.27,7.91,7.91,0,0,1-5.84-2.7s-.1-.06-.14-.11l-.07-.09a31.12,31.12,0,0,1-3-3.86l-.2-.3c-1.12-1.49-3.86-5.67-3.86-5.67h0c-3.08-4.16-7-7.8-13.18-7.8a13.42,13.42,0,0,0-3.84.57,37.54,37.54,0,0,0,1.4,6.31,7,7,0,0,1,2.45-.46c3.87,0,6.28,2.64,9.29,7.06h0c.95,1.39,2.54,3.79,3.89,5.66C129.08,27.21,129.49,27.74,129.84,28.18Z"/></g></g></g></svg>