<svg width="100%" fill="#888290" xmlns="http://www.w3.org/2000/svg" viewBox="0 0 486 159" class="jsx-156097091 "><path d="M358.78 9.97v140a9 9 0 0 1-18 0v-140a9 9 0 0 1 18 0zm76 41c-29.78 0-54 24.22-54 54s24.22 54 54 54c16.06 0 31.46-6.48 42.25-17.78a9 9 0 0 0-13.01-12.43c-7.41 7.76-18.07 12.21-29.24 12.21-19.85 0-36-16.15-36-36s16.15-36 36-36a33.07 33.07 0 0 1 32.02 25h-44.02a9 9 0 0 0 0 18h54a9 9 0 0 0 9-9v-1c0-28.12-22.88-51-51-51zM48.33 96.18C24.28 92.49 20 89.38 20 82.47c0-6.71 8.81-13.5 25.64-13.5 8.25 0 20.11 1.66 29.7 9.54a9 9 0 1 0 11.44-13.9C73.06 53.34 56.84 50.97 45.64 50.97 15.65 50.97 2 67.3 2 82.47c0 7.8 2.85 18.44 16.42 24.82 7.92 3.72 17.72 5.22 27.19 6.68 23.9 3.67 28.15 6.72 28.15 13.5 0 8.08-10.11 13.5-25.15 13.5-15.93 0-28.06-6.46-33.88-10.31a9 9 0 1 0-9.93 15.01 80.3 80.3 0 0 0 43.82 13.3c29.81 0 43.15-15.82 43.15-31.5-.01-24.64-25.11-28.48-43.44-31.29zm109.43-27.21a32.94 32.94 0 0 1 27.5 14.77 9 9 0 1 0 14.99-9.97 50.93 50.93 0 0 0-42.5-22.81c-29.78 0-54 24.22-54 54s24.22 54 54 54c17.12 0 33-8.53 42.5-22.81a9 9 0 0 0-14.99-9.97 32.97 32.97 0 0 1-27.5 14.77c-19.85 0-36-16.15-36-36a36.02 36.02 0 0 1 36-35.98zm110.02-18c-29.78 0-54 24.22-54 54s24.22 54 54 54h6a9 9 0 0 0 0-18h-6c-19.85 0-36-16.15-36-36s16.15-36 36-36c18.2 0 33 14.8 33 33v48a9 9 0 0 0 18 0v-48c0-28.12-22.88-51-51-51z" class="jsx-156097091"></path></svg>