<svg xmlns="http://www.w3.org/2000/svg" viewBox="0 0 580.62 243.74">
  <rect x="401.61" y="12.12" width="163.95" height="163.95" fill="#fff"/>
  <path d="M387.12,126.22v25.52H365.49V126.22Z" fill="#4c4d4f"/>
  <path d="M31,115.22v3.44c0,11,3.12,18,15.57,18,7.18,0,14.06-4.58,14.06-14.42,0-10.61-5.4-14.57-21-20C18.72,95.09,9,86.44,9,66.93,9,44.18,23,32.55,45.23,32.55c21,0,36.19,9,36.19,31.45v3.29H58.82c0-11-3.76-17.39-12.77-17.39-10.65,0-13.43,6.74-13.43,13.59,0,7.22,2.12,11.64,12.13,15.88l18.16,7.87c17.7,7.7,22.26,16.71,22.26,30.92,0,24.74-15,35.87-40.58,35.87C17.89,154,7.4,141.61,7.4,120v-4.77Z" fill="#4c4d4f"/>
  <path d="M130.29,95.43c0-8.51-1.65-17.7-10.15-17.7-11.14,0-12.94,9.83-12.94,30.13,0,21.79,2,30.78,12.11,30.78,7.52,0,11-6.38,11-20.61h21.6c0,23.06-9.64,36-33.57,36-22.59,0-33.72-11-33.72-46.34,0-36.17,14.89-46.32,35.69-46.32s31.6,13.27,31.6,34.06Z" fill="#4c4d4f"/>
  <path d="M186.05,61.37c27.18-.5,34.71,15.72,34.71,46.32,0,30.15-8.85,46.34-34.71,46.34-27.19.49-34.72-15.72-34.72-46.34C151.33,77.58,160.17,61.37,186.05,61.37Zm0,77.27c9.18,0,12.12-9,12.12-30.95s-2.94-30.93-12.12-30.93c-11.14,0-12.11,12.93-12.11,30.93S174.91,138.64,186.05,138.64Z" fill="#4c4d4f"/>
  <path d="M255.1,61.37c27.2-.5,34.72,15.72,34.72,46.32,0,30.15-8.85,46.34-34.72,46.34-27.18.49-34.71-15.72-34.71-46.34C220.39,77.58,229.21,61.37,255.1,61.37Zm0,77.27c9.17,0,12.12-9,12.12-30.95s-3-30.93-12.12-30.93C244,76.76,243,89.69,243,107.69S244,138.64,255.1,138.64Z" fill="#4c4d4f"/>
  <path d="M289.49,63.68h21.63V73h.31c4.91-8.16,11.14-11.63,20-11.63,18.49,0,27,13.58,27,46.32S349.9,154,331.41,154c-8.53,0-14.26-3.43-19-10.48h-.31v37h-22.6Zm34.55,73c9.83,0,11.77-9.83,11.77-29S333.87,78.74,324,78.74c-10,0-12,9.8-12,29S314.06,136.68,324,136.68Z" fill="#4c4d4f"/>
  <path d="M395.69,4.8V180.56H571.47V4.8Zm38.18,28.52h22.59V52.65H433.87Zm69.66,45.52H490.42v47.63c0,6.88,1.47,9.66,8,9.66a48.17,48.17,0,0,0,5.09-.32v15.7a145.46,145.46,0,0,1-14.75,1c-17.68,0-20.94-5.4-20.94-23.23V78.84H456.46v72.67H433.87V63.43h34V33.3h22.58V63.43h13.11Zm29.72,72.67h-22.6V129.9h22.6Zm0-78.91-3.09,46.33H513.77L510.65,72.6V33.32h22.6Z" fill="#26bcbb"/>
  <g>
    <path d="M257.74,228.41l-1.33-3.85H246.19l-1.3,3.85h-3.45l8.67-25.2h2.38l8.71,25.2Zm-6.4-19.84-4.14,13h8.2Z" fill="#4c4d4f"/>
    <path d="M296.91,228.41H293.6V210.84l-7.24,17.57h-2.52l-7.27-17.57v17.57H273.3v-25.2h3.16l8.64,20.16,8.64-20.16h3.17Z" fill="#4c4d4f"/>
    <path d="M304.36,221.07a6.94,6.94,0,0,0,.35,2,4.76,4.76,0,0,0,.9,1.62,4,4,0,0,0,1.53,1.11,5.59,5.59,0,0,0,2.3.42,4,4,0,0,0,4.14-2.59h3.17a6.47,6.47,0,0,1-.79,2,6.23,6.23,0,0,1-1.52,1.65,7.35,7.35,0,0,1-2.19,1.15,8.58,8.58,0,0,1-2.81.44,8.76,8.76,0,0,1-3.6-.69,7.32,7.32,0,0,1-2.56-1.83,7.77,7.77,0,0,1-1.51-2.72,11,11,0,0,1-.5-3.33,10.48,10.48,0,0,1,.54-3.42,7.94,7.94,0,0,1,1.56-2.74,7.17,7.17,0,0,1,2.52-1.8,8.65,8.65,0,0,1,3.44-.65,7.89,7.89,0,0,1,3,.56,7.31,7.31,0,0,1,4,3.93,7.34,7.34,0,0,1,.57,2.89c0,.24,0,.53,0,.87a10.16,10.16,0,0,1-.12,1.19Zm4.9-7a5,5,0,0,0-3.46,1.2,4.66,4.66,0,0,0-1.4,3.44h9.47a4.44,4.44,0,0,0-1.32-3.4A4.58,4.58,0,0,0,309.26,214.05Z" fill="#4c4d4f"/>
    <path d="M321.43,203.21h3.13v25.2h-3.13Z" fill="#4c4d4f"/>
    <path d="M339.07,228.41c-.32.05-.73.09-1.24.14s-1,.08-1.57.08a10.21,10.21,0,0,1-1.66-.15,3.78,3.78,0,0,1-1.67-.7,4.12,4.12,0,0,1-1.3-1.71,8,8,0,0,1-.52-3.17v-8.21h-3v-2.62h3v-5.51h3.13v5.51h4.25v2.62h-4.25v7.5a7.31,7.31,0,0,0,.2,1.89,2.51,2.51,0,0,0,.56,1.07,1.63,1.63,0,0,0,.85.49,5.08,5.08,0,0,0,1.09.11h1.14a3.65,3.65,0,0,0,1-.11Z" fill="#4c4d4f"/>
    <path d="M352.82,215.49l-4.57,12.92h-2.16l-6.34-16.34h3.35l4.07,11.52,4.1-11.52h3.1l4.07,11.52,4.1-11.52h3.35l-6.34,16.34h-2.16Z" fill="#4c4d4f"/>
    <path d="M384.21,212.07v16.34h-3.1v-2.84a5.65,5.65,0,0,1-2.35,2.37,6.85,6.85,0,0,1-3.37.87,8.29,8.29,0,0,1-3.42-.69,8,8,0,0,1-2.65-1.87,8.69,8.69,0,0,1-1.71-2.74,9,9,0,0,1-.61-3.27,9.2,9.2,0,0,1,.61-3.3,8.73,8.73,0,0,1,1.71-2.75,8,8,0,0,1,2.65-1.87,8.29,8.29,0,0,1,3.42-.69,6.85,6.85,0,0,1,3.37.87,5.65,5.65,0,0,1,2.35,2.37v-2.8ZM375.57,226a5.41,5.41,0,0,0,4-1.71,5.62,5.62,0,0,0,1.12-1.82,6.6,6.6,0,0,0,0-4.47,5.89,5.89,0,0,0-1.12-1.83,5.26,5.26,0,0,0-1.74-1.26,5.52,5.52,0,0,0-2.29-.47,5.36,5.36,0,0,0-2.27.47,5.14,5.14,0,0,0-1.71,1.26,6.24,6.24,0,0,0-1.1,1.83,6.6,6.6,0,0,0,0,4.47,5.94,5.94,0,0,0,1.1,1.82,5.27,5.27,0,0,0,4,1.71Z" fill="#4c4d4f"/>
    <path d="M398.72,228.41c-.31.05-.73.09-1.24.14s-1,.08-1.57.08a10.21,10.21,0,0,1-1.66-.15,3.83,3.83,0,0,1-1.67-.7,4.12,4.12,0,0,1-1.3-1.71,8,8,0,0,1-.52-3.17v-8.21h-3v-2.62h3v-5.51h3.13v5.51h4.25v2.62h-4.25v7.5a7.31,7.31,0,0,0,.2,1.89,2.51,2.51,0,0,0,.56,1.07,1.63,1.63,0,0,0,.85.49,5.15,5.15,0,0,0,1.09.11h1.14a3.65,3.65,0,0,0,1-.11Z" fill="#4c4d4f"/>
    <path d="M403.54,221.07a7.31,7.31,0,0,0,.34,2,5.12,5.12,0,0,0,.9,1.62,4.14,4.14,0,0,0,1.53,1.11,5.68,5.68,0,0,0,2.31.42,4,4,0,0,0,4.14-2.59h3.17a6.25,6.25,0,0,1-.8,2,6,6,0,0,1-1.51,1.65,7.35,7.35,0,0,1-2.19,1.15,8.58,8.58,0,0,1-2.81.44,8.76,8.76,0,0,1-3.6-.69,7.23,7.23,0,0,1-2.56-1.83,7.77,7.77,0,0,1-1.51-2.72,10.74,10.74,0,0,1-.5-3.33,10.48,10.48,0,0,1,.54-3.42,7.94,7.94,0,0,1,1.56-2.74,7.17,7.17,0,0,1,2.52-1.8,8.61,8.61,0,0,1,3.44-.65,7.89,7.89,0,0,1,3,.56,7.28,7.28,0,0,1,2.41,1.57,7,7,0,0,1,1.6,2.36,7.17,7.17,0,0,1,.58,2.89c0,.24,0,.53,0,.87a10.16,10.16,0,0,1-.12,1.19Zm4.9-7a5,5,0,0,0-3.46,1.2,4.62,4.62,0,0,0-1.4,3.44h9.47a4.44,4.44,0,0,0-1.32-3.4A4.58,4.58,0,0,0,408.44,214.05Z" fill="#4c4d4f"/>
    <path d="M430.72,215a8.18,8.18,0,0,0-.81-.15c-.2,0-.45,0-.74,0a4.8,4.8,0,0,0-4.08,1.76,7.58,7.58,0,0,0-1.35,4.72v7.16h-3.13V212.07h3.13v3.2a5.31,5.31,0,0,1,2.18-2.5,6,6,0,0,1,3.25-1,4,4,0,0,1,1.55.26Z" fill="#4c4d4f"/>
    <path d="M454.52,229a13,13,0,0,1-5.44-1.1A12.21,12.21,0,0,1,445,225a12.88,12.88,0,0,1-2.58-4.21,14,14,0,0,1,0-9.86,12.88,12.88,0,0,1,2.58-4.21,12.21,12.21,0,0,1,4.08-2.94,14,14,0,0,1,10.87,0,12.35,12.35,0,0,1,4.09,2.94,12.86,12.86,0,0,1,2.57,4.21,14,14,0,0,1,0,9.86A12.86,12.86,0,0,1,464,225a12.35,12.35,0,0,1-4.09,2.94A13,13,0,0,1,454.52,229Zm0-3a9,9,0,0,0,4-.86,9.25,9.25,0,0,0,3-2.29,10.13,10.13,0,0,0,1.89-3.25,11.25,11.25,0,0,0,0-7.65,10.16,10.16,0,0,0-1.89-3.28,9.06,9.06,0,0,0-3-2.27,9.29,9.29,0,0,0-11,2.27,10,10,0,0,0-1.91,3.28,11.25,11.25,0,0,0,0,7.65,10,10,0,0,0,1.91,3.25,9.47,9.47,0,0,0,3,2.29A8.94,8.94,0,0,0,454.52,226Z" fill="#4c4d4f"/>
    <path d="M481.05,206.09a5.55,5.55,0,0,0-.87-.22,6.89,6.89,0,0,0-1-.07,8.4,8.4,0,0,0-1,.07,2,2,0,0,0-.92.38,2.12,2.12,0,0,0-.67.92,4.65,4.65,0,0,0-.25,1.73v3.17h4.68v2.62h-4.68v13.72h-3.13V214.69h-3.53v-2.62h3.53v-2.85a8.15,8.15,0,0,1,.59-3.47,4.7,4.7,0,0,1,1.46-1.86,4.26,4.26,0,0,1,1.84-.75,11.18,11.18,0,0,1,1.69-.15,6.24,6.24,0,0,1,1.31.13,4.51,4.51,0,0,1,.92.3Zm12.49,0a5.72,5.72,0,0,0-.86-.22,7.12,7.12,0,0,0-1-.07,8.42,8.42,0,0,0-1,.07,2,2,0,0,0-.92.38,2.12,2.12,0,0,0-.67.92,4.65,4.65,0,0,0-.25,1.73v3.17h4.68v2.62h-4.68v13.72h-3.13V214.69H482.2v-2.62h3.53v-2.85a8.31,8.31,0,0,1,.59-3.47,4.79,4.79,0,0,1,1.46-1.86,4.23,4.23,0,0,1,1.82-.75,10.84,10.84,0,0,1,1.67-.15,6.43,6.43,0,0,1,1.35.13,4.31,4.31,0,0,1,.92.3Z" fill="#4c4d4f"/>
    <path d="M498.11,221.07a6.94,6.94,0,0,0,.35,2,4.76,4.76,0,0,0,.9,1.62,4,4,0,0,0,1.52,1.11,5.68,5.68,0,0,0,2.31.42,4,4,0,0,0,4.14-2.59h3.17a6.47,6.47,0,0,1-.79,2,6.23,6.23,0,0,1-1.52,1.65,7.35,7.35,0,0,1-2.19,1.15,8.58,8.58,0,0,1-2.81.44,8.76,8.76,0,0,1-3.6-.69,7.32,7.32,0,0,1-2.56-1.83,7.77,7.77,0,0,1-1.51-2.72,10.74,10.74,0,0,1-.5-3.33,10.48,10.48,0,0,1,.54-3.42,7.94,7.94,0,0,1,1.56-2.74,7.17,7.17,0,0,1,2.52-1.8,8.65,8.65,0,0,1,3.44-.65,7.89,7.89,0,0,1,3,.56,7.28,7.28,0,0,1,2.41,1.57,7.17,7.17,0,0,1,1.61,2.36,7.34,7.34,0,0,1,.57,2.89c0,.24,0,.53,0,.87a10.16,10.16,0,0,1-.12,1.19Zm4.9-7a5,5,0,0,0-3.46,1.2,4.66,4.66,0,0,0-1.4,3.44h9.47a4.44,4.44,0,0,0-1.32-3.4A4.58,4.58,0,0,0,503,214.05Z" fill="#4c4d4f"/>
    <path d="M525.29,215a8.18,8.18,0,0,0-.81-.15c-.2,0-.45,0-.73,0a4.81,4.81,0,0,0-4.09,1.76,7.58,7.58,0,0,0-1.35,4.72v7.16h-3.13V212.07h3.13v3.2a5.31,5.31,0,0,1,2.18-2.5,6,6,0,0,1,3.26-1,4,4,0,0,1,1.54.26Z" fill="#4c4d4f"/>
    <path d="M527.38,205.87a2.54,2.54,0,0,1,.72-1.8,2.35,2.35,0,0,1,1.76-.75,2.58,2.58,0,0,1,2.56,2.55,2.33,2.33,0,0,1-.76,1.77,2.51,2.51,0,0,1-1.8.72,2.46,2.46,0,0,1-2.48-2.49Zm.94,6.2h3.13v16.34h-3.13Z" fill="#4c4d4f"/>
    <path d="M537.06,212.07h3.14V215a5.62,5.62,0,0,1,2.19-2.42,6.74,6.74,0,0,1,3.57-.9,7.12,7.12,0,0,1,2.95.56,4.7,4.7,0,0,1,1.94,1.6,5.88,5.88,0,0,1,1,2.09,11.72,11.72,0,0,1,.29,2.88v9.65H549v-8.68a9.46,9.46,0,0,0-.22-2.1,4.46,4.46,0,0,0-.7-1.69,3.48,3.48,0,0,0-1.28-1.12,4.07,4.07,0,0,0-1.94-.41,4.25,4.25,0,0,0-2.05.46,4.35,4.35,0,0,0-1.44,1.25,5.47,5.47,0,0,0-.87,1.78,7.64,7.64,0,0,0-.28,2.09v8.42h-3.14Z" fill="#4c4d4f"/>
    <path d="M573.28,229.45a10.62,10.62,0,0,1-.59,3.75,6.42,6.42,0,0,1-1.73,2.54,7,7,0,0,1-2.74,1.43,13.49,13.49,0,0,1-3.65.46A9.91,9.91,0,0,1,561,237a7.42,7.42,0,0,1-2.54-1.58,6.68,6.68,0,0,1-1.53-2.29,8.2,8.2,0,0,1-.59-2.66h3.17a5.45,5.45,0,0,0,.39,1.65,4.12,4.12,0,0,0,.94,1.39,4.42,4.42,0,0,0,1.55,1,7.27,7.27,0,0,0,6.35-.9,5.12,5.12,0,0,0,1.49-4.14v-3.88a5.65,5.65,0,0,1-2.35,2.37,6.85,6.85,0,0,1-3.37.87,8.29,8.29,0,0,1-3.42-.69,8,8,0,0,1-2.65-1.87,8.69,8.69,0,0,1-1.71-2.74,9,9,0,0,1-.61-3.27,9.2,9.2,0,0,1,.61-3.3,8.73,8.73,0,0,1,1.71-2.75,8,8,0,0,1,2.65-1.87,8.29,8.29,0,0,1,3.42-.69,6.85,6.85,0,0,1,3.37.87,5.65,5.65,0,0,1,2.35,2.37v-2.8h3.1Zm-8.64-15a5.36,5.36,0,0,0-2.27.47,5.14,5.14,0,0,0-1.71,1.26,6,6,0,0,0-1.1,1.83,6.6,6.6,0,0,0,0,4.47,5.75,5.75,0,0,0,1.1,1.82,5.27,5.27,0,0,0,4,1.71,5.41,5.41,0,0,0,4-1.71,5.62,5.62,0,0,0,1.12-1.82,6.6,6.6,0,0,0,0-4.47,5.89,5.89,0,0,0-1.12-1.83,5.26,5.26,0,0,0-1.74-1.26A5.52,5.52,0,0,0,564.64,214.44Z" fill="#4c4d4f"/>
  </g>
</svg>
