<?xml version="1.0" encoding="UTF-8" standalone="no"?>
<svg
   xmlns:dc="http://purl.org/dc/elements/1.1/"
   xmlns:cc="http://creativecommons.org/ns#"
   xmlns:rdf="http://www.w3.org/1999/02/22-rdf-syntax-ns#"
   xmlns:svg="http://www.w3.org/2000/svg"
   xmlns="http://www.w3.org/2000/svg"
   xmlns:sodipodi="http://sodipodi.sourceforge.net/DTD/sodipodi-0.dtd"
   xmlns:inkscape="http://www.inkscape.org/namespaces/inkscape"
   viewBox="0 0 553.33331 149.33333"
   height="149.33333"
   width="553.33331"
   xml:space="preserve"
   id="svg2"
   version="1.1"
   sodipodi:docname="scriptbook-registered.svg"
   inkscape:version="0.92.0 r"><sodipodi:namedview
     pagecolor="#ffffff"
     bordercolor="#666666"
     borderopacity="1"
     objecttolerance="10"
     gridtolerance="10"
     guidetolerance="10"
     inkscape:pageopacity="0"
     inkscape:pageshadow="2"
     inkscape:window-width="1868"
     inkscape:window-height="1051"
     id="namedview13"
     showgrid="false"
     inkscape:zoom="23.384648"
     inkscape:cx="494.96362"
     inkscape:cy="43.006872"
     inkscape:window-x="52"
     inkscape:window-y="840"
     inkscape:window-maximized="1"
     inkscape:current-layer="svg2" /><metadata
     id="metadata8"><rdf:RDF><cc:Work
         rdf:about=""><dc:format>image/svg+xml</dc:format><dc:type
           rdf:resource="http://purl.org/dc/dcmitype/StillImage" /><dc:title /></cc:Work></rdf:RDF></metadata><defs
     id="defs6" /><path
     id="path14"
     style="fill:#231f20;fill-opacity:1;fill-rule:evenodd;stroke:none;stroke-width:0.13333333"
     d="m 292.61599,70.156799 c 0.007,-0.0099 0.0107,-0.01827 0.012,-0.0208 1.53734,-3.764134 4.85067,-7.1824 7.87067,-9.816267 4.43067,-3.861866 9.26933,-7.331733 14.19333,-10.534266 5.932,-3.860533 12.09867,-7.380267 18.37334,-10.653733 6.74133,-3.5172 13.59599,-6.815067 20.54933,-9.892133 6.78266,-3.004134 13.672,-5.774534 20.664,-8.257333 6.136,-2.1796 12.38133,-4.162934 18.704,-5.7276 4.69866,-1.164 9.71733,-2.169334 14.56266,-2.38 2.812,-0.122667 6.65867,0.064 8.82534,2.158666 2.19333,2.290667 -0.0827,5.393734 -1.75334,7.1948 -3.08533,3.326 -7.02533,6.269733 -10.764,8.816133 -5.116,3.4792 -10.424,6.697333 -15.80533,9.7464 -5.65733,3.203067 -11.38667,6.2848 -17.19333,9.206666 -4.936,2.482934 -9.91867,4.896934 -14.96934,7.1396 -2.568,1.140667 -6.18666,2.8464 -8.91333,3.480267 l -1.57067,0.364 0.516,-1.527067 c 0.53734,-1.591066 1.15334,-3.158266 1.81867,-4.700533 0.46133,-1.0724 0.692,-2.239067 0.0333,-3.239067 -0.288,-0.3708 -0.94,-0.671866 -1.36266,-0.847866 -0.84267,-0.352134 -1.73734,-0.590667 -2.63467,-0.753067 -0.892,-0.163067 -1.808,-0.264667 -2.71467,-0.249067 -0.396,0.0068 -1.072,0.05373 -1.38933,0.299067 -0.57867,0.480667 -1.17467,1.5276 -1.528,2.181733 -0.78267,1.4396 -1.52267,2.905734 -2.248,4.3744 -0.91467,1.8516 -1.81467,3.710934 -2.70666,5.574534 -0.99334,2.073999 -2.09867,4.095866 -3.29334,6.061999 l -0.0987,0.162534 -0.15734,0.1088 c -0.696,0.482266 -1.576,0.9312 -2.32133,1.338 -1.316,0.714666 -2.624,1.439066 -3.932,2.1672 -1.344,0.751066 -2.67067,1.538533 -3.96267,2.3792 -0.528,0.343733 -1.696,1.130666 -2.01733,1.689066 -0.40267,0.684933 -1.42267,2.547867 -1.11067,3.385333 0.244,0.6552 0.752,0.965734 1.41734,1.119334 1.03066,0.238 2.11466,0.1912 3.15066,0.0083 0.97867,-0.1744 2.03467,-0.4416 2.92134,-0.903066 l 1.92133,-1.002134 -0.64933,2.067734 c -0.32667,1.040133 -0.60667,2.096933 -0.864,3.1552 -0.272,1.1256 -0.48534,2.266133 -0.62134,3.4156 -0.12266,1.019333 -0.192,2.0516 -0.17333,3.078133 0.009,0.543333 0.0813,1.3292 0.39333,1.833333 0.124,0.202667 0.576,0.598 0.75734,0.7552 0.48933,0.425067 1.02133,0.7948 1.58666,1.112 0.46534,0.260933 0.98267,0.4808 1.51334,0.567733 0.0333,0.0052 0.1,0.024 0.13333,0.01453 0.0187,-0.02027 0.036,-0.08333 0.06,-0.142667 1.69333,-3.538 3.34933,-7.1156 4.96267,-10.690666 1.61866,-3.588934 3.48399,-7.082267 5.66533,-10.361333 l 0.17333,-0.2636 0.30133,-0.09587 c 1.74534,-0.5568 3.65067,-1.470267 5.316,-2.238 2.94534,-1.356267 5.93734,-2.6188 8.94267,-3.834933 3.46933,-1.404134 6.96933,-2.738534 10.48933,-4.013467 3.40267,-1.2328 6.908,-2.240666 10.47334,-2.8704 2.88266,-0.508266 5.97333,-0.6968 8.84933,-0.06133 2.676,0.592133 4.53067,2.1916 5.40667,4.789466 1.13733,3.2292 0.0427,6.626667 -1.54934,9.491734 -2.19333,3.950533 -5.276,7.545866 -8.472,10.717199 -4.06933,4.0364 -8.54533,7.697867 -13.172,11.076 -5.176,3.7792 -10.532,7.310932 -16.02666,10.614132 -5.488,3.29893 -11.13067,6.3416 -16.92667,9.0676 -5.14,2.41773 -10.424,4.6256 -15.824,6.39427 -4.10266,1.3448 -8.57733,2.48026 -12.904,2.68133 -2.88133,0.13227 -6.25066,-0.23133 -8.29466,-2.48707 -1.828,-1.88333 -2.488,-4.20093 -2.13734,-6.78946 0.348,-2.59587 1.09467,-5.1152 2.12134,-7.5204 1.02666,-2.4104 2.22133,-4.74947 3.612,-6.97134 0.98133,-1.567729 1.98666,-3.186929 2.84666,-4.829729 0.28,-0.5244 0.11067,-0.687466 -0.412,-0.937466 -1.07733,-0.516134 -2.356,-0.682267 -3.54,-0.702 -1.47333,-0.02453 -2.94266,0.123866 -4.38,0.447333 -0.672,0.151067 -1.90133,0.496933 -2.25866,1.147867 -2.37867,4.651065 -4.73467,10.434935 -4.76667,15.738535 -0.024,3.7896 0.88667,7.38866 3.46533,10.248 2.68667,2.98173 6.492,4.48746 10.35867,5.22493 5.29333,1.01093 10.92933,0.80467 16.24667,0.0964 6.98266,-0.93027 13.92266,-2.87453 20.54933,-5.22707 8.08133,-2.86826 15.89733,-6.5672 23.40266,-10.72506 2.49734,-1.30414 4.928,-2.90307 7.23734,-4.514 2.96,-2.0672 5.804,-4.30267 8.54933,-6.64694 2.924,-2.497862 5.68667,-5.180662 8.28133,-8.021329 2.488,-2.724 4.70134,-5.695333 6.50667,-8.916666 1.61333,-2.876533 2.81867,-5.9604 3.40133,-9.214533 0.54,-3.021333 0.18934,-5.922933 -1.02533,-8.723467 -1.204,-2.5104 -3.12267,-4.463599 -5.41333,-6.009866 -2.53867,-1.712533 -5.344,-2.714133 -8.388,-3.053733 l -2.812,-0.314 2.47866,-1.366134 c 2.58934,-1.427066 5.20534,-2.813066 7.81867,-4.196933 3.748,-1.983866 7.43733,-4.0848 11.08267,-6.252 3.95466,-2.352666 7.82,-4.853733 11.58933,-7.495333 3.352,-2.351066 6.596,-4.990666 9.388,-7.995333 1.97467,-2.126533 3.83867,-4.7396 4.47733,-7.6188 0.58267,-2.6228 -0.73466,-4.715066 -2.64266,-6.406133 -4.436,-3.734667 -10.04134,-5.3799998 -15.744,-5.8986665 -7.32667,-0.668 -14.81467,-0.078667 -22.05067,1.1559995 -8.54933,1.457334 -16.96533,3.702667 -25.17467,6.4832 -8.568,2.9016 -16.97466,6.276533 -25.15199,10.145333 -7.59734,3.5948 -15.03734,7.5672 -22.15867,12.0312 -5.54133,3.4724 -11.21333,7.4172 -15.95467,11.948 -2.25466,2.0932 -4.39066,4.765066 -4.96666,7.8656 -0.41867,2.248933 -0.568,4.700533 0.032,6.932266 0.388,1.4432 1.03066,3.096933 2.15733,4.1308 0.12533,0.1156 0.516,0.4484 0.74133,0.527067"
     inkscape:connector-curvature="0" /><path
     id="path16"
     style="fill:#231f20;fill-opacity:1;fill-rule:evenodd;stroke:none;stroke-width:0.13333333"
     d="m 509.45865,101.60986 c -0.54933,-1.30826 -5.844,-3.672929 -6.968,-4.109329 -1.88533,-0.733333 -5.176,-1.801066 -7.24533,-1.576 -132.472,3.310934 -265.70933,8.099469 -398.640656,8.946799 l -1.624,-0.0197 0.880267,-1.3656 c 3.752667,-5.820402 5.839599,-12.540669 4.016133,-19.417202 -0.762,-2.876666 -2.4,-5.310933 -4.498933,-7.386533 -2.2224,-2.197333 -4.786933,-3.9328 -7.6312,-5.2208 -2.450533,-1.109333 -5.163066,-1.974533 -7.864666,-2.0396 -4.302,-0.0312 -8.597333,0.400534 -12.820267,1.2208 -4.440133,0.863067 -8.852133,1.875067 -13.227066,3.024534 -4.438,1.1656 -8.85,2.433333 -13.229733,3.805199 -4.204133,1.314534 -8.436933,2.5692 -12.698933,3.740667 -1.480267,0.356667 -3.055733,0.9396 -4.487467,1.456667 -2.092266,0.754266 -4.237066,1.362 -6.422399,1.783333 -1.820934,0.3516 -3.810467,0.5292 -5.64328,0.168267 -2.2859336,-0.4484 -2.7182269,-2.421334 -2.3260402,-4.457734 0.7520933,-3.8376 3.5791732,-7.640133 6.1166532,-10.507333 3.878667,-4.3792 8.400533,-8.309333 13.024,-11.879199 5.666133,-4.377067 11.628666,-8.3896 17.728133,-12.135867 6.632799,-4.0724 13.437466,-7.864133 20.380132,-11.381866 6.846934,-3.4708 13.837067,-6.663467 20.964133,-9.5172 6.347333,-2.5416 12.866129,-4.789466 19.501599,-6.454133 5.19427,-1.3052 10.73373,-2.264 16.1056,-2.174 3.81307,0.06467 7.9724,0.849067 10.83133,3.611467 1.20667,1.295866 1.416,2.8376 0.484,4.359466 -0.9392,1.535867 -2.5444,2.769733 -4.05173,3.711467 -2.08027,1.296266 -4.29013,2.419733 -6.51667,3.440533 -2.4812,1.136 -5.01453,2.155733 -7.59373,3.046933 -2.37347,0.8208 -4.77027,1.5828 -7.19267,2.2464 -1.72973,0.4744 -3.51986,0.952 -5.29946,1.280133 -0.48907,0.07347 -1.748,0.3084 -1.88907,0.921334 -0.1516,0.650533 0.42853,1.288533 0.86453,1.687066 1.0552,0.961467 2.6016,1.623867 3.93587,2.079067 2.0204,0.6896 4.26933,0.8172 6.4048,0.695333 1.50147,-0.026 3.32813,-0.4672 4.77813,-0.838533 2.33747,-0.599467 4.62907,-1.414533 6.85574,-2.3416 2.45933,-1.022933 4.8536,-2.1964 7.17133,-3.508933 2.12627,-1.204133 4.14627,-2.628667 5.90093,-4.3344 1.39734,-1.360933 2.584,-2.966667 3.19067,-4.838533 0.56,-1.7296 0.208,-3.4 -0.652,-4.968133 -2.38,-4.270934 -5.87067,-7.217734 -10.45107,-8.9204 C 124.56093,11.564 119.1344,10.878667 113.7588,10.972 107.43386,11.08 101.11973,11.981333 94.956264,13.382667 88.435998,14.864 81.982798,16.649467 75.637998,18.762533 69.784932,20.711467 63.999465,22.9036 58.367199,25.424 c -4.322934,1.9364 -8.666667,3.933866 -12.865067,6.124933 -7.369333,3.895867 -14.484933,8.257333 -21.273466,13.0948 -5.85,4.170266 -11.552626,8.908399 -16.2823062,14.335999 -3.4119866,3.914533 -6.5093865,8.6124 -7.58698514,13.7656 -0.97395864,4.655733 0.94322934,8.344266 4.44947854,11.383333 1.40052,1.248933 3.0786533,2.1416 4.8333332,2.7828 2.0223996,0.737467 4.1146136,1.250533 6.2438136,1.559867 2.234266,0.323466 4.489066,0.4844 6.746799,0.495866 2.106267,0.0104 4.2312,-0.123466 6.309867,-0.4896 4.878666,-0.8172 9.740133,-1.8916 14.549066,-3.047333 5.563467,-1.336 11.131733,-2.655333 16.704133,-3.9532 5.195333,-1.212 10.414,-2.334933 15.6568,-3.319733 3.728,-0.701067 8.016666,-1.36 11.816133,-1.149467 2.231733,0.1228 5.106666,0.7692 5.410933,3.4448 1.158267,10.156666 -9.1324,19.002 -16.608933,24.286395 l -0.225467,0.15934 -0.276533,0.005 c -11.2928,0.2032 -22.671466,0.7084 -33.906266,1.90373 -7.379733,0.7864 -15.014666,1.87027 -22.198532,3.7676 -3.523867,0.93027 -15.3223334,4.32347 -15.1197335,9.44693 0.1291734,3.28174 5.1677066,5.83907 7.7239595,6.91454 6.008307,2.5272 13.31204,3.67666 19.785373,4.0412 17.520933,0.98493 36.433866,-3.3088 50.616666,-13.96147 3.481866,-2.61667 6.775066,-5.63693 9.589599,-8.96347 l 0.256267,-0.30373 0.3964,-0.014 c 20.887999,-0.78187 41.794129,-0.0959 62.687469,-0.5136 l 351.78265,-5.32707 c 0.324,-0.008 1.472,-0.0719 1.876,-0.2844 z m -442.871185,9.374 c -1.425467,0.8188 -2.8624,1.61614 -4.3036,2.40467 -9.952133,5.4484 -21.531733,9.86827 -32.809866,11.4896 -2.6376,0.3792 -14.770399,1.83013 -15.550533,-2.3328 -1.60472,-8.5704 48.042666,-12.8964 52.142132,-13.23653 l 4.019334,-0.33227 -3.497467,2.00733"
     inkscape:connector-curvature="0" /><path
     id="path18"
     style="fill:#231f20;fill-opacity:1;fill-rule:evenodd;stroke:none;stroke-width:0.13333333"
     d="m 515.80532,59.645332 c -1.67733,0.670267 -3.896,2.278134 -5.34267,3.307333 -2.68533,1.911867 -5.312,3.902 -7.88933,5.9556 -3.40133,2.730267 -6.78,5.491734 -10.13867,8.2756 l -2.93066,2.4292 4.332,-9.825066 0.18533,-0.140667 c 4.21733,-3.192133 8.352,-6.499467 12.43333,-9.862933 4.56667,-3.7636 9.06667,-7.6068 13.504,-11.521866 4.37867,-3.864134 8.67334,-7.824 12.864,-11.890667 3.68534,-3.578133 7.28667,-7.269733 10.67734,-11.1292 2.50266,-2.851999 5,-5.972399 6.90933,-9.261333 0.84533,-1.454666 2.17467,-4.049333 1.68267,-5.774666 -0.63734,-1.8906668 -1.57734,-3.7013334 -2.996,-5.1253334 -1.20934,-1.212 -2.59867,-2.2039999 -4.196,-2.8399999 -1.42134,-0.5693333 -2.91867,-0.9226667 -4.45467,-0.9453333 -1.24,-0.02 -2.55067,0.1106666 -3.73333,0.5653333 -2.94267,0.996 -5.73334,3.0639999 -8.03067,5.1119999 -3.256,2.9066666 -6.27333,6.1173334 -9.10933,9.4318664 -3.348,3.912 -6.464,8.0292 -9.40267,12.257866 -3.13867,4.5176 -6.172,9.109333 -9.096,13.7692 -2.84533,4.5328 -5.572,9.138533 -8.15867,13.824 -2.25866,4.091066 -4.464,8.219733 -6.552,12.401599 -0.29866,0.5948 -0.592,1.191067 -0.884,1.789067 l -0.0973,0.197867 -0.17733,0.130666 c -0.976,0.718267 -2.02534,1.3328 -3.11334,1.8652 -2.53333,1.238 -5.21866,1.752534 -8.028,1.462934 l -0.86133,-0.08907 0.0573,-0.864 c 0.144,-2.1896 -0.256,-4.269867 -1.392,-6.157333 -1.168,-1.938534 -3.088,-2.922934 -5.25466,-3.3828 l -0.588,-0.124934 -0.108,-0.5912 c -0.19467,-1.051599 -0.81333,-1.779199 -1.72667,-2.313066 -1.08533,-0.6364 -2.26933,-0.922933 -3.52533,-0.900933 -2.13333,0.03693 -4.09467,0.629066 -5.9,1.7656 -1.9,1.195333 -3.53467,2.710399 -4.91333,4.481199 -1.108,1.426534 -2.06534,2.9604 -2.86267,4.583334 l -0.0827,0.1708 -0.144,0.120933 c -1.19466,1.0052 -2.54,1.8296 -3.93866,2.5156 -2.53467,1.2396 -5.22,1.752533 -8.02934,1.463467 l -0.86266,-0.08907 0.0573,-0.864 c 0.14533,-2.188533 -0.25467,-4.2708 -1.39067,-6.1568 -1.168,-1.938533 -3.088,-2.924 -5.25466,-3.383867 l -0.588,-0.1244 -0.108,-0.590666 c -0.19467,-1.052667 -0.81334,-1.780267 -1.72667,-2.314133 -1.084,-0.6348 -2.27067,-0.922267 -3.52533,-0.9 -2.13334,0.036 -4.09334,0.6292 -5.9,1.764666 -1.9,1.195867 -3.536,2.7104 -4.91334,4.481733 -1.43466,1.8464 -2.60933,3.866134 -3.51733,6.021867 -0.83467,1.980267 -1.43733,4.086533 -1.61733,6.2552 -0.24,1.9188 0.124,3.690666 1.204,5.3 1.092,1.624533 2.456,2.9792 4.10266,4.037066 1.55067,0.9952 3.23467,1.7432 5.04,2.123333 1.312,0.276134 2.83734,0.4048 4.13867,-0.0536 2.51467,-0.7932 4.86667,-1.985866 6.88133,-3.697866 1.868,-1.586533 3.492,-3.414667 4.792,-5.493333 l 0.22267,-0.356134 0.41733,-0.05733 c 3.85867,-0.5308 7.836,-1.614133 11.128,-3.762 l 1.56267,-1.0188 -0.21867,2.303733 c -0.24133,1.915067 0.12,3.686934 1.20267,5.2968 1.09067,1.625067 2.456,2.979734 4.10267,4.0376 1.55066,0.9948 3.23333,1.743734 5.04133,2.123867 1.31067,0.2756 2.836,0.404266 4.13733,-0.0536 2.51467,-0.7932 4.86667,-1.986933 6.88267,-3.6984 1.86666,-1.587067 3.48933,-3.414133 4.78933,-5.4928 l 0.224,-0.356267 0.416,-0.05773 c 3.11467,-0.4276 6.272,-1.209867 9.10133,-2.607867 l 2.096,-1.035333 -0.86266,2.172933 c -0.43334,1.088534 -1.46667,3.693734 -1.44667,4.861334 0.0107,0.629733 0.34133,1.2292 0.71333,1.718266 0.528,0.692267 1.18534,1.244267 1.94267,1.671867 0.74,0.4188 1.53733,0.698 2.38667,0.7756 0.61333,0.0588 1.13466,-0.08907 1.608,-0.440133 0.60266,-2.130267 1.54,-4.1224 2.84933,-5.914134 1.31467,-1.799466 2.90133,-3.340533 4.74933,-4.5828 l 1.76934,-1.188533 -0.384,2.095333 c -0.0893,0.489067 -0.15467,0.981734 -0.196,1.477067 -0.024,0.294267 0.0467,0.537467 0.228,0.7704 l 0.0733,0.09427 0.0453,0.109333 c 0.23734,0.566133 1.11334,1.4328 1.54934,1.854667 0.99466,0.962 2.11066,1.8084 3.268,2.565066 1.23066,0.8084 2.576,1.360934 4.01733,1.671334 1.42533,0.3068 2.77867,0.0808 4.08533,-0.556134 1.97867,-0.965733 3.92134,-2.152666 5.78134,-3.328133 2.41866,-1.528667 4.79466,-3.126133 7.132,-4.7776 2.24533,-1.586 4.44533,-3.240133 6.56666,-4.9876 1.428,-1.174933 3.00267,-2.503066 4.22534,-3.898933 0.23333,-0.367733 0.84266,-1.380667 0.976,-1.921867 -1.23467,0.0448 -2.876,1.159867 -3.784,1.840667 -1.43867,1.117733 -3.68934,2.1864 -5.32667,2.991067 -2.72267,1.338533 -5.46533,2.634933 -8.224,3.895866 -2.55733,1.1688 -5.16533,2.269867 -7.81733,3.204667 -1.11734,0.394266 -4.13734,1.5552 -4.9,0.04427 -0.70534,-1.123866 -0.73334,-2.395733 -0.35867,-3.651466 0.36267,-1.209467 0.80133,-2.394267 1.304,-3.552667 l 0.15067,-0.352133 0.36133,-0.133733 c 1.98667,-0.7344 3.99733,-1.407334 6.03333,-1.9948 1.73067,-0.500534 3.45734,-1.017734 5.17467,-1.5652 1.23333,-0.3932 2.508,-0.843734 3.67067,-1.418134 0.23066,-0.114133 1.072,-0.572933 1.12266,-0.850533 0.08,-0.533867 -0.13333,-1.1636 -0.35866,-1.655733 -0.34,-0.742267 -0.81867,-1.394267 -1.40534,-1.962 -0.59466,-0.574533 -1.25866,-1.0688 -1.996,-1.445867 -0.508,-0.259866 -1.05866,-0.421866 -1.62933,-0.3536 z m -100.928,26.206266 c -1.42533,-1.593733 -1.104,-3.9828 -0.55333,-5.870933 0.78267,-2.676 2.13867,-5.166133 3.752,-7.428533 l 1.23067,-1.7272 0.384,2.086 c 0.296,1.6088 0.82,3.176533 1.68,4.573466 0.72666,1.178134 1.63333,2.239067 2.77066,3.036934 l 0.80934,0.566133 -0.64134,0.752133 c -1.416,1.663067 -3.08533,3.180134 -5.03333,4.195334 -1.36933,0.715066 -3.34,1.345733 -4.39867,-0.183334 z m 39.26934,-0.6776 c -1.42534,-1.593333 -1.10534,-3.983333 -0.55334,-5.870933 0.78267,-2.675467 2.13734,-5.1656 3.75067,-7.428533 l 1.23067,-1.726133 0.384,2.085466 c 0.296,1.607334 0.82266,3.176 1.68133,4.572933 0.72667,1.1792 1.63333,2.239067 2.77067,3.0364 l 0.80933,0.5672 -0.64133,0.7516 c -1.416,1.663467 -3.08534,3.1796 -5.03334,4.195867 -1.36933,0.714533 -3.34,1.3452 -4.39866,-0.183867 z M 547.86799,5.9546669 c 1.096,1.688 -0.804,4.7360001 -1.7,6.1466661 -2.08134,3.274667 -4.53334,6.418 -7,9.411734 -3.25067,3.947333 -6.65334,7.775999 -10.13067,11.522399 -3.632,3.911867 -7.31067,7.7812 -11.04667,11.5932 -3.20933,3.274933 -6.45333,6.5208 -9.75466,9.700533 -2.04667,1.9692 -4.21734,4.0896 -6.43867,5.859333 l -0.62,0.4948 -1.13467,-1.1104 0.48134,-0.631333 c 7.15333,-9.3848 14.36133,-18.732266 21.67466,-27.994666 2.68134,-3.393867 5.408,-6.7516 8.188,-10.065733 2.40934,-2.871867 4.88,-5.707867 7.45467,-8.4332 1.80933,-1.914667 3.72667,-3.8719998 5.756,-5.5533331 0.976,-0.8093333 3.05067,-2.4253333 4.21067,-1.024 l 0.032,0.04 0.028,0.044"
     inkscape:connector-curvature="0" /><path
     id="path20"
     style="fill:#231f20;fill-opacity:1;fill-rule:evenodd;stroke:none;stroke-width:0.13333333"
     d="m 202.69866,58.173999 c 0.612,-0.143333 1.38533,-0.716133 1.848,-1.088533 0.904,-0.728667 1.73333,-1.5464 2.48933,-2.4272 0.75467,-0.879067 1.44534,-1.813467 2.04667,-2.804134 0.29733,-0.489066 0.77467,-1.359333 0.76267,-1.951466 l -10e-4,-0.0896 0.0173,-0.08707 c 0.0627,-0.344267 -0.37734,-0.980666 -0.568,-1.2312 -0.57867,-0.762 -1.31467,-1.4052 -2.096,-1.95 -0.852,-0.5932 -1.77334,-1.066133 -2.75867,-1.392666 -0.65467,-0.216134 -1.47333,-0.412534 -2.172,-0.3188 -0.67733,0.224 -1.312,0.724 -1.81467,1.211466 -0.74666,0.7192 -1.37999,1.543734 -1.91866,2.4292 -0.576,0.9484 -1.088,1.935333 -1.52667,2.956267 -0.29333,0.683733 -0.64,1.5416 -0.74933,2.271333 -0.068,0.5448 0.10533,1.014533 0.42133,1.455733 0.444,0.6176 1.02,1.118134 1.65734,1.5276 0.74,0.475467 1.54,0.839067 2.37866,1.102534 0.604,0.1896 1.33867,0.381333 1.984,0.386533 z m 174.95866,-2.963067 c 0.28534,-0.401066 -0.244,-0.836 -0.536,-1.088533 -1.12,-0.9672 -2.58133,-1.7068 -3.936,-2.275467 -1.86,-0.7824 -3.796,-1.394266 -5.752,-1.883333 -1.82666,-0.456267 -3.74133,-0.763066 -5.62933,-0.7292 -2.38,0.04053 -5.03067,0.3692 -7.40667,0.5932 -11.34266,1.0672 -22.67333,2.349467 -34.01999,3.352133 -11.364,1.0036 -24.856,1.3948 -36.26267,1.5916 l -0.48133,0.0084 c 3.66266,-2.7672 11.128,-13.141199 15.90266,-17.138133 -1.85866,-0.9656 -6.47333,-3.249466 -7.5,-3.232799 -1.34,0.02293 -2.60266,0.590666 -3.70133,1.324533 -0.89467,0.596933 -2.47467,2.271333 -3.284,3.0552 -2.07067,2.010933 -4.12267,4.043733 -6.16933,6.077066 -3.07734,3.054134 -5.14534,7.386533 -8.34,10.282267 l -0.23734,0.2152 -0.31866,0.01667 c -5.12534,0.265067 -10.656,0.03427 -15.80667,-0.02813 -3.64267,-0.04427 -7.288,-0.09373 -10.93067,-0.0876 -0.97333,0.0016 -3.96133,-0.0656 -5.25866,0.112533 -0.12,0.566134 -0.25067,1.357867 -0.0773,1.630267 0.468,0.733333 5.31334,0.651067 6.08534,0.6552 7.33066,0.03907 14.52533,0.128133 21.85733,0.5172 l 1.676,0.0896 -1.004,1.3452 c -2.51333,3.363066 -4.63467,7.005733 -6.42667,10.799066 -0.49866,1.0552 -0.964,2.126534 -1.38533,3.215067 l -0.0933,0.2396 -0.20534,0.154667 c -1,0.75 -2.01733,1.4776 -3.03866,2.198399 -2.71467,1.916134 -5.48267,3.759867 -8.284,5.546934 -2.64534,1.686933 -5.332,3.326 -8.07467,4.845866 -1.12133,0.6208 -4.01467,2.293734 -5.33333,1.533334 -1.00134,-0.6464 -0.56534,-1.874 -0.0907,-2.694267 0.58667,-1.0188 1.38133,-1.980267 2.17467,-2.845333 1.02533,-1.1224 2.04266,-2.256267 3.04933,-3.3948 1.032,-1.164667 2.048,-2.3428 3.03867,-3.5412 0.8,-0.964 1.56,-1.980133 2.21066,-3.052 0.14667,-0.242267 0.65067,-1.151067 0.524,-1.455733 l -0.0187,-0.04227 -0.0133,-0.04427 c -0.19866,-0.652133 -1.03466,-1.2344 -1.58533,-1.561466 -1.08933,-0.648934 -2.248,-1.166667 -3.44667,-1.574934 -1.156,-0.394266 -2.35333,-0.6912 -3.568,-0.8292 -0.36266,-0.0412 -1.56266,-0.1532 -1.89333,0.01973 -0.416,0.249466 -1.13867,0.964133 -1.50533,1.301066 -1.11334,1.0256 -2.2,2.085467 -3.27334,3.1532 -3.60266,3.580667 -7.33466,7.941067 -11.90133,10.2124 l 1.404,-2.6296 c 2.028,-2.895333 4.05867,-5.789066 6.088,-8.683866 1.324,-1.887467 2.64533,-3.7776 3.95333,-5.676534 0.78267,-1.138133 1.568,-2.275599 2.364,-3.404799 0.396,-0.556667 0.80534,-1.2192 1.01067,-1.8744 l 0.0187,-0.062 0.0293,-0.05733 c 0.20933,-0.438533 -0.224,-1.180666 -0.45067,-1.528133 -0.62133,-0.946267 -1.404,-1.7692 -2.28,-2.4828 -0.936,-0.759333 -1.984,-1.338 -3.12,-1.741067 -0.93066,-0.3308 -1.804,-0.319333 -2.652,0.207734 l -0.0587,0.03707 -0.0573,0.02493 c -0.63066,0.3412 -2.62133,3.115066 -3.068,3.737466 -2.22933,3.1048 -4.31866,6.343733 -6.35333,9.578133 -1.64267,2.609467 -3.26667,5.228667 -4.88133,7.8552 l -0.068,0.109467 -0.0933,0.08587 c -1.684,1.523466 -3.44,2.966666 -5.27466,4.303733 -1.72,1.2536 -3.48534,2.464533 -5.308,3.5656 -1.36933,0.826533 -2.81467,1.6296 -4.29467,2.238533 -0.83333,0.342133 -2.24933,0.890533 -3.11333,0.3328 -1.13867,-0.8224 -0.48667,-2.580267 -0.0373,-3.597467 0.68,-1.539466 1.38933,-3.066666 2.116,-4.585333 0.796,-1.658933 1.6,-3.314666 2.416,-4.964666 0.44933,-0.906134 1.144,-2.3708 1.252,-3.3864 0.06,-0.566134 -0.024,-1.095867 -0.352,-1.567734 -0.38,-0.551066 -0.86934,-1.002533 -1.424,-1.373466 -0.67067,-0.445734 -1.38667,-0.816134 -2.12934,-1.125467 -0.70266,-0.2932 -1.42533,-0.557333 -2.16133,-0.757333 -0.696,-0.02387 -1.55067,0.854266 -1.952,1.311466 -1.13067,1.286534 -2.09333,2.7792 -2.936,4.268267 -0.90533,1.600533 -1.66267,3.2844 -2.29733,5.0088 l -0.0667,0.1776 -2.476,2.564133 c -1.59733,1.652533 -3.252,3.252533 -4.94933,4.802533 -1.628,1.486534 -3.30667,2.925067 -5.056,4.268267 -1.06667,0.821333 -2.764,2.0188 -4.164,2.042667 -1.85734,0.03187 -1.92134,-1.616667 -1.33734,-2.962934 0.62134,-1.4292 1.42667,-2.819866 2.25734,-4.137066 0.948,-1.503067 1.848,-3.036934 2.69733,-4.597867 0.392,-0.7208 1.13333,-2.1776 1.02,-2.988 -0.188,-0.7792 -0.61067,-1.3792 -1.22267,-1.892266 -0.69866,-0.5848 -1.47866,-1.044667 -2.33466,-1.359867 -0.77067,-0.2848 -1.588,-0.457733 -2.412,-0.444267 -0.16134,0.0027 -0.71067,0.0276 -0.83734,0.1516 l -0.056,0.122934 -0.10133,0.104133 c -0.48933,0.504667 -1.21733,0.9412 -1.828,1.280267 -0.83333,0.463466 -1.704,0.858266 -2.59867,1.1916 -0.90266,0.336 -1.844,0.566133 -2.80533,0.643733 -0.932,0.074 -1.88267,-0.09107 -2.57733,-0.7624 l -0.66667,-0.645867 0.66533,-0.645333 c 1.13067,-1.097467 2.19334,-2.527067 2.21867,-4.169333 0.016,-1.135867 -0.22933,-2.252 -1.09733,-3.0416 -0.86267,-0.786934 -1.98934,-0.885467 -3.10267,-0.722934 -1.72133,0.252134 -3.244,1.753067 -4.29733,3.0484 -0.95067,1.116667 -1.98267,2.685467 -1.74134,4.231334 0.20667,1.3312 0.87734,2.378666 1.924,3.221333 0.108,0.0864 0.22134,0.1708 0.33334,0.252 l 0.92533,0.666667 -0.86533,0.742799 c -0.42534,0.366134 -0.82667,0.785867 -1.21067,1.2276 -2.01733,2.087467 -4.39467,3.975467 -6.736,5.683867 -2.72667,1.9896 -5.556,3.8364 -8.4924,5.502533 -2.57653,1.4656 -5.31253,2.766133 -8.14853,3.645867 -1.8588,0.5776 -4.42494,1.097333 -6.08534,-0.184934 -1.8448,-1.2468 -1.336,-3.767733 -0.72453,-5.546799 0.86147,-2.5016 2.0652,-4.8776 3.48187,-7.1084 1.3676,-2.155734 2.91346,-4.233867 4.68893,-6.071333 1.0256,-1.062534 3.10893,-2.9984 4.5964,-1.562 0.92813,0.898 0.8256,2.052666 0.16507,3.080266 -0.63227,0.988534 -1.43427,1.9088 -2.24787,2.751067 -0.93173,0.963466 -1.8896,1.900933 -2.87187,2.811866 -0.56506,0.523467 -1.36973,1.310534 -1.69586,1.988134 -0.1604,0.392133 -0.14947,0.6848 0.12813,1.012933 0.42347,0.5 1.0344,0.8136 1.6484,1.017733 0.81,0.270267 1.66147,0.389067 2.5136,0.374 0.8156,-0.01413 1.55573,-0.236 2.23387,-0.677066 1.76146,-1.183334 3.37413,-2.569867 4.84746,-4.095334 1.336,-1.3828 2.10267,-3.001066 2.07067,-4.937066 -0.0213,-1.159867 -1.232,-2.4104 -2.02933,-3.129067 -1.54667,-1.390133 -3.32374,-2.484933 -5.21227,-3.343333 -1.974,-0.895733 -4.03333,-1.583333 -6.15987,-2.010933 -1.4,-0.281734 -3.14173,-0.408267 -4.41773,0.3652 -1.50627,0.914 -2.98013,2.3348 -4.19947,3.596266 -1.67186,1.7292 -3.162,3.620934 -4.4724,5.637067 -1.26973,1.952533 -2.32133,4.038533 -3.0656,6.247333 -0.53333,1.578667 -0.90573,3.448933 -0.438,5.0896 l 0.0135,0.04427 0.008,0.0464 c 0.32973,1.875466 1.352,3.355733 2.81346,4.552533 1.72347,1.412533 3.6824,2.449466 5.78547,3.172933 2.1412,0.737467 4.35267,1.2532 6.60733,1.476 1.6572,0.164667 3.5796,0.193333 5.20307,-0.300933 1.90107,-0.51 3.83707,-1.625067 5.46307,-2.71 2.20893,-1.4728 4.3036,-3.113467 6.29293,-4.870267 2.032,-1.797866 3.98667,-3.682266 5.84533,-5.659866 1.50534,-1.601067 2.99734,-3.229734 4.372,-4.911467 0.41067,-0.5688 0.816,-1.174 1.12267,-1.804667 l 0.33467,-0.687466 0.73066,0.2192 c 0.436,0.130266 0.87867,0.236933 1.32534,0.322933 1.80133,0.3464 3.584,0.2864 5.34133,-0.235467 l 1.87733,-0.556666 -0.80266,1.785866 c -0.736,1.6396 -1.46267,3.2844 -2.16934,4.936 -0.52933,1.240534 -0.89066,2.5952 -0.868,3.9828 -0.0667,1.3484 0.42534,2.487467 1.37067,3.442133 1.10667,1.117734 2.39733,1.986934 3.83333,2.627067 1.41734,0.6328 2.9,1.129733 4.42667,1.4188 0.87467,0.165067 2.156,0.323467 3.004,-0.012 1.97867,-0.807867 3.74,-2.164 5.25867,-3.647867 1.81733,-1.777599 3.532,-3.657333 5.13466,-5.629733 0.32934,-0.4036 0.65734,-0.8104 0.98,-1.219333 l 1.20534,-1.516133 0.38,1.899466 c 0.15866,0.793334 0.44933,1.536 0.87066,2.2272 0.84534,1.3848 1.932,2.554667 3.252,3.497333 1.27734,0.913067 2.66667,1.6536 4.16267,2.140667 1.108,0.360933 2.368,0.633867 3.54133,0.523333 1.00267,-0.294266 2.372,-1.2572 3.192,-1.852533 0.60667,-0.440133 1.204,-0.893733 1.796,-1.3552 l 3.78933,-2.958933 -2.46533,4.128133 c -1.20933,2.022933 -2.41066,4.050533 -3.60933,6.0808 -3.10533,5.259335 -6.184,10.534935 -9.236,15.827605 -2.776,4.81093 -5.52933,9.63546 -8.24533,14.4812 -2.11867,3.7828 -4.22134,7.5776 -6.26667,11.40108 -1.112,2.07656 -2.352,4.30573 -3.28933,6.47084 -0.36134,0.80781 -0.72667,1.95312 -0.076,2.71614 0.63733,0.74635 1.448,1.17708 2.408,1.36771 1.12266,0.22396 2.25733,0.18229 3.37466,-0.0615 0.81334,-0.17708 1.66934,-0.51719 2.10934,-1.24949 5.67066,-10.20364 11.51066,-20.30722 17.58533,-30.27442 4.872,-7.99427 9.812,-15.98814 14.92666,-23.882405 1.552,-1.952 3.23334,-3.833733 4.96534,-5.626533 1.732,-1.792133 3.52933,-3.518667 5.41333,-5.125467 1.96133,-1.814666 3.96533,-3.569866 6.02267,-5.276533 l 4.736,-3.9292 -3.416,5.1192 c -0.82534,1.238133 -1.63067,2.481867 -2.40134,3.740667 -0.58133,1.0088 -1.124,2.0328 -1.62666,3.0812 -0.23734,0.4948 -0.60934,1.411466 -0.5,2.014666 0.11866,1.255734 0.776,2.306267 1.66933,3.168267 1.12133,1.084266 2.42133,1.9276 3.844,2.561333 1.53067,0.683333 3.13867,1.1448 4.792,1.407867 1.54267,0.245333 3.11067,0.260933 4.612,-0.06507 1.52,-0.444267 3.992,-2.334933 5.24533,-3.295867 2.68,-2.056799 5.272,-4.231199 7.788,-6.487466 1.34667,-1.2052 2.68267,-2.421333 4.00667,-3.650533 l 1.844,-1.709867 -0.364,2.6484 c -0.36267,2.749467 -0.21067,5.6916 1.20667,8.143733 1.484,2.566133 4.93866,2.961467 7.61066,2.915067 2.364,-0.0396 4.932,-1.2932 6.912,-2.492134 2.828,-1.711466 5.51734,-3.641733 8.05734,-5.755733 2.35866,-1.964 4.64666,-4.045866 6.75066,-6.281733 1.196,-1.270933 2.52934,-2.622933 3.608,-3.961466 0.36934,-0.512 0.85067,-1.231867 0.24534,-1.7432 -0.7,-0.592267 -2.41067,0.528533 -2.99467,0.9312 -1.636,0.9464 -3.42667,2.383333 -4.924,3.539066 -2.49733,1.926533 -5.02,3.8192 -7.564,5.6812 -2.396,1.754267 -4.852,3.446933 -7.38267,5.002133 -1.20533,0.740134 -3.87733,2.380133 -5.316,1.457334 -1.31866,-0.907867 -1.22133,-2.5272 -0.792,-3.890667 0.564,-1.802133 1.572,-3.589067 2.588,-5.172933 4.68934,-7.300533 10.844,-17.174933 17.59334,-22.264533 l 0.21466,-0.162 0.268,-0.01773 c 12.14934,-0.7948 26.44934,-1.0864 38.62267,-1.2136 12.152,-0.126 24.308,-0.04107 36.46133,-0.146267 4.79867,-0.04227 9.60667,-0.09747 14.40267,-0.247467 0.816,-0.02653 4.70133,-0.158266 5.45866,-0.5484"
     inkscape:connector-curvature="0" /><circle
     style="fill:none;stroke:#231f20;stroke-width:1.00718164;stroke-opacity:1"
     cx="519.69641"
     cy="98.988655"
     r="4.4567785"
     id="circle4641" /><path
     inkscape:connector-curvature="0"
     d="m 519.42446,98.585785 c 0.27697,0 0.47841,-0.0554 0.59927,-0.161149 0.12086,-0.100718 0.18633,-0.271939 0.18633,-0.513662 0,-0.236688 -0.0655,-0.402873 -0.18633,-0.508627 -0.12086,-0.100718 -0.3223,-0.151077 -0.59927,-0.151077 h -0.56402 v 1.334515 h 0.56402 m -0.56402,0.921572 v 1.964003 h -1.33955 v -5.192021 h 2.04457 c 0.68489,0 1.18344,0.115826 1.5007,0.347478 0.3223,0.226616 0.47842,0.589201 0.47842,1.087756 0,0.342442 -0.0806,0.624453 -0.24676,0.846033 -0.16619,0.216544 -0.41295,0.382729 -0.75035,0.483447 0.18633,0.04532 0.34747,0.141005 0.49352,0.287047 0.14604,0.146041 0.29208,0.367621 0.43812,0.66978 l 0.73021,1.47048 h -1.42517 l -0.63452,-1.28919 c -0.1259,-0.256833 -0.25683,-0.438126 -0.38777,-0.528772 -0.13093,-0.09568 -0.30719,-0.146041 -0.52373,-0.146041 h -0.37769"
     id="path4643"
     style="stroke-width:0.05035908;fill:#231f20;fill-opacity:1" /></svg>