<svg width="927" height="382" viewBox="0 0 927 382" fill="none" xmlns="http://www.w3.org/2000/svg">
<path d="M729.185 343.613C724.832 341.616 721.82 339.75 720.148 338.016C718.489 336.375 718.791 334.585 721.051 332.646C721.55 332.195 722.475 332.388 723.826 333.226C725.255 333.958 726.447 334.678 727.401 335.386C729.493 336.774 731.906 337.455 734.638 337.428C737.476 337.479 740.535 336.791 743.814 335.362C747.514 333.587 750.638 331.426 753.186 328.879C755.812 326.226 758.186 323.138 760.306 319.616C761.876 316.837 762.818 313.961 763.133 310.989C763.434 307.926 763.308 305.161 762.754 302.695C762.293 300.216 761.525 298.537 760.452 297.658C757.665 294.769 754.105 293.031 749.773 292.446C745.519 291.755 740.732 292.558 735.411 294.856C734.778 295.044 733.836 295.372 732.585 295.84C731.333 296.308 730.22 296.756 729.246 297.184C728.257 297.519 727.717 297.693 727.625 297.707C727.006 297.987 726.532 298.293 726.204 298.625C725.862 298.864 725.503 299.625 725.126 300.907C724.829 302.083 724.391 304.224 723.813 307.329C723.221 310.341 722.326 314.814 721.129 320.747C720.024 326.666 719.049 330.914 718.204 333.492C717.438 335.965 716.58 337.177 715.629 337.129C714.757 336.975 713.545 336.116 711.993 334.554C711.063 333.37 710.416 332.192 710.054 331.019C709.678 329.754 709.829 328.222 710.506 326.424C710.845 325.524 711.104 324.731 711.286 324.044C711.453 323.264 711.638 321.963 711.84 320.14C712.097 318.687 712.618 316.157 713.405 312.549C714.271 308.836 715.285 304.534 716.448 299.645C717.597 294.663 718.819 289.528 720.112 284.242C721.405 278.956 722.646 273.96 723.837 269.255C725.119 264.536 726.182 260.557 727.023 257.319C727.892 254.266 728.369 252.072 728.455 250.739C728.54 249.405 728.345 248.726 727.87 248.702C727.802 248.241 727.602 247.846 727.27 247.517C726.925 247.097 726.771 246.695 726.809 246.312C726.754 245.943 727.279 245.346 728.383 244.522C729.58 243.684 730.876 242.879 732.272 242.107C733.759 241.32 734.932 240.958 735.79 241.02C736.252 240.951 736.806 240.869 737.452 240.773C738.085 240.585 738.374 240.307 738.319 239.937C738.596 239.896 739.459 239.674 740.909 239.271C742.359 238.868 743.975 238.628 745.757 238.553C752.024 238.191 757.092 239.281 760.959 241.822C764.813 244.271 767.076 248.087 767.749 253.271C767.889 254.854 767.373 257.101 766.2 260.011C765.119 262.907 763.669 265.858 761.849 268.863C760.122 271.855 758.38 274.425 756.622 276.572C755.572 277.765 754.437 279.018 753.216 280.331C752.074 281.538 751.049 282.586 750.143 283.475C749.316 284.258 748.902 284.65 748.902 284.65C748.902 284.65 749.292 284.733 750.071 284.901C750.851 285.069 751.677 285.23 752.549 285.383C757.028 286.324 760.83 287.79 763.955 289.78C767.081 291.771 769.466 294.814 771.11 298.911C771.684 300.241 771.937 301.949 771.869 304.035C771.892 306.107 771.778 308.2 771.524 310.313C771.257 312.334 770.903 314.085 770.462 315.565C769.912 316.307 769.506 317.075 769.246 317.868C768.973 318.569 768.836 318.92 768.836 318.92C768.863 319.104 768.603 319.898 768.056 321.3C767.495 322.609 766.816 324.078 766.019 325.705C765.222 327.333 764.444 328.769 763.685 330.014C762.871 330.889 761.893 331.93 760.751 333.137C759.701 334.33 758.46 335.505 757.027 336.661C755.686 337.803 754.187 338.827 752.528 339.733C750.107 341.223 747.401 342.379 744.408 343.199C741.522 344.098 738.713 344.561 735.981 344.588C733.263 344.708 730.997 344.383 729.185 343.613ZM728.077 289.29C728.077 289.29 728.887 289.028 730.508 288.505C732.208 287.876 734.046 287.227 736.022 286.557C737.985 285.794 739.401 285.16 740.269 284.654C740.69 284.309 741.282 283.844 742.044 283.259C742.899 282.661 743.72 281.832 744.506 280.772C745.621 279.38 746.984 277.433 748.595 274.93C750.284 272.321 751.914 269.627 753.484 266.847C755.04 263.974 756.175 261.448 756.89 259.266C758.522 255.628 759.313 253.01 759.266 251.413C759.204 249.724 758.485 248.368 757.107 247.346C756.125 246.453 754.599 246.019 752.526 246.042C750.533 245.96 748.442 246.175 746.253 246.688C744.051 247.109 742.199 247.666 740.698 248.36C739.553 248.907 738.698 249.505 738.133 250.155C737.556 250.712 737.342 251.499 737.492 252.514C737.615 253.345 737.461 254.217 737.03 255.13C736.678 255.937 736.305 256.605 735.912 257.135C735.915 257.795 735.773 258.43 735.486 259.038C735.185 259.555 735.035 259.813 735.035 259.813C735.089 260.182 734.669 261.801 733.772 264.67C732.876 267.539 732.042 270.823 731.268 274.523C730.194 278.739 729.38 282.162 728.826 284.792C728.258 287.329 728.008 288.828 728.077 289.29ZM809.081 318.764C807.389 320.713 805.27 322.017 802.726 322.677C800.274 323.323 797.773 323.316 795.222 322.655C792.657 321.903 790.426 320.535 788.529 318.551C786.658 316.753 785.301 314.595 784.457 312.078C783.599 309.469 783.04 306.014 782.78 301.712C782.524 298.07 783.145 294.298 784.643 290.397C786.128 286.403 788.089 282.763 790.527 279.477C793.058 276.178 795.673 273.762 798.371 272.231C799.619 271.102 800.711 270.516 801.648 270.472C802.664 270.321 804.201 270.188 806.26 270.072C808.424 270.034 810.055 270.218 811.153 270.621C812.343 271.011 813.329 271.62 814.112 272.447C815.702 273.627 816.83 274.875 817.497 276.192C818.15 277.416 818.572 278.675 818.764 279.967C818.695 282.053 817.679 284.751 815.716 288.061C813.832 291.265 811.134 294.07 807.622 296.477C805.686 297.424 803.511 298.029 801.097 298.292C798.683 298.555 796.609 298.249 794.875 297.374C793.012 296.895 791.878 297.204 791.475 298.302C791.057 299.307 790.891 301.69 790.976 305.452C791.127 309.015 791.786 311.559 792.956 313.084C794.111 314.517 795.494 315.256 797.105 315.3C799.006 315.396 800.478 315.461 801.521 315.496C802.643 315.424 803.92 314.81 805.353 313.655C806.693 312.513 807.542 311.868 807.897 311.721C808.239 311.482 808.489 311.256 808.646 311.044C808.882 310.726 809.393 310.037 810.18 308.977C810.731 308.235 811.17 307.698 811.498 307.367C811.813 306.943 812.201 306.697 812.663 306.628C813.124 306.56 813.574 306.729 814.012 307.136C814.436 307.451 814.846 307.673 815.243 307.803C816.166 307.666 816.432 308.193 816.043 309.383C815.745 310.559 814.974 312.041 813.729 313.83C812.47 315.526 810.921 317.17 809.081 318.764ZM804.596 289.424C805.543 288.812 806.509 288.009 807.494 287.014C808.465 285.926 809.245 284.82 809.833 283.695C810.5 282.464 810.779 281.48 810.67 280.741C810.478 279.448 809.721 278.476 808.398 277.822C807.061 277.077 805.24 277.205 802.935 278.206C801.961 278.634 800.909 279.497 799.78 280.796C798.638 282.003 797.563 283.342 796.554 284.812C795.637 286.269 794.885 287.56 794.297 288.685C793.801 289.796 793.659 290.43 793.871 290.588C794.216 291.008 795.055 291.261 796.389 291.347C797.709 291.34 799.147 291.174 800.703 290.85C802.351 290.511 803.649 290.036 804.596 289.424ZM841.258 317.962C840.215 317.928 839.078 317.577 837.848 316.911C836.695 316.138 835.622 315.259 834.627 314.274C833.71 313.183 833.045 312.196 832.632 311.314C832.604 311.129 832.432 310.919 832.114 310.683C831.888 310.434 831.775 310.309 831.775 310.309C831.365 310.086 830.956 308.92 830.55 306.811C830.221 304.595 829.998 302.127 829.878 299.409C829.759 296.691 829.768 294.519 829.905 292.895C830.147 291.349 830.546 289.262 831.1 286.632C831.641 283.91 832.084 281.486 832.429 279.359L834.979 270.773L829.214 270.07C828.541 269.981 827.932 269.694 827.388 269.208C826.937 268.709 826.684 268.274 826.629 267.905C826.52 267.167 826.805 266.228 827.486 265.089C828.153 263.858 828.671 263.216 829.04 263.161C829.516 263.185 830.353 263.108 831.554 262.93C832.846 262.739 834.086 262.508 835.272 262.238C836.459 261.968 837.184 261.766 837.447 261.633C837.789 261.394 838.124 261.108 838.453 260.777C838.767 260.353 838.969 259.804 839.058 259.13C839.369 258.046 839.648 257.061 839.894 256.176C840.127 255.198 840.484 254.107 840.967 252.904C841.435 251.608 841.793 250.517 842.039 249.631C842.378 248.732 842.899 247.475 843.604 245.861C843.97 245.147 844.361 244.287 844.779 243.281C845.196 242.276 845.772 241.389 846.507 240.62C847.229 239.758 848.012 239.312 848.857 239.281C849.78 239.144 851.023 239.574 852.585 240.569C853.461 241.383 853.979 242.014 854.139 242.462C854.3 242.91 854.061 243.841 853.421 245.257C852.915 246.936 852.27 248.635 851.487 250.355C850.796 252.061 850.151 253.761 849.553 255.453C848.376 257.703 848.27 258.898 849.234 259.039C850.199 259.179 852.756 258.612 856.908 257.337C859.517 256.479 861.476 256.33 862.786 256.891C864.082 257.359 864.938 258.365 865.355 259.907C865.96 262.082 865.928 263.455 865.258 264.026C864.587 264.597 862.498 265.142 858.99 265.661C856.828 266.359 854.97 266.87 853.414 267.195C851.844 267.427 850.69 267.598 849.952 267.707C848.765 267.977 847.987 268.14 847.618 268.194C847.249 268.249 846.708 268.423 845.997 268.717C845.286 269.011 844.78 269.416 844.479 269.933C844.256 270.343 844.015 270.945 843.755 271.738C843.441 272.162 843.03 273.214 842.524 274.893C842.018 276.571 841.347 278.416 840.513 280.427C839.794 284.496 839.261 288.538 838.911 292.552C838.549 296.474 838.357 300.277 838.336 303.959C838.308 306.322 838.594 307.931 839.192 308.786C839.777 309.549 841.052 309.879 843.018 309.776C844.048 309.718 845.663 309.479 847.866 309.059C850.146 308.532 851.906 307.989 853.144 307.428C854.091 306.816 855.084 306.197 856.124 305.572C857.15 304.854 858.083 304.149 858.925 303.459C859.687 302.874 860.45 302.289 861.212 301.705C861.961 301.028 862.336 300.689 862.336 300.689C862.688 299.882 863.162 299.576 863.757 299.771C864.352 299.966 864.916 300.59 865.449 301.643C865.613 302.751 865.553 303.94 865.269 305.208C864.985 306.477 863.489 308.161 860.781 310.26C857.009 313.46 853.41 315.597 849.983 316.671C846.635 317.638 843.727 318.069 841.258 317.962ZM887.486 308.004C886.775 308.298 885.819 308.534 884.619 308.712C883.405 308.797 882.323 308.816 881.372 308.768C880.5 308.614 880.044 308.399 880.003 308.122C879.934 307.66 879.669 307.463 879.208 307.532C879.208 307.532 878.949 307.381 878.433 307.08C878.009 306.766 877.354 306.485 876.469 306.239C875.446 305.069 874.826 303.746 874.607 302.269C874.375 300.699 874.428 298.191 874.767 294.744C874.702 292.395 875.183 289.588 876.209 286.322C877.314 282.951 878.735 279.485 880.472 275.926C882.21 272.366 884.087 269.116 886.105 266.176C888.215 263.221 890.197 260.994 892.05 259.493C893.151 258.009 894.618 257.084 896.451 256.718C898.284 256.353 900.1 256.508 901.899 257.186C902.89 257.511 903.923 258.112 904.996 258.991C906.07 259.87 907.111 260.848 908.12 261.926C909.128 263.003 909.999 264.1 910.73 265.219C911.158 266.193 911.433 267.096 911.556 267.927C911.758 268.652 911.894 269.575 911.966 270.697C912.13 271.805 912.238 273.487 912.289 275.744C912.073 277.474 911.958 279.567 911.944 282.022C912.023 284.464 912.192 286.561 912.452 288.316C912.527 290.097 912.896 291.316 913.559 291.973C914.315 292.616 915.245 292.525 916.35 291.701C917.375 290.983 918.403 290.595 919.432 290.537C920.448 290.387 921.274 290.548 921.91 291.02C922.638 291.478 923.084 292.261 923.248 293.369C923.412 294.477 923.029 295.713 922.099 297.077C921.247 298.336 920.098 299.496 918.652 300.56C917.284 301.517 915.908 302.098 914.523 302.303C913.507 302.454 912.449 301.997 911.348 300.933C910.233 299.778 909.177 298.377 908.178 296.732C907.259 294.981 906.399 293.316 905.599 291.736L904.296 288.674L899.182 295.234C898.173 296.704 897.15 298.082 896.114 299.368C895.157 300.547 894.574 301.388 894.365 301.891C894.026 302.79 893.272 303.751 892.103 304.773C891.025 305.782 889.487 306.859 887.486 308.004ZM886.692 299.772C888.125 298.616 889.727 297.011 891.498 294.956C893.256 292.809 894.947 290.53 896.572 288.119C898.182 285.616 899.497 283.346 900.517 281.308C901.772 278.952 902.678 276.789 903.236 274.82C903.793 272.85 904.134 271.007 904.257 269.291C903.737 268.33 902.98 267.357 901.985 266.372C900.976 265.295 900.142 264.758 899.482 264.761C897.451 265.062 895.473 266.676 893.547 269.603C891.7 272.424 889.934 275.468 888.248 278.737C887.947 279.254 887.548 280.067 887.052 281.179C886.557 282.29 886.054 283.355 885.544 284.374C885.113 285.287 884.826 285.896 884.682 286.2C884.46 286.61 884.063 287.754 883.492 289.631C882.999 291.403 882.514 293.22 882.035 295.084C881.542 296.855 881.337 298.017 881.419 298.571C881.501 299.125 881.636 299.719 881.824 300.351C882.104 300.97 882.628 301.317 883.394 301.393C884.159 301.468 885.259 300.928 886.692 299.772Z" fill="url(#paint0_linear_8395_1968)"/>
<path d="M407.76 100.2L380.48 108.56C379.453 102.987 376.667 97.9267 372.12 93.38C367.573 88.8333 360.9 86.56 352.1 86.56C344.913 86.56 339.047 88.54 334.5 92.5C329.953 96.3133 327.68 100.933 327.68 106.36C327.68 115.893 333.327 121.76 344.62 123.96L366.4 128.14C380.187 130.78 390.893 136.28 398.52 144.64C406.147 153 409.96 162.827 409.96 174.12C409.96 187.027 404.827 198.32 394.56 208C384.44 217.533 370.8 222.3 353.64 222.3C343.813 222.3 334.94 220.833 327.02 217.9C319.1 214.967 312.72 211.08 307.88 206.24C303.04 201.253 299.227 196.047 296.44 190.62C293.8 185.047 292.187 179.327 291.6 173.46L319.76 165.98C320.493 174.34 323.72 181.307 329.44 186.88C335.307 192.453 343.447 195.24 353.86 195.24C361.78 195.24 367.94 193.48 372.34 189.96C376.887 186.44 379.16 181.82 379.16 176.1C379.16 171.553 377.473 167.667 374.1 164.44C370.873 161.067 366.253 158.793 360.24 157.62L338.46 153.22C325.847 150.58 315.873 145.373 308.54 137.6C301.207 129.827 297.54 120.147 297.54 108.56C297.54 94.7733 302.82 83.1867 313.38 73.8C324.087 64.4133 336.92 59.72 351.88 59.72C360.827 59.72 368.82 60.9667 375.86 63.46C382.9 65.9533 388.547 69.3267 392.8 73.58C397.053 77.6867 400.353 81.94 402.7 86.34C405.047 90.74 406.733 95.36 407.76 100.2ZM461.579 219H432.319V59.72H461.579V219ZM521.945 187.54C527.372 192.967 533.898 195.68 541.525 195.68C549.152 195.68 555.605 192.967 560.885 187.54C566.312 182.113 569.025 174.56 569.025 164.88C569.025 155.2 566.312 147.647 560.885 142.22C555.605 136.793 549.152 134.08 541.525 134.08C533.898 134.08 527.372 136.793 521.945 142.22C516.665 147.647 514.025 155.2 514.025 164.88C514.025 174.56 516.665 182.113 521.945 187.54ZM500.825 123.74C511.678 112.887 525.245 107.46 541.525 107.46C557.805 107.46 571.298 112.887 582.005 123.74C592.858 134.593 598.285 148.307 598.285 164.88C598.285 181.453 592.858 195.167 582.005 206.02C571.298 216.873 557.805 222.3 541.525 222.3C525.245 222.3 511.678 216.873 500.825 206.02C490.118 195.167 484.765 181.453 484.765 164.88C484.765 148.307 490.118 134.593 500.825 123.74ZM653.625 261.68H622.605L648.125 205.36L602.145 110.76H634.925L663.745 174.12L690.365 110.76H721.605L653.625 261.68ZM837.355 59.72V199.42C837.355 206.607 837.648 213.133 838.235 219H810.295C809.561 215.333 809.195 211.153 809.195 206.46C806.701 211.007 802.741 214.673 797.315 217.46C792.035 220.247 785.875 221.64 778.835 221.64C763.435 221.64 750.748 216.287 740.775 205.58C730.948 194.727 726.035 181.087 726.035 164.66C726.035 148.673 730.875 135.253 740.555 124.4C750.381 113.547 762.848 108.12 777.955 108.12C793.501 108.12 803.695 112.593 808.535 121.54V59.72H837.355ZM755.515 164.66C755.515 174.193 758.008 181.747 762.995 187.32C767.981 192.747 774.435 195.46 782.355 195.46C790.128 195.46 796.508 192.673 801.495 187.1C806.481 181.527 808.975 173.973 808.975 164.44C808.975 155.053 806.481 147.72 801.495 142.44C796.508 137.013 790.128 134.3 782.355 134.3C774.581 134.3 768.128 137.013 762.995 142.44C758.008 147.867 755.515 155.273 755.515 164.66Z" fill="black"/>
<path d="M167.351 17.1243L127.202 77.9227C124.245 82.3998 127.156 88.4408 132.462 88.8407L154.523 90.5033C155.995 90.6142 157.43 90.0088 158.389 88.8733L167.785 77.7409C170.19 74.891 174.652 75.279 176.541 78.5025L198.229 115.501C199.133 117.043 199.089 118.972 198.114 120.47L170.74 162.55C169.801 163.993 169.723 165.842 170.537 167.361L181.146 187.164C183.627 191.795 190.072 192.122 192.999 187.767L236.862 122.488C238.213 120.479 238.29 117.859 237.059 115.772L179.094 17.4291C176.479 12.9926 170.187 12.8292 167.351 17.1243Z" fill="url(#paint1_linear_8395_1968)"/>
<path d="M249.275 252.23L217.321 186.643C214.968 181.813 208.343 181.344 205.348 185.794L192.895 204.298C192.064 205.532 191.864 207.093 192.357 208.501L197.185 222.302C198.421 225.835 195.859 229.551 192.155 229.595L149.649 230.104C147.878 230.125 146.249 229.121 145.455 227.519L123.131 182.487C122.366 180.943 120.823 179.95 119.116 179.904L96.8643 179.3C91.6615 179.159 88.1585 184.644 90.4224 189.387L124.354 260.469C125.398 262.657 127.601 264.034 130.002 263.999L243.143 262.369C248.247 262.296 251.533 256.863 249.275 252.23Z" fill="url(#paint2_linear_8395_1968)"/>
<path d="M6.50069 207.7L78.6042 212.488C83.9138 212.841 87.6282 207.269 85.3172 202.419L75.7094 182.253C75.0685 180.908 73.8326 179.952 72.3816 179.68L58.1568 177.011C54.5153 176.328 52.6168 172.224 54.4306 168.956L75.2484 131.449C76.1161 129.886 77.7891 128.96 79.5579 129.066L129.255 132.017C130.96 132.118 132.581 131.262 133.474 129.789L145.116 110.589C147.839 106.1 144.896 100.287 139.706 99.9003L61.9109 94.0971C59.5162 93.9185 57.2363 95.1608 56.0654 97.2824L0.89008 197.256C-1.59905 201.766 1.40699 207.362 6.50069 207.7Z" fill="url(#paint3_linear_8395_1968)"/>
<defs>
<linearGradient id="paint0_linear_8395_1968" x1="722.294" y1="290.065" x2="879.211" y2="266.832" gradientUnits="userSpaceOnUse">
<stop offset="1" stop-color="#F15BB5"/>
</linearGradient>
<linearGradient id="paint1_linear_8395_1968" x1="0" y1="139" x2="250" y2="139" gradientUnits="userSpaceOnUse">
<stop stop-color="#1B79BA"/>
<stop offset="1" stop-color="#03F584"/>
</linearGradient>
<linearGradient id="paint2_linear_8395_1968" x1="0" y1="139" x2="250" y2="139" gradientUnits="userSpaceOnUse">
<stop stop-color="#1B79BA"/>
<stop offset="1" stop-color="#03F584"/>
</linearGradient>
<linearGradient id="paint3_linear_8395_1968" x1="0" y1="139" x2="250" y2="139" gradientUnits="userSpaceOnUse">
<stop stop-color="#1B79BA"/>
<stop offset="1" stop-color="#03F584"/>
</linearGradient>
</defs>
</svg>
