<svg xmlns="http://www.w3.org/2000/svg" width="420" height="80.74" viewBox="0 0 420 80.74"><title>smartfm</title><g id="Ebene_2" data-name="Ebene 2"><g id="Ebene_1-2" data-name="Ebene 1"><path d="M5.15,43.14V38A2.58,2.58,0,1,0,0,38v5.15a2.58,2.58,0,1,0,5.15,0M17.27,47V34.13a2.58,2.58,0,0,0-5.16,0V47a2.58,2.58,0,0,0,5.16,0m12.11,6.44V27.68a2.58,2.58,0,0,0-5.16,0V53.45a2.58,2.58,0,1,0,5.16,0M41.49,66.34V14.8a2.58,2.58,0,0,0-5.16,0V66.34a2.58,2.58,0,0,0,5.16,0M53.6,47V34.13a2.58,2.58,0,1,0-5.15,0V47a2.58,2.58,0,1,0,5.15,0M65.71,59.89V21.24a2.58,2.58,0,1,0-5.15,0V59.89a2.58,2.58,0,1,0,5.15,0m12.11-10V31.25a2.58,2.58,0,1,0-5.15,0V49.89a2.58,2.58,0,0,0,5.15,0m12.11,10V21.24a2.58,2.58,0,1,0-5.15,0V59.89a2.58,2.58,0,1,0,5.15,0M99.47,56a2.57,2.57,0,0,1-2.58-2.58V27.68a2.58,2.58,0,0,1,5.15,0V53.45A2.57,2.57,0,0,1,99.47,56m222.81,3.68a1,1,0,0,1-1.07-1.07V22.43a1,1,0,0,1,1.07-1.08h9.18a1.27,1.27,0,0,1,1.23.81l3.43,6.92c1.77,3.59,4.08,9.12,5,11.43h.22c.91-2.31,3.22-7.84,5-11.43l3.43-6.92a1.27,1.27,0,0,1,1.23-.81h9.18a1,1,0,0,1,1.07,1.08V58.64a1,1,0,0,1-1.07,1.07H352a1,1,0,0,1-1.07-1.07V54.72c0-4.77.22-11.53.59-17.43l-.27-.06c-.8,2.2-3.27,8-4.88,11.54l-.91,2a1.21,1.21,0,0,1-1.24.81h-6a1.22,1.22,0,0,1-1.24-.81l-.91-2c-1.61-3.54-4.08-9.34-4.88-11.54l-.27.06c.37,5.9.59,12.66.59,17.43v3.92a1,1,0,0,1-1.07,1.07ZM317.15,30a1,1,0,0,1-1.08,1.08H301.8v6.06h12a1,1,0,0,1,1.07,1.07v7.19a1,1,0,0,1-1.07,1.08h-12V58.64a1,1,0,0,1-1.07,1.07h-8.32a1,1,0,0,1-1.07-1.07V22.43a1,1,0,0,1,1.07-1.08h23.66a1,1,0,0,1,1.08,1.08ZM286,21.35a.58.58,0,0,1,.65.59v3a.58.58,0,0,1-.65.59H274.56V59.12a.58.58,0,0,1-.64.59h-3.33a.58.58,0,0,1-.64-.59V25.54H258.47a.54.54,0,0,1-.59-.59v-3a.54.54,0,0,1,.59-.59Zm-53,4.19V40.61h8.2c5.8,0,8.8-2.46,8.8-7.51s-3-7.56-8.8-7.56Zm17.92,34.17a.82.82,0,0,1-.76-.37L239.49,44.75H233V59.12a.54.54,0,0,1-.59.59h-3.33c-.43,0-.64-.21-.64-.59V21.94c0-.37.21-.59.64-.59h12.07c8.42,0,13.52,4.35,13.52,11.75,0,6.12-3.75,10.2-10.09,11.27L255.48,59c.32.43.1.75-.38.75ZM200.51,45.44h13.3l-6.54-19h-.22Zm-9,14.27c-.42,0-.59-.26-.48-.69l13.36-37.18a.63.63,0,0,1,.64-.49h4.24a.69.69,0,0,1,.7.49L223.26,59c.16.43-.06.69-.49.69h-3.59a.7.7,0,0,1-.7-.48l-3.27-9.55h-16.1l-3.32,9.55a.66.66,0,0,1-.7.48Zm-41.26,0c-.43,0-.65-.21-.65-.59V21.94c0-.37.22-.59.65-.59h4.08a.73.73,0,0,1,.69.43l8.32,15.13c1.34,2.47,3.33,6.44,4.29,8.48h.16c1-2,2.95-6,4.3-8.42l8.36-15.19a.66.66,0,0,1,.7-.43h4.08a.54.54,0,0,1,.59.59V59.12a.53.53,0,0,1-.59.59h-3.38a.53.53,0,0,1-.59-.59V42.92c0-4.51.16-10,.32-14.54l-.11-.05c-1.44,2.9-3.11,6.06-4.88,9.44l-6.7,12.45a.87.87,0,0,1-.76.43h-2.84a.72.72,0,0,1-.7-.43l-6.7-12.45c-1.83-3.38-3.49-6.54-4.89-9.44l-.1.05c.1,4.56.27,10,.27,14.54v16.2a.54.54,0,0,1-.59.59Zm-20.64.59c-5.31,0-9.17-1.66-13.41-5.09a.57.57,0,0,1-.11-.86l1.83-2.52a.51.51,0,0,1,.8-.16c3.71,2.79,7,4.24,11.06,4.29,4.88,0,9.28-2,9.28-6.55s-3.92-5.85-10-7.19c-6.49-1.44-12.82-4.18-12.82-11.32s6.33-10.14,13.68-10.14a19.83,19.83,0,0,1,12.5,4.29.49.49,0,0,1,.16.81l-1.77,2.52a.55.55,0,0,1-.85.11A19,19,0,0,0,129.49,25c-5.1,0-8.69,2.09-8.69,6,0,4.08,3.75,5.53,9.38,6.81,7.14,1.61,13.47,3.87,13.47,11.49s-6.49,11-14.06,11m261-47.78a3,3,0,0,0-4.12.34,2.6,2.6,0,0,0-.67,1.74,2.67,2.67,0,0,0,1,2.08,30.26,30.26,0,0,1,0,47.72,2.68,2.68,0,0,0-1,2.08,2.6,2.6,0,0,0,.67,1.74,3,3,0,0,0,4.11.35,35.54,35.54,0,0,0,0-56M380.46,24a3,3,0,0,0-4.11.34,2.6,2.6,0,0,0-.67,1.74,2.68,2.68,0,0,0,1,2.08,15.65,15.65,0,0,1,0,24.67,2.67,2.67,0,0,0-1,2.08,2.6,2.6,0,0,0,.67,1.74,3,3,0,0,0,4.11.34,20.89,20.89,0,0,0,0-33M420,40.53a50.71,50.71,0,0,1-19.31,39.55,3,3,0,0,1-4.11-.34,2.6,2.6,0,0,1-.67-1.74,2.67,2.67,0,0,1,1-2.08A45.38,45.38,0,0,0,414.2,40.53,45.37,45.37,0,0,0,396.92,5.15a2.68,2.68,0,0,1-1-2.08,2.6,2.6,0,0,1,.67-1.74A3,3,0,0,1,400.69,1,50.69,50.69,0,0,1,420,40.53"/><path d="M369.1,11.55a2.89,2.89,0,0,1-3.16-2.92V6.29a2.85,2.85,0,0,1,3.12-2.92,4.06,4.06,0,0,1,2.74,1.1.27.27,0,0,1,0,.4l-.62.81c-.13.17-.27.19-.41,0A2.42,2.42,0,0,0,369.13,5a1.32,1.32,0,0,0-1.45,1.28V8.63a1.29,1.29,0,0,0,1.45,1.3A2.78,2.78,0,0,0,371,9.3a.23.23,0,0,1,.41.06l.53.79a.28.28,0,0,1,0,.39,3.76,3.76,0,0,1-2.78,1m0,2.39c3.41,0,6.22-2.21,6.22-6.45s-2.81-6.41-6.22-6.41-6.27,2.17-6.27,6.41,2.8,6.45,6.27,6.45m0,1.06a7.07,7.07,0,0,1-7.36-7.51,7.34,7.34,0,1,1,14.67,0c0,4.77-3.29,7.51-7.31,7.51"/></g></g></svg>