<svg width="172" height="21" viewBox="0 0 172 21" fill="none" xmlns="http://www.w3.org/2000/svg">
<path d="M6.72686 11.4171C8.64074 11.629 9.70401 12.6087 9.70401 14.1976C9.70401 15.4687 8.64074 16.5544 7.28508 16.5544C6.11549 16.5544 5.18513 16.2631 4.28135 15.1244L0.878906 17.6136C2.7662 19.6791 5.02564 20.5 7.28508 20.5C10.7673 20.5 13.9836 17.746 13.9836 13.9063C13.9836 10.0931 11.1926 7.81572 7.81671 7.60388C5.71676 7.47147 5.05222 6.65057 5.05222 5.75023C5.05222 4.66451 5.79651 4.0025 6.88635 4.0025C7.57748 4.0025 8.45467 4.42619 8.9863 4.98228L12.2293 2.62549C10.7141 0.824805 8.85339 0.0833435 6.88635 0.0833435C4.14845 0.0833435 1.06498 2.44013 1.06498 5.77671C1.06498 8.87495 3.29783 11.0199 6.72686 11.4171Z" fill="#00056A"/>
<path d="M29.2857 13.4826C29.2857 11.7084 30.5351 10.252 32.1831 10.252C33.6983 10.252 34.9476 11.4436 34.9476 13.4826V20.1558H38.6956V13.4826C38.6956 9.61642 36.702 6.49169 32.5819 6.49169C31.1996 6.49169 29.0731 6.91538 27.7972 8.61015C26.9997 7.39203 25.2187 6.49169 23.2517 6.49169C22.0821 6.49169 20.567 6.96834 19.9556 7.7098V6.78298H16.181V20.1558H19.9556V13.4826C19.9556 11.7084 21.2049 10.252 22.6137 10.252C24.315 10.252 25.5111 11.1788 25.5111 13.4826V20.1558H29.2857V13.4826Z" fill="#00056A"/>
<path d="M50.4827 6.78298V7.7098C49.8979 7.07426 48.4093 6.49169 47.2132 6.49169C43.6246 6.49169 40.6209 9.61642 40.6209 13.4826C40.6209 17.2958 43.5449 20.447 47.2132 20.447C48.4359 20.447 49.8979 19.9704 50.4827 19.2024V20.1558H54.2573V6.78298H50.4827ZM47.5853 16.7133C45.8575 16.7133 44.4487 15.3892 44.4487 13.4826C44.4487 11.6025 45.8575 10.252 47.5853 10.252C49.3397 10.252 50.6422 11.6025 50.6422 13.4826C50.6422 15.3892 49.3397 16.7133 47.5853 16.7133Z" fill="#00056A"/>
<path d="M64.5922 6.54465C64.2466 6.49169 63.9808 6.49169 63.6618 6.49169C62.6251 6.49169 61.5087 6.83594 60.6847 7.7098V6.78298H56.9101V20.1558H60.6847V13.4826C60.6847 11.3377 61.934 10.252 63.396 10.252C63.8213 10.252 64.22 10.3049 64.5922 10.4373V6.54465Z" fill="#00056A"/>
<path d="M74.1233 10.252V6.78298H70.9335V2.30773L67.1589 5.03524V6.78298H65.1387V10.252H67.1589V14.6213C67.1589 18.0903 70.0298 20.447 74.0436 20.447V16.7133C72.3158 16.7133 70.9335 16.0248 70.9335 14.5154V10.252H74.1233Z" fill="#00056A"/>
<path d="M87.8747 13.1913L84.7913 6.78298H81.1762L82.9837 10.6227L81.761 13.2178L78.5446 6.78298H74.3713L81.6546 20.5L84.685 14.1976L87.7153 20.5L94.3872 6.78298H90.6924L87.8747 13.1913Z" fill="#00056A"/>
<path d="M103.245 6.54465C102.899 6.49169 102.633 6.49169 102.314 6.49169C101.277 6.49169 100.161 6.83594 99.337 7.7098V6.78298H95.5624V20.1558H99.337V13.4826C99.337 11.3377 100.586 10.252 102.048 10.252C102.474 10.252 102.872 10.3049 103.245 10.4373V6.54465Z" fill="#00056A"/>
<path d="M106.768 4.42619C108.044 4.42619 109.028 3.4464 109.028 2.28125C109.028 1.19554 108.044 0.215747 106.768 0.215747C105.599 0.215747 104.589 1.22202 104.589 2.28125C104.589 3.4464 105.599 4.42619 106.768 4.42619ZM108.682 6.78298H104.908V20.1558H108.682V6.78298Z" fill="#00056A"/>
<path d="M119.213 10.252V6.78298H116.024V2.30773L112.249 5.03524V6.78298H110.229V10.252H112.249V14.6213C112.249 18.0903 115.12 20.447 119.134 20.447V16.7133C117.406 16.7133 116.024 16.0248 116.024 14.5154V10.252H119.213Z" fill="#00056A"/>
<path d="M130.573 15.3627C129.961 16.316 128.818 16.7133 127.675 16.7133C127.276 16.7133 126.904 16.6868 126.559 16.5544L134.055 11.2053C133.231 8.71607 130.679 6.49169 127.356 6.49169C123.502 6.49169 120.392 9.61642 120.392 13.4826C120.392 17.2958 123.635 20.447 127.675 20.447C130.067 20.447 132.433 19.3613 133.576 17.6666L130.573 15.3627ZM124.219 13.4826C124.219 11.6025 125.628 10.252 127.356 10.252C128.074 10.252 128.685 10.4903 129.217 10.8875L124.326 14.3565C124.246 14.0917 124.219 13.8004 124.219 13.4826Z" fill="#00056A"/>
<path d="M143.844 6.54465C143.498 6.49169 143.232 6.49169 142.913 6.49169C141.877 6.49169 140.76 6.83594 139.936 7.7098V6.78298H136.162V20.1558H139.936V13.4826C139.936 11.3377 141.186 10.252 142.648 10.252C143.073 10.252 143.472 10.3049 143.844 10.4373V6.54465Z" fill="#00056A"/>
<path d="M146.418 16.4485C145.195 16.4485 144.371 17.3488 144.371 18.4875C144.371 19.5732 145.195 20.5 146.418 20.5C147.667 20.5 148.464 19.5732 148.464 18.4875C148.464 17.3488 147.64 16.4485 146.418 16.4485Z" fill="#00056A"/>
<path d="M160.703 6.78298V7.7098C160.118 7.07426 158.63 6.49169 157.433 6.49169C153.845 6.49169 150.841 9.61642 150.841 13.4826C150.841 17.2958 153.765 20.447 157.433 20.447C158.656 20.447 160.118 19.9704 160.703 19.2024V20.1558H164.478V6.78298H160.703ZM157.806 16.7133C156.078 16.7133 154.669 15.3892 154.669 13.4826C154.669 11.6025 156.078 10.252 157.806 10.252C159.56 10.252 160.862 11.6025 160.862 13.4826C160.862 15.3892 159.56 16.7133 157.806 16.7133Z" fill="#00056A"/>
<path d="M168.991 4.42619C170.267 4.42619 171.25 3.4464 171.25 2.28125C171.25 1.19554 170.267 0.215747 168.991 0.215747C167.821 0.215747 166.811 1.22202 166.811 2.28125C166.811 3.4464 167.821 4.42619 168.991 4.42619ZM170.905 6.78298H167.13V20.1558H170.905V6.78298Z" fill="#00056A"/>
</svg>
