<svg xmlns="http://www.w3.org/2000/svg" xmlns:xlink="http://www.w3.org/1999/xlink" width="656.97" height="303.05" viewBox="0 0 656.97 303.05"><defs><clipPath id="clip-path" transform="translate(-1.52 -3.35)"><rect width="660" height="310" fill="none"/></clipPath></defs><title>sonible</title><g id="Ebene_2" data-name="Ebene 2"><g id="Ebene_1-2" data-name="Ebene 1"><g clip-path="url(#clip-path)"><path d="M227.38,230a49.55,49.55,0,0,1-14.16,35.56q-14.16,14.78-34.94,14.78a46.26,46.26,0,0,1-34.75-14.78,51.74,51.74,0,0,1,0-71.13,48.25,48.25,0,0,1,69.59.11A49.51,49.51,0,0,1,227.38,230m-8.33,0a43.55,43.55,0,0,0-11.62-30.17,39.25,39.25,0,0,0-58.17.11,44.66,44.66,0,0,0-.11,60.22,39.27,39.27,0,0,0,58.18-.1A43.43,43.43,0,0,0,219.05,230" transform="translate(-1.52 -3.35)" fill="#5c5d5f"/><path d="M325.15,280.37h-7.67V222.46q0-14.69-9-24.06a30.7,30.7,0,0,0-44.18,0q-9,9.38-9,24.06v57.91h-7.66V221.44q0-17.53,11.11-28.64t27.64-11.11q16.73,0,27.74,11t11,28.74Z" transform="translate(-1.52 -3.35)" fill="#5c5d5f"/><path d="M103.66,233.83c-4.79-4.79-10.88-7.17-19.76-7.71-.8-.05-1.91-.11-3.28-.16-.15,0-15.11-.5-20.05-.78-6.76-.38-11.59-2.17-15.2-5.63-4-3.89-5.85-8-5.85-13.31a18.24,18.24,0,0,1,5.85-13.79c3.9-3.74,9-5.63,15.13-5.63H104v-7.47H59.83c-8.13,0-14.83,2.58-19.91,7.66a26.2,26.2,0,0,0-7.64,19.23A24.92,24.92,0,0,0,40,224.93c4.79,4.79,10.88,7.17,19.75,7.71.81.05,1.88.1,3.29.16.15,0,15.11.49,20.05.77,6.76.39,11.59,2.18,15.19,5.64a19.27,19.27,0,0,1,5.86,14.27,18.18,18.18,0,0,1-5.86,13.78c-3.89,3.74-9,5.64-15.12,5.64H1.52v7.47H83.83c8.13,0,14.82-2.58,19.9-7.66a26.19,26.19,0,0,0,7.65-19.23c0-7.8-2.67-14.6-7.72-19.65" transform="translate(-1.52 -3.35)" fill="#5c5d5f"/><rect x="359.45" y="217.78" width="7.67" height="85.27" fill="#5c5d5f"/><path d="M210,31.6a27.25,27.25,0,0,1-8.23,20,28.48,28.48,0,0,1-40.05,0,27.25,27.25,0,0,1-8.23-20,27.23,27.23,0,0,1,8.23-20,28.48,28.48,0,0,1,40.05,0,27.23,27.23,0,0,1,8.23,20" transform="translate(-1.52 -3.35)" fill="#5c5d5f"/><path d="M193.22,109.34a11.4,11.4,0,1,1-3.34-8.12,11,11,0,0,1,3.34,8.12" transform="translate(-1.52 -3.35)" fill="#5c5d5f"/><path d="M287.81,31.6a11.47,11.47,0,1,1-22.93,0,11.47,11.47,0,1,1,22.93,0" transform="translate(-1.52 -3.35)" fill="#5c5d5f"/><path d="M287.81,109.34a11.4,11.4,0,1,1-3.34-8.12,11,11,0,0,1,3.34,8.12" transform="translate(-1.52 -3.35)" fill="#5c5d5f"/><path d="M393.77,31.6a27.22,27.22,0,0,1-8.22,20,28.45,28.45,0,0,1-40,0,27.24,27.24,0,0,1-8.24-20,27.23,27.23,0,0,1,8.24-20,28.45,28.45,0,0,1,40,0,27.21,27.21,0,0,1,8.22,20" transform="translate(-1.52 -3.35)" fill="#5caa7f"/><path d="M377,109.34a11.4,11.4,0,1,1-3.34-8.12,11,11,0,0,1,3.34,8.12" transform="translate(-1.52 -3.35)" fill="#5caa7f"/><path d="M377,181.88a11.42,11.42,0,1,1-3.34-8.12,11.06,11.06,0,0,1,3.34,8.12" transform="translate(-1.52 -3.35)" fill="#5caa7f"/><path d="M466.4,31.6a11.48,11.48,0,1,1-22.95,0,11.48,11.48,0,1,1,22.95,0" transform="translate(-1.52 -3.35)" fill="#5caa7f"/><path d="M404.76,230q0,21.81,13.65,36.07a46.52,46.52,0,0,0,67,0Q499.1,251.83,499.11,230q0-21.61-13.77-36a44.76,44.76,0,0,0-33.56-14.37q-10,0-16.83,3.37a65.91,65.91,0,0,0-13.35,8.86v9.18a48.25,48.25,0,0,1,13.87-10.6A37,37,0,0,1,451.8,187q15.3,0,27.14,12.44T490.77,230q0,18.14-11.83,30.57T451.8,273q-17.13,0-28.25-12.73A44.45,44.45,0,0,1,412.43,230v-84h-7.67Z" transform="translate(-1.52 -3.35)" fill="#5c5d5f"/><rect x="523.31" y="144.72" width="7.67" height="132.3" fill="#5c5d5f"/><path d="M483.17,109.34a28.25,28.25,0,1,1-48.26-20,28.25,28.25,0,0,1,48.26,20" transform="translate(-1.52 -3.35)" fill="#5caa7f"/><path d="M647.11,248.07c-2.94,6.34-4.75,8.57-8.5,12.36a53,53,0,0,1-7.07,5.66,39.47,39.47,0,0,1-15.9,5.56c-11.43,1.21-21.72-.25-31.17-6.68q-14.7-10-17.6-26.81a41.12,41.12,0,0,1,6.81-31.2,43.25,43.25,0,0,1,26.82-18.48q16.93-4,31.79,6.11,16,10.88,17.37,29.35l-65.21,0V232l74-.12a50,50,0,0,0-22.07-43.27q-18-12.26-37.74-8t-31.4,21.45q-11.79,17.35-7.82,37.35c2.64,13.32,9.3,24.56,21.51,32.86,9.77,6.63,21,8.46,32.45,7.84,11.89-.65,22-5.88,30.77-13.88A43.6,43.6,0,0,0,656,248.07Z" transform="translate(-1.52 -3.35)" fill="#5c5d5f"/></g></g></g></svg>