<?xml version="1.0" encoding="utf-8"?>
<!-- Generator: Adobe Illustrator 23.0.3, SVG Export Plug-In . SVG Version: 6.00 Build 0)  -->
<svg version="1.1" id="_4-SpotX" xmlns="http://www.w3.org/2000/svg" xmlns:xlink="http://www.w3.org/1999/xlink" x="0px" y="0px"
	 viewBox="0 0 131.9 28" style="enable-background:new 0 0 131.9 28;" xml:space="preserve">
<style type="text/css">
	.st0{fill:#9BC63D;}
	.st1{fill:#75A535;}
	.st2{fill:#169ECE;}
</style>
<g id="Group_52" transform="translate(-27 -157.001)">
	<path id="Path_298" d="M41.4,168.8c-6.6-1.7-7.9-2-7.9-4c0-2.2,2.2-3,4-3c2.8,0,5,0.8,5.2,4h5.6c0-6.1-5.1-8.5-10.6-8.5
		c-4.8,0-9.9,2.6-9.9,8c0,5,4,6.5,7.9,7.5s7.9,1.5,7.9,4.4c0,2.7-3.1,3.3-5.2,3.3c-3.1,0-5.9-1.4-5.9-4.9H27
		c-0.1,6.5,5.4,9.4,11.3,9.4c7.2,0,11-3.6,11-8.5C49.3,170.5,43.4,169.3,41.4,168.8"/>
	<path id="Path_299" d="M66,157H53.4v28h5.7v-23.2h5.2c2.9,0,5.4,0.6,5.4,4.2c0,3.6-2.5,4.2-5.4,4.2h-1.6l-2.8,4.8h6
		c7,0,9.7-4.4,9.7-9S73,157,66,157"/>
	<path id="Path_301" d="M106,157.2v5.1h8.3v22.5h6.1v-22.5h8.3v-5.1H106z"/>
	<path id="Path_302" class="st0" d="M141.4,171l-10,13.8h7.1l6.6-8.7l3.8-5.1l0,0H141.4z"/>
	<path id="Path_303" class="st1" d="M145,165.9l-1.3-1.7l0,0l-1.4-1.9l0,0l-3.8-5.1h-7.1l10,13.8h7.5L145,165.9z"/>
	<path id="Path_304" class="st2" d="M146.3,177.4l5.6,7.5h7l-8.9-12.4L146.3,177.4z"/>
	<path id="Path_305" class="st2" d="M151.9,157.2l-5.6,7.5l3.7,4.9l8.9-12.4H151.9z"/>
	<path id="Path_306" d="M91.8,157.2c-8.2,0-13,6.1-13,14c0,7.7,4.8,13.8,13,13.8s13-6.1,13-13.8C104.8,163.3,100,157.2,91.8,157.2
		 M91.8,180.1c-5.2,0-7.2-4.5-7.2-8.9c0-4.6,2-9.1,7.2-9.1s7.2,4.5,7.2,9.1C99,175.6,97,180.1,91.8,180.1"/>
</g>
</svg>
