<?xml version="1.0" encoding="utf-8"?>
<!-- Generator: Adobe Illustrator 25.1.0, SVG Export Plug-In . SVG Version: 6.00 Build 0)  -->
<svg version="1.1" id="Layer_1" xmlns="http://www.w3.org/2000/svg" xmlns:xlink="http://www.w3.org/1999/xlink" x="0px" y="0px"
	 viewBox="0 0 100 32" style="enable-background:new 0 0 100 32;" xml:space="preserve">
<style type="text/css">
	.st0{clip-path:url(#SVGID_2_);}
	.st1{fill:#2D2D2D;}
	.st2{fill:#FFAE00;}
	.st3{fill:url(#SVGID_3_);}
	.st4{fill:#FFFFFF;}
	.st5{opacity:0.7;fill:url(#SVGID_4_);enable-background:new    ;}
	.st6{fill:url(#SVGID_5_);}
</style>
<g id="Layer_2_1_">
	<g id="Layer_1-2">
		<g>
			<defs>
				<rect id="SVGID_1_" width="100" height="32"/>
			</defs>
			<clipPath id="SVGID_2_">
				<use xlink:href="#SVGID_1_"  style="overflow:visible;"/>
			</clipPath>
			<g class="st0">
				<path class="st1" d="M5.5,14.8c-0.8,0-1.4-0.6-1.4-1.4V4.8C4.7,4.6,5.1,4,5,3.4s-0.8-1-1.4-0.9C2.9,2.7,2.5,3.3,2.7,4
					c0.1,0.4,0.4,0.7,0.9,0.9v8.5c0,1.1,0.9,2,2,2h1.9v-0.6L5.5,14.8z M3.2,3.7c0-0.3,0.3-0.6,0.6-0.6c0.3,0,0.6,0.3,0.6,0.6
					S4.1,4.3,3.8,4.3S3.2,4,3.2,3.7L3.2,3.7z"/>
				<path class="st2" d="M28.9,13.4c1,0.1,1.7,0.9,1.6,1.9c-0.1,0.9-0.8,1.6-1.6,1.6"/>
				
					<linearGradient id="SVGID_3_" gradientUnits="userSpaceOnUse" x1="27.6507" y1="8.9208" x2="6.6907" y2="25.4708" gradientTransform="matrix(1 0 0 -1 0 33)">
					<stop  offset="0" style="stop-color:#775AFD"/>
					<stop  offset="1" style="stop-color:#AC67FD"/>
				</linearGradient>
				<path class="st3" d="M10.3,4.6h14.2c2.4,0,4.3,1.9,4.3,4.3v14.2c0,2.4-1.9,4.4-4.3,4.4H10.3c-2.4,0-4.3-1.9-4.3-4.4V8.9
					C6,6.5,7.9,4.6,10.3,4.6z"/>
				<circle class="st4" cx="17.4" cy="15.1" r="7"/>
				
					<linearGradient id="SVGID_4_" gradientUnits="userSpaceOnUse" x1="15.11" y1="20.39" x2="25.07" y2="10.43" gradientTransform="matrix(1 0 0 -1 -2.63 30.5)">
					<stop  offset="0" style="stop-color:#AC67FD"/>
					<stop  offset="1" style="stop-color:#775AFD"/>
				</linearGradient>
				<path class="st5" d="M17.4,8.7c3.6,0,6.5,2.9,6.5,6.4s-2.9,6.5-6.4,6.5S11,18.7,11,15.2c0,0,0,0,0,0C11,11.6,13.9,8.7,17.4,8.7
					C17.5,8.7,17.5,8.7,17.4,8.7 M17.5,8.1c-3.9,0-7,3.1-7,7s3.1,7,7,7s7-3.1,7-7S21.3,8.1,17.5,8.1z"/>
				<circle class="st2" cx="17.4" cy="15.1" r="4.4"/>
				<circle class="st1" cx="17.4" cy="15.1" r="2.6"/>
				<circle class="st4" cx="19.7" cy="13.7" r="0.9"/>
				<circle class="st4" cx="16" cy="17.4" r="0.6"/>
				<path class="st1" d="M14.4,7.2c0.7-0.9,1.8-1.5,3-1.5c0.6,0,1.2,0.1,1.7,0.4c0.5,0.2,1,0.6,1.3,1.1c-0.5-0.3-1-0.5-1.5-0.7
					c-1-0.3-2.1-0.3-3.1,0C15.4,6.7,14.9,6.9,14.4,7.2z"/>
				
					<linearGradient id="SVGID_5_" gradientUnits="userSpaceOnUse" x1="22.3909" y1="14.3805" x2="27.6409" y2="4.4505" gradientTransform="matrix(1 0 0 -1 0 33)">
					<stop  offset="0" style="stop-color:#33CCFF"/>
					<stop  offset="1" style="stop-color:#D499FF"/>
				</linearGradient>
				<path class="st6" d="M23.9,17.8h7l0,0v7c0,2.6-2,4.7-4.6,4.7c0,0,0,0,0,0h-7l0,0v-7C19.2,19.9,21.3,17.8,23.9,17.8
					C23.9,17.8,23.9,17.8,23.9,17.8z"/>
				<path class="st1" d="M40.4,23c-0.7,0-1.5-0.1-2.2-0.4c-0.6-0.2-1.1-0.5-1.5-0.9c-0.3-0.3-0.5-0.6-0.6-1.1c0-0.2,0.1-0.4,0.1-0.6
					c0.1-0.2,0.2-0.4,0.4-0.5c0.1-0.1,0.3-0.2,0.5-0.2c0.2,0,0.4,0.1,0.5,0.2l0.6,0.5c0.2,0.2,0.5,0.4,0.8,0.5
					c0.4,0.1,0.8,0.2,1.2,0.2c0.3,0,0.7-0.1,1-0.2c0.3-0.1,0.6-0.3,0.8-0.5c0.2-0.3,0.3-0.6,0.3-0.9c0-0.4-0.1-0.7-0.3-1
					c-0.2-0.3-0.5-0.5-0.8-0.7c-0.4-0.2-0.8-0.4-1.2-0.6s-0.8-0.4-1.3-0.6c-0.4-0.2-0.8-0.5-1.2-0.8c-0.8-0.7-1.2-1.7-1.2-2.7
					c0-0.6,0.1-1.2,0.4-1.8c0.3-0.5,0.6-0.9,1.1-1.2c0.4-0.3,0.9-0.5,1.5-0.6c0.5-0.1,1.1-0.2,1.6-0.2c0.3,0,0.7,0,1,0.1
					c0.4,0,0.8,0.1,1.2,0.2c0.4,0.1,0.7,0.2,1,0.4c0.2,0.2,0.4,0.4,0.4,0.7c0,0.2,0,0.4-0.1,0.5c-0.1,0.2-0.2,0.4-0.3,0.5
					c-0.1,0.2-0.3,0.2-0.5,0.2c-0.2,0-0.4-0.1-0.6-0.2c-0.2-0.1-0.5-0.3-0.7-0.4c-0.4-0.1-0.8-0.2-1.2-0.2c-0.4,0-0.8,0.1-1.1,0.2
					c-0.3,0.1-0.5,0.3-0.7,0.5c-0.2,0.2-0.3,0.5-0.2,0.8c0,0.3,0.1,0.6,0.3,0.8c0.2,0.2,0.5,0.4,0.8,0.6c0.3,0.2,0.7,0.4,1.2,0.5
					c0.4,0.2,0.9,0.4,1.3,0.6c0.4,0.2,0.8,0.5,1.2,0.8c0.4,0.3,0.7,0.7,0.9,1.2c0.2,0.6,0.3,1.2,0.3,1.8c0,0.8-0.2,1.5-0.6,2.2
					c-0.4,0.6-0.9,1.1-1.6,1.4C42,22.9,41.2,23,40.4,23z"/>
				<path class="st1" d="M49.7,22.8c-0.9,0.1-1.8-0.2-2.5-0.7c-0.6-0.6-1-1.4-0.9-2.3v-9c0-0.2,0.2-0.4,0.4-0.5
					c0.2-0.1,0.5-0.2,0.8-0.2c0.3,0,0.6,0.1,0.8,0.2c0.2,0.1,0.4,0.3,0.4,0.5V14h2.2c0.2,0,0.4,0.1,0.5,0.3c0.2,0.4,0.2,0.8,0,1.2
					c-0.1,0.2-0.3,0.3-0.5,0.3h-2.2v4c0,0.3,0.1,0.6,0.2,0.8c0.2,0.2,0.5,0.3,0.8,0.2h0.7c0.3,0,0.6,0.1,0.8,0.3
					c0.2,0.2,0.2,0.4,0.2,0.7c0,0.3-0.1,0.5-0.2,0.7c-0.2,0.2-0.5,0.3-0.8,0.3L49.7,22.8z"/>
				<path class="st1" d="M56.7,23c-0.8,0-1.6-0.1-2.3-0.5c-0.6-0.3-1.2-0.8-1.6-1.3c-0.4-0.6-0.6-1.3-0.6-2v-1.6
					c0-0.7,0.2-1.3,0.5-1.9c0.4-0.6,0.9-1,1.5-1.4c0.6-0.3,1.3-0.5,2-0.5c0.7,0,1.3,0.1,1.9,0.4c0.6,0.3,1,0.7,1.4,1.2
					c0.4,0.5,0.6,1.2,0.5,1.8c0,0.4-0.1,0.8-0.3,1.1c-0.2,0.2-0.4,0.4-0.7,0.4C58.9,19,58.6,19,58.3,19h-3.7v0.3
					c0,0.5,0.2,1,0.6,1.3c0.4,0.3,1,0.5,1.6,0.5c0.3,0,0.7-0.1,1-0.2c0.3-0.1,0.5-0.2,0.7-0.4c0.2-0.1,0.4-0.2,0.5-0.2
					c0.2,0,0.4,0.1,0.5,0.2c0.1,0.1,0.2,0.3,0.3,0.4c0.2,0.4,0.1,0.9-0.3,1.1c0,0,0,0,0,0c-0.3,0.3-0.7,0.5-1.1,0.6
					C57.8,22.9,57.3,23,56.7,23z M54.6,17.6h2.7c0.2,0,0.3,0,0.4-0.1c0.1-0.1,0.1-0.2,0.1-0.4c0-0.3-0.1-0.5-0.2-0.8
					c-0.1-0.2-0.4-0.4-0.6-0.5c-0.2-0.1-0.5-0.2-0.8-0.2c-0.3,0-0.6,0.1-0.8,0.2c-0.2,0.1-0.4,0.3-0.6,0.5c-0.2,0.2-0.2,0.5-0.2,0.8
					V17.6z"/>
				<path class="st1" d="M65,23c-0.2,0-0.5,0-0.7-0.1c-0.2,0-0.3-0.2-0.4-0.3l-3.2-7.3c0,0-0.1-0.1-0.1-0.2c0-0.1,0-0.1,0-0.2
					c0-0.2,0.1-0.4,0.3-0.5c0.2-0.2,0.4-0.3,0.6-0.4c0.2-0.1,0.5-0.1,0.7-0.1c0.1,0,0.3,0,0.4,0.1c0.1,0.1,0.2,0.2,0.3,0.3l2,5.4
					l2-5.3c0-0.1,0.1-0.3,0.3-0.3c0.1-0.1,0.3-0.1,0.4-0.1c0.2,0,0.4,0.1,0.6,0.1c0.2,0.1,0.5,0.2,0.7,0.4c0.2,0.1,0.3,0.3,0.3,0.5
					c0,0.1,0,0.1,0,0.2c0,0.1,0,0.1-0.1,0.1L66,22.6c-0.1,0.2-0.2,0.3-0.4,0.3C65.4,23,65.2,23,65,23z"/>
				<path class="st1" d="M74.5,23c-0.8,0-1.6-0.1-2.3-0.5c-0.6-0.3-1.2-0.8-1.6-1.3c-0.4-0.6-0.6-1.3-0.6-2v-1.6
					c0-0.7,0.2-1.3,0.5-1.9c0.8-1.2,2.1-1.9,3.5-1.9c0.7,0,1.3,0.1,1.9,0.4c0.6,0.3,1,0.7,1.4,1.2c0.4,0.5,0.6,1.2,0.5,1.8
					c0,0.4-0.1,0.8-0.3,1.1c-0.2,0.2-0.4,0.4-0.7,0.4C76.7,19,76.4,19,76.2,19h-3.8v0.3c0,0.5,0.2,1,0.6,1.3c0.4,0.3,1,0.5,1.6,0.5
					c0.3,0,0.7-0.1,1-0.2c0.2-0.1,0.5-0.2,0.7-0.4c0.2-0.1,0.4-0.2,0.6-0.2c0.2,0,0.4,0.1,0.5,0.2c0.1,0.1,0.2,0.3,0.3,0.4
					c0.1,0.1,0.1,0.3,0.1,0.4c0,0.3-0.2,0.5-0.4,0.7c-0.3,0.3-0.7,0.5-1.1,0.6C75.6,22.9,75.1,23,74.5,23z M72.4,17.6h2.7
					c0.2,0,0.3,0,0.4-0.1c0.1-0.1,0.1-0.2,0.1-0.4c0-0.3-0.1-0.5-0.2-0.8c-0.1-0.2-0.4-0.4-0.6-0.5c-0.3-0.1-0.5-0.2-0.8-0.2
					c-0.3,0-0.6,0.1-0.8,0.2c-0.2,0.1-0.4,0.3-0.6,0.5c-0.2,0.2-0.2,0.5-0.2,0.8V17.6z"/>
				<path class="st1" d="M83.8,22.8c-0.2,0-0.5,0-0.7-0.1c-0.2-0.1-0.4-0.2-0.6-0.4c-0.2-0.1-0.2-0.3-0.2-0.5c0,0,0-0.1,0-0.2
					L85.8,10c0.1-0.3,0.3-0.5,0.6-0.6c0.6-0.3,1.4-0.3,2,0c0.3,0.1,0.5,0.3,0.6,0.6l3.6,11.6c0,0.1,0,0.1,0,0.2
					c0,0.2-0.1,0.4-0.2,0.5c-0.2,0.2-0.4,0.3-0.6,0.4c-0.2,0.1-0.4,0.1-0.7,0.1c-0.2,0-0.4,0-0.5-0.1c-0.1-0.1-0.3-0.2-0.3-0.4
					l-0.7-2.5h-4.3l-0.7,2.5c0,0.2-0.1,0.3-0.3,0.4C84.1,22.8,84,22.8,83.8,22.8z M85.8,18H89l-1.6-5.7L85.8,18z"/>
				<path class="st1" d="M95,22.8c-0.3,0-0.6-0.1-0.8-0.2c-0.2-0.1-0.4-0.3-0.4-0.6V10c0-0.2,0.1-0.5,0.4-0.6c0.5-0.2,1.1-0.2,1.7,0
					c0.2,0.1,0.4,0.3,0.4,0.6v12c0,0.2-0.1,0.5-0.4,0.6C95.6,22.7,95.3,22.8,95,22.8z"/>
				<path class="st4" d="M25.4,25.5l-0.2-0.6h-2l-0.2,0.6c-0.1,0.2-0.1,0.3-0.2,0.5c-0.1,0.1-0.2,0.1-0.3,0.1c-0.1,0-0.2,0-0.3-0.1
					c-0.1-0.1-0.1-0.2-0.1-0.3c0-0.1,0-0.1,0-0.2c0-0.1,0.1-0.2,0.1-0.3l1.3-3.2c0-0.1,0.1-0.2,0.1-0.3c0-0.1,0.1-0.2,0.2-0.3
					c0.1-0.1,0.1-0.2,0.2-0.2c0.1-0.1,0.2-0.1,0.3-0.1c0.1,0,0.2,0,0.4,0.1c0.1,0,0.2,0.1,0.2,0.2c0.1,0.1,0.1,0.2,0.1,0.3L25,22
					l1.3,3.2c0.1,0.2,0.1,0.3,0.1,0.5c0,0.1-0.1,0.2-0.1,0.3c-0.1,0.1-0.2,0.1-0.4,0.1c-0.1,0-0.1,0-0.2,0c-0.1,0-0.1-0.1-0.1-0.1
					c0-0.1-0.1-0.1-0.1-0.2C25.4,25.7,25.4,25.6,25.4,25.5z M23.4,24.2h1.5l-0.8-2L23.4,24.2z"/>
				<path class="st4" d="M27.2,25.6v-3.9c0-0.2,0-0.3,0.1-0.5c0.2-0.2,0.5-0.2,0.7,0c0.1,0.1,0.2,0.3,0.1,0.5v3.9
					c0,0.2,0,0.3-0.1,0.5c-0.1,0.1-0.2,0.2-0.4,0.1c-0.1,0-0.3-0.1-0.4-0.1C27.2,25.9,27.2,25.7,27.2,25.6z"/>
			</g>
		</g>
	</g>
</g>
</svg>
