<?xml version="1.0" encoding="utf-8"?>
<!-- Generator: Adobe Illustrator 27.5.0, SVG Export Plug-In . SVG Version: 6.00 Build 0)  -->
<svg version="1.1" id="Ebene_1" xmlns="http://www.w3.org/2000/svg" xmlns:xlink="http://www.w3.org/1999/xlink" x="0px" y="0px"
	 viewBox="0 0 65.3 15" style="enable-background:new 0 0 65.3 15;" xml:space="preserve">
<style type="text/css">
	.st0{fill:#1A1C2E;}
</style>
<path class="st0" d="M0.6,14.6v-3.3h7c0.2,0,0.4,0,0.6-0.1c0.2-0.1,0.3-0.2,0.4-0.4c0.1-0.2,0.2-0.4,0.2-0.6c0-0.2-0.1-0.4-0.2-0.6
	C8.5,9.5,8.4,9.4,8.2,9.3C8,9.2,7.8,9.1,7.6,9.1H4.9C4,9.1,3.2,9,2.4,8.7C1.7,8.4,1.1,7.9,0.6,7.3C0.2,6.6,0,5.8,0,4.7
	c0-0.8,0.2-1.5,0.6-2.2C1,1.9,1.5,1.3,2.2,1c0.7-0.4,1.4-0.6,2.3-0.6h6.7v3.3H4.8c-0.3,0-0.5,0.1-0.8,0.3C3.9,4.1,3.8,4.3,3.8,4.6
	s0.1,0.6,0.3,0.8c0.2,0.2,0.5,0.3,0.8,0.3h2.7c1,0,1.9,0.2,2.7,0.5c0.7,0.3,1.3,0.8,1.7,1.4s0.6,1.5,0.6,2.6c0,0.8-0.2,1.6-0.6,2.3
	c-0.4,0.7-1,1.2-1.7,1.6c-0.7,0.4-1.5,0.6-2.3,0.6H0.6z M22.5,15c-1.5,0-2.7-0.3-3.8-0.9c-1-0.6-1.8-1.4-2.4-2.3
	c-0.5-1-0.8-2-0.8-3.2V0.3h3.8v8.2c0,0.6,0.1,1.1,0.4,1.6c0.3,0.5,0.7,0.8,1.1,1.1c0.5,0.3,1,0.4,1.6,0.4c0.6,0,1.1-0.1,1.6-0.4
	c0.5-0.3,0.9-0.7,1.1-1.1c0.3-0.5,0.4-1,0.4-1.6V0.3h3.8v8.2c0,1.2-0.3,2.2-0.8,3.2c-0.5,1-1.3,1.7-2.4,2.3C25.2,14.7,24,15,22.5,15
	z M33.1,14.6V6.4c0-1.2,0.3-2.2,0.8-3.2c0.6-1,1.4-1.7,2.4-2.3c1-0.6,2.3-0.9,3.8-0.9c1.5,0,2.7,0.3,3.8,0.9c1,0.6,1.8,1.4,2.4,2.3
	c0.6,1,0.8,2,0.8,3.2v8.2h-3.8V6.4c0-0.6-0.1-1.1-0.4-1.6c-0.3-0.5-0.7-0.9-1.1-1.1c-0.5-0.3-1-0.4-1.6-0.4c-0.6,0-1.1,0.1-1.6,0.4
	C38,4,37.7,4.4,37.4,4.8c-0.3,0.5-0.4,1-0.4,1.6v8.2H33.1z M57.6,15c-1.5,0-2.8-0.3-3.9-1c-1.2-0.7-2.1-1.6-2.7-2.7
	c-0.7-1.1-1-2.4-1-3.8c0-1.4,0.3-2.7,1-3.8c0.7-1.1,1.6-2,2.7-2.7c1.2-0.7,2.5-1,3.9-1c1.5,0,2.8,0.3,3.9,1c1.2,0.7,2.1,1.5,2.7,2.7
	c0.7,1.1,1,2.4,1,3.8c0,1.4-0.3,2.7-1,3.8c-0.7,1.1-1.6,2-2.7,2.7C60.4,14.6,59,15,57.6,15z M57.6,11.7c0.8,0,1.5-0.2,2-0.6
	c0.6-0.4,1-0.9,1.3-1.5c0.3-0.6,0.5-1.3,0.5-2.1c0-0.8-0.2-1.5-0.5-2.1c-0.3-0.6-0.7-1.1-1.3-1.5c-0.6-0.4-1.2-0.6-2-0.6
	s-1.5,0.2-2,0.6c-0.6,0.4-1,0.9-1.3,1.5c-0.3,0.6-0.4,1.3-0.4,2.1c0,0.8,0.1,1.5,0.4,2.1c0.3,0.6,0.8,1.1,1.3,1.5
	C56.1,11.5,56.8,11.7,57.6,11.7z"/>
</svg>
