<?xml version="1.0" encoding="utf-8"?>
<!-- Generator: Adobe Illustrator 23.0.3, SVG Export Plug-In . SVG Version: 6.00 Build 0)  -->
<svg version="1.1" id="Ebene_1" xmlns="http://www.w3.org/2000/svg" xmlns:xlink="http://www.w3.org/1999/xlink" x="0px" y="0px"
	 viewBox="0 0 212.3 39" style="enable-background:new 0 0 212.3 39;" xml:space="preserve">
<style type="text/css">
	.st0{fill:#FFFFFF;}
	.st1{fill:#C90900;}
</style>
<rect id="XMLID_332_" class="st0" width="120" height="39"/>
<rect id="XMLID_331_" x="120" class="st1" width="92.3" height="39"/>
<path id="XMLID_722_" d="M24,13.8c-2.2-0.8-4.3-1.1-6.1-1.1c-1.8,0-3.2,0.4-3.2,1.6c0,0.9,0.6,1.2,3.6,2.4c4.2,1.5,6.8,3.4,6.8,7.4
	c0,5-3.9,7.7-10.5,7.7c-2.8,0-5.4-0.3-7.8-1L7.4,25c2.4,0.9,5.1,1.4,6.8,1.4c2,0,3.2-0.5,3.2-1.7c0-0.9-0.9-1.6-3.9-2.7
	C10.1,20.5,7,19.1,7,15c0-5.7,5.3-7.7,10.6-7.7c2.7,0,4.9,0.3,6.9,0.7L24,13.8z"/>
<path id="XMLID_720_" d="M45.2,18.5c-0.2-1.3-0.5-3.7-0.7-5.4h-0.1c-0.1,1.7-0.4,4.2-0.6,5.4L42,31.2H31.2L26.3,7.8h8.1L36,18
	c0.1,0.8,0.7,5.2,0.9,7.2H37c0.2-2,0.8-6.4,0.9-7.2l1.4-10.2H50L51.6,18c0.1,0.8,0.8,5.3,1,7.2h0.1c0.1-1.9,0.7-6.1,0.8-7.2
	l1.6-10.2h7.6L58,31.2H47.3L45.2,18.5z"/>
<path id="XMLID_718_" d="M65.1,7.8h7.7v23.5h-7.7V7.8z"/>
<polygon class="st0" points="178,13.1 172.5,7.6 166.1,14 159.7,7.6 154.2,13.1 160.6,19.5 154.2,25.9 159.7,31.4 166.1,25 
	172.5,31.4 178,25.9 171.6,19.5 "/>
<polygon class="st0" points="151.2,7.8 143.3,7.8 135.6,7.8 127.7,7.8 127.7,15.5 135.6,15.5 135.6,31.3 143.3,31.3 143.3,15.5 
	151.2,15.5 "/>
<polygon class="st0" points="204.5,7.8 196.6,7.8 188.9,7.8 181,7.8 181,15.5 188.9,15.5 188.9,31.3 196.6,31.3 196.6,15.5 
	204.5,15.5 "/>
<path id="XMLID_701_" d="M93,13.8c-2.2-0.8-4.3-1.1-6.1-1.1c-1.8,0-3.2,0.4-3.2,1.6c0,0.9,0.6,1.2,3.6,2.4c4.2,1.5,6.8,3.4,6.8,7.4
	c0,5-3.9,7.7-10.5,7.7c-2.8,0-5.4-0.3-7.8-1l0.6-5.8c2.4,0.9,5.1,1.4,6.8,1.4c2,0,3.2-0.5,3.2-1.7c0-0.9-0.9-1.6-3.9-2.7
	c-3.4-1.5-6.5-2.9-6.5-7c0-5.7,5.3-7.7,10.6-7.7c2.7,0,4.9,0.3,6.9,0.7L93,13.8z"/>
<path id="XMLID_699_" d="M112.6,13.8c-2.2-0.8-4.3-1.1-6.1-1.1c-1.8,0-3.2,0.4-3.2,1.6c0,0.9,0.6,1.2,3.6,2.4
	c4.2,1.5,6.8,3.4,6.8,7.4c0,5-3.9,7.7-10.5,7.7c-2.8,0-5.4-0.3-7.8-1L96,25c2.4,0.9,5.1,1.4,6.8,1.4c2,0,3.2-0.5,3.2-1.7
	c0-0.9-0.9-1.6-3.9-2.7c-3.4-1.3-6.5-2.7-6.5-6.8c0-5.7,5.3-7.7,10.6-7.7c2.7,0,4.9,0.3,6.9,0.7L112.6,13.8z"/>
</svg>
