<svg fill="none" height="44" viewBox="0 0 154 44" width="154" xmlns="http://www.w3.org/2000/svg"><g fill="#073b41"><path d="m25.819 43.7156c4.0001 0 6.7735-1.8668 8.6936-4.3202v3.5735h5.4935v-25.3342h-5.4935v3.0401c-1.6534-2.0268-4.7468-3.7868-8.5336-3.7868-7.3069 0-12.4271 5.4935-12.4271 13.3871 0 7.947 4.9068 13.4405 12.2671 13.4405zm-6.6669-13.4405c0-4.6401 2.8268-8.3736 6.2935-8.3736h3.3602c3.3067 0 5.5468 2.8801 5.5468 6.2402v4.4268c0 3.4668-2.4001 6.1336-5.5468 6.1336h-3.3602c-3.4667 0-6.2935-3.7335-6.2935-8.427z"/><path d="m50.8844 42.9689h8.1069l9.1203-25.3342h-5.3868l-7.2536 20.1073h-.8534l-7.2535-20.1073h-5.6002z"/><path d="m79.6089 43.7156c4.1069 0 6.7736-1.6001 8.3203-4.2135v3.4668h5.4402v-25.3342h-5.6002v14.9872c0 3.4668-2.3467 5.8668-4.9601 5.8668h-3.0402c-2.4534 0-4.3201-2.1867-4.3201-5.8668v-14.9872h-5.6002v15.9472c0 6.5602 3.6268 10.1337 9.7603 10.1337z"/><path d="m106.464 43.7156c7.68 0 11.147-2.8801 11.147-8.107 0-4.0534-2.24-6.6669-7.094-7.2535l-5.973-.7467c-2.294-.32-3.36-1.4401-3.36-3.0935s1.12-2.9334 3.52-2.9334h3.2c2.773 0 3.68 1.5467 3.947 3.7334h5.386c-.213-5.8135-4.16-8.4269-10.667-8.4269-6.8265 0-10.6133 2.7734-10.6133 7.8936 0 3.8935 2.2401 6.8802 7.2533 7.4669l5.921.7467c2.293.32 3.253 1.4401 3.253 3.0401 0 1.7067-1.173 2.9868-3.68 2.9868h-3.52c-2.88 0-4.267-1.4401-4.534-3.6801h-5.3866c.2133 5.5468 3.8401 8.3736 11.2006 8.3736z"/><path clip-rule="evenodd" d="m11.9893 42.9689-6.20107-.0002c-3.1966-.0001-5.78791334-2.5915-5.78794897-5.7881l-.00028103-25.2123h5.65386v5.666h6.33544v4.9069h-6.33544v14.2029c0 .6393.51825 1.1576 1.15756 1.1576l5.17788.0003z" fill-rule="evenodd"/></g><rect fill="#f230aa" height="21.3087" rx="10.6544" width="32.7507" x="120.626" y=".094238"/><ellipse cx="131.381" cy="10.7489" fill="#fff" rx="5.88628" ry="5.87979"/><path d="m149.128 10.7489-10.002 5.7029v-11.4059z" fill="#fff"/></svg>