<?xml version="1.0" encoding="utf-8"?>
<!-- Generator: Adobe Illustrator 27.5.0, SVG Export Plug-In . SVG Version: 6.00 Build 0)  -->
<svg version="1.1" id="Ebene_1" xmlns="http://www.w3.org/2000/svg" xmlns:xlink="http://www.w3.org/1999/xlink" x="0px" y="0px"
	 viewBox="0 0 295.36 55.87" enable-background="new 0 0 295.36 55.87" xml:space="preserve">
<path d="M116.96,27.93c0-9.08,0-18.15,0-27.23c0-0.28-0.13-0.6,0.41-0.6c10.42,0.05,20.87-0.41,31.25,0.29
	c7.4,0.5,14.1,5.89,15.32,14.67c0.69,4.96,0.19,9.61-2.5,13.83c-1.99,3.12-4.81,5.45-8.31,6.84c-1.4,0.55-0.2,1.18,0.03,1.52
	c4.04,5.98,8.15,11.91,12.24,17.86c0.13,0.18,0.2,0.4,0.3,0.6c-0.23,0.04-0.47,0.1-0.7,0.1c-4.37,0.01-8.74,0.04-13.1,0
	c-1.86-0.02-2.21-1.85-2.98-2.95c-3.28-4.68-6.3-9.53-9.55-14.23c-0.94-1.36-2.65-0.61-3.99-0.63c-5.43-0.08-5.43-0.03-5.43,5.36
	c0,3.96-0.01,7.92,0.01,11.87c0,0.5-0.13,0.6-0.61,0.6c-3.93-0.02-7.86-0.02-11.79,0c-0.51,0-0.6-0.14-0.6-0.61
	C116.97,46.12,116.96,37.03,116.96,27.93z M129.92,19.07c0.01,0,0.01,0,0.02,0c0,2.51,0,5.01,0,7.52c0,0.29-0.06,0.58,0.42,0.54
	c5.02-0.33,10.07,0.53,15.08-0.59c2.25-0.5,3.95-1.75,4.96-3.6c3.07-5.61-1.35-11.94-8.06-11.82c-3.97,0.07-7.94,0.01-11.91-0.02
	c-0.43,0-0.52,0.11-0.51,0.5C129.93,14.1,129.92,16.58,129.92,19.07z"/>
<path d="M178.87,27.9c0-9.07,0-18.15,0-27.22c0-0.25-0.15-0.57,0.37-0.57c10.35,0.05,20.73-0.3,31.06,0.27
	c5.63,0.32,10.62,3.15,13.31,8.56c4.84,9.73,2.43,22.58-9.1,26.97c-0.4,0.15-0.38,0.32-0.16,0.63c4.23,6.09,8.46,12.18,12.67,18.29
	c0.16,0.24,0.19,0.57,0.29,0.85c-0.26,0.05-0.53,0.13-0.79,0.13c-4.35,0.01-8.7,0.15-13.04-0.06c-2.19-0.11-2.47-2.56-3.49-3.98
	c-3.19-4.42-6.06-9.06-9.22-13.49c-0.35-0.49-1.77-0.31-2.7-0.31c-6.72-0.02-6.72-0.01-6.72,6.66c0,3.52-0.01,7.04,0.01,10.57
	c0,0.53-0.15,0.63-0.65,0.63c-3.76-0.02-7.53-0.02-11.29,0c-0.48,0-0.57-0.13-0.56-0.58C178.87,46.13,178.87,37.02,178.87,27.9z
	 M191.45,19.1c-0.03,0-0.07,0-0.1,0c0,2.44-0.01,4.89,0.01,7.33c0,0.18,0.18,0.53,0.27,0.52c5.78-0.15,11.64,1.13,17.3-1.05
	c2.27-0.87,3.58-2.63,3.83-4.85c0.36-3.2,0.48-6.5-3.19-8.3c-3.25-1.59-6.7-1.67-10.19-1.65c-2.64,0.02-6.34-0.98-7.62,0.35
	C190.42,12.83,191.45,16.46,191.45,19.1z"/>
<path d="M265.53,55.82c-9.67,0-19.34,0-29.01,0c-0.26,0-0.51-0.05-0.77-0.08c0.14-0.22,0.3-0.43,0.42-0.66
	c2.7-5.13,5.38-10.27,8.1-15.38c1.71-3.22,3.55-6.37,5.23-9.61c3.14-6.04,6.18-12.14,9.31-18.18c2.02-3.89,4.13-7.74,6.22-11.6
	c0.08-0.14,0.45-0.29,0.48-0.26c0.39,0.45,0.83,0.89,1.11,1.41c2.3,4.22,4.61,8.44,6.85,12.69c2.13,4.04,4.11,8.17,6.26,12.2
	c5.1,9.58,10.26,19.12,15.39,28.68c0.11,0.21,0.16,0.46,0.24,0.68c-0.23,0.04-0.47,0.1-0.7,0.1
	C284.95,55.82,275.24,55.82,265.53,55.82z"/>
<path d="M59.55,27.97c0-9.07,0-18.15-0.01-27.22c0-0.51,0.11-0.64,0.63-0.64c13.73,0.02,27.45,0.02,41.18,0
	c0.5,0,0.66,0.09,0.65,0.62c-0.03,3.25-0.02,6.51,0,9.76c0,0.47-0.08,0.63-0.6,0.63c-9.61-0.02-19.21-0.02-28.82,0
	c-0.14,0-0.4,0.35-0.4,0.54c0,3.25,0.03,6.5,0.03,9.76c0,0.5,0.15,0.6,0.62,0.6c8.34-0.01,16.68-0.01,25.02-0.02
	c0.5,0,0.66,0.09,0.66,0.63c-0.03,3.4-0.03,6.8,0,10.19c0,0.51-0.1,0.64-0.63,0.64c-8.34-0.02-16.68-0.01-25.02-0.02
	c-0.5,0-0.66,0.08-0.66,0.63c0.02,3.4,0,6.8-0.04,10.19c-0.01,0.52,0.2,0.55,0.62,0.55c9.71,0,19.41,0.02,29.12,0.02
	c0.48,0,0.61,0.13,0.61,0.63c-0.03,3.27-0.02,6.55-0.01,9.82c0,0.39-0.03,0.57-0.51,0.57c-13.98-0.02-27.95-0.02-41.93,0
	c-0.57,0-0.5-0.28-0.5-0.64C59.55,46.12,59.55,37.04,59.55,27.97z"/>
<path d="M23.33,0.12c7.55,0,15.1,0.01,22.65-0.01c0.5,0,0.61,0.13,0.61,0.61c-0.02,3.36-0.04,6.71,0.01,10.07
	c0.01,0.8-0.23,0.93-0.96,0.93c-5.07-0.03-10.15,0-15.22-0.01c-0.63,0-0.83,0.13-0.83,0.81c0.02,14.19,0.01,28.39,0.04,42.58
	c0,0.65-0.18,0.75-0.78,0.75c-3.72-0.03-7.45-0.04-11.17,0.01c-0.83,0.01-1.03-0.29-1.03-1.03c0.02-14.09,0.02-28.18,0.05-42.27
	c0-0.66-0.14-0.87-0.84-0.86c-5.05,0.03-10.11,0.01-15.16,0.03c-0.52,0-0.67-0.14-0.67-0.66C0.04,7.59,0.04,4.13,0,0.67
	c-0.01-0.58,0.27-0.56,0.68-0.56C8.23,0.12,15.78,0.12,23.33,0.12z"/>
</svg>
