<svg width="400" height="91" viewBox="0 0 400 91" fill="none" xmlns="http://www.w3.org/2000/svg">
<g filter="url(#filter0_i_2196_136)">
<path d="M0.47842 20.1022C0.914589 9.31055 9.3106 0.925592 20.1021 0.485911C26.8101 0.212603 35.2797 0 45.397 0C55.609 0 64.1423 0.216603 70.8798 0.493603C81.5853 0.933738 89.9047 9.21056 90.3303 19.9166C90.5928 26.5188 90.794 34.9773 90.794 45.397C90.794 55.9833 90.5863 64.5452 90.3177 71.1928C89.8908 81.7553 81.754 89.9021 71.1913 90.3252C64.575 90.5902 56.0304 90.794 45.397 90.794C34.8645 90.794 26.3813 90.594 19.7915 90.3327C9.14308 89.9104 0.928272 81.6541 0.491228 71.0063C0.215366 64.2853 0 55.7295 0 45.397C0 35.2249 0.208728 26.7748 0.47842 20.1022Z" fill="url(#paint0_linear_2196_136)"/>
</g>
<g filter="url(#filter1_dii_2196_136)">
<path d="M61.3793 54.1897C61.3793 62.6941 54.4851 69.5883 45.9807 69.5883C37.4762 69.5883 30.582 62.6941 30.582 54.1897C30.582 45.6852 37.4762 38.791 45.9807 38.791C45.9807 44.961 45.9807 54.1897 45.9807 54.1897C45.9807 54.1897 54.7448 54.1897 61.3793 54.1897Z" stroke="white" stroke-width="6.41818" stroke-linecap="round" stroke-linejoin="round"/>
<rect x="27.2734" y="23.457" width="36.5836" height="14.4409" stroke="white" stroke-width="6.41818" stroke-linecap="round" stroke-linejoin="round"/>
</g>
<path fill-rule="evenodd" clip-rule="evenodd" d="M204.275 49.8556C204.275 57.5736 198.529 63.8303 191.44 63.8303C188.375 63.8303 185.56 62.6605 183.353 60.7087V73.0134H177.148V36.2715H183.353V39.0024C185.56 37.0506 188.375 35.8809 191.44 35.8809C198.529 35.8809 204.275 42.1375 204.275 49.8556ZM197.832 49.8988C197.832 54.4679 194.618 58.1719 190.654 58.1719C186.69 58.1719 183.476 54.4679 183.476 49.8988C183.476 45.3298 186.69 41.6258 190.654 41.6258C194.618 41.6258 197.832 45.3298 197.832 49.8988Z" fill="#242A43"/>
<path d="M151.462 26.5215V32.9869H139.652V63.2029H132.989V32.9869H121.18V26.5215H151.462Z" fill="#242A43"/>
<path d="M175.214 36.2852L164.196 72.9666H157.731L160.765 63.2025H155.133L148.23 36.2852H154.696L159.883 57.2648H162.547L168.682 36.2852H175.214Z" fill="#242A43"/>
<path d="M233.73 49.7423C233.73 45.8498 232.411 42.4852 229.772 39.7803C227.133 37.0753 223.834 35.7559 220.008 35.7559C216.181 35.7559 212.883 37.1413 210.244 39.7803C207.605 42.4852 206.285 45.7839 206.285 49.7423C206.285 53.6348 207.605 56.9994 210.244 59.7043C212.883 62.4093 216.181 63.7287 220.008 63.7287C221.987 63.7287 223.768 63.3989 225.418 62.8051C227.067 62.2113 228.32 61.4856 229.244 60.6939C230.168 59.9682 230.959 59.0446 231.685 58.055C232.411 57.0654 232.873 56.3397 233.005 55.9438C233.202 55.548 233.334 55.2181 233.4 54.9542L233.532 54.4264H227.199L226.407 55.482C226.011 56.0098 225.22 56.6036 224.032 57.1973C222.845 57.7911 221.459 58.055 219.942 58.055C218.094 58.055 216.445 57.4612 214.994 56.2737C213.74 55.1521 212.883 53.7007 212.487 51.9194H233.664V49.7423H233.73ZM220.008 41.4296C222.053 41.4296 223.702 42.0234 225.022 43.1449C226.143 44.2005 226.935 45.388 227.265 46.7735H212.883C213.278 45.1901 214.136 43.9366 215.39 43.013C216.643 41.9574 218.226 41.4296 220.008 41.4296Z" fill="#242A43"/>
<path d="M277.998 52.7767C277.998 55.9434 276.678 58.7143 274.039 60.8915C271.4 63.0686 267.904 64.1901 263.483 64.1901C261.636 64.1901 259.855 63.9922 258.272 63.5304C256.688 63.0686 255.369 62.4748 254.313 61.7491C253.258 61.0234 252.334 60.2317 251.542 59.3741C250.751 58.5164 250.091 57.6587 249.629 56.8011C249.233 55.9434 248.837 55.1517 248.573 54.426C248.309 53.7003 248.112 53.1066 248.046 52.6447L247.848 51.5892H254.775L254.841 51.919C254.841 52.1169 254.907 52.3149 254.973 52.5788C255.039 52.7767 255.171 53.1066 255.633 54.0302C256.028 54.7559 256.49 55.3497 257.018 55.8775C257.546 56.4052 258.403 56.8671 259.525 57.3289C260.647 57.7907 261.966 57.9886 263.351 57.9886C265.924 57.9886 267.904 57.5268 269.091 56.6032C270.279 55.6795 270.872 54.558 270.872 52.9746C270.872 52.051 270.543 51.2593 269.817 50.5996C269.091 49.8738 268.102 49.3461 266.848 48.9502C265.595 48.5544 264.209 48.0925 262.692 47.6967C261.174 47.3009 259.591 46.839 258.074 46.3113C256.49 45.7835 255.105 45.1237 253.785 44.398C252.466 43.6723 251.41 42.6167 250.553 41.2313C249.761 39.9118 249.299 38.3284 249.299 36.4812C249.299 33.4464 250.619 30.8074 253.126 28.5643C255.633 26.3872 258.997 25.2656 263.022 25.2656C264.737 25.2656 266.386 25.4635 267.838 25.8594C269.289 26.2552 270.543 26.783 271.532 27.4428C272.522 28.1025 273.38 28.7622 274.105 29.5539C274.897 30.3456 275.491 31.0713 275.887 31.863C276.282 32.5887 276.612 33.3144 276.876 33.9742C277.14 34.6339 277.338 35.1617 277.404 35.6235L277.602 36.6791H270.675L270.609 36.3492C270.609 36.2173 270.543 36.0193 270.477 35.7555C270.477 35.6235 270.345 35.3596 269.883 34.6339C269.553 34.1061 269.157 33.5783 268.629 33.1825C268.168 32.7866 267.442 32.3908 266.452 31.9949C265.463 31.6651 264.275 31.4672 263.022 31.4672C260.779 31.4672 259.063 31.929 257.942 32.7866C256.82 33.6443 256.226 34.7658 256.226 36.1513C256.226 37.4048 256.886 38.3944 258.272 39.1861C259.723 40.0437 261.504 40.7695 263.549 41.2972C265.661 41.825 267.772 42.4848 269.883 43.1445C272.06 43.8702 273.907 44.9918 275.425 46.5092C277.206 48.3564 277.998 50.4016 277.998 52.7767Z" fill="#242A43"/>
<path d="M298.699 57.5286V63.2024H283.343V41.9588H280.242V36.2851H283.343V30.6113H289.479V36.2851H297.461V41.9588H289.479V57.5286H298.699Z" fill="#242A43"/>
<path fill-rule="evenodd" clip-rule="evenodd" d="M386.022 63.7365C393.74 63.7365 399.996 57.4798 399.996 49.7618C399.996 42.0438 393.74 35.7871 386.022 35.7871C378.304 35.7871 372.047 42.0438 372.047 49.7618C372.047 57.4798 378.304 63.7365 386.022 63.7365ZM386.039 57.9307C390.272 57.9307 393.704 54.2812 393.704 49.7793C393.704 45.2774 390.272 41.628 386.039 41.628C381.806 41.628 378.375 45.2774 378.375 49.7793C378.375 54.2812 381.806 57.9307 386.039 57.9307Z" fill="#242A43"/>
<path fill-rule="evenodd" clip-rule="evenodd" d="M326.302 63.2113H320.188V61.3069C318.338 62.4987 316.179 63.1829 313.872 63.1829C307.033 63.1829 301.488 57.1677 301.48 49.7444H301.48V49.7295V36.2765H307.595V49.7444H307.593C307.599 53.77 310.429 57.0312 313.919 57.0312C317.121 57.0312 319.767 54.2869 320.188 50.7257V36.2754H326.302V63.2113Z" fill="#242A43"/>
<path fill-rule="evenodd" clip-rule="evenodd" d="M357.447 63.2841H351.377V60.4629C349.117 62.2173 346.299 63.2586 343.242 63.2586C335.808 63.2586 329.781 57.0979 329.781 49.4983C329.781 41.8987 335.808 35.738 343.242 35.738C346.299 35.738 349.117 36.7793 351.377 38.5338V26.2988H357.447V63.2841ZM350.878 49.4179C350.878 53.9869 347.556 57.6909 343.457 57.6909C339.358 57.6909 336.035 53.9869 336.035 49.4179C336.035 44.8488 339.358 41.1449 343.457 41.1449C347.556 41.1449 350.878 44.8488 350.878 49.4179Z" fill="#242A43"/>
<path d="M369.179 26.5192C369.179 27.5088 368.85 28.3664 368.124 29.0922C367.398 29.7519 366.54 30.1477 365.551 30.1477C364.561 30.1477 363.704 29.8179 363.044 29.0922C362.384 28.3664 361.988 27.5748 361.988 26.5192C361.988 25.5296 362.318 24.6719 363.044 23.9462C363.77 23.2205 364.561 22.8906 365.617 22.8906C366.606 22.8906 367.464 23.2205 368.19 23.9462C368.916 24.6719 369.179 25.5296 369.179 26.5192Z" fill="#242A43"/>
<path d="M368.721 36.2852H362.52V63.2025H368.721V36.2852Z" fill="#242A43"/>
<defs>
<filter id="filter0_i_2196_136" x="0" y="0" width="91.7907" height="91.7927" filterUnits="userSpaceOnUse" color-interpolation-filters="sRGB">
<feFlood flood-opacity="0" result="BackgroundImageFix"/>
<feBlend mode="normal" in="SourceGraphic" in2="BackgroundImageFix" result="shape"/>
<feColorMatrix in="SourceAlpha" type="matrix" values="0 0 0 0 0 0 0 0 0 0 0 0 0 0 0 0 0 0 127 0" result="hardAlpha"/>
<feOffset dx="0.997736" dy="0.997736"/>
<feGaussianBlur stdDeviation="0.498868"/>
<feComposite in2="hardAlpha" operator="arithmetic" k2="-1" k3="1"/>
<feColorMatrix type="matrix" values="0 0 0 0 1 0 0 0 0 1 0 0 0 0 1 0 0 0 0.2 0"/>
<feBlend mode="normal" in2="shape" result="effect1_innerShadow_2196_136"/>
</filter>
<filter id="filter1_dii_2196_136" x="15.4155" y="16.3087" width="60.298" height="69.8429" filterUnits="userSpaceOnUse" color-interpolation-filters="sRGB">
<feFlood flood-opacity="0" result="BackgroundImageFix"/>
<feColorMatrix in="SourceAlpha" type="matrix" values="0 0 0 0 0 0 0 0 0 0 0 0 0 0 0 0 0 0 127 0" result="hardAlpha"/>
<feOffset dy="4.7077"/>
<feGaussianBlur stdDeviation="4.32352"/>
<feColorMatrix type="matrix" values="0 0 0 0 0.0846528 0 0 0 0 0.105365 0 0 0 0 0.191667 0 0 0 0.6 0"/>
<feBlend mode="normal" in2="BackgroundImageFix" result="effect1_dropShadow_2196_136"/>
<feBlend mode="normal" in="SourceGraphic" in2="effect1_dropShadow_2196_136" result="shape"/>
<feColorMatrix in="SourceAlpha" type="matrix" values="0 0 0 0 0 0 0 0 0 0 0 0 0 0 0 0 0 0 127 0" result="hardAlpha"/>
<feOffset dy="-3.13847"/>
<feGaussianBlur stdDeviation="1.96154"/>
<feComposite in2="hardAlpha" operator="arithmetic" k2="-1" k3="1"/>
<feColorMatrix type="matrix" values="0 0 0 0 0.141176 0 0 0 0 0.164706 0 0 0 0 0.262745 0 0 0 0.45 0"/>
<feBlend mode="normal" in2="shape" result="effect2_innerShadow_2196_136"/>
<feColorMatrix in="SourceAlpha" type="matrix" values="0 0 0 0 0 0 0 0 0 0 0 0 0 0 0 0 0 0 127 0" result="hardAlpha"/>
<feOffset dy="-1.17692"/>
<feGaussianBlur stdDeviation="0.784617"/>
<feComposite in2="hardAlpha" operator="arithmetic" k2="-1" k3="1"/>
<feColorMatrix type="matrix" values="0 0 0 0 1 0 0 0 0 1 0 0 0 0 1 0 0 0 0.25 0"/>
<feBlend mode="normal" in2="effect2_innerShadow_2196_136" result="effect3_innerShadow_2196_136"/>
</filter>
<linearGradient id="paint0_linear_2196_136" x1="45.397" y1="0" x2="45.397" y2="90.794" gradientUnits="userSpaceOnUse">
<stop stop-color="#353C59"/>
<stop offset="1" stop-color="#2E3552"/>
</linearGradient>
</defs>
</svg>
