<svg width="133" height="32" viewBox="0 0 133 32" fill="none" xmlns="http://www.w3.org/2000/svg">
<path d="M38.5991 9.07512H43.5481V22.7837H46.183V9.07512H51.132V6.73688H38.5991V9.07512Z" fill="#1F2839"/>
<path d="M54.8627 22.8524L54.4045 23.9986C54.0379 24.9614 53.492 25.1907 52.5297 25.1907L51.5871 27.3685L53.7629 27.3685C55.4813 27.3685 55.9854 26.5203 56.7186 24.6176L62.0342 11.0466H59.3993L56.2145 19.964L52.9381 11.0466H50.3032L54.8627 22.8524Z" fill="#1F2839"/>
<path d="M69.1054 10.909C67.2724 10.909 66.0581 11.7572 65.2791 12.7888L64.9812 11.0466H62.8275V27.3685H65.302V21.1331C66.0352 22.1876 67.2953 22.9212 69.1054 22.9212C72.3131 22.9212 74.6501 20.5371 74.6501 16.9151C74.6501 13.1556 72.3131 10.909 69.1054 10.909ZM68.693 20.8351C66.6309 20.8351 65.2791 19.2075 65.2791 16.8693C65.2791 14.5998 66.6309 13.018 68.693 13.018C70.755 13.018 72.1298 14.5998 72.1298 16.9151C72.1298 19.2075 70.755 20.8351 68.693 20.8351Z" fill="#1F2839"/>
<path d="M81.7422 22.9212C84.6521 22.9212 86.6225 21.1561 87.0349 18.8407H84.5604C84.2167 20.1474 83.117 20.9039 81.6048 20.9039C79.6572 20.9039 78.3971 19.5972 78.3284 17.6028V17.4424H87.1724C87.2182 17.1214 87.2411 16.8005 87.2411 16.5025C87.1724 13.0639 84.9041 10.909 81.5131 10.909C78.0534 10.909 75.7393 13.3161 75.7393 16.938C75.7393 20.5371 78.0534 22.9212 81.7422 22.9212ZM78.42 15.6314C78.6033 13.9579 79.9551 12.9034 81.536 12.9034C83.2544 12.9034 84.4688 13.8892 84.675 15.6314H78.42Z" fill="#1F2839"/>
<path d="M91.0843 22.7837H93.765L96.3311 14.8061L98.8056 22.7837H101.463L105.358 11.0466H102.838L100.066 20.0328L97.4996 11.0466H95.2313L92.5506 20.0328L89.8699 11.0466H87.2579L91.0843 22.7837Z" fill="#1F2839"/>
<path d="M106.203 22.7837H108.677V11.0466H106.203V22.7837Z" fill="#1F2839"/>
<path d="M110.141 18.9095C110.209 21.4541 112.363 22.9212 115.502 22.9212C118.343 22.9212 120.474 21.4999 120.474 19.2534C120.474 16.64 118.297 16.0899 115.617 15.7689C113.921 15.5855 112.798 15.448 112.798 14.3476C112.798 13.4078 113.761 12.8117 115.227 12.8117C116.693 12.8117 117.702 13.5682 117.839 14.6456H120.268C120.107 12.2386 118.068 10.909 115.181 10.909C112.363 10.8861 110.37 12.3303 110.37 14.554C110.37 16.9839 112.478 17.557 115.158 17.8779C116.968 18.1072 118.045 18.1989 118.045 19.4597C118.045 20.3996 117.037 20.9956 115.502 20.9956C113.715 20.9956 112.661 20.1245 112.569 18.9095H110.141Z" fill="#1F2839"/>
<path d="M127.501 22.9212C130.41 22.9212 132.381 21.156 132.793 18.8407H130.319C129.975 20.1474 128.875 20.9039 127.363 20.9039C125.416 20.9039 124.155 19.5972 124.087 17.6028V17.4423H132.931C132.977 17.1214 133 16.8005 133 16.5024C132.931 13.0639 130.662 10.909 127.272 10.909C123.812 10.909 121.498 13.316 121.498 16.938C121.498 20.5371 123.812 22.9212 127.501 22.9212ZM124.178 15.6313C124.362 13.9579 125.713 12.9034 127.294 12.9034C129.013 12.9034 130.227 13.8891 130.433 15.6313H124.178Z" fill="#1F2839"/>
<g clip-path="url(#clip0_230_7108)">
<path d="M13.442 31.9149C17.6612 31.0403 21.8196 29.8926 25.8911 28.4791C26.4751 28.2772 27.0055 27.9444 27.4423 27.5061C27.879 27.0678 28.2106 26.5355 28.4118 25.9494C29.8033 21.8586 30.94 17.685 31.8153 13.4526C31.9376 12.8623 31.9234 12.2517 31.7739 11.6678C31.6243 11.0839 31.3434 10.5421 30.9527 10.0842C28.1103 6.83805 25.0595 3.78199 21.8197 0.935532C21.3642 0.542544 20.8236 0.26176 20.2408 0.115558C19.6581 -0.0306445 19.0494 -0.0382227 18.4632 0.0934264C14.2422 0.966568 10.0826 2.1154 6.01074 3.53258C5.4263 3.73364 4.89538 4.06608 4.45851 4.5045C4.02164 4.94293 3.69038 5.47575 3.49004 6.06227C2.09387 10.1507 0.956009 14.3235 0.0832243 18.5557C-0.0397789 19.1458 -0.0262794 19.7562 0.122684 20.3402C0.271647 20.9242 0.552104 21.466 0.94248 21.9242C3.78576 25.1683 6.83653 28.2232 10.0754 31.0694C10.536 31.4538 11.0768 31.729 11.6579 31.8748C12.239 32.0206 12.8453 32.0332 13.4319 31.9115" fill="#1D58E2"/>
<path d="M14.3452 16.5448C14.2275 16.515 14.1051 16.5088 13.985 16.5266C13.8649 16.5444 13.7495 16.5857 13.6454 16.6483C13.5413 16.7109 13.4505 16.7934 13.3782 16.8913C13.3059 16.9891 13.2535 17.1003 13.2241 17.2185L12.5025 20.3713C12.4112 20.7761 12.2016 21.1442 11.9007 21.4288C11.5997 21.7133 11.2209 21.9013 10.8129 21.9685C10.4049 22.0358 9.98614 21.9794 9.61026 21.8065C9.23438 21.6335 8.91846 21.352 8.70294 20.9978C8.41813 20.5252 8.32558 19.9607 8.44449 19.4214L10.3375 9.17469C10.368 9.04928 10.3726 8.91893 10.3511 8.79167C10.3295 8.66441 10.2822 8.54291 10.2122 8.43466C10.1421 8.32641 10.0507 8.23369 9.94359 8.1622C9.83649 8.0907 9.71595 8.04196 9.58938 8.01894C9.46281 7.99593 9.33288 7.99915 9.2076 8.02839C9.08231 8.05763 8.96431 8.11228 8.86084 8.18899C8.75738 8.26569 8.67065 8.36282 8.60597 8.4744C8.5413 8.58599 8.50005 8.70967 8.48476 8.83784L7.8034 12.5027L5.30619 13.3448C5.18918 13.3831 5.08099 13.4445 4.98798 13.5254C4.89497 13.6063 4.81903 13.7051 4.76461 13.8159C4.71019 13.9267 4.6784 14.0472 4.67111 14.1706C4.66383 14.2939 4.68118 14.4174 4.72216 14.5338C4.78727 14.7272 4.9123 14.8946 5.07897 15.0116C5.24565 15.1285 5.44523 15.1889 5.64855 15.1839C5.73611 15.1795 5.82284 15.1648 5.907 15.1402L7.41741 14.6416L6.59843 19.0206C6.46782 19.6154 6.47469 20.2323 6.61851 20.824C6.76234 21.4157 7.0393 21.9665 7.42815 22.4342C7.817 22.9018 8.30741 23.2738 8.86177 23.5218C9.41613 23.7697 10.0197 23.8869 10.6262 23.8644C11.2895 23.8314 11.9343 23.6334 12.5025 23.2884C12.9461 23.0175 13.3309 22.66 13.6342 22.237C13.9375 21.814 14.153 21.3342 14.268 20.8261L14.9997 17.6901C15.0341 17.5717 15.0443 17.4476 15.0298 17.3252C15.0153 17.2028 14.9763 17.0846 14.9152 16.9777C14.8541 16.8708 14.7721 16.7773 14.6741 16.7029C14.5762 16.6285 14.4643 16.5748 14.3452 16.5448Z" fill="white"/>
<path d="M13.0093 11.7448C12.9707 11.6285 12.9095 11.521 12.8292 11.4286C12.7489 11.3361 12.6512 11.2606 12.5416 11.2064C12.432 11.1522 12.3128 11.1204 12.1908 11.1128C12.0689 11.1052 11.9466 11.1219 11.8312 11.1621L10.9719 11.4417L10.6027 13.5402L12.4119 12.9339C12.648 12.8554 12.8434 12.6861 12.9554 12.4632C13.0674 12.2404 13.0868 11.982 13.0093 11.7448Z" fill="white"/>
<path d="M17.2317 22.0993C16.87 22.1251 16.5066 22.0945 16.1543 22.0084C15.6472 21.8938 15.1683 21.6778 14.7461 21.3734C14.324 21.069 13.9673 20.6824 13.6974 20.2366C13.4214 19.7971 13.2372 19.3061 13.1559 18.7931C13.0745 18.2801 13.0977 17.7559 13.2241 17.2522C13.2815 17.0114 13.4319 16.8034 13.6421 16.6739C13.8524 16.5444 14.1052 16.504 14.3452 16.5617C14.5851 16.6193 14.7923 16.7702 14.9214 16.9812C15.0504 17.1922 15.0906 17.446 15.0332 17.6867C14.971 17.9535 14.9617 18.2299 15.0059 18.5002C15.0502 18.7706 15.1471 19.0295 15.2911 19.2623C15.4351 19.495 15.6234 19.697 15.8452 19.8567C16.0671 20.0163 16.3181 20.1306 16.5839 20.1928C16.8499 20.2558 17.1257 20.2655 17.3955 20.2213C17.6653 20.1772 17.9237 20.08 18.156 19.9355C18.3883 19.7909 18.5899 19.6018 18.7492 19.3789C18.9085 19.156 19.0225 18.9038 19.0845 18.6366L19.8162 15.504C19.8438 15.3841 19.8947 15.271 19.9661 15.1709C20.0374 15.0709 20.1278 14.9861 20.2319 14.9212C20.3361 14.8564 20.452 14.8129 20.573 14.7931C20.6939 14.7734 20.8176 14.7779 20.9369 14.8063C21.0561 14.8347 21.1686 14.8865 21.2678 14.9587C21.367 15.0309 21.4511 15.1221 21.515 15.227C21.579 15.3319 21.6217 15.4485 21.6406 15.57C21.6596 15.6916 21.6544 15.8156 21.6253 15.9351L20.8936 19.0543C20.7781 19.5622 20.5624 20.0418 20.2592 20.4647C19.9559 20.8877 19.5713 21.2453 19.1281 21.5166C18.5608 21.8808 17.905 22.0823 17.2317 22.0993Z" fill="white"/>
<path d="M23.8236 20.3511C23.1216 20.377 22.4251 20.2165 21.8046 19.8859C21.184 19.5553 20.6613 19.0663 20.2893 18.4682C20.0136 18.0292 19.8296 17.5387 19.7482 17.0263C19.6669 16.514 19.69 15.9903 19.816 15.4871C19.8436 15.3673 19.8946 15.2541 19.9659 15.1541C20.0373 15.0541 20.1276 14.9692 20.2318 14.9044C20.3359 14.8396 20.4518 14.796 20.5728 14.7763C20.6938 14.7566 20.8175 14.7611 20.9367 14.7895C21.0559 14.8179 21.1684 14.8697 21.2676 14.9419C21.3669 15.0141 21.4509 15.1053 21.5149 15.2102C21.5789 15.3151 21.6215 15.4317 21.6405 15.5532C21.6594 15.6747 21.6542 15.7988 21.6252 15.9183C21.5624 16.1851 21.5528 16.4616 21.5969 16.7321C21.6409 17.0026 21.7377 17.2617 21.8818 17.4946C22.0259 17.7274 22.2144 17.9294 22.4364 18.089C22.6585 18.2486 22.9098 18.3625 23.1759 18.4244C23.7096 18.5478 24.2702 18.4564 24.7376 18.17C25.2051 17.8835 25.5421 17.4246 25.6764 16.8918L26.4081 13.7558C26.4655 13.515 26.6159 13.307 26.8262 13.1775C27.0364 13.048 27.2893 13.0076 27.5292 13.0653C27.7691 13.1229 27.9764 13.2738 28.1054 13.4848C28.2344 13.6958 28.2747 13.9495 28.2173 14.1903L27.4856 17.3229C27.2858 18.1584 26.8204 18.9058 26.1597 19.4522C25.499 19.9985 24.679 20.3141 23.8236 20.3511Z" fill="white"/>
</g>
<defs>
<clipPath id="clip0_230_7108">
<rect width="31.8864" height="32" fill="white"/>
</clipPath>
</defs>
</svg>
