<?xml version="1.0" encoding="UTF-8"?>
<svg width="749px" height="200px" viewBox="0 0 749 200" version="1.1" xmlns="http://www.w3.org/2000/svg" xmlns:xlink="http://www.w3.org/1999/xlink">
    <!-- Generator: Sketch 51.2 (57519) - http://www.bohemiancoding.com/sketch -->
    <title>uizard_logo_yellow</title>
    <desc>Created with Sketch.</desc>
    <defs></defs>
    <g id="Logo" stroke="none" stroke-width="1" fill="none" fill-rule="evenodd">
        <g id="uizard_logo_yellow_light" transform="translate(-425.000000, -500.000000)">
            <g id="uizard_logo_yellow" transform="translate(425.500000, 500.000000)">
                <path d="M606.5302,64.0576 C607.7882,63.7536 609.0002,64.7076 609.0002,66.0016 L609.0002,155.9996 C609.0002,157.1056 608.1042,157.9996 607.0002,157.9996 L586.0002,157.9996 C584.8962,157.9996 584.0002,157.1056 584.0002,155.9996 L584.0002,71.0696 C584.0002,70.1456 584.6322,69.3436 585.5302,69.1256 L606.5302,64.0576 Z M745.5368,12.0538 C746.7948,11.7558 748.0008,12.7098 748.0008,14.0018 L748.0008,155.9998 C748.0008,157.1038 747.1048,157.9998 746.0008,157.9998 L732.4188,157.9998 C731.8348,157.9998 731.2808,157.7458 730.9008,157.3038 L726.1488,151.7678 C718.3728,156.9638 709.0348,159.9998 699.0008,159.9998 C670.1708,159.9998 647.0788,134.9758 650.3008,105.5098 C652.7168,83.4278 670.1848,65.4598 692.1948,62.4638 C703.4428,60.9338 714.0808,63.2698 723.0008,68.3038 L723.0008,18.9898 C723.0008,18.0638 723.6348,17.2578 724.5368,17.0458 L745.5368,12.0538 Z M722.8008,114.1318 C724.7948,98.4558 711.5528,85.2098 695.8768,87.1998 C685.1888,88.5558 676.5588,97.1838 675.1988,107.8698 C673.2048,123.5458 686.4468,136.7918 702.1248,134.8018 C712.8108,133.4458 721.4408,124.8178 722.8008,114.1318 Z M633,62 C641.008,62 647.5,68.492 647.5,76.5 C647.5,84.508 641.008,91 633,91 C624.992,91 618.5,84.508 618.5,76.5 C618.5,68.492 624.992,62 633,62 Z M368,64 C369.104,64 370,64.896 370,66 L370,156 C370,157.106 369.104,158 368,158 L347,158 C345.896,158 345,157.106 345,156 L345,66 C345,64.896 345.896,64 347,64 L368,64 Z M357.5,12 C365.508,12 372,18.492 372,26.5 C372,34.508 365.508,41 357.5,41 C349.492,41 343,34.508 343,26.5 C343,18.492 349.492,12 357.5,12 Z M465.5,64 C466.604,64 467.5,64.896 467.5,66 L467.5,85.126 C467.5,85.682 467.266,86.216 466.856,86.594 L415.5,134 L459.938,134 C460.856,134 461.656,134.626 461.878,135.516 L466.878,155.516 C467.194,156.778 466.24,158 464.938,158 L456.06,158 L383.5,158 C382.396,158 381.5,157.106 381.5,156 L381.5,136.876 C381.5,136.318 381.734,135.786 382.144,135.406 L431.5,88 L389.062,88 C388.144,88 387.344,87.376 387.122,86.486 L382.122,66.486 C381.806,65.224 382.76,64 384.062,64 L396.06,64 L465.5,64 Z M569.53,64.058 C570.79,63.754 572,64.708 572,66.002 L572,156 C572,157.106 571.104,158 570,158 L556.428,158 C555.84,158 555.28,157.742 554.9,157.292 L550.204,151.732 C542.416,156.95 533.058,160 523,160 C495.98,160 474,138.018 474,111 C474,83.982 495.98,62 523,62 C532.32,62 541.042,64.618 548.466,69.154 C548.49,69.148 548.508,69.132 548.53,69.126 L569.53,64.058 Z M523,135 C536.234,135 547,124.234 547,111 C547,97.766 536.234,87 523,87 C509.766,87 499,97.766 499,111 C499,124.234 509.766,135 523,135 Z M331,64 C332.104,64 333,64.896 333,66 L333,109 C333,137.122 309.896,160 281.5,160 C253.104,160 230,137.122 230,109 L230,66 C230,64.896 230.896,64 232,64 L253,64 C254.104,64 255,64.896 255,66 L255,109 C255,123.336 266.888,135 281.5,135 C296.112,135 308,123.336 308,109 L308,66 C308,64.896 308.896,64 310,64 L331,64 Z" id="uizard_logo_black" fill="#030303"></path>
                <path d="M120,200 L80,200 C35.818,200 0,164.182 0,120 L0,80 C0,35.818 35.818,0 80,0 L120,0 C164.182,0 200,35.818 200,80 L200,120 C200,164.182 164.182,200 120,200" id="shape" fill="#FFC125"></path>
                <path d="M134.728,68.274 C135.566,68.088 136.394,68 137.2,68 C144.71,68 150.428,75.664 146.962,83.596 C146,85.802 144.204,87.598 141.996,88.562 C133.212,92.4 124.758,84.976 126.676,76.328 C127.556,72.358 130.76,69.154 134.728,68.274 Z M54,69.598 L70,69.598 C71.104,69.598 72,70.496 72,71.598 L72,101.04 C72,115.906 84.38,128 99.6,128 C114.184,128 126.164,116.892 127.136,102.882 C127.21,101.832 128.128,101.04 129.18,101.04 L145.146,101.04 C146.272,101.04 147.204,101.97 147.156,103.094 C146.062,128.038 125.148,148 99.6,148 C73.354,148 52,126.932 52,101.04 L52,71.598 C52,70.496 52.894,69.598 54,69.598 Z" id="uizard_symbol" fill="#FFFFFF"></path>
            </g>
        </g>
    </g>
</svg>