<?xml version="1.0" encoding="utf-8"?>
<!-- Generator: Adobe Illustrator 22.1.0, SVG Export Plug-In . SVG Version: 6.00 Build 0)  -->
<svg version="1.1" id="Layer_1" xmlns="http://www.w3.org/2000/svg" xmlns:xlink="http://www.w3.org/1999/xlink" x="0px" y="0px"
	 viewBox="0 0 2168 472" style="enable-background:new 0 0 2168 472;" xml:space="preserve">
<style type="text/css">
	.st0{fill-rule:evenodd;clip-rule:evenodd;fill:#142E44;}
</style>
<g>
	<defs>
		<polygon id="SVGID_1_" points="80.7,37 15,189.8 157.2,434.3 312.8,434.3 80.7,37 		"/>
	</defs>
	<use xlink:href="#SVGID_1_"  style="overflow:visible;fill-rule:evenodd;clip-rule:evenodd;fill:#728FBE;"/>
	<clipPath id="SVGID_2_">
		<use xlink:href="#SVGID_1_"  style="overflow:visible;"/>
	</clipPath>
</g>
<g>
	<defs>
		<polygon id="SVGID_3_" points="389.3,37 157.2,434.3 312.8,434.3 455,189.8 389.3,37 		"/>
	</defs>
	<use xlink:href="#SVGID_3_"  style="overflow:visible;fill-rule:evenodd;clip-rule:evenodd;fill:#325491;"/>
	<clipPath id="SVGID_4_">
		<use xlink:href="#SVGID_3_"  style="overflow:visible;"/>
	</clipPath>
</g>
<g>
	<defs>
		<polygon id="SVGID_5_" points="268.5,37 328.8,140.5 389.3,37 268.5,37 		"/>
	</defs>
	<use xlink:href="#SVGID_5_"  style="overflow:visible;fill-rule:evenodd;clip-rule:evenodd;fill:#6D8FBE;"/>
	<clipPath id="SVGID_6_">
		<use xlink:href="#SVGID_5_"  style="overflow:visible;"/>
	</clipPath>
</g>
<path class="st0" d="M1239.5,130.8h170.1v22.8h-73.2v186.9h-23.8V153.6h-73.2V130.8z M1179,340.5h23.8V130.8H1179V340.5z
	 M2034.9,153.6v-22.8h-154.3v209.7h154.3v-22.8h-130.5V247h116.6v-23.1h-116.6v-70.3H2034.9z M1599.6,159.6
	c19.6,20.3,29.5,45.6,29.5,76c0,30.4-9.8,55.8-29.5,76c-20.1,20.9-45.7,31.4-77,31.4s-56.9-10.5-77-31.4
	c-19.6-20.3-29.5-45.6-29.5-76c0-30.4,9.8-55.8,29.5-76c20.1-20.9,45.7-31.4,77-31.4S1579.6,138.7,1599.6,159.6z M1605.3,235.6
	c0-24.3-7.4-44.2-22.2-59.9c-15.4-16.3-35.6-24.4-60.5-24.4c-24.9,0-45.1,8.1-60.5,24.4c-14.8,15.6-22.2,35.6-22.2,59.9
	s7.4,44.2,22.2,59.9c15.4,16.3,35.6,24.4,60.5,24.4c24.9,0,45.1-8.1,60.5-24.4C1597.9,279.9,1605.3,259.9,1605.3,235.6z
	 M1820.9,307.2l-129.6-176.5h-27.6v209.7h23.8V163.4l129.6,177.1h27.6V130.8h-23.8V307.2z M1085.5,253.5l61.5,86.9h-27.6l-59.9-84.6
	h-55.2v84.6H981V130.7h81.5c21.9,0,39.7,5.7,52.8,16.9c13.1,11.2,19.7,26.5,19.7,45.7c0,15.1-4.2,27.9-12.6,38.2
	c-8.4,10.3-20.1,17.5-34.7,21.4L1085.5,253.5z M1062.2,234.3c32,0,48.3-13.8,48.3-41s-16.2-41-48.3-41h-58v81.9H1062.2z
	 M792.2,340.5h154.3v-22.8H816V247h116.6v-23.1H816v-70.3h130.5v-22.8H792.2V340.5z M658.4,313.6L581,130.8h-26l89.8,209.7H672
	l89.8-209.7h-26L658.4,313.6z M2105.9,333.5c0,14.1-11.4,25.3-25.8,25.3c-14.4,0-25.9-11.2-25.9-25.3c0-14.1,11.5-25.2,26.1-25.2
	C2094.5,308.4,2105.9,319.4,2105.9,333.5z M2060.6,333.5c0,11.2,8.4,20.1,19.6,20.1c10.9,0.2,19.2-8.9,19.2-19.9
	c0-11.2-8.3-20.2-19.5-20.2C2069.1,313.4,2060.6,322.5,2060.6,333.5z M2076.1,346.6h-5.8v-25.2c2.3-0.3,5.5-0.8,9.7-0.8
	c4.8,0,6.9,0.8,8.6,2c1.5,1.1,2.6,2.9,2.6,5.4c0,3.1-2.3,5.1-5.2,6v0.3c2.5,0.8,3.7,2.8,4.4,6.1c0.8,3.8,1.4,5.2,1.8,6.1h-6.1
	c-0.8-0.9-1.2-3.1-2-6.1c-0.5-2.6-2-3.8-5.2-3.8h-2.8V346.6z M2076.3,332.4h2.8c3.2,0,5.8-1.1,5.8-3.7c0-2.3-1.7-3.8-5.4-3.8
	c-1.5,0-2.6,0.2-3.2,0.3V332.4z"/>
</svg>
