<?xml version="1.0" encoding="utf-8"?>
<!-- Generator: Adobe Illustrator 23.0.3, SVG Export Plug-In . SVG Version: 6.00 Build 0)  -->
<svg version="1.1" id="Layer_1" xmlns="http://www.w3.org/2000/svg" xmlns:xlink="http://www.w3.org/1999/xlink" x="0px" y="0px"
	 viewBox="0 0 1341 224.3" style="enable-background:new 0 0 1341 224.3;" xml:space="preserve">
<title>vidinetheightfix</title>
<g id="Layer_2">
	<g id="Layer_1-2">
		<g id="Layer_2-2">
			<g id="Layer_1-2-2">
				<path d="M0,105.1V59.5h45.5V105L0,105.1z M0,164.6v-45.5h45.5v45.5H0z M0,224.1v-45.5h45.5v45.5H0z M59.5,178.6H105
					c0.2,12.1-4.6,23.8-13.4,32.2c-8.4,8.7-20,13.5-32.1,13.3V178.6z M119.1,105.1V59.5h45.5V105L119.1,105.1z M119.1,164.6v-45.5
					h45.5C164.6,144.2,144.2,164.6,119.1,164.6z"/>
				<path d="M239.8,59.3h45.7V105c-12.2,0.2-23.9-4.7-32.3-13.4C244.4,83.2,239.6,71.5,239.8,59.3z M239.8,164.8v-45.7h45.7v45.7
					H239.8z M239.8,224.3v-45.7h45.7v45.7H239.8z"/>
				<path d="M406,59.5V105h-45.5C360.5,79.9,380.9,59.5,406,59.5z M360.5,164.4v-45.5H406v45.5H360.5z M406,178.2v45.5
					c-25,0.1-45.4-20.2-45.5-45.2l0,0l0,0v-0.3H406z M419.8,105.1V59.5h45.5V105L419.8,105.1z M419.8,223.7v-45.5h45.5v45.5H419.8z
					 M479.1,45.7V0.2h45.5v45.5H479.1z M479.1,105.1V59.5h45.5c0.2,12.1-4.6,23.8-13.4,32.2C502.8,100.4,491.2,105.2,479.1,105.1
					L479.1,105.1z M524.7,118.9v45.5h-45.5c0-25.1,20.2-45.5,45.3-45.5l0,0L524.7,118.9L524.7,118.9z M479.1,223.7v-45.5h45.5
					c0,25.1-20.2,45.5-45.3,45.5l0,0H479.1L479.1,223.7z"/>
				<path d="M599.9,59.3h45.7V105c-12.2,0.2-23.9-4.7-32.3-13.4C604.5,83.2,599.7,71.5,599.9,59.3z M599.9,164.8v-45.7h45.7v45.7
					H599.9z M599.9,224.3v-45.7h45.7v45.7H599.9z"/>
				<path d="M720.8,59.7h45.5v45.5C741.2,105.2,720.8,84.8,720.8,59.7z M720.8,164.8v-45.7h45.5v45.7H720.8z M720.8,224.3v-45.7
					h45.5v45.7H720.8z M780.3,105.3V59.7h45.5v45.5L780.3,105.3z M885.4,105.3h-45.5V59.7c25-0.1,45.4,20.2,45.5,45.2l0,0l0,0V105.3
					L885.4,105.3z M839.8,164.8v-45.7h45.5v45.7H839.8z M839.8,224.3v-45.7h45.5v45.7H839.8z"/>
				<path d="M1006.3,105.3h-45.7c0-25.2,20.4-45.7,45.7-45.7l0,0V105.3z M960.6,164.8v-45.7h45.7v45.7H960.6z M960.6,178.6h45.7
					v45.7c-25.2,0-45.7-20.3-45.7-45.5l0,0C960.6,178.7,960.6,178.7,960.6,178.6z M1020.1,105.3V59.5h45.7v45.7L1020.1,105.3z
					 M1020.1,119.1h45.7c0.1,12.1-4.8,23.8-13.5,32.2c-8.4,8.7-20.1,13.6-32.2,13.5L1020.1,119.1L1020.1,119.1z M1020.1,224.3v-45.7
					h45.7v45.7H1020.1z M1079.6,59.5h45.7c0.2,12.2-4.6,23.9-13.4,32.3c-8.5,8.7-20.2,13.6-32.3,13.4L1079.6,59.5z M1125.4,224.3
					h-45.7v-45.7C1104.9,178.6,1125.4,199.1,1125.4,224.3z"/>
				<path d="M1222,105.3h-45.7c-0.2-12.1,4.6-23.8,13.3-32.3c8.5-8.8,20.2-13.6,32.4-13.4L1222,105.3L1222,105.3z M1280.1,45.7
					h-45.7c-0.2-12.2,4.7-23.9,13.4-32.3c8.5-8.7,20.2-13.6,32.3-13.4L1280.1,45.7L1280.1,45.7z M1234.4,105.3V59.5h45.7v45.7
					L1234.4,105.3z M1234.4,164.8v-45.7h45.7v45.7H1234.4z M1295.4,59.5h45.6c0.2,12.1-4.6,23.8-13.3,32.3
					c-8.5,8.8-20.2,13.6-32.4,13.4L1295.4,59.5z M1234.4,223.7V178h45.7v45.7H1234.4z"/>
			</g>
		</g>
	</g>
</g>
</svg>
