<?xml version="1.0" encoding="utf-8"?>
<!-- Generator: Adobe Illustrator 23.0.3, SVG Export Plug-In . SVG Version: 6.00 Build 0)  -->
<svg version="1.1" id="Ebene_1" xmlns="http://www.w3.org/2000/svg" xmlns:xlink="http://www.w3.org/1999/xlink" x="0px" y="0px"
	 viewBox="0 0 1638 271" style="enable-background:new 0 0 1638 271;" xml:space="preserve">
<g>
	<rect x="455" width="44" height="44"/>
	<rect y="57" width="44" height="44"/>
	<rect x="114" y="57" width="44" height="44"/>
	<path d="M228,57c0,24.3,19.7,44,44,44V57H228z M385.2,56.5c-24.1,0-43.7,19.5-43.7,43.7h43.7V56.5z"/>
	<rect x="399" y="57" width="44" height="44"/>
	<path d="M455,101c24.3,0,44-19.7,44-44h-44V101z M569,57c0,24.3,19.7,44,44,44V57H569z M726.9,56.5c-24.1,0-43.7,19.5-43.7,43.7
		h43.7V56.5z"/>
	<rect x="740" y="57" width="44" height="44"/>
	<path d="M797,101c24.3,0,44-19.7,44-44h-44V101z M955,57c-24.3,0-44,19.7-44,44h44V57z"/>
	<rect x="968" y="57" width="44" height="44"/>
	<path d="M1069,101c0-24.3-19.7-44-44-44v44H1069z M1139,57c0,24.3,19.7,44,44,44V57H1139z M1297,57c-24.3,0-44,19.7-44,44h44V57z"
		/>
	<rect x="1310" y="57" width="44" height="44"/>
	<path d="M1411,101c0-24.3-19.7-44-44-44v44H1411z M1524,57c-24.3,0-44,19.7-44,44h44V57z"/>
	<rect x="1537" y="57" width="44" height="44"/>
	<path d="M1594,101c24.3,0,44-19.7,44-44h-44V101z"/>
	<rect y="113" width="44" height="44"/>
	<path d="M114,157c24.3,0,44-19.7,44-44h-44V157z"/>
	<rect x="228" y="113" width="44" height="44"/>
	<rect x="342" y="113" width="44" height="44"/>
	<path d="M499,113c-24.3,0-44,19.7-44,44h44V113z"/>
	<rect x="569" y="113" width="44" height="44"/>
	<path d="M683.2,113.5c0,24.1,19.5,43.7,43.7,43.7v-43.7H683.2z"/>
	<rect x="740" y="113" width="44" height="44"/>
	<path d="M841,157c0-24.3-19.7-44-44-44v44H841z M911,157c24.3,0,44-19.7,44-44h-44V157z"/>
	<rect x="1025" y="113" width="44" height="44"/>
	<rect x="1139" y="113" width="44" height="44"/>
	<rect x="1253" y="113" width="44" height="44"/>
	<rect x="1367" y="113" width="44" height="44"/>
	<rect x="1480" y="113" width="44" height="44"/>
	<path d="M1537,157c24.3,0,44-19.7,44-44h-44V157z"/>
	<rect y="170" width="44" height="44"/>
	<path d="M57,214c24.3,0,44-19.7,44-44H57V214z"/>
	<rect x="228" y="170" width="44" height="44"/>
	<path d="M341.6,170.4c0,24.1,19.5,43.7,43.7,43.7v-43.7H341.6z"/>
	<rect x="399" y="170" width="44" height="44"/>
	<path d="M455,214c24.3,0,44-19.7,44-44h-44V214z"/>
	<rect x="569" y="170" width="44" height="44"/>
	<path d="M726.9,170.4c-24.1,0-43.7,19.5-43.7,43.7h43.7V170.4z"/>
	<rect x="740" y="170" width="44" height="44"/>
	<path d="M797,214c24.3,0,44-19.7,44-44h-44V214z M954.7,170.4c-24.1,0-43.7,19.5-43.7,43.7h43.7V170.4z"/>
	<rect x="968" y="170" width="44" height="44"/>
	<path d="M1025,214c24.3,0,44-19.7,44-44h-44V214z"/>
	<rect x="1139" y="170" width="44" height="44"/>
	<rect x="1253" y="170" width="44" height="44"/>
	<rect x="1367" y="170" width="44" height="44"/>
	<path d="M1480.5,170.4c0,24.1,19.5,43.7,43.7,43.7v-43.7H1480.5z"/>
	<rect x="1537" y="170" width="44" height="44"/>
	<path d="M1638,214.1c0-24.1-19.5-43.7-43.7-43.7v43.7H1638z"/>
	<rect x="911" y="227" width="44" height="44"/>
</g>
</svg>
