<svg width="180" height="37" viewBox="0 0 180 37" fill="none" xmlns="http://www.w3.org/2000/svg">
<path d="M39.912 0L0 9.0787L20.213 37L39.912 0Z" fill="#135BDB"/>
<path d="M15.2461 23.6389V9.25L26.8942 16.4444L15.2461 23.6389Z" fill="white"/>
<path d="M44.4126 12.3899C44.5417 12.7076 44.6906 13.0849 44.8594 13.5217C45.0381 13.9486 45.2267 14.4202 45.4253 14.9365C45.6338 15.4429 45.8522 15.979 46.0806 16.5449C46.3089 17.1108 46.5422 17.6767 46.7805 18.2427C47.0089 18.8185 47.2372 19.3795 47.4656 19.9255C47.6939 20.4815 47.9123 21.0077 48.1208 21.5041C48.3194 22.0006 48.5031 22.4523 48.6719 22.8594C48.8406 23.2664 48.9846 23.609 49.1037 23.8869C49.213 23.609 49.352 23.2664 49.5207 22.8594C49.6895 22.4523 49.8732 22.0006 50.0718 21.5041C50.2803 21.0077 50.4937 20.4815 50.7121 19.9255C50.9405 19.3795 51.1688 18.8185 51.3972 18.2427C51.6256 17.6668 51.8589 17.0959 52.0971 16.53C52.3255 15.974 52.539 15.4379 52.7375 14.9216C52.946 14.4153 53.1347 13.9437 53.3034 13.5068C53.4822 13.07 53.636 12.6927 53.7651 12.375C53.8048 12.2658 53.8694 12.1764 53.9587 12.1069C54.0481 12.0275 54.1622 11.9878 54.3012 11.9878H55.1501C55.448 11.9878 55.5969 12.102 55.5969 12.3303C55.5969 12.3601 55.587 12.4048 55.5671 12.4644C55.5572 12.5239 55.5473 12.5587 55.5373 12.5686L49.8931 26.1953C49.8831 26.2251 49.8682 26.2648 49.8484 26.3144C49.8285 26.3641 49.7987 26.4087 49.759 26.4485C49.7292 26.4882 49.6846 26.5229 49.625 26.5527C49.5654 26.5726 49.486 26.5825 49.3867 26.5825H48.8208C48.6818 26.5825 48.5726 26.5428 48.4932 26.4634C48.4038 26.374 48.3442 26.2896 48.3144 26.2102L42.7297 12.8069C42.7099 12.7672 42.6851 12.7026 42.6553 12.6133C42.6255 12.5239 42.6056 12.4246 42.5957 12.3154C42.5957 12.097 42.7347 11.9878 43.0127 11.9878H43.8765C44.0155 11.9878 44.1296 12.0275 44.219 12.1069C44.3083 12.1764 44.3729 12.2708 44.4126 12.3899Z" fill="#135BDB"/>
<path d="M61.8188 26.1506C61.8188 26.2995 61.7841 26.4087 61.7146 26.4782C61.6352 26.5577 61.526 26.5924 61.387 26.5825H60.5679C60.27 26.5825 60.1211 26.4385 60.1211 26.1506V12.4197C60.1211 12.2906 60.1608 12.1864 60.2402 12.1069C60.3097 12.0275 60.4189 11.9878 60.5679 11.9878H61.387C61.516 11.9878 61.6203 12.0275 61.6997 12.1069C61.7791 12.1864 61.8188 12.2906 61.8188 12.4197V26.1506Z" fill="#135BDB"/>
<path fill-rule="evenodd" clip-rule="evenodd" d="M74.418 11.7949C75.103 11.7949 75.7682 11.8843 76.4136 12.063C77.049 12.2417 77.6447 12.4949 78.2007 12.8225C78.7567 13.1501 79.263 13.5423 79.7197 13.999C80.1764 14.4557 80.5686 14.9621 80.8962 15.5181C81.2139 16.074 81.4621 16.6747 81.6408 17.3201C81.8295 17.9654 81.9238 18.6356 81.9238 19.3305C81.9238 20.0156 81.8344 20.6758 81.6557 21.3113C81.477 21.9566 81.2239 22.5573 80.8962 23.1133C80.5686 23.6593 80.1764 24.1607 79.7197 24.6174C79.263 25.0741 78.7567 25.4663 78.2007 25.7939C77.6447 26.1116 77.044 26.3598 76.3987 26.5385C75.7632 26.7173 75.098 26.8066 74.4031 26.8066C73.7081 26.8066 73.0429 26.7173 72.4075 26.5385C71.772 26.3598 71.1763 26.1067 70.6204 25.779C70.0644 25.4514 69.558 25.0592 69.1013 24.6025C68.6446 24.1557 68.2524 23.6544 67.9248 23.0984C67.5972 22.5424 67.349 21.9467 67.1802 21.3113C67.0015 20.6659 66.9121 19.9957 66.9121 19.3008C66.9121 18.6157 67.0015 17.9555 67.1802 17.3201C67.349 16.6747 67.5972 16.074 67.9248 15.5181C68.2524 14.9621 68.6446 14.4557 69.1013 13.999C69.558 13.5423 70.0644 13.1501 70.6204 12.8225C71.1763 12.4949 71.777 12.2417 72.4224 12.063C73.0578 11.8843 73.723 11.7949 74.418 11.7949ZM68.6099 19.3008C68.6099 20.105 68.7588 20.8595 69.0566 21.5644C69.3644 22.2693 69.7814 22.8849 70.3076 23.4111C70.8338 23.9373 71.4494 24.3493 72.1543 24.6472C72.8592 24.955 73.6138 25.1089 74.418 25.1089C75.2122 25.1089 75.9618 24.955 76.6667 24.6472C77.3716 24.3493 77.9822 23.9373 78.4985 23.4111C79.0247 22.8849 79.4367 22.2693 79.7346 21.5644C80.0424 20.8595 80.1963 20.105 80.1963 19.3008C80.1963 18.7646 80.1268 18.2533 79.9878 17.7668C79.8488 17.2704 79.6552 16.8087 79.407 16.3818C79.1587 15.9549 78.8559 15.5677 78.4985 15.2202C78.151 14.8628 77.7638 14.56 77.3369 14.3118C76.91 14.0536 76.4483 13.86 75.9519 13.731C75.4654 13.592 74.9541 13.5225 74.418 13.5225C73.6138 13.5225 72.8592 13.6714 72.1543 13.9692C71.4494 14.277 70.8338 14.694 70.3076 15.2202C69.7814 15.7365 69.3644 16.3471 69.0566 17.052C68.7588 17.7569 68.6099 18.5065 68.6099 19.3008Z" fill="#135BDB"/>
<path d="M94.8645 15.0266C94.7056 14.8876 94.5071 14.7238 94.2688 14.5351C94.0305 14.3564 93.7624 14.1827 93.4646 14.0139C93.1667 13.8551 92.8341 13.7161 92.4668 13.5969C92.1094 13.4877 91.7222 13.4331 91.3052 13.4331C90.7492 13.4331 90.2726 13.5026 89.8755 13.6416C89.4783 13.7707 89.1507 13.9494 88.8926 14.1777C88.6344 14.4061 88.4408 14.6593 88.3118 14.9372C88.1926 15.2252 88.1331 15.5081 88.1331 15.7861C88.1331 16.1237 88.2373 16.4166 88.4458 16.6648C88.6543 16.9031 88.9224 17.1116 89.25 17.2903C89.5776 17.4789 89.9499 17.6378 90.3669 17.7668C90.7839 17.8959 91.2059 18.02 91.6328 18.1391C92.02 18.2384 92.4171 18.3476 92.8242 18.4668C93.2412 18.5859 93.6433 18.72 94.0305 18.8689C94.4177 19.0178 94.7801 19.1916 95.1177 19.3901C95.4552 19.5788 95.7531 19.8121 96.0112 20.0901C96.2694 20.3581 96.4729 20.6659 96.6218 21.0134C96.7608 21.3609 96.8303 21.763 96.8303 22.2197C96.8303 22.9246 96.6913 23.56 96.4133 24.126C96.1254 24.6919 95.7332 25.1684 95.2368 25.5556C94.7404 25.9528 94.1546 26.2556 93.4795 26.4641C92.8143 26.6825 92.0994 26.7917 91.335 26.7917C90.8187 26.7917 90.3173 26.7371 89.8308 26.6279C89.3344 26.5286 88.8628 26.3698 88.416 26.1513C87.9593 25.9428 87.5324 25.6847 87.1353 25.3769C86.7381 25.0691 86.3857 24.7117 86.0779 24.3047C85.9687 24.1657 85.9141 24.0465 85.9141 23.9472C85.9141 23.838 85.9736 23.7338 86.0928 23.6345L86.7183 23.1133C86.7679 23.0835 86.8175 23.0587 86.8672 23.0388C86.9268 23.0189 86.9814 23.009 87.031 23.009C87.0707 23.009 87.1154 23.0189 87.165 23.0388C87.2047 23.0686 87.2445 23.0984 87.2842 23.1281C87.3239 23.1679 87.3586 23.2026 87.3884 23.2324C87.4182 23.2721 87.443 23.2969 87.4629 23.3069C87.7508 23.6047 88.0735 23.8678 88.4309 24.0962C88.7883 24.3245 89.1457 24.5132 89.5032 24.6621C89.8606 24.8209 90.2031 24.9401 90.5308 25.0195C90.8584 25.0989 91.1414 25.1386 91.3796 25.1386C91.6576 25.1386 91.9406 25.1138 92.2285 25.0642C92.5264 25.0145 92.8143 24.9401 93.0923 24.8408C93.3703 24.7316 93.6334 24.6025 93.8816 24.4536C94.1298 24.2947 94.3482 24.116 94.5368 23.9175C94.7156 23.709 94.8595 23.4707 94.9687 23.2026C95.0779 22.9445 95.1326 22.6566 95.1326 22.3388C95.1326 21.9417 95.0233 21.6041 94.8049 21.3262C94.5865 21.0581 94.2936 20.8248 93.9263 20.6262C93.549 20.4376 93.1221 20.2737 92.6455 20.1347C92.1689 19.9958 91.6775 19.8617 91.1711 19.7326C90.357 19.5242 89.6471 19.2958 89.0415 19.0476C88.4359 18.8093 87.9345 18.5313 87.5373 18.2136C87.1303 17.9058 86.8275 17.5583 86.6289 17.1711C86.4303 16.7839 86.3311 16.3421 86.3311 15.8457C86.3311 15.25 86.4502 14.7039 86.6885 14.2075C86.9268 13.7111 87.2643 13.2792 87.7012 12.9119C88.138 12.5544 88.6692 12.2764 89.2947 12.0779C89.9202 11.8892 90.6151 11.7949 91.3796 11.7949C91.7768 11.7949 92.1789 11.8396 92.5859 11.9289C93.0029 12.0183 93.405 12.1474 93.7922 12.3162C94.1794 12.4849 94.5468 12.6785 94.8943 12.897C95.2517 13.1253 95.5694 13.3785 95.8474 13.6565C95.9268 13.7458 96.0112 13.8352 96.1006 13.9246C96.18 14.0238 96.2197 14.1182 96.2197 14.2075C96.2197 14.3068 96.1701 14.4061 96.0708 14.5054L95.4751 15.0862C95.3857 15.1755 95.2964 15.2202 95.207 15.2202C95.1077 15.2202 94.9936 15.1557 94.8645 15.0266Z" fill="#135BDB"/>
<path d="M111.026 11.9878C111.145 11.9878 111.249 12.0275 111.338 12.1069C111.428 12.1764 111.482 12.2807 111.502 12.4197V13.2388C111.502 13.3678 111.462 13.477 111.383 13.5664C111.294 13.6558 111.175 13.7004 111.026 13.7004H106.826V26.1506C106.826 26.2697 106.791 26.374 106.722 26.4634C106.642 26.5428 106.528 26.5825 106.379 26.5825H105.575C105.446 26.5825 105.342 26.5428 105.262 26.4634C105.173 26.3839 105.128 26.2797 105.128 26.1506V13.7004H100.914C100.785 13.7004 100.68 13.6657 100.601 13.5962C100.511 13.5168 100.467 13.3976 100.467 13.2388V12.4197C100.467 12.2906 100.511 12.1864 100.601 12.1069C100.68 12.0275 100.785 11.9878 100.914 11.9878H111.026Z" fill="#135BDB"/>
<path fill-rule="evenodd" clip-rule="evenodd" d="M116.016 12.4644C116.016 12.3154 116.055 12.2013 116.135 12.1218C116.214 12.0325 116.318 11.9878 116.448 11.9878H122.122C122.777 11.9878 123.382 12.1119 123.938 12.3601C124.494 12.5984 124.981 12.931 125.398 13.3579C125.815 13.7749 126.143 14.2663 126.381 14.8323C126.619 15.3982 126.738 15.9989 126.738 16.6343C126.738 17.1009 126.674 17.5477 126.545 17.9746C126.416 18.4015 126.232 18.7937 125.994 19.1511C125.765 19.5185 125.487 19.8461 125.16 20.134C124.832 20.412 124.465 20.6453 124.058 20.834L126.649 26.1506C126.679 26.23 126.694 26.2896 126.694 26.3293C126.694 26.4087 126.664 26.4733 126.604 26.5229C126.545 26.5626 126.455 26.5825 126.336 26.5825H125.353C125.224 26.5825 125.12 26.5527 125.041 26.4931C124.961 26.4236 124.897 26.3293 124.847 26.2102L122.464 21.2063C122.395 21.2261 122.32 21.2361 122.241 21.2361C122.161 21.2361 122.057 21.2361 121.928 21.2361H117.713V26.1506C117.713 26.4385 117.569 26.5825 117.281 26.5825H116.448C116.16 26.5825 116.016 26.4385 116.016 26.1506V12.4644ZM125.07 16.6343C125.07 16.2371 124.991 15.8599 124.832 15.5024C124.683 15.1549 124.48 14.8422 124.221 14.5642C123.953 14.2961 123.641 14.0827 123.283 13.9238C122.926 13.765 122.539 13.6855 122.122 13.6855H117.713V19.5681H122.151C122.568 19.5681 122.951 19.4887 123.298 19.3298C123.656 19.171 123.963 18.9575 124.221 18.6894C124.48 18.4214 124.683 18.1086 124.832 17.7512C124.991 17.3938 125.07 17.0215 125.07 16.6343Z" fill="#135BDB"/>
<path d="M141.836 11.9878C142.134 11.9878 142.283 12.1417 142.283 12.4495V13.2537C142.283 13.3728 142.243 13.477 142.164 13.5664C142.084 13.6558 141.97 13.7004 141.821 13.7004H133.645V18.0491H140.138C140.257 18.0491 140.362 18.0838 140.451 18.1533C140.53 18.2228 140.57 18.337 140.57 18.4958V19.3C140.57 19.4192 140.535 19.5284 140.466 19.6277C140.396 19.717 140.287 19.7617 140.138 19.7617H133.645V24.8847H141.91C142.198 24.8847 142.342 25.0386 142.342 25.3464V26.1506C142.342 26.4385 142.198 26.5825 141.91 26.5825H132.379C132.091 26.5825 131.947 26.4485 131.947 26.1804V12.4495C131.947 12.1417 132.091 11.9878 132.379 11.9878H141.836Z" fill="#135BDB"/>
<path fill-rule="evenodd" clip-rule="evenodd" d="M148.179 26.1953C148.08 26.4534 147.901 26.5825 147.643 26.5825H146.794C146.516 26.5825 146.377 26.4782 146.377 26.2698C146.377 26.2102 146.382 26.1506 146.392 26.091C146.402 26.0613 146.412 26.0364 146.422 26.0166C147.127 24.3188 147.752 22.8196 148.298 21.519C148.834 20.2184 149.301 19.0866 149.698 18.1235C150.105 17.1605 150.443 16.3513 150.711 15.696C150.989 15.0408 151.217 14.4997 151.396 14.0728C151.574 13.6458 151.713 13.3182 151.813 13.0898C151.912 12.8615 151.982 12.6927 152.021 12.5835C152.071 12.4743 152.101 12.3998 152.111 12.3601C152.14 12.2906 152.185 12.2112 152.245 12.1218C152.304 12.0325 152.423 11.9878 152.602 11.9878H153.183C153.352 11.9878 153.466 12.0325 153.525 12.1218C153.585 12.2112 153.63 12.2906 153.659 12.3601L159.333 26.0315C159.333 26.0414 159.343 26.0712 159.363 26.1208C159.383 26.1804 159.393 26.23 159.393 26.2698C159.393 26.379 159.353 26.4584 159.274 26.508C159.194 26.5577 159.09 26.5825 158.961 26.5825H158.112C157.983 26.5825 157.874 26.5527 157.785 26.4931C157.695 26.4236 157.626 26.3293 157.576 26.2102L156.444 23.3955H149.296L148.179 26.1953ZM149.996 21.7275H155.744L152.885 14.5344L149.996 21.7275Z" fill="#135BDB"/>
<path d="M171.367 25.957C171.198 25.957 171.064 25.8379 170.965 25.5996L166.452 14.9663L165.365 26.1506C165.365 26.4385 165.221 26.5825 164.933 26.5825H164.099C163.801 26.5825 163.652 26.4385 163.652 26.1506C163.891 23.8472 164.129 21.5587 164.367 19.2851C164.605 17.0215 164.844 14.733 165.082 12.4197C165.082 12.3005 165.127 12.2013 165.216 12.1218C165.305 12.0325 165.415 11.9878 165.544 11.9878H166.78C166.889 11.9878 166.978 12.0225 167.048 12.092C167.117 12.1615 167.172 12.2559 167.212 12.375L171.754 23.3359C172.518 21.4992 173.283 19.6724 174.047 17.8555C174.802 16.0485 175.556 14.2217 176.311 12.375C176.351 12.2559 176.405 12.1615 176.475 12.092C176.544 12.0225 176.634 11.9878 176.743 11.9878H178.009C178.138 11.9878 178.242 12.0325 178.322 12.1218C178.401 12.2112 178.441 12.3105 178.441 12.4197L179.87 26.1506C179.87 26.4385 179.726 26.5825 179.438 26.5825H178.604C178.317 26.5825 178.173 26.4385 178.173 26.1506L177.071 14.9663L172.558 25.5996C172.459 25.8379 172.32 25.957 172.141 25.957H171.367Z" fill="#135BDB"/>
</svg>
