<svg width="342" height="72" viewBox="0 0 342 72" fill="none" xmlns="http://www.w3.org/2000/svg">
<path fill-rule="evenodd" clip-rule="evenodd" d="M67.5 36C67.5 53.397 53.397 67.5 36 67.5C30.2645 67.5 24.887 65.9671 20.2548 63.2886C22.8649 64.0762 25.633 64.4995 28.5 64.4995C44.2401 64.4995 57 51.7396 57 35.9995C57 20.2594 44.2401 7.49955 28.5 7.49955C25.6342 7.49955 22.8673 7.92252 20.2581 8.70944C24.8895 6.03217 30.2658 4.5 36 4.5C53.397 4.5 67.5 18.603 67.5 36ZM9.43335 52.9325C8.73429 51.838 8.10101 50.6974 7.5391 49.5163C11.1709 53.9045 16.6589 56.7002 22.8 56.7002C33.7352 56.7002 42.6 47.8355 42.6 36.9002C42.6 25.965 33.7352 17.1002 22.8 17.1002C15.6931 17.1002 9.46066 20.8446 5.96792 26.4681C6.80346 23.8332 7.97619 21.3483 9.43543 19.0642C14.1064 13.8098 20.9166 10.4996 28.5 10.4996C42.5832 10.4996 54 21.9163 54 35.9995C54 50.0828 42.5832 61.4995 28.5 61.4995C20.9155 61.4995 14.1043 58.1883 9.43335 52.9325ZM0 36C0 16.1177 16.1177 0 36 0C55.8822 0 72 16.1177 72 36C72 55.8822 55.8822 72 36 72C16.1177 72 0 55.8822 0 36ZM203.083 67.1351C209.104 70.3784 215.505 72 222.286 72C229.321 72 234.835 70.2811 238.827 66.8432C242.884 63.3405 244.912 58.5081 244.912 52.3459C244.912 48 243.771 44.4 241.489 41.5459C239.271 38.627 235.817 36.1297 231.127 34.0541L220.765 29.2865C215.632 26.9514 212.114 24.8432 210.213 22.9622C208.311 21.0162 207.361 18.3243 207.361 14.8865C207.361 10.8 208.723 7.62162 211.449 5.35135C214.237 3.01622 217.945 1.84865 222.571 1.84865C228.719 1.84865 233.314 3.6973 236.356 7.39459C239.461 11.0919 241.268 16.7351 241.775 24.3243H242.44V4.18378C237.053 1.39459 231.222 0 224.948 0C218.42 0 213.192 1.58919 209.262 4.76757C205.333 7.94594 203.368 12.2919 203.368 17.8054C203.368 22.4108 204.572 26.1405 206.981 28.9946C209.389 31.7838 213.16 34.3135 218.293 36.5838L227.325 40.6703C231.761 42.6162 234.962 44.6919 236.926 46.8973C238.891 49.0378 239.873 51.8919 239.873 55.4595C239.873 60.1297 238.511 63.7622 235.785 66.3568C233.06 68.8865 229.289 70.1514 224.473 70.1514C218.072 70.1514 213.16 68.0757 209.737 63.9243C206.315 59.773 204.35 54.0649 203.843 46.8H203.083V67.1351ZM138.942 71.027L116.792 12.2595C115.397 8.56216 114.035 6.06486 112.704 4.76757C111.436 3.47027 109.535 2.78919 107 2.72432V1.94594H130.101V2.72432C127.312 2.85405 125.316 3.27567 124.112 3.98919C122.908 4.7027 122.306 5.83784 122.306 7.39459C122.306 8.56216 122.654 10.1189 123.351 12.0649L141.319 60.9081L158.05 14.4C159.001 11.8703 159.476 9.7946 159.476 8.17297C159.476 4.73514 156.878 2.91892 151.681 2.72432V1.94594H171.169V2.72432C168.444 2.85405 166.289 3.72973 164.705 5.35135C163.184 6.97297 161.631 9.92432 160.047 14.2054L139.417 71.027H138.942ZM195.94 2.72432C192.772 2.85405 190.712 3.4054 189.761 4.37838C188.874 5.35135 188.43 7.36216 188.43 10.4108V60.6162C188.43 64.1189 188.874 66.4216 189.761 67.5243C190.712 68.5622 192.772 69.146 195.94 69.2757V70.0541H174.456V69.2757C177.624 69.146 179.652 68.5622 180.54 67.5243C181.49 66.4216 181.966 64.1189 181.966 60.6162V10.4108C181.966 7.62162 181.459 5.67568 180.445 4.57297C179.494 3.47027 177.498 2.85405 174.456 2.72432V1.94594H195.94V2.72432ZM272.16 2.72432C268.991 2.85405 266.931 3.4054 265.981 4.37838C265.093 5.35135 264.65 7.36216 264.65 10.4108V60.6162C264.65 64.1189 265.093 66.4216 265.981 67.5243C266.931 68.5622 268.991 69.146 272.16 69.2757V70.0541H250.675V69.2757C253.844 69.146 255.872 68.5622 256.759 67.5243C257.71 66.4216 258.185 64.1189 258.185 60.6162V10.4108C258.185 7.62162 257.678 5.67568 256.664 4.57297C255.713 3.47027 253.717 2.85405 250.675 2.72432V1.94594H272.16V2.72432ZM309.841 72C319.03 72 326.636 68.5946 332.656 61.7838C338.741 54.973 341.783 46.3784 341.783 36C341.783 25.6216 338.741 17.027 332.656 10.2162C326.636 3.40541 319.03 0 309.841 0C300.651 0 293.014 3.40541 286.93 10.2162C280.909 17.027 277.899 25.6216 277.899 36C277.899 46.3784 280.909 54.973 286.93 61.7838C293.014 68.5946 300.651 72 309.841 72ZM309.841 70.1514C301.919 70.1514 295.834 67.2324 291.588 61.3946C287.405 55.4919 285.314 47.027 285.314 36C285.314 24.7135 287.374 16.2162 291.493 10.5081C295.612 4.73514 301.728 1.84865 309.841 1.84865C317.953 1.84865 324.069 4.73514 328.188 10.5081C332.308 16.2162 334.367 24.7135 334.367 36C334.367 47.027 332.244 55.4919 327.998 61.3946C323.815 67.2324 317.763 70.1514 309.841 70.1514Z" fill="#DADCE8"/>
</svg>
