<?xml version="1.0" encoding="utf-8"?>
<!-- Generator: Adobe Illustrator 27.5.0, SVG Export Plug-In . SVG Version: 6.00 Build 0)  -->
<svg version="1.1" id="Ebene_1" xmlns="http://www.w3.org/2000/svg" xmlns:xlink="http://www.w3.org/1999/xlink" x="0px" y="0px"
	 viewBox="0 0 240 28" style="enable-background:new 0 0 240 28;" xml:space="preserve">
<path id="Shape" d="M24.2,0.4v13c0,0.4-0.2,0.7-0.6,0.9c-0.3,0.2-0.8,0.1-1-0.2L8.1,0.4H0l29.1,27.5c0.1,0.1,0.3,0.2,0.5,0.1
	c0.2-0.1,0.3-0.2,0.3-0.4V0.4H24.2z"/>
<path id="Shape_00000003785329712723258890000012872299281242605476_" d="M85.6,19.4L59.1,0.5c-0.1-0.1-0.2-0.1-0.3-0.1
	c-0.2,0-0.4,0.2-0.4,0.4v14.7l0,0c0,0.4-0.2,0.7-0.5,0.8c-0.3,0.2-0.7,0.1-1-0.1L34.8,0.5c-0.1-0.1-0.3-0.1-0.5,0s-0.2,0.2-0.2,0.4
	v21.5h5.7l0-9.4c0-0.4,0.2-0.7,0.5-0.8c0.3-0.2,0.7-0.1,1,0.1l22.1,15.8c0.1,0.1,0.2,0.1,0.3,0.1c0.1,0,0.2-0.1,0.3-0.2
	c0.1-0.1,0.1-0.2,0.1-0.3V12.9c0-0.4,0.2-0.7,0.5-0.8c0.3-0.2,0.7-0.1,1,0.1l10.2,7.3H85.6z"/>
<path id="Shape_00000150100954559841332710000016737247356304673215_" d="M104.5,0.4l-9,19.1h-0.7l-9-19.1h3.8L90,0.7l4.6,10.1
	c0.1,0.2,0.3,0.4,0.6,0.4c0.2,0,0.5-0.1,0.6-0.4l4.6-10.1l0.4-0.3H104.5z"/>
<path id="Shape_00000127735864682435254420000005787156629141168289_" d="M115,19.7c-5.7,0-9.2-4.1-9.2-9.8S109.3,0,115,0
	s9.2,4.1,9.2,9.8S120.7,19.7,115,19.7 M115,3.3c-3.5,0-5.4,2.7-5.4,6.6s1.9,6.6,5.4,6.6s5.4-2.7,5.4-6.6S118.5,3.3,115,3.3"/>
<polygon id="Shape_00000083063603378582551340000013635621117044013958_" points="132.4,19.5 129.2,19.5 128.9,19.2 128.9,0.7 
	129.2,0.4 132.4,0.4 132.7,0.7 132.7,19.2 "/>
<path id="Shape_00000047766091375761817860000007758849784944818049_" d="M150.8,13.7l0.3-0.3h3.3l0.3,0.3c-0.5,3.8-3.5,6-7.9,6
	c-6,0-9.2-4.1-9.2-9.8s3.3-9.8,9.2-9.8c4.3,0,7.3,2.2,7.9,5.7L154.3,6h-3.3l-0.3-0.3c-0.5-1.6-1.9-2.5-4.1-2.5
	c-3.8,0-5.4,2.7-5.4,6.6s1.6,6.6,5.4,6.6C148.9,16.4,150.3,15.6,150.8,13.7"/>
<polygon id="Shape_00000160890438603872873670000009199898189218993059_" points="172,19.5 159.2,19.5 158.9,19.2 158.9,0.7 
	159.2,0.4 172,0.4 172.3,0.7 172.3,3.4 172,3.7 163,3.7 162.7,3.9 162.7,7.7 163,8 171.4,8 171.7,8.3 171.7,11 171.4,11.3 163,11.3 
	162.7,11.6 162.7,15.9 163,16.2 172,16.2 172.3,16.5 172.3,19.2 "/>
<path id="Shape_00000114064636225497013130000009545105193394114202_" d="M211.5,19.7c-5.7,0-9.2-4.1-9.2-9.8s3.5-9.8,9.2-9.8
	c5.7,0,9.2,4.1,9.2,9.8S217.2,19.7,211.5,19.7 M211.5,3.3c-3.5,0-5.4,2.7-5.4,6.6s1.9,6.6,5.4,6.6c3.5,0,5.4-2.7,5.4-6.6
	S215,3.3,211.5,3.3"/>
<path id="Shape_00000166673143153989801910000017606211065626028194_" d="M230.8,19.5h-5.9l-0.3-0.3V0.7l0.3-0.3h5.9
	c6.7,0,9.2,3.5,9.2,9.6S237.6,19.5,230.8,19.5 M231.1,3.7h-2.4l-0.3,0.3v12l0.3,0.3h2.4c3.8,0,5.1-1.9,5.1-6.3S234.9,3.7,231.1,3.7"
	/>
<path id="Shape_00000005234598034068802490000002131569246881060229_" d="M197.7,19.5h-3.1l-0.3-0.3V8.6H194l-5.8,10.9h-0.7
	l-5.8-10.9h-0.3v10.6l-0.3,0.3H178l-0.3-0.3V0.7l0.3-0.3h3.2l0.3,0.3l5.8,10.9c0.1,0.2,0.3,0.3,0.6,0.3c0.2,0,0.4-0.1,0.6-0.3
	l5.8-10.9l0.3-0.3h3.2l0.3,0.3v18.6L197.7,19.5z"/>
</svg>
