<svg width="120" height="23" viewBox="0 0 120 23" fill="none" xmlns="http://www.w3.org/2000/svg">
<g clip-path="url(#clip0_223_5307)">
<path d="M21.511 0L18.4316 10.3164L15.4739 0H11.4408L8.48307 10.3164L5.40223 0H0L6.1602 17.1115H10.6087L13.4685 7.79777L16.3046 17.1115H20.7545L26.9147 0H21.511Z" fill="black"/>
<path d="M28.1117 16.6355C27.2811 16.0896 26.6403 15.3316 26.1938 14.3615C25.7458 13.3929 25.5219 12.2879 25.5219 11.0493C25.5219 9.81073 25.7503 8.7027 26.2057 7.72371C26.661 6.74621 27.3092 5.98527 28.1488 5.43793C28.9884 4.89207 29.954 4.61914 31.0457 4.61914C31.9579 4.61914 32.7396 4.81494 33.3923 5.20653C34.0435 5.59813 34.5256 6.12025 34.8341 6.77143V4.96327H39.6252V17.1116H34.8341V15.3034C34.5404 15.9383 34.0553 16.4575 33.379 16.8565C32.7026 17.2555 31.9164 17.4557 31.0205 17.4557C29.9125 17.4557 28.9424 17.1828 28.1117 16.6369M34.4069 12.8723C34.8222 12.3917 35.0299 11.785 35.0299 11.0508C35.0299 10.3165 34.8222 9.68614 34.4069 9.20554C33.9916 8.72495 33.4324 8.48465 32.7322 8.48465C32.0321 8.48465 31.5011 8.72495 31.0947 9.20554C30.6867 9.68614 30.4835 10.3017 30.4835 11.0508C30.4835 11.7999 30.6867 12.411 31.0947 12.8842C31.5026 13.3573 32.0484 13.5932 32.7322 13.5932C33.416 13.5932 33.9916 13.3529 34.4069 12.8723Z" fill="black"/>
<path d="M54.8544 4.96338V16.3063C54.8544 17.3001 54.6868 18.1797 54.353 18.9466C54.0193 19.712 53.5743 20.332 53.021 20.8037C52.4173 21.2917 51.7498 21.6432 51.0156 21.8553C50.2828 22.0675 49.3528 22.1728 48.2284 22.1728C47.1041 22.1728 46.1103 22.0749 45.3434 21.8791C44.5765 21.6833 43.9253 21.3659 43.3884 20.9253C42.9152 20.5337 42.5281 20.0502 42.2269 19.4717C41.9258 18.8932 41.7745 18.3013 41.7745 17.6991H46.5656C46.5983 18.0907 46.7496 18.3963 47.018 18.6158C47.2865 18.8353 47.69 18.9466 48.2284 18.9466C49.4507 18.9466 50.0618 18.2939 50.0618 16.9901V14.7651C49.7355 15.4178 49.2475 15.9265 48.5948 16.2929C47.9436 16.6593 47.1693 16.8432 46.2719 16.8432C43.2727 16.8432 41.7745 15.1152 41.7745 11.6605V4.96338H46.5656V11.0998C46.5656 11.8015 46.6962 12.331 46.9572 12.6885C47.2183 13.0474 47.641 13.2269 48.2284 13.2269C49.4507 13.2269 50.0618 12.3874 50.0618 10.7097V4.96338H54.8529H54.8544Z" fill="black"/>
<path d="M57.152 4.96325H61.9431V6.74768C62.2205 6.0787 62.664 5.55806 63.2751 5.18278C63.8863 4.8075 64.6398 4.62061 65.5372 4.62061C67.4433 4.62061 68.707 5.38599 69.3256 6.91826C69.6682 6.20182 70.1889 5.63964 70.8905 5.23173C71.5906 4.82382 72.3975 4.62061 73.3098 4.62061C74.8747 4.62061 75.9782 5.07302 76.622 5.97635C77.2658 6.88117 77.5876 8.11529 77.5876 9.68019V17.1116H72.6986V10.5613C72.6986 9.87598 72.5844 9.38352 72.356 9.08241C72.1276 8.7813 71.7775 8.63 71.3043 8.63C70.7985 8.63 70.4158 8.8169 70.1548 9.19218C69.8937 9.56745 69.7632 10.1771 69.7632 11.0255V17.1116H64.8742V10.5613C64.8742 9.87598 64.7644 9.38352 64.5434 9.08241C64.3239 8.7813 63.9768 8.63 63.5036 8.63C62.9815 8.63 62.5913 8.81245 62.3303 9.18031C62.0692 9.54817 61.9387 10.1623 61.9387 11.0255V17.1116H57.1476V4.96325H57.152Z" fill="black"/>
<path d="M81.4991 16.6355C80.6684 16.0896 80.0276 15.3316 79.5797 14.3615C79.1317 13.3929 78.9077 12.2879 78.9077 11.0493C78.9077 9.81073 79.1362 8.7027 79.5915 7.72371C80.0469 6.74621 80.6951 5.98527 81.5347 5.43793C82.3742 4.89207 83.3384 4.61914 84.4316 4.61914C85.3438 4.61914 86.127 4.81494 86.7782 5.20653C87.4294 5.59813 87.9114 6.12025 88.22 6.77143V4.96327H93.0111V17.1116H88.22V15.3034C87.9263 15.9383 87.4412 16.4575 86.7648 16.8565C86.0884 17.2555 85.3023 17.4557 84.4064 17.4557C83.2983 17.4557 82.3282 17.1828 81.4976 16.6369M87.7928 12.8723C88.2081 12.3917 88.4158 11.785 88.4158 11.0508C88.4158 10.3165 88.2081 9.68614 87.7928 9.20554C87.3774 8.72495 86.8197 8.48465 86.1181 8.48465C85.4165 8.48465 84.8869 8.72495 84.4805 9.20554C84.0726 9.68614 83.8694 10.3017 83.8694 11.0508C83.8694 11.7999 84.0726 12.411 84.4805 12.8842C84.8869 13.3573 85.4343 13.5932 86.1181 13.5932C86.8019 13.5932 87.3774 13.3529 87.7928 12.8723Z" fill="black"/>
<path d="M95.2865 4.96299H100.078V7.67745C100.29 6.74742 100.712 6.02356 101.349 5.50143C101.984 4.97931 102.725 4.71973 103.574 4.71973C103.882 4.71973 104.185 4.74346 104.479 4.79241V9.31503C104.071 9.25125 103.663 9.21713 103.256 9.21713C102.181 9.21713 101.383 9.52714 100.861 10.1457C100.339 10.7657 100.079 11.7269 100.079 13.0307V17.1128H95.288V4.96299H95.2865Z" fill="black"/>
<path d="M114.353 17.1115L111.053 12.0756V17.1115H106.262V0H111.053V9.75426L114.427 4.96316H119.853L115.428 10.6591L120 17.1115H114.353Z" fill="black"/>
</g>
<defs>
<clipPath id="clip0_223_5307">
<rect width="120" height="22.1726" fill="black"/>
</clipPath>
</defs>
</svg>
