<svg width="169" height="34" viewBox="0 0 169 34" fill="none" xmlns="http://www.w3.org/2000/svg">
<g clip-path="url(#clip0_811_1232)">
<path d="M64.8194 20.7509L61.3823 10.9327H58.2133L54.8075 20.7418L51.5063 10.9327H47.0576L53.1239 27.0546H56.3259L59.8437 17.6236L63.3028 27.0546H66.5049L72.573 10.9327H68.1243L64.8194 20.7509Z" fill="#555FD2"/>
<path d="M76.6854 3.32183C76.3527 3.31173 76.0216 3.37129 75.7138 3.49661C75.4059 3.62194 75.1283 3.81021 74.8989 4.0491C74.4437 4.5311 74.1904 5.16641 74.1904 5.82638C74.1904 6.48634 74.4437 7.12165 74.8989 7.60365C75.3812 8.06308 76.0244 8.31971 76.6937 8.31971C77.3629 8.31971 78.0061 8.06308 78.4884 7.60365C78.9326 7.11621 79.1785 6.48296 79.1785 5.82638C79.1785 5.16979 78.9326 4.53654 78.4884 4.0491C78.2577 3.80744 77.9774 3.6175 77.6664 3.49206C77.3554 3.36661 77.0209 3.30857 76.6854 3.32183Z" fill="#555FD2"/>
<path d="M78.9104 10.9327H74.4268V27.0546H78.9104V10.9327Z" fill="#555FD2"/>
<path d="M95.1727 11.4818C94.2093 10.884 93.0909 10.5769 91.9542 10.5982C90.7962 10.5796 89.6528 10.855 88.6328 11.3982C88.1175 11.6794 87.6467 12.0341 87.2356 12.4509V10.9309H82.8291V27.0527H87.2356V17.8073C87.2266 17.2189 87.3714 16.6383 87.656 16.1218C87.9234 15.6353 88.327 15.2356 88.8182 14.9709C89.3377 14.697 89.919 14.5587 90.5074 14.5691C90.9372 14.5555 91.3654 14.6291 91.7654 14.7854C92.1655 14.9418 92.529 15.1775 92.8336 15.4782C93.1392 15.7852 93.3782 16.1508 93.536 16.5526C93.6939 16.9543 93.7672 17.3837 93.7516 17.8145V27.06H98.2004V16.8054C98.2025 15.7459 97.9233 14.7044 97.3907 13.7854C96.8566 12.8466 96.0942 12.0548 95.1727 11.4818Z" fill="#555FD2"/>
<path d="M113.222 12.3145C112.788 11.9141 112.3 11.5757 111.772 11.3091C110.789 10.8231 109.703 10.5775 108.605 10.5927C107.183 10.5695 105.784 10.952 104.576 11.6945C103.389 12.4352 102.419 13.4708 101.762 14.6982C101.075 16.0256 100.717 17.4958 100.717 18.9873C100.717 20.4788 101.075 21.9489 101.762 23.2763C102.419 24.5037 103.389 25.5393 104.576 26.28C105.784 27.0226 107.183 27.4051 108.605 27.3818C109.713 27.404 110.81 27.1627 111.805 26.6782C112.336 26.4112 112.825 26.0667 113.253 25.6564V27.0618H117.702V2.91998H113.222V12.3145ZM111.537 22.7763C110.885 23.1452 110.148 23.3406 109.398 23.3435C108.648 23.3463 107.909 23.1566 107.255 22.7927C106.628 22.4296 106.118 21.8965 105.786 21.2563C105.425 20.5485 105.246 19.7637 105.263 18.9709C105.248 18.1888 105.428 17.4151 105.786 16.7182C106.114 16.0819 106.616 15.5496 107.235 15.1818C107.895 14.8056 108.647 14.6169 109.409 14.6363C110.162 14.6214 110.904 14.8181 111.55 15.2036C112.162 15.5787 112.662 16.1091 112.998 16.74C113.36 17.4415 113.54 18.2214 113.521 19.0091C113.538 19.786 113.358 20.5548 112.998 21.2454C112.661 21.8795 112.156 22.4107 111.537 22.7818V22.7763Z" fill="#555FD2"/>
<path d="M125.93 14.5691C126.266 14.3691 126.773 14.2691 127.446 14.2691C128.126 14.266 128.799 14.4087 129.418 14.6873C130.064 14.9868 130.634 15.4261 131.085 15.9727L133.749 13.3018C133.046 12.384 132.11 11.667 131.036 11.2236C129.875 10.7551 128.632 10.5226 127.378 10.54C126.235 10.5135 125.099 10.724 124.042 11.1582C123.154 11.5246 122.392 12.1393 121.85 12.9273C121.325 13.7255 121.055 14.662 121.075 15.6146C121.075 16.5927 121.278 17.3933 121.683 18.0164C122.064 18.6196 122.591 19.1194 123.216 19.4709C123.839 19.8188 124.501 20.0934 125.188 20.2891L127.16 20.8564C127.694 21.0005 128.209 21.2075 128.693 21.4727C128.88 21.5693 129.036 21.7159 129.143 21.8959C129.25 22.0759 129.304 22.2821 129.299 22.4909C129.299 22.6773 129.245 22.8598 129.143 23.0167C129.042 23.1737 128.897 23.2985 128.726 23.3764C128.344 23.5873 127.793 23.6927 127.074 23.6927C126.245 23.6997 125.423 23.5401 124.657 23.2236C123.909 22.9078 123.249 22.4153 122.737 21.7891L120.067 24.4164C120.62 25.051 121.269 25.5975 121.99 26.0364C122.748 26.4986 123.572 26.8473 124.433 27.0709C125.332 27.3055 126.258 27.4228 127.188 27.42C129.146 27.42 130.696 26.9588 131.838 26.0364C132.98 25.1139 133.554 23.8618 133.559 22.28C133.559 21.3018 133.361 20.5006 132.967 19.8764C132.586 19.2662 132.067 18.7521 131.451 18.3746C130.839 17.9993 130.182 17.7024 129.495 17.4909C128.81 17.28 128.153 17.0855 127.524 16.9073C126.997 16.7695 126.488 16.5731 126.007 16.3218C125.833 16.2393 125.686 16.1088 125.584 15.946C125.483 15.7832 125.431 15.595 125.434 15.4036C125.432 15.2329 125.477 15.0648 125.564 14.9177C125.651 14.7705 125.778 14.65 125.93 14.5691Z" fill="#555FD2"/>
<path d="M148.596 11.6655C147.23 10.9181 145.691 10.5382 144.131 10.5636C142.579 10.5418 141.05 10.9276 139.699 11.6818C138.413 12.3988 137.337 13.4345 136.577 14.6873C135.804 15.9728 135.407 17.4458 135.43 18.9418C135.406 20.4352 135.79 21.9072 136.54 23.2025C137.291 24.4979 138.381 25.5687 139.695 26.3018C141.046 27.0577 142.576 27.4437 144.127 27.42C145.694 27.4447 147.24 27.059 148.609 26.3018C149.911 25.5803 150.994 24.5261 151.745 23.2491C152.513 21.9423 152.909 20.4537 152.89 18.9418C152.911 17.4417 152.51 15.9655 151.732 14.6782C150.97 13.4197 149.889 12.381 148.596 11.6655ZM147.821 21.2127C147.48 21.8505 146.966 22.3818 146.338 22.7473C145.669 23.1325 144.907 23.3287 144.134 23.3145C143.376 23.3282 142.629 23.1317 141.977 22.7473C141.355 22.3782 140.847 21.8475 140.508 21.2127C140.165 20.5162 139.987 19.7514 139.987 18.9764C139.987 18.2014 140.165 17.4366 140.508 16.74C140.844 16.1071 141.353 15.5805 141.977 15.22C142.457 14.9323 142.991 14.7432 143.546 14.664C144.102 14.5848 144.667 14.6171 145.21 14.7589C145.752 14.9007 146.261 15.1492 146.704 15.4895C147.148 15.8299 147.518 16.2552 147.792 16.74C148.171 17.4246 148.361 18.1959 148.343 18.9764C148.359 19.7532 148.18 20.5219 147.821 21.2127Z" fill="#555FD2"/>
<path d="M166.46 10.9818C165.78 10.7143 165.052 10.5838 164.32 10.5982C162.499 10.5982 161.106 11.1709 160.141 12.3164C160.128 12.3309 160.119 12.3473 160.106 12.36V10.9309H155.687V27.0527H160.102V18.1745C160.102 16.9503 160.4 16.0491 160.996 15.4709C161.302 15.1801 161.665 14.9534 162.061 14.8044C162.458 14.6554 162.88 14.5871 163.304 14.6036C163.711 14.5966 164.116 14.6581 164.501 14.7854C164.85 14.9074 165.159 15.1204 165.395 15.4018L168.15 12.2309C167.688 11.694 167.111 11.2671 166.46 10.9818Z" fill="#555FD2"/>
<path d="M39.8268 16.32C41.3437 16.32 42.5735 15.1022 42.5735 13.6C42.5735 12.0978 41.3437 10.88 39.8268 10.88C38.3098 10.88 37.0801 12.0978 37.0801 13.6C37.0801 15.1022 38.3098 16.32 39.8268 16.32Z" fill="#FAC473"/>
<path d="M28.1978 20.7457C28.1978 20.7457 24.9719 28.2711 20.7618 28.2711C16.5518 28.2711 16.5151 22.7348 16.5151 22.7348C16.5151 22.7348 13.6968 28.3293 9.90539 28.3293C6.44998 28.3293 5.82756 24.8511 5.82756 24.0239C5.82756 19.753 9.46841 11.8893 8.33008 10.762C7.97939 10.4148 6.15254 12.9439 4.36058 16.9548L1.11447 15.682C1.11447 15.682 4.33487 7.23295 8.29519 7.23295C11.4421 7.23295 12.0058 9.92568 12.0058 11.853C12.0058 15.3402 7.95552 24.8602 9.87051 24.8602C12.1233 24.8602 15.5181 17.1711 16.2489 15.6293C16.6161 14.8548 17.2458 14.582 17.9747 14.5802C18.5531 14.5802 19.5519 15.2239 19.5831 16.1948C19.6198 17.2748 19.7098 24.7766 20.7655 24.7766C22.1517 24.7766 24.7809 19.7584 24.7809 19.7584C24.7809 19.7584 21.5936 18.2548 21.5936 13.5966C21.6027 9.22386 24.41 7.40568 26.6794 7.40568C28.9487 7.40568 31.33 9.13114 31.1501 12.6093C31.0657 14.2148 29.8172 17.2202 29.8172 17.2202C29.8172 17.2202 32.0406 17.1911 34.3338 14.9966V9.57841C34.3338 7.0386 33.315 4.60282 31.5014 2.8069C29.6879 1.01098 27.2282 0.00204468 24.6634 0.00204468H9.67038C7.10563 0.00204468 4.64594 1.01098 2.83239 2.8069C1.01884 4.60282 0 7.0386 0 9.57841V24.4239C0 26.9637 1.01884 29.3995 2.83239 31.1954C4.64594 32.9913 7.10563 34.0002 9.67038 34.0002H24.6634C27.2282 34.0002 29.6879 32.9913 31.5014 31.1954C33.315 29.3995 34.3338 26.9637 34.3338 24.4239C34.3338 24.4239 34.3173 20.2293 34.3044 19.1511C33.4121 19.7457 31.8184 20.533 29.4298 20.7402C29.0195 20.7648 28.6082 20.7667 28.1978 20.7457Z" fill="#565FCF"/>
<path d="M26.5636 10.86C26.1523 10.86 25.0947 11.4527 25.0947 13.56C25.0947 15.6673 26.2624 16.5836 26.2624 16.5836C26.2624 16.5836 27.6597 13.7727 27.6597 12.4491C27.6597 11.1254 26.9803 10.86 26.5636 10.86Z" fill="#565FCF"/>
</g>
<defs>
<clipPath id="clip0_811_1232">
<rect width="168.162" height="34" fill="white"/>
</clipPath>
</defs>
</svg>
