<svg id="Layer_1" data-name="Layer 1" xmlns="http://www.w3.org/2000/svg" xmlns:xlink="http://www.w3.org/1999/xlink" viewBox="0 0 397.56 138.42"><defs><style>.cls-1{fill:url(#linear-gradient);}.cls-2{fill:url(#linear-gradient-2);}.cls-3{fill:url(#linear-gradient-3);}.cls-4{fill:url(#linear-gradient-4);}.cls-5{fill:url(#linear-gradient-5);}</style><linearGradient id="linear-gradient" x1="115.45" y1="362.91" x2="235.09" y2="362.91" gradientUnits="userSpaceOnUse"><stop offset="0" stop-color="#ff6c85"/><stop offset="1" stop-color="#f33ef7"/><stop offset="1" stop-color="#772cfc"/></linearGradient><linearGradient id="linear-gradient-2" x1="187.2" y1="383.24" x2="267.01" y2="383.24" gradientUnits="userSpaceOnUse"><stop offset="0" stop-color="#f95aae"/><stop offset="0.09" stop-color="#f33ef7"/></linearGradient><linearGradient id="linear-gradient-3" x1="295.21" y1="382.94" x2="387.05" y2="382.94" gradientUnits="userSpaceOnUse"><stop offset="0" stop-color="#f33ef7"/><stop offset="1" stop-color="#af33fe"/></linearGradient><linearGradient id="linear-gradient-4" x1="377.85" y1="363.7" x2="486.03" y2="363.7" gradientUnits="userSpaceOnUse"><stop offset="0" stop-color="#af33fe"/><stop offset="0.38" stop-color="#ad33fe"/><stop offset="0.59" stop-color="#a432fe"/><stop offset="0.77" stop-color="#9730fd"/><stop offset="0.92" stop-color="#832efc"/><stop offset="0.99" stop-color="#772cfc"/></linearGradient><linearGradient id="linear-gradient-5" x1="440.53" y1="383.24" x2="513.01" y2="383.24" gradientUnits="userSpaceOnUse"><stop offset="0.39" stop-color="#af33fe"/><stop offset="0.44" stop-color="#9c31fd"/><stop offset="0.5" stop-color="#8b2ffd"/><stop offset="0.58" stop-color="#802dfc"/><stop offset="0.69" stop-color="#792cfc"/><stop offset="1" stop-color="#772cfc"/></linearGradient></defs><text x="-115.45" y="-284.73"/><path class="cls-1" d="M232.29,315.9q2.79,6.18,2.79,15.25A77.09,77.09,0,0,1,234,346.52q-1.58,7.5-3.39,14.88a148.16,148.16,0,0,1-10.53,28.68,64.58,64.58,0,0,1-15.73,20.57q-9.19,8-19.84,8-12.1,0-18-12.46-11.61,12.34-23.11,12.34-10.53,0-15.85-7.86-5.33-8.11-5.33-20.45a91.56,91.56,0,0,1,1.46-14.64q1.94-10.05,3-14.77,1.34-5.57,4.36-17.18,2.89-10.28,3.75-14v-.25q2.89-11.13-2.18-11.13a4.93,4.93,0,0,0-3.81,1.88,10.27,10.27,0,0,0-2.24,4.78,6.38,6.38,0,0,1-2.18,3.32,5.52,5.52,0,0,1-4.11,1.52,4.73,4.73,0,0,1-4-2.36,6.7,6.7,0,0,1-.61-4.9,24.28,24.28,0,0,1,2.3-5.81,19.21,19.21,0,0,1,5.69-6.29,15.06,15.06,0,0,1,9.19-3.15q6.66,0,10.29,3.63,5.81,5.56,2.9,19.72l-3.75,14.4-4.48,16.94c-1,3.87-2,8.76-3,14.64a82.56,82.56,0,0,0-1.45,13.56q0,17.3,10,17.3,4.59,0,10-4.12a41.47,41.47,0,0,0,9.5-10.4A77,77,0,0,1,161,371.68a85.85,85.85,0,0,1,2.9-18.87A33.18,33.18,0,0,1,171,339.26q4.71-5.2,10.65-5.21,10.4,0,10.16,15.13-.24,14.88-8.59,32.91a72,72,0,0,1-8.11,14q3,11.37,10.29,11.37,10.64,0,19.84-13.79,9.44-14,14.88-35,6.9-27,2.18-37.88-2.3-5.19,1.94-7.62c.88-.89,2.24-1.11,4.05-.66A5.93,5.93,0,0,1,232.29,315.9Zm-52.15,30.62c-1.37,0-2.86,2-4.47,6.05a64.91,64.91,0,0,0-3.75,14.88,57.58,57.58,0,0,0-.37,16.09,120.47,120.47,0,0,0,7.87-22.75Q183.05,346.53,180.14,346.52Z" transform="translate(-115.45 -284.73)"/><path class="cls-2" d="M275.37,348a15.11,15.11,0,0,1,12.46,6.17q4.85,6,4.84,15.85a62.11,62.11,0,0,1-.72,10l.36-.12q3.63-.36,7.26-7.14a5.28,5.28,0,0,1,4.84-3.14,5.38,5.38,0,0,1,4.9,2.66,5.18,5.18,0,0,1,.18,5.44Q304.9,386.8,298.84,390a22.87,22.87,0,0,1-5.08,2.3c-3.31.89-5.28,1.42-5.93,1.58a65.4,65.4,0,0,1-3.26,6.05,39.17,39.17,0,0,1-12.47,13.79,28.15,28.15,0,0,1-15.73,4.84q-11.37,0-18.15-7.26t-7.74-19.6A38.81,38.81,0,0,1,232.54,376a47.77,47.77,0,0,1,7.26-14,47,47,0,0,1,6.89-7.26,5.81,5.81,0,0,1,3.63-1.33c3.47,0,5.21,1.62,5.21,4.84a6.48,6.48,0,0,1-1.7,4.12,74,74,0,0,0-5.08,6.77q-7.86,11.63-6.66,22.63.85,7.38,4.54,11.49a12.44,12.44,0,0,0,9.74,4.12,18.08,18.08,0,0,0,10.29-3.27,24.42,24.42,0,0,0,8-9.44l.73-1.57a3.61,3.61,0,0,0-.79-.24l-1.27-.3a5.84,5.84,0,0,1-1-.31A23.93,23.93,0,0,1,260.67,384a21.45,21.45,0,0,1-4.3-13.31,24.31,24.31,0,0,1,5.45-16.1Q267.39,348,275.37,348Zm.12,11a7.52,7.52,0,0,0-5.69,3.45,13.69,13.69,0,0,0-2.29,8.16q0,9.81,11,11.74a3.82,3.82,0,0,1,.6.12,3.47,3.47,0,0,0,.61.12,44.77,44.77,0,0,0,1.81-12.46,16.61,16.61,0,0,0-1.69-8.11C278.72,360,277.26,359,275.49,359Z" transform="translate(-115.45 -284.73)"/><path class="cls-3" d="M378.22,360.67A119.08,119.08,0,0,1,375,380.52h.61a3.49,3.49,0,0,0,2.54-.85,5.76,5.76,0,0,1,3.38-1.21,5.31,5.31,0,0,1,4,1.63,5.46,5.46,0,0,1,1.57,3.94,5.16,5.16,0,0,1-2.18,4.47,15.43,15.43,0,0,1-9.44,3.15h-4a55.57,55.57,0,0,1-11.19,18.63q-7.44,8.24-17.12,8.23a19.87,19.87,0,0,1-9.2-2.18,13.41,13.41,0,0,1-6.05-5.68,25.17,25.17,0,0,1-7.44,5.62,19.3,19.3,0,0,1-8.77,2.24q-7.87,0-12.16-5.87t-4.3-15.3q0-9.57,3.75-22.27A121.8,121.8,0,0,1,308,352.2a5.62,5.62,0,0,1,9.8-.3,5.16,5.16,0,0,1,.12,5.38,125.57,125.57,0,0,0-8.23,20.7q-3.51,12-3.51,19.6a14.06,14.06,0,0,0,1.58,7.08q1.56,2.71,3.75,2.72a11,11,0,0,0,6.05-2.24,18.67,18.67,0,0,0,5.68-6.72,20.24,20.24,0,0,0,2.18-5.2c.16-.48.47-1.45.91-2.9s.7-2.34.79-2.66l6.77-22.51a5.59,5.59,0,0,1,5.33-3.51,5,5,0,0,1,4.35,2.24,5.69,5.69,0,0,1,1,4.78L337.68,392a29.63,29.63,0,0,0-1.09,8q0,7.38,5.93,7.38,5.44,0,10.65-6.17A45.42,45.42,0,0,0,360.92,388a14.31,14.31,0,0,1-7.14-6.41,17,17,0,0,1-2.67-8.72,35.43,35.43,0,0,1,4.36-17.66q4.35-7.87,12.1-7.87a9.5,9.5,0,0,1,7.86,3.87A13.85,13.85,0,0,1,378.22,360.67Zm-10.41,1.45c0-2.42-.44-3.63-1.33-3.63-1.21,0-2.34,1.38-3.39,4.12a21.52,21.52,0,0,0-1.81,7.74,8.22,8.22,0,0,0,3.51,7.26Q367.81,367.81,367.81,362.12Z" transform="translate(-115.45 -284.73)"/><path class="cls-4" d="M438.84,318.93a36.75,36.75,0,0,0,16.21,3.51q13.44,0,22.39-5.69a6.21,6.21,0,0,1,3-1.09,5.24,5.24,0,0,1,4,1.69,5.56,5.56,0,0,1,1.58,3.88,5.38,5.38,0,0,1-2.54,4.72q-11.39,7.62-28.44,7.62a50.71,50.71,0,0,1-21.17-4.6,70.67,70.67,0,0,0-31.34-7.38,19.45,19.45,0,0,0-9.74,2.18C390.26,325.22,389,327,389,329q0,3.75,5,6.6a24,24,0,0,0,12.1,2.84,57,57,0,0,0,21.29-4.36c2.91-1.21,4.76-1.77,5.57-1.69a5.07,5.07,0,0,1,4.17,2.48,5.4,5.4,0,0,1,.31,4.54l-26,73.69a5.55,5.55,0,0,1-1.94,2.72,5.13,5.13,0,0,1-3.26,1.15,5.37,5.37,0,0,1-2.91-.85,5.15,5.15,0,0,1-2.17-2.78,6,6,0,0,1,0-4.12l22-62.67a22.31,22.31,0,0,1-2.91.84l-4.11,1.09a50.8,50.8,0,0,1-10,1q-12.23,0-20.09-5.2-8.1-5.21-8.11-15.25a15.42,15.42,0,0,1,7.38-13.67,31.06,31.06,0,0,1,17.43-4.84A82.8,82.8,0,0,1,438.84,318.93Z" transform="translate(-115.45 -284.73)"/><path class="cls-5" d="M502.72,370.23a53.45,53.45,0,0,1-.72,9.92,8.88,8.88,0,0,0,2.18-1.09,4.42,4.42,0,0,1,3.26-1.21,5.6,5.6,0,0,1,5.57,5.57,4.43,4.43,0,0,1-1.82,4q-4.35,4.13-13.31,6.42a46.52,46.52,0,0,1-12.46,17.42,27.87,27.87,0,0,1-19,7.26q-12.59,0-19.24-8.47t-6.65-21.17A45.53,45.53,0,0,1,449.85,362q6.76-8.58,10.52-8.59a5.29,5.29,0,0,1,3.81,1.33,4.64,4.64,0,0,1,1.4,3.51,6.18,6.18,0,0,1-1.7,4.12,48,48,0,0,0-5.08,6.77,33.62,33.62,0,0,0-4.6,8.71A29.44,29.44,0,0,0,452,388.26a25.59,25.59,0,0,0,3.39,13.55q3.39,5.56,11,5.57,12.22,0,19.24-14.16a22.75,22.75,0,0,1-14-8,21.65,21.65,0,0,1-5.09-13.92,25.13,25.13,0,0,1,5.33-16.58q5.69-6.76,13.79-6.77a14.22,14.22,0,0,1,12.59,6.53Q502.72,360.92,502.72,370.23ZM485.54,359.1a7,7,0,0,0-5.75,3.51,15.07,15.07,0,0,0-2.11,8.83,10.13,10.13,0,0,0,3.44,7.44,13.37,13.37,0,0,0,8.66,3.69,45,45,0,0,0,1.81-12.46,18.64,18.64,0,0,0-1.75-8.35C488.75,359.75,487.31,358.86,485.54,359.1Z" transform="translate(-115.45 -284.73)"/></svg>