<svg width="427" height="122" fill="none" xmlns="http://www.w3.org/2000/svg"><g clip-path="url(#clip0_1264_50459)" fill="#211F1E"><path d="M59.85 94.17L33.93 67.86 8.14 94.17a.77.77 0 01-1 0l-6.9-6.9a.79.79 0 010-1l25.79-26.44L.46 33.87a.79.79 0 010-1l7.17-7.3a.79.79 0 011 0l25.53 25.92L59.43 25.7a.79.79 0 011 0l6.9 6.91a.77.77 0 010 1L42.14 59.57l25.92 26.31a.79.79 0 010 1l-7.17 7.29a.77.77 0 01-1.04 0zm12.63-34.25c0-21.36 15.9-35.43 34-35.43s33.21 13.68 33.21 33.35c0 1.82-.13 3.9-.26 5.21a.703.703 0 01-.65.65H84.99c1.56 12.24 10 20.45 21.88 20.45 7.95 0 15.37-3 18.76-10.55a.693.693 0 01.52-.4h10.68a.722.722 0 01.65.92c-3.39 13.28-16 21-30.61 21-20.45-.03-34.39-15.14-34.39-35.2zm54.84-6.35c-.65-8.86-8.6-18.11-20.84-18.11-9.9 0-19 6.39-21.23 18.11h42.07zm21.75 39.17v-65.9a.618.618 0 01.177-.473.618.618 0 01.473-.177h10.29a.614.614 0 01.613.394c.03.082.043.17.037.256v7.81h.26c3.52-5.73 10.42-10.16 19.67-10.16A23.75 23.75 0 01202.08 37c4.43-8.34 12.9-12.51 21.89-12.51 13.93 0 25.66 9.9 25.66 24.62v43.63a.63.63 0 01-.403.612.62.62 0 01-.257.038h-10.68a.613.613 0 01-.613-.394.618.618 0 01-.037-.256V53.57c0-10.94-7-18.11-16.15-18.11-9.15 0-16.15 7.11-16.15 18.11v39.2a.618.618 0 01-.177.473.62.62 0 01-.473.177h-10.68a.613.613 0 01-.613-.394.618.618 0 01-.037-.256v-39.2c0-10.94-7-18.11-16.15-18.11-9.15 0-16.15 7.11-16.15 18.11v39.2a.63.63 0 01-.403.612.62.62 0 01-.257.038h-10.68a.605.605 0 01-.485-.187.619.619 0 01-.165-.493zm125.17-8.33h-.26v8.33a.617.617 0 01-.177.473.616.616 0 01-.473.177h-10.29a.613.613 0 01-.613-.394.617.617 0 01-.037-.256V.66a.618.618 0 01.65-.66h10.68a.618.618 0 01.65.66v35.68h.26a29.002 29.002 0 0123.84-11.85c18 0 31.65 14.46 31.65 35 0 21-14.07 35.56-32.17 35.56-10.03.04-19.32-3.74-23.71-10.64zm21.76-.26c12.24 0 21.88-9.77 21.88-24.49 0-14.33-9.25-24.23-21.62-24.23-11.34 0-22 8-22 24.23S284.92 84.15 296 84.15zm44.02-3.39V.66a.618.618 0 01.65-.66h10.68a.618.618 0 01.65.66v77.75c0 3.91 2.09 4.56 4.82 4.56h4.3a.61.61 0 01.65.65v9.12a.617.617 0 01-.177.473.616.616 0 01-.473.177h-7.29c-7.3 0-13.81-2.82-13.81-12.63zm30.48 39.73v-9.64a.613.613 0 01.177-.473.616.616 0 01.473-.177h8.86c4.17 0 7.29-.66 8.86-3l.52-.78a8.625 8.625 0 001-4.17c0-2.34-.78-5.21-2.34-9.38l-24-65.64c-.13-.52.13-1 .65-1h10.93a1.151 1.151 0 011.3.78l15 42.2c1.56 4.3 3.78 9.64 4.95 15.5h.26c1.17-5.86 3.13-11.07 4.43-15.5l12.9-42.07c.26-.65.52-.91 1-.91h10.26a.734.734 0 01.785.562.732.732 0 01-.005.348l-24.75 77.76c-4 12.5-9 16.28-19 16.28h-11.6a.615.615 0 01-.636-.419.621.621 0 01-.024-.271z"/></g><defs><clipPath id="clip0_1264_50459"><path fill="#fff" d="M0 0h426.53v121.13H0z"/></clipPath></defs></svg>