<?xml version="1.0" encoding="utf-8"?>
<!-- Generator: Adobe Illustrator 25.3.0, SVG Export Plug-In . SVG Version: 6.00 Build 0)  -->
<svg version="1.1" id="Ebene_1" xmlns="http://www.w3.org/2000/svg" xmlns:xlink="http://www.w3.org/1999/xlink" x="0px" y="0px"
	 width="40.5px" height="23px" viewBox="0 0 40.5 23" enable-background="new 0 0 40.5 23" xml:space="preserve">
<polygon fill="#C3CC23" points="23.7,6.2 29,0 23.9,0 21.1,3.2 "/>
<polygon fill="#020203" points="17.7,7.2 11.5,0 16.7,0 29.9,15.4 24.7,15.4 20.3,10.2 15.8,15.4 10.7,15.4 "/>
<g>
	<path fill="#020203" d="M1.4,19.5L0,17.7h1.1l0.8,1.1l0.8-1.1h1.1l-1.4,1.9l1.3,1.8H2.7l-0.8-1.1l-0.8,1.1H0L1.4,19.5z"/>
</g>
<g>
	<path fill="#C3CC23" d="M4.3,17.7h1.6c0.4,0,0.7,0.1,0.8,0.2S7,18.2,7,18.6v0.6H6v-0.5c0-0.1,0-0.2-0.1-0.3c-0.1,0-0.2-0.1-0.3-0.1
		H5.3v3h-1V17.7z"/>
	<path fill="#C3CC23" d="M11.2,19.5c0,0.6-0.2,1-0.5,1.4c-0.4,0.3-0.8,0.5-1.4,0.5s-1.1-0.2-1.4-0.5c-0.4-0.3-0.5-0.8-0.5-1.4
		c0-0.6,0.2-1,0.5-1.4c0.4-0.3,0.8-0.5,1.4-0.5c0.6,0,1.1,0.2,1.4,0.5C11.1,18.5,11.2,18.9,11.2,19.5z M8.3,19.5
		c0,0.4,0.1,0.6,0.2,0.8c0.2,0.2,0.4,0.3,0.7,0.3c0.3,0,0.5-0.1,0.7-0.3s0.2-0.5,0.2-0.8s-0.1-0.6-0.2-0.8c-0.2-0.2-0.4-0.3-0.7-0.3
		c-0.3,0-0.5,0.1-0.7,0.3C8.4,18.9,8.3,19.1,8.3,19.5z"/>
	<path fill="#C3CC23" d="M11.9,17.7h2c0.5,0,0.9,0.1,1.1,0.3c0.3,0.2,0.4,0.6,0.4,1v2.3h-2.6c-0.4,0-0.6-0.1-0.8-0.3
		s-0.3-0.4-0.3-0.8c0-0.4,0.1-0.7,0.3-0.9c0.2-0.2,0.6-0.3,1.1-0.3h1.3V19c0-0.2-0.1-0.4-0.2-0.5c-0.1-0.1-0.4-0.1-0.7-0.1h-1.6
		V17.7z M13.2,20.6h1.2v-0.8h-1.1c-0.2,0-0.4,0-0.5,0.1c-0.1,0.1-0.1,0.2-0.1,0.3c0,0.1,0,0.2,0.1,0.3S13,20.6,13.2,20.6z"/>
	<path fill="#C3CC23" d="M19.7,21.3h-1.9c-0.6,0-1-0.2-1.3-0.5S16,20,16,19.4c0-0.2,0-0.5,0.1-0.7c0.1-0.2,0.2-0.4,0.3-0.6
		c0.2-0.2,0.4-0.3,0.6-0.4c0.2-0.1,0.5-0.1,0.9-0.1h0.8v-1.3h1V21.3z M18.7,20.5v-2.1h-0.6c-0.4,0-0.7,0.1-0.8,0.2S17,19.1,17,19.5
		c0,0.4,0.1,0.6,0.2,0.8c0.2,0.2,0.4,0.2,0.8,0.2H18.7z"/>
</g>
<g>
	<path fill="#020203" d="M20.5,17.7h3.7c0.5,0,0.9,0.1,1.2,0.3s0.4,0.6,0.4,1v2.3h-1v-2.2c0-0.3,0-0.4-0.1-0.5
		c-0.1-0.1-0.3-0.1-0.5-0.1h-0.5v2.9h-1v-2.9h-1.1v2.9h-1V17.7z"/>
	<path fill="#020203" d="M28.3,21.3c-0.6,0-1.1-0.2-1.4-0.5c-0.3-0.3-0.5-0.8-0.5-1.4s0.2-1.1,0.5-1.4c0.3-0.3,0.8-0.5,1.4-0.5h1.4
		v0.8h-1.3c-0.4,0-0.6,0-0.7,0.1c-0.1,0.1-0.2,0.3-0.2,0.5h2.2v0.8h-2.2c0,0.3,0.1,0.4,0.2,0.5s0.4,0.1,0.7,0.1h1.3v0.8H28.3z"/>
	<path fill="#020203" d="M33.8,21.3h-1.9c-0.6,0-1-0.2-1.3-0.5s-0.5-0.8-0.5-1.4c0-0.2,0-0.5,0.1-0.7c0.1-0.2,0.2-0.4,0.3-0.6
		c0.2-0.2,0.4-0.3,0.6-0.4c0.2-0.1,0.5-0.1,0.9-0.1h0.8v-1.3h1V21.3z M32.8,20.5v-2.1h-0.6c-0.4,0-0.7,0.1-0.8,0.2s-0.2,0.4-0.2,0.8
		c0,0.4,0.1,0.6,0.2,0.8c0.2,0.2,0.4,0.2,0.8,0.2H32.8z"/>
	<path fill="#020203" d="M35.6,17.2h-1v-0.9h1V17.2z M35.6,21.3h-1v-3.7h1V21.3z"/>
	<path fill="#020203" d="M36.5,17.7h2c0.5,0,0.9,0.1,1.1,0.3c0.3,0.2,0.4,0.6,0.4,1v2.3h-2.6c-0.4,0-0.6-0.1-0.8-0.3
		s-0.3-0.4-0.3-0.8c0-0.4,0.1-0.7,0.3-0.9c0.2-0.2,0.6-0.3,1.1-0.3H39V19c0-0.2-0.1-0.4-0.2-0.5c-0.1-0.1-0.4-0.1-0.7-0.1h-1.6V17.7
		z M37.8,20.6H39v-0.8h-1.1c-0.2,0-0.4,0-0.5,0.1c-0.1,0.1-0.1,0.2-0.1,0.3c0,0.1,0,0.2,0.1,0.3S37.6,20.6,37.8,20.6z"/>
</g>
<g>
</g>
<g>
</g>
<g>
</g>
<g>
</g>
<g>
</g>
<g>
</g>
</svg>
