<svg width="120" height="44" viewBox="0 0 120 44" fill="none" xmlns="http://www.w3.org/2000/svg">
<g clip-path="url(#clip0_284_8295)">
<path fill-rule="evenodd" clip-rule="evenodd" d="M120 7.54617C120 6.90114 119.494 6.36916 118.849 6.33712C107.353 5.76746 13.3246 1.10526 1.2706 0.507333C0.9396 0.491003 0.616141 0.610965 0.376217 0.839584C0.135664 1.0682 0 1.38538 0 1.71638V36.4527C0 37.0977 0.506228 37.6297 1.15063 37.6617C12.6469 38.232 106.675 42.8942 118.729 43.4915C119.06 43.5079 119.384 43.3879 119.624 43.1593C119.864 42.9307 120 42.6141 120 42.2825V7.54617Z" fill="#F15D61"/>
<path d="M15.6497 26.4539L22.3431 12.5414V10.1101L11.7883 9.58691V12.9333L18.0527 13.2436L11.3311 27.1837V29.5867L22.4863 30.1394V26.793L15.6497 26.4539Z" fill="white"/>
<path d="M30.8103 30.8669C34.6434 31.0572 36.9886 28.7421 36.9886 24.5372V10.8364L33.3276 10.6548V24.3557C33.3276 26.5012 32.4125 27.5425 30.8103 27.4634C29.2087 27.3842 28.2929 26.2518 28.2929 24.1063V10.4049L24.6602 10.2246V23.9261C24.6602 28.131 27.0054 30.6785 30.8103 30.8669Z" fill="white"/>
<path d="M49.7171 21.2216C50.8615 20.392 51.5479 18.8525 51.5479 17.136C51.5479 13.7607 49.4024 11.4519 46.2564 11.2962L40.3927 11.0054V31.0278L46.4279 31.3267C49.8886 31.4982 52.2627 29.3276 52.2627 25.7526C52.2627 23.8074 51.3187 22.1016 49.7171 21.2216ZM45.7125 14.5873C47.2569 14.6639 47.9723 15.5005 47.9723 17.1021C47.9723 18.7037 47.2569 19.5836 45.8268 19.5126L43.9105 19.4178V14.4981L45.7125 14.5873ZM45.884 27.9822L43.9105 27.8843V22.707L45.8557 22.8038C47.6294 22.8917 48.6588 23.8294 48.6588 25.5742C48.6588 27.319 47.7148 28.0733 45.884 27.9822Z" fill="white"/>
<path d="M64.7337 12.2118L53.0635 11.6333V14.9797L57.0963 15.18V31.8561L60.7009 32.0344V15.3584L64.7337 15.5588V12.2118Z" fill="white"/>
<path d="M66.8505 12.3169V32.3399L70.3689 32.5139V12.4915L66.8505 12.3169Z" fill="white"/>
<path d="M84.3562 13.1849L72.6859 12.6064V15.9528L76.7188 16.1532V32.8292L80.3227 33.0076V16.3316L84.3562 16.5319V13.1849Z" fill="white"/>
<path d="M89.9906 30.1402V13.4642L86.4728 13.2896V33.3126L96.2551 33.7975V30.4511L89.9906 30.1402Z" fill="white"/>
<path d="M101.833 30.7558V25.5215L107.839 25.8192V22.616L101.833 22.3183V17.3697L108.383 17.6944V14.3763L98.3145 13.877V33.9L108.669 34.4131V31.095L101.833 30.7558Z" fill="white"/>
</g>
<defs>
<clipPath id="clip0_284_8295">
<rect width="120" height="42.9873" fill="white" transform="translate(0 0.506348)"/>
</clipPath>
</defs>
</svg>
